<?xml version="1.0" encoding="UTF-8"?>
<svg xmlns="http://www.w3.org/2000/svg" xmlns:xlink="http://www.w3.org/1999/xlink" width="30pt" height="29pt" viewBox="0 0 30 29" version="1.1">
<g id="surface1">
<path style=" stroke:none;fill-rule:nonzero;fill:rgb(38.431373%,32.156863%,25.098039%);fill-opacity:1;" d="M 30 14.5 C 30 22.503906 23.28125 29 15 29 C 6.71875 29 0 22.503906 0 14.5 C 0 6.496094 6.71875 0 15 0 C 23.28125 0 30 6.496094 30 14.5 Z M 30 14.5 "/>
<path style=" stroke:none;fill-rule:nonzero;fill:rgb(96.078431%,92.156863%,89.803922%);fill-opacity:1;" d="M 21.589844 16.691406 C 21.496094 16.480469 21.402344 16.285156 21.339844 16.171875 C 21.148438 15.835938 20.914062 15.527344 20.640625 15.246094 C 20.214844 14.8125 19.707031 14.457031 19.144531 14.199219 C 18.933594 14.097656 18.710938 14.007812 18.488281 13.9375 C 18.617188 13.871094 18.738281 13.800781 18.859375 13.726562 C 19.328125 13.441406 19.734375 13.070312 20.058594 12.632812 C 20.386719 12.195312 20.628906 11.707031 20.78125 11.1875 C 20.945312 10.628906 21.027344 10.050781 21.023438 9.472656 C 21.035156 8.738281 20.894531 8.007812 20.609375 7.324219 C 20.335938 6.691406 19.910156 6.128906 19.367188 5.6875 C 18.78125 5.230469 18.109375 4.890625 17.386719 4.691406 C 16.535156 4.453125 15.652344 4.339844 14.765625 4.351562 C 14.0625 4.347656 13.359375 4.410156 12.671875 4.539062 C 12.09375 4.648438 11.527344 4.800781 10.972656 5 C 10.542969 5.152344 10.128906 5.34375 9.730469 5.566406 C 9.367188 5.785156 9.167969 5.917969 9.046875 6.03125 L 9.039062 6.039062 C 8.925781 6.136719 8.828125 6.253906 8.75 6.378906 C 8.6875 6.496094 8.636719 6.617188 8.601562 6.742188 C 8.601562 6.742188 8.601562 6.742188 8.601562 6.746094 C 8.558594 6.902344 8.535156 7.066406 8.523438 7.226562 C 8.511719 7.402344 8.507812 7.605469 8.507812 7.859375 C 8.503906 8.113281 8.515625 8.367188 8.542969 8.621094 C 8.558594 8.792969 8.59375 8.96875 8.648438 9.132812 L 8.65625 9.148438 C 8.714844 9.308594 8.828125 9.449219 8.976562 9.539062 C 9.101562 9.613281 9.25 9.648438 9.394531 9.648438 C 9.601562 9.648438 9.835938 9.558594 10.179688 9.351562 C 10.433594 9.203125 10.738281 9.035156 11.082031 8.863281 C 11.464844 8.675781 11.859375 8.519531 12.265625 8.390625 C 12.695312 8.25 13.148438 8.179688 13.601562 8.183594 C 13.960938 8.175781 14.320312 8.230469 14.660156 8.34375 L 14.664062 8.34375 C 14.832031 8.402344 14.992188 8.472656 15.144531 8.554688 C 15.472656 8.734375 16.097656 9.734375 16.230469 9.6875 C 16.363281 9.640625 16.277344 8.371094 15.449219 7.832031 C 15.292969 7.738281 15.125 7.660156 14.949219 7.605469 C 14.515625 7.457031 14.058594 7.386719 13.601562 7.398438 C 13.058594 7.394531 12.515625 7.476562 12 7.644531 C 11.558594 7.785156 11.128906 7.957031 10.710938 8.15625 L 10.707031 8.15625 C 10.34375 8.339844 10.023438 8.515625 9.75 8.675781 C 9.644531 8.746094 9.535156 8.800781 9.417969 8.84375 C 9.390625 8.746094 9.371094 8.640625 9.359375 8.535156 C 9.339844 8.363281 9.332031 8.132812 9.332031 7.855469 C 9.332031 7.621094 9.332031 7.429688 9.34375 7.273438 C 9.351562 7.167969 9.367188 7.058594 9.394531 6.953125 C 9.414062 6.886719 9.4375 6.824219 9.472656 6.761719 L 9.476562 6.753906 C 9.515625 6.699219 9.5625 6.644531 9.617188 6.601562 C 9.789062 6.46875 9.972656 6.347656 10.164062 6.242188 C 10.511719 6.046875 10.882812 5.875 11.261719 5.738281 C 11.773438 5.558594 12.300781 5.417969 12.832031 5.316406 C 13.46875 5.195312 14.117188 5.140625 14.765625 5.144531 C 15.570312 5.132812 16.375 5.234375 17.152344 5.449219 C 17.765625 5.621094 18.34375 5.910156 18.84375 6.296875 C 19.285156 6.65625 19.636719 7.117188 19.855469 7.636719 C 20.101562 8.21875 20.222656 8.84375 20.210938 9.472656 C 20.214844 9.976562 20.144531 10.480469 20 10.964844 C 19.875 11.394531 19.671875 11.804688 19.398438 12.167969 C 19.398438 12.171875 19.398438 12.171875 19.398438 12.171875 C 19.132812 12.527344 18.800781 12.832031 18.414062 13.066406 C 17.988281 13.324219 17.519531 13.515625 17.027344 13.625 C 16.84375 13.667969 16.714844 13.828125 16.714844 14.007812 L 16.714844 14.054688 C 16.714844 14.253906 16.871094 14.425781 17.074219 14.449219 C 17.671875 14.507812 18.246094 14.664062 18.789062 14.914062 C 19.257812 15.128906 19.683594 15.425781 20.042969 15.792969 C 20.382812 16.136719 20.648438 16.542969 20.824219 16.984375 C 21.011719 17.441406 21.105469 17.925781 21.101562 18.414062 C 21.101562 19.289062 20.925781 20.070312 20.585938 20.738281 C 20.25 21.398438 19.757812 21.980469 19.152344 22.429688 C 18.480469 22.914062 17.722656 23.273438 16.914062 23.488281 C 15.964844 23.738281 14.984375 23.863281 13.996094 23.855469 C 13.394531 23.855469 12.792969 23.8125 12.199219 23.722656 C 11.699219 23.644531 11.199219 23.53125 10.714844 23.386719 C 10.359375 23.285156 10.011719 23.152344 9.675781 22.984375 C 9.503906 22.90625 9.339844 22.8125 9.183594 22.703125 C 9.144531 22.671875 9.109375 22.628906 9.085938 22.582031 C 9.046875 22.492188 9.015625 22.398438 8.988281 22.304688 C 8.957031 22.164062 8.933594 22.019531 8.925781 21.875 C 8.910156 21.710938 8.90625 21.492188 8.90625 21.191406 C 8.90625 20.652344 8.964844 20.449219 8.988281 20.382812 L 9 20.363281 C 9.105469 20.402344 9.207031 20.445312 9.304688 20.5 C 9.621094 20.664062 9.949219 20.808594 10.285156 20.9375 C 10.738281 21.109375 11.199219 21.253906 11.671875 21.371094 C 12.277344 21.515625 12.898438 21.585938 13.523438 21.578125 C 14.058594 21.585938 14.589844 21.515625 15.105469 21.371094 C 15.542969 21.246094 15.953125 21.046875 16.316406 20.78125 L 16.324219 20.777344 C 16.660156 20.515625 16.925781 20.183594 17.101562 19.800781 L 17.101562 19.796875 C 17.273438 19.40625 17.355469 18.984375 17.351562 18.5625 C 17.359375 18.097656 17.257812 17.636719 17.050781 17.21875 C 16.839844 16.808594 16.527344 16.453125 16.140625 16.1875 C 15.703125 15.882812 15.210938 15.667969 14.6875 15.542969 C 14.042969 15.390625 13.382812 15.320312 12.722656 15.332031 L 11.035156 15.332031 C 10.976562 15.332031 10.917969 15.328125 10.859375 15.3125 C 10.851562 15.300781 10.84375 15.289062 10.835938 15.277344 C 10.789062 15.179688 10.761719 15.074219 10.75 14.96875 C 10.726562 14.742188 10.714844 14.515625 10.71875 14.289062 C 10.714844 14.078125 10.726562 13.863281 10.75 13.652344 C 10.761719 13.558594 10.785156 13.46875 10.824219 13.382812 C 10.824219 13.378906 10.832031 13.371094 10.835938 13.363281 C 10.839844 13.355469 10.84375 13.347656 10.851562 13.339844 C 10.894531 13.324219 10.9375 13.316406 10.984375 13.316406 L 12.679688 13.316406 C 13.242188 13.328125 13.804688 13.253906 14.34375 13.101562 C 14.808594 12.972656 15.246094 12.753906 15.625 12.460938 C 15.929688 12.234375 16.175781 11.945312 16.34375 11.609375 C 16.761719 10.714844 16.390625 9.683594 16.238281 9.683594 C 16.085938 9.683594 15.90625 10.710938 15.617188 11.238281 C 15.5625 11.339844 15.5 11.433594 15.429688 11.523438 C 15.335938 11.644531 15.226562 11.753906 15.101562 11.847656 C 14.808594 12.074219 14.472656 12.242188 14.109375 12.335938 L 14.105469 12.335938 C 13.644531 12.464844 13.164062 12.527344 12.683594 12.519531 L 10.984375 12.519531 C 10.820312 12.515625 10.65625 12.546875 10.503906 12.613281 C 10.332031 12.691406 10.191406 12.824219 10.109375 12.992188 C 10.015625 13.160156 9.960938 13.347656 9.941406 13.539062 C 9.910156 13.785156 9.894531 14.035156 9.898438 14.28125 C 9.894531 14.542969 9.910156 14.804688 9.941406 15.066406 C 9.960938 15.265625 10.019531 15.460938 10.113281 15.640625 L 10.113281 15.644531 C 10.203125 15.820312 10.355469 15.957031 10.542969 16.035156 L 10.550781 16.035156 C 10.703125 16.089844 10.867188 16.117188 11.03125 16.113281 L 12.71875 16.113281 C 13.308594 16.101562 13.902344 16.167969 14.476562 16.300781 C 14.898438 16.398438 15.292969 16.570312 15.648438 16.808594 L 15.652344 16.8125 C 15.933594 17.003906 16.160156 17.257812 16.3125 17.554688 C 16.464844 17.867188 16.539062 18.207031 16.53125 18.554688 C 16.539062 18.871094 16.476562 19.191406 16.351562 19.484375 C 16.230469 19.75 16.042969 19.980469 15.808594 20.15625 C 15.527344 20.363281 15.207031 20.519531 14.867188 20.617188 C 14.429688 20.738281 13.976562 20.792969 13.523438 20.789062 C 12.96875 20.792969 12.417969 20.734375 11.882812 20.605469 C 11.445312 20.5 11.011719 20.367188 10.589844 20.207031 C 10.28125 20.089844 9.980469 19.953125 9.6875 19.804688 C 9.367188 19.636719 9.148438 19.5625 8.972656 19.5625 C 8.652344 19.5625 8.378906 19.746094 8.234375 20.066406 C 8.234375 20.070312 8.234375 20.070312 8.234375 20.074219 C 8.132812 20.308594 8.082031 20.675781 8.082031 21.191406 C 8.082031 21.511719 8.089844 21.75 8.105469 21.9375 C 8.117188 22.128906 8.148438 22.320312 8.195312 22.507812 C 8.230469 22.640625 8.277344 22.769531 8.332031 22.898438 L 8.332031 22.90625 C 8.402344 23.054688 8.507812 23.191406 8.636719 23.300781 L 8.648438 23.308594 C 8.847656 23.457031 9.066406 23.582031 9.292969 23.6875 C 9.667969 23.871094 10.058594 24.023438 10.464844 24.140625 C 10.984375 24.300781 11.519531 24.417969 12.0625 24.503906 C 12.699219 24.601562 13.347656 24.648438 13.996094 24.644531 C 15.058594 24.652344 16.113281 24.519531 17.140625 24.246094 C 18.046875 24.003906 18.898438 23.597656 19.648438 23.054688 C 20.355469 22.527344 20.925781 21.855469 21.320312 21.085938 C 21.832031 20.03125 22.023438 18.859375 21.867188 17.703125 C 21.84375 17.460938 21.789062 17.21875 21.710938 16.988281 C 21.675781 16.890625 21.640625 16.808594 21.589844 16.691406 Z M 21.589844 16.691406 "/>
<path style=" stroke:none;fill-rule:nonzero;fill:rgb(96.078431%,92.156863%,89.803922%);fill-opacity:1;" d="M 16.640625 9.863281 C 16.625 9.699219 16.59375 9.539062 16.542969 9.382812 C 16.339844 8.726562 15.589844 7.714844 15.308594 7.832031 C 15.179688 7.886719 15.136719 8.195312 15.230469 8.410156 C 15.375 8.746094 15.808594 8.769531 15.839844 9.066406 C 15.851562 9.160156 15.808594 9.183594 15.804688 9.382812 C 15.804688 9.507812 15.824219 9.636719 15.859375 9.757812 C 15.996094 10.277344 15.710938 11.308594 15.917969 11.378906 C 16.089844 11.441406 16.492188 10.960938 16.605469 10.484375 C 16.652344 10.28125 16.664062 10.070312 16.640625 9.863281 Z M 16.640625 9.863281 "/>
</g>
</svg>
