<?xml version="1.0" encoding="UTF-8"?>
<svg xmlns="http://www.w3.org/2000/svg" xmlns:xlink="http://www.w3.org/1999/xlink" width="40pt" height="40pt" viewBox="0 0 40 40" version="1.1">
<g id="surface1">
<path style=" stroke:none;fill-rule:nonzero;fill:rgb(38.431373%,32.156863%,25.098039%);fill-opacity:1;" d="M 40 20 C 40 31.046875 31.046875 40 20 40 C 8.953125 40 0 31.046875 0 20 C 0 8.953125 8.953125 0 20 0 C 31.046875 0 40 8.953125 40 20 Z M 40 20 "/>
<path style=" stroke:none;fill-rule:nonzero;fill:rgb(100%,100%,100%);fill-opacity:1;" d="M 29.363281 30.183594 C 29.316406 29.910156 29.273438 29.636719 29.136719 29.363281 C 29.046875 29.136719 28.863281 28.910156 28.636719 28.773438 C 28.453125 28.636719 28.183594 28.546875 27.953125 28.546875 L 18.816406 28.546875 L 21 26.316406 C 22.546875 24.773438 23.816406 23.410156 24.773438 22.226562 C 25.726562 21.046875 26.5 19.953125 27 18.953125 C 27.546875 17.953125 27.910156 17 28.089844 16.089844 C 28.273438 15.226562 28.363281 14.316406 28.363281 13.453125 C 28.363281 12.453125 28.183594 11.453125 27.816406 10.5 C 27.453125 9.589844 26.863281 8.773438 26.136719 8.089844 C 25.410156 7.410156 24.5 6.910156 23.363281 6.546875 C 22.273438 6.183594 21 6 19.589844 6 C 18.726562 6 17.816406 6.089844 16.953125 6.273438 C 16.183594 6.410156 15.410156 6.636719 14.683594 6.910156 C 14.089844 7.136719 13.5 7.363281 12.910156 7.683594 C 12.546875 7.863281 12.183594 8.089844 11.863281 8.363281 C 11.683594 8.5 11.546875 8.683594 11.453125 8.863281 C 11.363281 9.046875 11.273438 9.226562 11.226562 9.410156 C 11.183594 9.589844 11.136719 9.816406 11.136719 10.046875 C 11.136719 10.273438 11.089844 10.546875 11.089844 10.910156 C 11.089844 11.316406 11.089844 11.726562 11.136719 12.136719 C 11.183594 12.410156 11.226562 12.726562 11.273438 13 L 11.273438 13.046875 C 11.316406 13.316406 11.453125 13.546875 11.636719 13.683594 C 11.816406 13.863281 12.046875 13.953125 12.316406 13.953125 C 12.636719 13.953125 12.953125 13.816406 13.363281 13.546875 C 13.636719 13.363281 14.046875 13.136719 14.5 12.863281 C 15 12.589844 15.5 12.410156 16.046875 12.226562 C 16.683594 12.046875 17.363281 11.953125 18 11.953125 C 18.453125 11.953125 18.863281 12 19.273438 12.183594 C 19.589844 12.316406 19.910156 12.5 20.136719 12.773438 C 20.363281 13 20.546875 13.316406 20.636719 13.636719 C 20.773438 14 20.816406 14.363281 20.816406 14.726562 C 20.816406 15.226562 20.773438 15.683594 20.636719 16.183594 C 20.316406 17.363281 19.816406 18 18.816406 19.863281 C 17.910156 21.546875 18 21.683594 18.046875 21.726562 C 18.226562 21.863281 19.046875 21.226562 19.589844 20.636719 C 21.089844 19.089844 21.5 17.316406 21.726562 16.410156 C 21.863281 15.863281 21.910156 15.316406 21.910156 14.726562 C 21.910156 14.226562 21.816406 13.726562 21.683594 13.273438 C 21.5 12.816406 21.273438 12.410156 20.910156 12.046875 C 20.546875 11.683594 20.136719 11.410156 19.636719 11.183594 C 19.089844 11 18.5 10.863281 17.953125 10.910156 C 17.183594 10.910156 16.410156 11 15.636719 11.226562 C 15.046875 11.410156 14.453125 11.636719 13.910156 11.953125 C 13.410156 12.226562 13 12.453125 12.683594 12.683594 C 12.546875 12.773438 12.410156 12.816406 12.273438 12.910156 C 12.273438 12.863281 12.226562 12.816406 12.226562 12.773438 C 12.183594 12.546875 12.136719 12.316406 12.089844 12.089844 C 12.046875 11.726562 12.046875 11.363281 12.046875 11 C 12.046875 10.683594 12.046875 10.453125 12.089844 10.273438 C 12.089844 10.136719 12.136719 9.953125 12.183594 9.816406 C 12.183594 9.726562 12.226562 9.636719 12.273438 9.589844 C 12.363281 9.5 12.453125 9.363281 12.546875 9.273438 C 12.816406 9.046875 13.089844 8.863281 13.363281 8.726562 C 13.863281 8.453125 14.410156 8.226562 14.953125 8.046875 C 15.636719 7.816406 16.363281 7.589844 17.089844 7.453125 C 17.863281 7.316406 18.683594 7.226562 19.5 7.226562 C 20.816406 7.226562 21.953125 7.410156 22.953125 7.726562 C 23.953125 8.046875 24.726562 8.5 25.316406 9.046875 C 25.910156 9.589844 26.410156 10.273438 26.683594 11.046875 C 27 11.863281 27.136719 12.726562 27.136719 13.589844 C 27.136719 14.410156 27.046875 15.226562 26.910156 16 C 26.773438 16.773438 26.453125 17.636719 25.953125 18.546875 C 25.453125 19.453125 24.726562 20.5 23.816406 21.636719 C 22.910156 22.773438 21.636719 24.136719 20.089844 25.636719 L 17 28.773438 C 16.863281 28.910156 16.816406 29.183594 16.910156 29.363281 C 17 29.546875 17.183594 29.683594 17.410156 29.683594 L 27.816406 29.683594 C 27.816406 29.683594 27.863281 29.683594 27.863281 29.683594 L 27.910156 29.683594 C 27.953125 29.726562 28 29.773438 28 29.816406 C 28.046875 30 28.089844 30.136719 28.136719 30.316406 C 28.183594 30.636719 28.183594 30.910156 28.183594 31.226562 C 28.183594 31.546875 28.183594 31.863281 28.136719 32.183594 C 28.136719 32.363281 28.089844 32.546875 28 32.726562 C 28 32.773438 27.953125 32.816406 27.910156 32.863281 C 27.910156 32.863281 27.863281 32.863281 27.863281 32.863281 L 12.816406 32.863281 C 12.589844 32.863281 12.410156 32.863281 12.183594 32.816406 C 12.089844 32.816406 12 32.726562 11.910156 32.683594 C 11.816406 32.546875 11.773438 32.410156 11.726562 32.226562 C 11.683594 31.863281 11.636719 31.546875 11.636719 31.183594 C 11.636719 30.816406 11.636719 30.453125 11.683594 30.089844 C 11.726562 29.863281 11.773438 29.589844 11.863281 29.363281 C 11.953125 29.136719 12.089844 28.910156 12.226562 28.726562 C 12.410156 28.453125 12.636719 28.226562 12.863281 28 L 17.453125 23.089844 C 19.136719 21.226562 19.683594 20.546875 19.636719 20.5 C 19.589844 20.453125 18.273438 21.773438 18.089844 21.589844 C 17.910156 21.410156 18.953125 19.773438 18.863281 19.726562 C 18.773438 19.683594 18.046875 20.816406 16.683594 22.316406 L 12.089844 27.273438 C 11.816406 27.546875 11.589844 27.816406 11.363281 28.136719 C 11.183594 28.410156 11 28.683594 10.910156 28.953125 C 10.773438 29.273438 10.683594 29.636719 10.636719 29.953125 C 10.589844 30.363281 10.546875 30.773438 10.589844 31.183594 C 10.589844 31.589844 10.636719 32.046875 10.683594 32.453125 C 10.726562 32.816406 10.863281 33.136719 11.089844 33.363281 C 11.316406 33.589844 11.589844 33.773438 11.910156 33.863281 C 12.226562 33.953125 12.5 33.953125 12.816406 33.953125 L 28.046875 33.953125 C 28.273438 33.953125 28.546875 33.863281 28.726562 33.726562 C 28.953125 33.589844 29.089844 33.363281 29.183594 33.089844 C 29.183594 33.089844 29.183594 33.089844 29.183594 33.046875 C 29.273438 32.773438 29.316406 32.5 29.363281 32.226562 C 29.410156 31.863281 29.410156 31.5 29.410156 31.136719 C 29.410156 30.910156 29.410156 30.546875 29.363281 30.183594 Z M 29.363281 30.183594 "/>
<path style=" stroke:none;fill-rule:nonzero;fill:rgb(96.078431%,92.156863%,89.803922%);fill-opacity:1;" d="M 19.863281 20.183594 C 19.863281 19.863281 19.636719 19.636719 19.316406 19.636719 C 19 19.636719 18.773438 19.863281 18.773438 20.183594 C 18.773438 20.5 19 20.726562 19.316406 20.726562 C 19.589844 20.726562 19.863281 20.453125 19.863281 20.183594 Z M 19.863281 20.183594 "/>
</g>
</svg>
