<?xml version="1.0" encoding="UTF-8"?>
<svg xmlns="http://www.w3.org/2000/svg" xmlns:xlink="http://www.w3.org/1999/xlink" width="88pt" height="88pt" viewBox="0 0 88 88" version="1.1">
<g id="surface1">
<path style=" stroke:none;fill-rule:nonzero;fill:rgb(38.431373%,32.156863%,25.098039%);fill-opacity:1;" d="M 88 44 C 88 68.300781 68.300781 88 44 88 C 19.699219 88 0 68.300781 0 44 C 0 19.699219 19.699219 0 44 0 C 68.300781 0 88 19.699219 88 44 Z M 88 44 "/>
<path style=" stroke:none;fill-rule:nonzero;fill:rgb(100%,100%,100%);fill-opacity:1;" d="M 58.726562 57.859375 C 60.160156 57.859375 61.324219 56.695312 61.324219 55.261719 C 61.324219 53.828125 60.160156 52.664062 58.726562 52.664062 C 57.292969 52.664062 56.128906 53.828125 56.128906 55.261719 C 56.128906 56.695312 57.292969 57.859375 58.726562 57.859375 Z M 58.726562 54.394531 C 59.203125 54.394531 59.59375 54.78125 59.59375 55.261719 C 59.59375 55.738281 59.203125 56.128906 58.726562 56.128906 C 58.25 56.128906 57.859375 55.738281 57.859375 55.261719 C 57.859375 54.78125 58.25 54.394531 58.726562 54.394531 Z M 58.726562 54.394531 "/>
<path style=" stroke:none;fill-rule:nonzero;fill:rgb(100%,100%,100%);fill-opacity:1;" d="M 67.527344 51.605469 C 67.265625 50.976562 67.40625 50.261719 67.882812 49.78125 L 69.140625 48.519531 L 65.464844 44.84375 L 64.203125 46.105469 C 63.726562 46.585938 63.011719 46.722656 62.347656 46.445312 C 61.726562 46.1875 61.324219 45.585938 61.324219 44.914062 L 61.324219 43.132812 L 59.546875 43.132812 C 59.46875 41.738281 59.210938 40.386719 58.78125 39.105469 L 68.804688 29.082031 C 70.125 27.761719 70.855469 26.003906 70.855469 24.136719 C 70.855469 20.28125 67.71875 17.144531 63.863281 17.144531 C 61.996094 17.144531 60.238281 17.875 58.917969 19.195312 L 48.90625 29.207031 C 47.609375 28.773438 46.238281 28.519531 44.820312 28.445312 C 43.625 26.355469 41.378906 24.941406 38.800781 24.941406 C 38.144531 24.941406 37.507812 25.042969 36.902344 25.214844 C 35.40625 22.402344 32.503906 20.609375 29.273438 20.609375 C 24.496094 20.609375 20.609375 24.496094 20.609375 29.273438 C 20.609375 29.9375 20.691406 30.589844 20.839844 31.230469 C 18.707031 31.875 17.144531 33.859375 17.144531 36.203125 C 17.144531 39.070312 19.476562 41.402344 22.34375 41.402344 L 28.628906 41.402344 C 28.484375 42.257812 28.40625 43.128906 28.40625 44 C 28.40625 45.90625 28.761719 47.457031 29.328125 48.785156 L 21.601562 56.511719 L 17.300781 67.691406 C 17.199219 67.957031 17.144531 68.238281 17.144531 68.527344 C 17.144531 69.808594 18.191406 70.855469 19.472656 70.855469 C 19.761719 70.855469 20.042969 70.800781 20.308594 70.699219 L 31.488281 66.398438 L 37.140625 60.746094 C 37.097656 60.933594 37.070312 61.125 37.070312 61.324219 C 37.070312 61.992188 37.332031 62.597656 37.746094 63.058594 C 37.328125 63.519531 37.070312 64.121094 37.070312 64.789062 C 37.070312 65.992188 37.898438 67 39.011719 67.292969 C 39.75 69.40625 41.726562 70.855469 44 70.855469 C 46.273438 70.855469 48.25 69.40625 48.988281 67.292969 C 50.101562 67 50.929688 65.992188 50.929688 64.789062 C 50.929688 64.726562 50.914062 64.664062 50.910156 64.601562 L 51.988281 65.675781 L 53.25 64.414062 C 53.726562 63.9375 54.4375 63.796875 55.101562 64.074219 C 55.726562 64.332031 56.128906 64.933594 56.128906 65.609375 L 56.128906 67.390625 L 61.324219 67.390625 L 61.324219 65.609375 C 61.324219 64.933594 61.726562 64.332031 62.382812 64.0625 C 63.011719 63.800781 63.726562 63.9375 64.203125 64.414062 L 65.464844 65.675781 L 69.140625 62 L 67.882812 60.738281 C 67.40625 60.261719 67.265625 59.546875 67.542969 58.886719 C 67.796875 58.261719 68.398438 57.859375 69.074219 57.859375 L 70.855469 57.859375 L 70.855469 52.664062 L 69.074219 52.664062 C 68.398438 52.664062 67.796875 52.257812 67.527344 51.605469 Z M 54.546875 54.15625 C 55.492188 53.234375 56.4375 52.292969 57.257812 51.203125 C 57.726562 51.03125 58.21875 50.929688 58.726562 50.929688 C 61.113281 50.929688 63.058594 52.871094 63.058594 55.261719 C 63.058594 57.648438 61.113281 59.59375 58.726562 59.59375 C 56.339844 59.59375 54.394531 57.648438 54.394531 55.261719 C 54.394531 54.886719 54.453125 54.515625 54.546875 54.15625 Z M 55.585938 33.636719 L 59.59375 29.632812 L 62.699219 32.738281 L 58.070312 37.367188 C 57.421875 36.003906 56.585938 34.75 55.585938 33.636719 Z M 56.484375 24.078125 L 57.859375 22.703125 L 65.296875 30.140625 L 63.921875 31.515625 Z M 63.863281 18.878906 C 66.761719 18.878906 69.121094 21.238281 69.121094 24.136719 C 69.121094 25.542969 68.574219 26.863281 67.582031 27.855469 L 66.523438 28.914062 L 59.085938 21.476562 L 60.144531 20.417969 C 61.136719 19.425781 62.457031 18.878906 63.863281 18.878906 Z M 55.261719 25.300781 L 58.367188 28.40625 L 54.363281 32.410156 C 53.253906 31.414062 52 30.574219 50.640625 29.921875 Z M 57.859375 44 C 57.859375 48.507812 55.589844 50.722656 53.1875 53.0625 C 51.53125 54.679688 49.832031 56.347656 48.84375 58.777344 C 48.679688 58.746094 48.507812 58.726562 48.332031 58.726562 L 44.867188 58.726562 L 44.867188 54.394531 C 44.867188 52.960938 43.699219 51.796875 42.265625 51.796875 L 40.535156 51.796875 C 40.058594 51.796875 39.667969 51.40625 39.667969 50.929688 C 39.667969 50.453125 40.058594 50.0625 40.535156 50.0625 L 49.199219 50.0625 C 50.628906 50.0625 51.796875 48.898438 51.796875 47.464844 C 51.796875 46.03125 50.628906 44.867188 49.199219 44.867188 L 42.265625 44.867188 C 41.789062 44.867188 41.402344 44.476562 41.402344 44 L 41.402344 41.402344 L 45.734375 41.402344 C 48.121094 41.402344 50.0625 39.457031 50.0625 37.070312 C 50.0625 34.683594 48.121094 32.738281 45.734375 32.738281 C 45.707031 32.738281 45.6875 32.746094 45.660156 32.746094 C 45.699219 32.457031 45.734375 32.167969 45.734375 31.871094 C 45.734375 31.304688 45.65625 30.757812 45.527344 30.230469 C 52.433594 31 57.859375 36.925781 57.859375 44 Z M 38.800781 61.324219 C 38.800781 60.847656 39.191406 60.457031 39.667969 60.457031 L 48.332031 60.457031 C 48.808594 60.457031 49.199219 60.847656 49.199219 61.324219 C 49.199219 61.804688 48.808594 62.191406 48.332031 62.191406 L 39.667969 62.191406 C 39.191406 62.191406 38.800781 61.804688 38.800781 61.324219 Z M 27.898438 61.324219 L 34.269531 54.957031 C 35.332031 56.015625 36.324219 57.082031 37.050781 58.386719 L 31.007812 64.429688 Z M 18.878906 36.203125 C 18.878906 34.292969 20.433594 32.738281 22.34375 32.738281 C 24.253906 32.738281 25.808594 34.292969 25.808594 36.203125 L 27.542969 36.203125 C 27.542969 33.414062 25.328125 31.132812 22.566406 31.015625 C 22.417969 30.449219 22.34375 29.867188 22.34375 29.273438 C 22.34375 25.453125 25.453125 22.34375 29.273438 22.34375 C 31.808594 22.34375 34.09375 23.722656 35.3125 25.894531 C 33.464844 26.980469 32.160156 28.886719 31.914062 31.117188 C 30.402344 31.488281 29.273438 32.84375 29.273438 34.472656 L 31.007812 34.472656 C 31.007812 33.515625 31.785156 32.738281 32.738281 32.738281 C 33.695312 32.738281 34.472656 33.515625 34.472656 34.472656 L 36.203125 34.472656 C 36.203125 32.882812 35.121094 31.554688 33.660156 31.148438 C 34.015625 28.625 36.183594 26.675781 38.800781 26.675781 C 41.667969 26.675781 44 29.007812 44 31.871094 C 44 32.328125 43.925781 32.773438 43.808594 33.210938 C 42.390625 33.921875 41.402344 35.375 41.402344 37.070312 L 43.132812 37.070312 C 43.132812 35.636719 44.300781 34.472656 45.734375 34.472656 C 47.164062 34.472656 48.332031 35.636719 48.332031 37.070312 C 48.332031 38.503906 47.164062 39.667969 45.734375 39.667969 L 22.34375 39.667969 C 20.433594 39.667969 18.878906 38.113281 18.878906 36.203125 Z M 39.667969 41.402344 L 39.667969 44 C 39.667969 45.433594 40.835938 46.597656 42.265625 46.597656 L 49.199219 46.597656 C 49.675781 46.597656 50.0625 46.988281 50.0625 47.464844 C 50.0625 47.941406 49.675781 48.332031 49.199219 48.332031 L 40.535156 48.332031 C 39.101562 48.332031 37.9375 49.496094 37.9375 50.929688 C 37.9375 52.363281 39.101562 53.527344 40.535156 53.527344 L 42.265625 53.527344 C 42.746094 53.527344 43.132812 53.917969 43.132812 54.394531 L 43.132812 58.726562 L 39.667969 58.726562 C 39.492188 58.726562 39.320312 58.746094 39.15625 58.777344 C 38.167969 56.347656 36.46875 54.679688 34.8125 53.0625 C 32.410156 50.722656 30.140625 48.507812 30.140625 44 C 30.140625 43.125 30.246094 42.257812 30.40625 41.402344 Z M 33.03125 53.746094 L 26.675781 60.101562 L 23.570312 56.992188 L 30.179688 50.382812 C 30.992188 51.660156 32 52.726562 33.03125 53.746094 Z M 22.671875 58.546875 L 29.453125 65.328125 L 23.714844 67.535156 L 20.464844 64.285156 Z M 19.6875 69.082031 C 19.3125 69.226562 18.878906 68.929688 18.878906 68.527344 C 18.878906 68.453125 18.894531 68.378906 18.917969 68.3125 L 19.785156 66.054688 L 21.945312 68.214844 Z M 44 69.121094 C 42.71875 69.121094 41.578125 68.441406 40.949219 67.390625 L 47.050781 67.390625 C 46.421875 68.441406 45.28125 69.121094 44 69.121094 Z M 48.332031 65.65625 L 39.667969 65.65625 C 39.191406 65.65625 38.800781 65.269531 38.800781 64.789062 C 38.800781 64.3125 39.191406 63.921875 39.667969 63.921875 L 48.332031 63.921875 C 48.808594 63.921875 49.199219 64.3125 49.199219 64.789062 C 49.199219 65.269531 48.808594 65.65625 48.332031 65.65625 Z M 69.121094 56.128906 L 69.074219 56.128906 C 67.695312 56.128906 66.464844 56.949219 65.929688 58.25 C 65.394531 59.53125 65.679688 60.988281 66.65625 61.964844 L 66.691406 62 L 65.464844 63.226562 L 65.429688 63.191406 C 64.453125 62.214844 62.992188 61.925781 61.6875 62.472656 C 60.414062 63 59.59375 64.230469 59.59375 65.609375 L 59.59375 65.65625 L 57.859375 65.65625 L 57.859375 65.609375 C 57.859375 64.230469 57.035156 63 55.734375 62.460938 C 54.453125 61.929688 52.996094 62.214844 52.023438 63.191406 L 51.984375 63.226562 L 50.8125 62.054688 C 50.882812 61.820312 50.929688 61.578125 50.929688 61.324219 C 50.929688 60.710938 50.707031 60.152344 50.347656 59.707031 C 50.886719 58.25 51.730469 57.089844 52.714844 56.015625 C 53.085938 59.003906 55.636719 61.324219 58.726562 61.324219 C 62.070312 61.324219 64.789062 58.605469 64.789062 55.261719 C 64.789062 51.917969 62.070312 49.199219 58.726562 49.199219 C 58.640625 49.199219 58.558594 49.207031 58.476562 49.210938 C 59.0625 47.992188 59.464844 46.582031 59.566406 44.867188 L 59.59375 44.867188 L 59.59375 44.914062 C 59.59375 46.292969 60.414062 47.523438 61.714844 48.058594 C 62.996094 48.59375 64.453125 48.308594 65.429688 47.332031 L 65.464844 47.296875 L 66.691406 48.523438 L 66.65625 48.558594 C 65.679688 49.535156 65.394531 50.992188 65.941406 52.296875 C 66.464844 53.570312 67.695312 54.394531 69.074219 54.394531 L 69.121094 54.394531 Z M 69.121094 56.128906 "/>
</g>
</svg>
