<svg xmlns="http://www.w3.org/2000/svg" viewBox="0 0 80 80"><defs><style>.cls-1{fill:#f5ebe5;}.cls-2{fill:#625240;}</style></defs><g id="Calque_2" data-name="Calque 2"><g id="Calque_1-2" data-name="Calque 1"><g id="surface1"><path class="cls-1" d="M80,40A40,40,0,1,1,40,0,40,40,0,0,1,80,40Z"/><path class="cls-2" d="M56,30.22a1.23,1.23,0,0,0,.38-.9,1.25,1.25,0,0,0-.38-.91l-7.56-7.56a1.25,1.25,0,0,0-.9-.37,1.29,1.29,0,0,0-.91.37L24,43.53a1.23,1.23,0,0,0-.38.9V52a1.28,1.28,0,0,0,1.28,1.28h7.56a1.29,1.29,0,0,0,.91-.37L56,30.21Z"/><path class="cls-2" d="M55.12,45.67H45a1.28,1.28,0,0,0,0,2.56H55.12a1.28,1.28,0,0,0,0-2.56Z"/><path class="cls-2" d="M55.12,40.63h-5a1.29,1.29,0,0,0,0,2.57h5a1.29,1.29,0,0,0,0-2.57Z"/><path class="cls-2" d="M55.12,50.71H40a1.28,1.28,0,0,0,0,2.56H55.12a1.28,1.28,0,0,0,0-2.56Z"/></g></g></g></svg>