<?xml version="1.0" encoding="UTF-8"?>
<svg xmlns="http://www.w3.org/2000/svg" xmlns:xlink="http://www.w3.org/1999/xlink" width="88pt" height="88pt" viewBox="0 0 88 88" version="1.1">
<g id="surface1">
<path style=" stroke:none;fill-rule:nonzero;fill:rgb(38.431373%,32.156863%,25.098039%);fill-opacity:1;" d="M 88 44 C 88 68.292969 68.292969 88 44 88 C 19.707031 88 0 68.292969 0 44 C 0 19.707031 19.707031 0 44 0 C 68.292969 0 88 19.707031 88 44 Z M 88 44 "/>
<path style=" stroke:none;fill-rule:nonzero;fill:rgb(96.078431%,92.156863%,89.803922%);fill-opacity:1;" d="M 63.1875 66.6875 C 63.121094 66.078125 62.960938 65.480469 62.714844 64.917969 C 62.714844 64.910156 62.714844 64.902344 62.714844 64.898438 C 62.503906 64.410156 62.175781 63.980469 61.753906 63.65625 C 61.324219 63.339844 60.804688 63.171875 60.269531 63.179688 L 51.859375 63.179688 L 51.859375 15.8125 C 51.902344 14.722656 51.152344 13.765625 50.085938 13.542969 C 49.46875 13.382812 48.839844 13.285156 48.207031 13.261719 C 47.519531 13.21875 46.636719 13.199219 45.332031 13.199219 C 44.371094 13.199219 43.613281 13.199219 43.003906 13.214844 C 42.398438 13.230469 41.859375 13.265625 41.464844 13.316406 C 41.078125 13.355469 40.699219 13.429688 40.332031 13.542969 L 40.308594 13.542969 C 40.003906 13.648438 39.71875 13.796875 39.457031 13.988281 L 26.871094 22.15625 C 26.859375 22.164062 26.851562 22.171875 26.839844 22.179688 C 26.46875 22.421875 26.121094 22.703125 25.804688 23.015625 C 25.457031 23.371094 25.195312 23.800781 25.042969 24.277344 C 24.871094 24.761719 24.769531 25.269531 24.742188 25.785156 C 24.710938 26.277344 24.695312 26.910156 24.695312 27.664062 C 24.679688 28.621094 24.730469 29.578125 24.847656 30.523438 C 24.972656 31.40625 25.246094 32.054688 25.671875 32.507812 L 25.699219 32.535156 C 26.242188 33.066406 27.011719 33.296875 27.761719 33.15625 L 27.808594 33.15625 C 28.503906 33.003906 29.175781 32.761719 29.804688 32.4375 L 29.871094 32.402344 L 37.53125 28.175781 L 37.53125 50.679688 C 37.53125 50.015625 38.070312 49.476562 38.734375 49.476562 C 39.398438 49.476562 39.9375 50.015625 39.9375 50.679688 L 39.9375 26.125 C 39.9375 25.699219 39.710938 25.304688 39.347656 25.089844 C 38.980469 24.871094 38.527344 24.867188 38.152344 25.074219 L 28.738281 30.265625 C 28.316406 30.484375 27.871094 30.652344 27.410156 30.769531 L 27.375 30.769531 C 27.292969 30.578125 27.242188 30.375 27.21875 30.167969 C 27.125 29.335938 27.082031 28.496094 27.09375 27.65625 C 27.09375 26.957031 27.109375 26.378906 27.136719 25.9375 C 27.148438 25.652344 27.199219 25.367188 27.292969 25.09375 C 27.292969 25.074219 27.308594 25.050781 27.316406 25.03125 C 27.355469 24.902344 27.421875 24.789062 27.515625 24.695312 L 27.546875 24.660156 C 27.746094 24.476562 27.960938 24.308594 28.191406 24.160156 L 40.792969 15.996094 L 40.890625 15.925781 C 40.953125 15.882812 41.019531 15.851562 41.089844 15.828125 C 41.304688 15.765625 41.527344 15.71875 41.75 15.699219 C 42.066406 15.65625 42.503906 15.628906 43.054688 15.613281 C 43.605469 15.597656 44.375 15.597656 45.320312 15.597656 C 46.570312 15.597656 47.40625 15.617188 48.035156 15.660156 C 48.484375 15.671875 48.9375 15.734375 49.375 15.84375 L 49.425781 15.855469 L 49.425781 64.371094 C 49.425781 65.035156 49.964844 65.574219 50.628906 65.574219 L 60.273438 65.574219 L 60.296875 65.585938 C 60.386719 65.683594 60.457031 65.792969 60.507812 65.917969 C 60.648438 66.261719 60.738281 66.621094 60.773438 66.988281 C 60.851562 67.671875 60.882812 68.355469 60.875 69.039062 C 60.882812 69.695312 60.839844 70.355469 60.75 71.007812 C 60.707031 71.371094 60.617188 71.730469 60.476562 72.066406 C 60.464844 72.085938 60.453125 72.105469 60.449219 72.125 C 60.414062 72.207031 60.363281 72.285156 60.308594 72.355469 L 60.292969 72.355469 C 60.28125 72.359375 60.269531 72.359375 60.261719 72.355469 L 27.773438 72.355469 C 27.703125 72.269531 27.644531 72.171875 27.601562 72.070312 C 27.605469 72.066406 27.605469 72.058594 27.601562 72.050781 C 27.460938 71.714844 27.367188 71.355469 27.328125 70.992188 C 27.238281 70.339844 27.195312 69.679688 27.203125 69.023438 C 27.191406 68.339844 27.226562 67.65625 27.300781 66.976562 C 27.339844 66.605469 27.429688 66.246094 27.570312 65.902344 C 27.625 65.777344 27.699219 65.660156 27.785156 65.554688 L 38.75 65.554688 C 39.414062 65.554688 39.953125 65.015625 39.953125 64.351562 L 39.953125 50.671875 C 39.953125 50.007812 39.414062 49.46875 38.75 49.46875 C 38.085938 49.46875 37.546875 50.007812 37.546875 50.671875 L 37.546875 63.179688 L 27.757812 63.179688 C 27.222656 63.175781 26.699219 63.363281 26.285156 63.707031 C 25.898438 64.035156 25.589844 64.449219 25.386719 64.914062 L 25.386719 64.929688 C 25.140625 65.496094 24.980469 66.09375 24.914062 66.707031 C 24.824219 67.488281 24.785156 68.273438 24.792969 69.0625 C 24.785156 69.847656 24.835938 70.628906 24.949219 71.40625 C 25.023438 72.011719 25.191406 72.601562 25.445312 73.15625 C 25.648438 73.632812 25.976562 74.046875 26.390625 74.359375 C 26.789062 74.648438 27.269531 74.808594 27.765625 74.816406 L 60.285156 74.816406 C 60.796875 74.816406 61.296875 74.65625 61.710938 74.359375 C 62.132812 74.042969 62.460938 73.625 62.664062 73.136719 C 62.910156 72.589844 63.074219 72.003906 63.152344 71.40625 C 63.261719 70.628906 63.3125 69.847656 63.304688 69.0625 C 63.316406 68.269531 63.277344 67.476562 63.1875 66.6875 Z M 63.1875 66.6875 "/>
<path style=" stroke:none;fill-rule:nonzero;fill:rgb(96.078431%,92.156863%,89.803922%);fill-opacity:1;" d="M 38.742188 46.457031 C 39.40625 46.457031 39.945312 45.921875 39.945312 45.253906 C 39.945312 44.589844 39.40625 44.050781 38.742188 44.050781 C 38.078125 44.050781 37.539062 44.589844 37.539062 45.253906 C 37.539062 45.921875 38.078125 46.457031 38.742188 46.457031 Z M 38.742188 46.457031 "/>
</g>
</svg>
