<?xml version="1.0" encoding="UTF-8"?>
<svg xmlns="http://www.w3.org/2000/svg" xmlns:xlink="http://www.w3.org/1999/xlink" width="30pt" height="29pt" viewBox="0 0 30 29" version="1.1">
<g id="surface1">
<path style=" stroke:none;fill-rule:nonzero;fill:rgb(38.431373%,32.156863%,25.098039%);fill-opacity:1;" d="M 30 14.5 C 30 22.503906 23.28125 29 15 29 C 6.71875 29 0 22.503906 0 14.5 C 0 6.496094 6.71875 0 15 0 C 23.28125 0 30 6.496094 30 14.5 Z M 30 14.5 "/>
<path style=" stroke:none;fill-rule:nonzero;fill:rgb(96.078431%,92.156863%,89.803922%);fill-opacity:1;" d="M 16.121094 7.746094 L 16.09375 7.746094 C 15.945312 7.746094 15.8125 7.820312 15.738281 7.945312 L 13.09375 12.410156 C 13.082031 12.449219 13.015625 12.671875 13.15625 12.832031 C 13.179688 12.859375 13.203125 12.878906 13.234375 12.898438 C 13.445312 13.027344 13.777344 12.828125 13.792969 12.816406 L 15.71875 9.578125 L 15.71875 16.613281 L 11.554688 16.613281 C 12.300781 15.351562 13.046875 14.085938 13.792969 12.820312 C 13.667969 12.976562 13.4375 13.019531 13.257812 12.917969 C 13.082031 12.8125 13.011719 12.597656 13.097656 12.410156 C 12.230469 13.878906 11.359375 15.347656 10.488281 16.816406 C 10.417969 16.9375 10.417969 17.085938 10.492188 17.210938 C 10.5625 17.332031 10.699219 17.40625 10.84375 17.40625 L 16.128906 17.40625 C 16.355469 17.40625 16.539062 17.230469 16.539062 17.011719 L 16.539062 8.140625 C 16.539062 8.035156 16.492188 7.933594 16.414062 7.859375 C 16.339844 7.785156 16.230469 7.742188 16.121094 7.746094 Z M 16.121094 7.746094 "/>
<path style=" stroke:none;fill-rule:nonzero;fill:rgb(96.078431%,92.156863%,89.803922%);fill-opacity:1;" d="M 22.609375 17.207031 C 22.375 16.714844 22.046875 16.609375 21.816406 16.609375 L 20.453125 16.609375 L 20.453125 5.386719 C 20.453125 5.15625 20.34375 4.941406 20.15625 4.800781 C 20.152344 4.796875 20.144531 4.789062 20.140625 4.785156 C 19.945312 4.65625 19.730469 4.566406 19.5 4.519531 C 19.183594 4.449219 18.859375 4.402344 18.535156 4.386719 C 18.175781 4.363281 17.726562 4.351562 17.15625 4.351562 C 16.664062 4.351562 16.242188 4.359375 15.894531 4.382812 C 15.59375 4.394531 15.292969 4.429688 14.992188 4.484375 C 14.777344 4.523438 14.566406 4.59375 14.367188 4.6875 L 14.363281 4.6875 C 14.191406 4.777344 14.046875 4.90625 13.945312 5.0625 L 13.945312 5.066406 L 7.734375 15.648438 C 7.734375 15.652344 7.730469 15.65625 7.730469 15.65625 C 7.625 15.84375 7.535156 16.039062 7.453125 16.238281 L 7.449219 16.25 C 7.378906 16.445312 7.320312 16.644531 7.28125 16.847656 C 7.238281 17.074219 7.210938 17.304688 7.195312 17.535156 C 7.179688 17.761719 7.171875 18.023438 7.171875 18.390625 C 7.167969 18.722656 7.1875 19.054688 7.230469 19.386719 C 7.261719 19.621094 7.332031 19.851562 7.445312 20.0625 L 7.457031 20.078125 C 7.570312 20.269531 7.75 20.414062 7.964844 20.484375 C 8.132812 20.535156 8.304688 20.558594 8.480469 20.554688 L 15.710938 20.554688 L 15.710938 23.660156 C 15.710938 23.835938 15.769531 24.007812 15.875 24.152344 C 16.007812 24.308594 16.183594 24.421875 16.382812 24.480469 L 16.394531 24.484375 C 16.617188 24.550781 16.847656 24.59375 17.082031 24.613281 C 17.40625 24.640625 17.734375 24.65625 18.0625 24.652344 C 18.398438 24.65625 18.734375 24.640625 19.066406 24.613281 C 19.296875 24.59375 19.523438 24.550781 19.746094 24.488281 L 19.761719 24.484375 C 19.964844 24.425781 20.140625 24.316406 20.273438 24.160156 C 20.390625 24.019531 20.453125 23.839844 20.453125 23.660156 L 20.453125 20.554688 L 21.816406 20.554688 C 22.027344 20.554688 22.410156 20.46875 22.632812 19.902344 C 22.765625 19.59375 22.828125 19.164062 22.828125 18.597656 C 22.828125 17.949219 22.757812 17.507812 22.609375 17.207031 Z M 21.875 19.609375 L 21.875 19.617188 C 21.855469 19.667969 21.832031 19.714844 21.796875 19.761719 L 20.042969 19.761719 C 19.816406 19.761719 19.632812 19.9375 19.632812 20.15625 L 19.632812 23.664062 C 19.632812 23.664062 19.632812 23.667969 19.628906 23.667969 C 19.589844 23.695312 19.550781 23.710938 19.503906 23.726562 C 19.332031 23.773438 19.160156 23.804688 18.980469 23.820312 C 18.761719 23.84375 18.460938 23.851562 18.0625 23.851562 C 17.6875 23.851562 17.394531 23.84375 17.167969 23.820312 C 16.996094 23.804688 16.820312 23.773438 16.652344 23.726562 C 16.609375 23.714844 16.574219 23.695312 16.539062 23.675781 C 16.535156 23.667969 16.535156 23.660156 16.539062 23.652344 L 16.539062 20.15625 C 16.539062 19.9375 16.355469 19.761719 16.128906 19.761719 L 8.480469 19.761719 C 8.390625 19.761719 8.308594 19.753906 8.222656 19.730469 L 8.21875 19.730469 C 8.210938 19.730469 8.1875 19.710938 8.15625 19.664062 C 8.09375 19.539062 8.054688 19.40625 8.042969 19.269531 C 8.003906 18.976562 7.988281 18.683594 7.992188 18.390625 C 7.992188 18.046875 8 17.789062 8.011719 17.585938 C 8.023438 17.386719 8.050781 17.191406 8.085938 16.996094 C 8.117188 16.832031 8.164062 16.675781 8.21875 16.519531 C 8.289062 16.355469 8.367188 16.195312 8.453125 16.039062 L 14.65625 5.464844 C 14.683594 5.429688 14.71875 5.402344 14.761719 5.382812 C 14.890625 5.324219 15.027344 5.285156 15.167969 5.261719 C 15.425781 5.214844 15.6875 5.183594 15.949219 5.171875 C 16.273438 5.152344 16.683594 5.144531 17.15625 5.144531 C 17.703125 5.144531 18.136719 5.152344 18.476562 5.175781 C 18.753906 5.191406 19.027344 5.226562 19.296875 5.285156 L 19.304688 5.285156 C 19.421875 5.308594 19.53125 5.351562 19.632812 5.410156 L 19.632812 17.007812 C 19.632812 17.226562 19.816406 17.402344 20.042969 17.402344 L 21.78125 17.402344 C 21.8125 17.445312 21.84375 17.492188 21.863281 17.539062 C 21.863281 17.542969 21.863281 17.542969 21.863281 17.542969 C 21.925781 17.671875 22.003906 17.960938 22.003906 18.597656 C 22.003906 19.058594 21.957031 19.398438 21.871094 19.609375 Z M 21.875 19.609375 "/>
<path style=" stroke:none;fill-rule:nonzero;fill:rgb(96.078431%,92.156863%,89.803922%);fill-opacity:1;" d="M 13.464844 12.96875 C 13.691406 12.96875 13.875 12.792969 13.875 12.574219 C 13.875 12.355469 13.691406 12.175781 13.464844 12.175781 C 13.238281 12.175781 13.054688 12.355469 13.054688 12.574219 C 13.054688 12.792969 13.238281 12.96875 13.464844 12.96875 Z M 13.464844 12.96875 "/>
</g>
</svg>
