<?xml version="1.0" encoding="UTF-8"?>
<svg xmlns="http://www.w3.org/2000/svg" xmlns:xlink="http://www.w3.org/1999/xlink" width="80pt" height="80pt" viewBox="0 0 80 80" version="1.1">
<defs>
<clipPath id="clip1">
  <path d="M 20.5625 15.882812 L 62.460938 15.882812 L 62.460938 66.367188 L 20.5625 66.367188 Z M 20.5625 15.882812 "/>
</clipPath>
</defs>
<g id="surface1">
<path style=" stroke:none;fill-rule:nonzero;fill:rgb(38.431373%,32.156863%,25.098039%);fill-opacity:1;" d="M 80 40 C 80 62.089844 62.089844 80 40 80 C 17.910156 80 0 62.089844 0 40 C 0 17.910156 17.910156 0 40 0 C 62.089844 0 80 17.910156 80 40 Z M 80 40 "/>
<path style=" stroke:none;fill-rule:nonzero;fill:rgb(100%,100%,100%);fill-opacity:1;" d="M 27.652344 20.808594 C 27.597656 21.492188 27.007812 22.011719 26.320312 21.976562 C 25.632812 21.941406 25.097656 21.363281 25.117188 20.675781 C 25.132812 19.988281 25.695312 19.4375 26.382812 19.4375 C 26.734375 19.449219 27.0625 19.601562 27.300781 19.859375 C 27.539062 20.113281 27.667969 20.457031 27.652344 20.808594 Z M 27.652344 20.808594 "/>
<path style=" stroke:none;fill-rule:nonzero;fill:rgb(100%,100%,100%);fill-opacity:1;" d="M 31.558594 20.808594 C 31.503906 21.492188 30.910156 22.011719 30.226562 21.976562 C 29.539062 21.941406 29.003906 21.363281 29.019531 20.675781 C 29.035156 19.988281 29.597656 19.4375 30.285156 19.4375 C 30.636719 19.449219 30.96875 19.601562 31.207031 19.859375 C 31.445312 20.113281 31.570312 20.457031 31.558594 20.808594 Z M 31.558594 20.808594 "/>
<path style=" stroke:none;fill-rule:nonzero;fill:rgb(100%,100%,100%);fill-opacity:1;" d="M 35.460938 20.808594 C 35.40625 21.492188 34.816406 22.011719 34.128906 21.976562 C 33.441406 21.941406 32.90625 21.363281 32.925781 20.675781 C 32.941406 19.988281 33.503906 19.4375 34.191406 19.4375 C 34.539062 19.449219 34.871094 19.601562 35.109375 19.859375 C 35.347656 20.113281 35.472656 20.457031 35.460938 20.808594 Z M 35.460938 20.808594 "/>
<path style=" stroke:none;fill-rule:nonzero;fill:rgb(100%,100%,100%);fill-opacity:1;" d="M 45.390625 30.09375 C 45.769531 30.054688 46.058594 29.734375 46.058594 29.355469 C 46.058594 28.972656 45.769531 28.65625 45.390625 28.613281 L 34.617188 28.613281 C 34.238281 28.65625 33.953125 28.972656 33.953125 29.355469 C 33.953125 29.734375 34.238281 30.054688 34.617188 30.09375 Z M 45.390625 30.09375 "/>
<path style=" stroke:none;fill-rule:nonzero;fill:rgb(100%,100%,100%);fill-opacity:1;" d="M 25.328125 33.121094 C 25.324219 33.308594 25.390625 33.492188 25.519531 33.628906 C 25.648438 33.769531 25.824219 33.847656 26.015625 33.855469 L 53.992188 33.855469 C 54.398438 33.855469 54.730469 33.527344 54.730469 33.121094 C 54.730469 32.714844 54.398438 32.382812 53.992188 32.382812 L 26.015625 32.382812 C 25.824219 32.390625 25.648438 32.472656 25.519531 32.609375 C 25.390625 32.75 25.324219 32.933594 25.328125 33.121094 Z M 25.328125 33.121094 "/>
<path style=" stroke:none;fill-rule:nonzero;fill:rgb(100%,100%,100%);fill-opacity:1;" d="M 26.015625 37.476562 L 32.367188 37.476562 C 32.773438 37.476562 33.101562 37.144531 33.101562 36.738281 C 33.101562 36.332031 32.773438 36.003906 32.367188 36.003906 L 26.015625 36.003906 C 25.609375 36.003906 25.277344 36.332031 25.277344 36.738281 C 25.277344 37.144531 25.609375 37.476562 26.015625 37.476562 Z M 26.015625 37.476562 "/>
<g clip-path="url(#clip1)" clip-rule="nonzero">
<path style=" stroke:none;fill-rule:nonzero;fill:rgb(100%,100%,100%);fill-opacity:1;" d="M 61.300781 59.101562 L 56.84375 54.253906 C 58.429688 53.742188 59.492188 52.25 59.453125 50.582031 L 59.453125 19.652344 C 59.511719 17.632812 57.925781 15.945312 55.90625 15.882812 L 43.367188 15.882812 C 43.773438 15.882812 44.105469 16.210938 44.105469 16.617188 C 44.105469 17.023438 43.773438 17.355469 43.367188 17.355469 L 55.90625 17.355469 C 57.140625 17.402344 58.097656 18.4375 58.054688 19.667969 L 58.054688 24.308594 L 21.945312 24.308594 L 21.945312 19.644531 C 21.902344 18.414062 22.859375 17.378906 24.09375 17.328125 L 43.320312 17.328125 C 43.726562 17.328125 44.054688 17 44.054688 16.59375 C 44.054688 16.1875 43.726562 15.859375 43.320312 15.859375 L 24.09375 15.859375 C 22.078125 15.9375 20.511719 17.632812 20.582031 19.644531 L 20.582031 44.398438 L 21.265625 47.238281 L 21.945312 47.976562 L 21.945312 25.753906 L 58.054688 25.753906 L 58.054688 50.582031 C 58.105469 51.816406 57.140625 52.855469 55.90625 52.90625 L 55.566406 52.90625 C 55.566406 52.90625 44.40625 40.785156 44.0625 40.527344 L 37.375 36.65625 L 37.292969 36.613281 C 36.625 36.332031 35.851562 36.511719 35.378906 37.058594 C 34.863281 37.613281 34.699219 38.410156 34.949219 39.121094 L 34.949219 39.207031 L 38.496094 46.503906 C 38.570312 46.679688 44.347656 52.90625 44.347656 52.90625 L 24.09375 52.90625 C 22.859375 52.855469 21.894531 51.816406 21.945312 50.582031 L 21.945312 47.976562 C 21.953125 46.789062 21.882812 45.605469 21.734375 44.429688 C 21.492188 42.472656 21.382812 42.324219 21.300781 42.316406 C 21.214844 42.308594 20.957031 42.566406 20.574219 44.398438 L 20.574219 50.582031 C 20.496094 52.597656 22.066406 54.296875 24.082031 54.378906 L 45.757812 54.378906 L 51.519531 60.597656 C 51.644531 60.734375 51.820312 60.808594 52.003906 60.808594 C 52.1875 60.808594 52.363281 60.734375 52.488281 60.597656 C 52.734375 60.292969 52.734375 59.859375 52.488281 59.554688 L 41.070312 47.230469 L 44.730469 43.277344 L 60.339844 60.136719 C 61.347656 61.261719 61.347656 62.96875 60.339844 64.09375 C 59.871094 64.609375 59.207031 64.90625 58.511719 64.90625 C 57.816406 64.90625 57.152344 64.609375 56.683594 64.09375 L 52.503906 59.554688 C 52.75 59.859375 52.75 60.292969 52.503906 60.597656 C 52.378906 60.734375 52.203125 60.808594 52.019531 60.808594 C 51.835938 60.808594 51.660156 60.734375 51.535156 60.597656 L 55.714844 65.128906 C 56.429688 65.917969 57.445312 66.363281 58.507812 66.363281 C 59.570312 66.363281 60.585938 65.917969 61.300781 65.128906 C 62.824219 63.410156 62.824219 60.820312 61.300781 59.101562 Z M 43.652344 42.113281 L 39.992188 46.0625 L 39.675781 45.726562 L 38.722656 43.753906 L 41.519531 40.726562 L 43.328125 41.796875 Z M 36.332031 38.101562 C 36.457031 38.050781 36.332031 37.933594 36.773438 37.976562 L 40.265625 40 L 38.0625 42.390625 L 36.214844 38.578125 C 36.164062 38.410156 36.207031 38.226562 36.332031 38.101562 Z M 36.332031 38.101562 "/>
</g>
</g>
</svg>
