<?xml version="1.0" encoding="UTF-8"?>
<svg xmlns="http://www.w3.org/2000/svg" xmlns:xlink="http://www.w3.org/1999/xlink" width="80pt" height="80pt" viewBox="0 0 80 80" version="1.1">
<g id="surface1">
<path style=" stroke:none;fill-rule:nonzero;fill:rgb(96.078431%,92.156863%,89.803922%);fill-opacity:1;" d="M 80 40 C 80 62.089844 62.089844 80 40 80 C 17.910156 80 0 62.089844 0 40 C 0 17.910156 17.910156 0 40 0 C 62.089844 0 80 17.910156 80 40 Z M 80 40 "/>
<path style=" stroke:none;fill-rule:nonzero;fill:rgb(38.431373%,32.156863%,25.098039%);fill-opacity:1;" d="M 56 30.21875 C 56.246094 29.984375 56.382812 29.660156 56.378906 29.320312 C 56.382812 28.976562 56.246094 28.648438 56 28.410156 L 48.441406 20.851562 C 48.203125 20.609375 47.878906 20.476562 47.539062 20.480469 C 47.199219 20.476562 46.871094 20.613281 46.628906 20.851562 L 24 43.53125 C 23.753906 43.765625 23.617188 44.089844 23.621094 44.429688 L 23.621094 52 C 23.621094 52.707031 24.191406 53.28125 24.898438 53.28125 L 32.460938 53.28125 C 32.800781 53.28125 33.128906 53.148438 33.371094 52.910156 L 56 30.210938 Z M 56 30.21875 "/>
<path style=" stroke:none;fill-rule:nonzero;fill:rgb(38.431373%,32.156863%,25.098039%);fill-opacity:1;" d="M 55.121094 45.671875 L 45 45.671875 C 44.292969 45.671875 43.71875 46.242188 43.71875 46.949219 C 43.71875 47.65625 44.292969 48.230469 45 48.230469 L 55.121094 48.230469 C 55.828125 48.230469 56.398438 47.65625 56.398438 46.949219 C 56.398438 46.242188 55.828125 45.671875 55.121094 45.671875 Z M 55.121094 45.671875 "/>
<path style=" stroke:none;fill-rule:nonzero;fill:rgb(38.431373%,32.156863%,25.098039%);fill-opacity:1;" d="M 55.121094 40.628906 L 50.121094 40.628906 C 49.453125 40.6875 48.945312 41.246094 48.945312 41.914062 C 48.945312 42.582031 49.453125 43.140625 50.121094 43.199219 L 55.121094 43.199219 C 55.785156 43.140625 56.296875 42.582031 56.296875 41.914062 C 56.296875 41.246094 55.785156 40.6875 55.121094 40.628906 Z M 55.121094 40.628906 "/>
<path style=" stroke:none;fill-rule:nonzero;fill:rgb(38.431373%,32.156863%,25.098039%);fill-opacity:1;" d="M 55.121094 50.710938 L 40 50.710938 C 39.292969 50.710938 38.71875 51.28125 38.71875 51.988281 C 38.71875 52.695312 39.292969 53.269531 40 53.269531 L 55.121094 53.269531 C 55.828125 53.269531 56.398438 52.695312 56.398438 51.988281 C 56.398438 51.28125 55.828125 50.710938 55.121094 50.710938 Z M 55.121094 50.710938 "/>
</g>
</svg>
