<?xml version="1.0" encoding="UTF-8"?>
<svg xmlns="http://www.w3.org/2000/svg" xmlns:xlink="http://www.w3.org/1999/xlink" width="88pt" height="88pt" viewBox="0 0 88 88" version="1.1">
<g id="surface1">
<path style=" stroke:none;fill-rule:nonzero;fill:rgb(38.431373%,32.156863%,25.098039%);fill-opacity:1;" d="M 88 44 C 88 68.292969 68.292969 88 44 88 C 19.707031 88 0 68.292969 0 44 C 0 19.707031 19.707031 0 44 0 C 68.292969 0 88 19.707031 88 44 Z M 88 44 "/>
<path style=" stroke:none;fill-rule:nonzero;fill:rgb(100%,100%,100%);fill-opacity:1;" d="M 32.542969 37.300781 C 32.054688 37.046875 31.539062 36.855469 31.003906 36.722656 C 30.542969 36.621094 30.101562 36.433594 29.710938 36.171875 C 29.503906 36.023438 29.382812 35.78125 29.390625 35.527344 C 29.382812 35.242188 29.519531 34.976562 29.753906 34.816406 C 30.085938 34.597656 30.476562 34.488281 30.875 34.511719 C 31.289062 34.484375 31.699219 34.617188 32.019531 34.878906 C 32.289062 35.121094 32.433594 35.46875 32.417969 35.828125 C 32.417969 36.003906 32.558594 36.144531 32.734375 36.144531 L 33.347656 36.144531 C 33.519531 36.144531 33.664062 36.003906 33.664062 35.828125 C 33.664062 35.378906 33.542969 34.9375 33.300781 34.558594 C 33.058594 34.175781 32.710938 33.867188 32.296875 33.671875 C 31.855469 33.464844 31.371094 33.359375 30.878906 33.367188 C 30.191406 33.339844 29.515625 33.542969 28.957031 33.945312 C 28.445312 34.324219 28.144531 34.929688 28.15625 35.566406 C 28.167969 36.203125 28.488281 36.792969 29.011719 37.15625 C 29.542969 37.492188 30.128906 37.742188 30.742188 37.886719 C 31.605469 38.132812 31.988281 38.34375 32.15625 38.484375 C 32.363281 38.660156 32.476562 38.917969 32.464844 39.1875 C 32.472656 39.480469 32.328125 39.753906 32.082031 39.914062 C 31.738281 40.136719 31.332031 40.246094 30.921875 40.222656 C 30.457031 40.25 29.992188 40.117188 29.609375 39.851562 C 29.3125 39.625 29.144531 39.269531 29.164062 38.902344 C 29.164062 38.726562 29.023438 38.585938 28.847656 38.585938 L 28.238281 38.585938 C 28.15625 38.585938 28.078125 38.617188 28.015625 38.675781 C 27.957031 38.738281 27.925781 38.816406 27.925781 38.902344 C 27.917969 39.363281 28.050781 39.8125 28.308594 40.199219 C 28.578125 40.589844 28.960938 40.894531 29.40625 41.074219 C 29.886719 41.273438 30.402344 41.375 30.921875 41.371094 C 31.632812 41.402344 32.328125 41.199219 32.910156 40.792969 C 33.421875 40.421875 33.722656 39.820312 33.710938 39.1875 C 33.71875 38.796875 33.613281 38.414062 33.410156 38.085938 C 33.191406 37.757812 32.898438 37.488281 32.550781 37.300781 Z M 32.542969 37.300781 "/>
<path style=" stroke:none;fill-rule:nonzero;fill:rgb(100%,100%,100%);fill-opacity:1;" d="M 39.777344 40.132812 L 36.230469 40.132812 L 36.230469 37.84375 L 39.273438 37.84375 C 39.449219 37.84375 39.589844 37.699219 39.589844 37.527344 L 39.589844 37.015625 C 39.589844 36.929688 39.558594 36.851562 39.5 36.789062 C 39.441406 36.730469 39.359375 36.695312 39.273438 36.695312 L 36.230469 36.695312 L 36.230469 34.605469 L 39.753906 34.605469 C 39.929688 34.605469 40.070312 34.460938 40.070312 34.289062 L 40.070312 33.773438 C 40.070312 33.601562 39.929688 33.457031 39.753906 33.457031 L 35.308594 33.457031 C 35.226562 33.457031 35.144531 33.492188 35.085938 33.550781 C 35.023438 33.609375 34.992188 33.691406 34.992188 33.773438 L 34.992188 40.957031 C 34.992188 41.039062 35.023438 41.121094 35.085938 41.179688 C 35.144531 41.242188 35.226562 41.273438 35.308594 41.273438 L 39.777344 41.273438 C 39.953125 41.273438 40.09375 41.132812 40.09375 40.957031 L 40.09375 40.441406 C 40.09375 40.269531 39.953125 40.128906 39.777344 40.128906 Z M 39.777344 40.132812 "/>
<path style=" stroke:none;fill-rule:nonzero;fill:rgb(100%,100%,100%);fill-opacity:1;" d="M 46.898438 35.078125 C 46.660156 34.558594 46.277344 34.121094 45.800781 33.8125 C 45.0625 33.335938 44.152344 33.207031 43.3125 33.460938 C 42.472656 33.710938 41.785156 34.320312 41.429688 35.121094 C 41.171875 35.710938 41.042969 36.347656 41.054688 36.992188 L 41.054688 37.730469 C 41.054688 38.824219 41.339844 39.710938 41.90625 40.367188 C 42.46875 41.035156 43.304688 41.40625 44.179688 41.378906 C 44.757812 41.386719 45.328125 41.230469 45.816406 40.921875 C 46.300781 40.605469 46.683594 40.15625 46.914062 39.628906 C 47.171875 39.039062 47.300781 38.402344 47.285156 37.757812 L 47.285156 36.894531 C 47.289062 36.269531 47.15625 35.644531 46.898438 35.074219 Z M 44.179688 40.21875 C 43.648438 40.242188 43.140625 40.007812 42.816406 39.589844 C 42.472656 39.152344 42.296875 38.535156 42.296875 37.757812 L 42.296875 37.007812 C 42.296875 36.203125 42.472656 35.578125 42.820312 35.148438 C 43.160156 34.753906 43.65625 34.527344 44.175781 34.527344 C 44.695312 34.527344 45.191406 34.753906 45.53125 35.148438 C 45.875 35.578125 46.046875 36.195312 46.046875 36.980469 L 46.046875 37.742188 C 46.046875 38.542969 45.875 39.167969 45.539062 39.601562 C 45.214844 40.015625 44.707031 40.246094 44.179688 40.214844 Z M 44.179688 40.21875 "/>
<path style=" stroke:none;fill-rule:nonzero;fill:rgb(100%,100%,100%);fill-opacity:1;" d="M 67.476562 60.769531 L 59.074219 52.363281 C 58.292969 51.578125 57.234375 51.136719 56.128906 51.144531 C 56.023438 51.144531 55.917969 51.144531 55.8125 51.15625 L 53.722656 49.066406 C 53.671875 48.992188 53.613281 48.925781 53.550781 48.863281 C 53.527344 48.84375 53.5 48.820312 53.472656 48.796875 C 53.414062 48.730469 53.347656 48.671875 53.277344 48.617188 L 53.132812 48.476562 C 53.070312 48.417969 53 48.363281 52.925781 48.320312 C 52.808594 48.179688 52.683594 48.050781 52.550781 47.925781 C 52.511719 47.890625 52.472656 47.863281 52.429688 47.832031 C 52.910156 47.160156 53.339844 46.453125 53.722656 45.722656 L 53.753906 45.667969 C 55.535156 42.210938 56.171875 38.277344 55.570312 34.4375 C 55.558594 34.378906 55.539062 34.320312 55.511719 34.269531 C 55.507812 34.113281 55.476562 33.957031 55.417969 33.8125 C 55.394531 33.582031 55.375 33.339844 55.347656 33.109375 C 55.324219 32.917969 55.269531 32.734375 55.179688 32.566406 L 55.550781 32.796875 C 56.070312 33.105469 56.730469 33.019531 57.15625 32.59375 L 58.300781 31.445312 C 58.730469 31.023438 58.816406 30.359375 58.507812 29.84375 L 57.75 28.601562 L 59.15625 28.238281 C 59.734375 28.089844 60.140625 27.566406 60.140625 26.96875 L 60.140625 25.347656 C 60.140625 24.75 59.734375 24.226562 59.15625 24.074219 L 57.75 23.714844 L 58.496094 22.457031 C 58.804688 21.941406 58.71875 21.277344 58.289062 20.855469 L 57.144531 19.707031 C 56.71875 19.28125 56.058594 19.195312 55.539062 19.503906 L 54.3125 20.257812 L 53.949219 18.855469 C 53.800781 18.273438 53.277344 17.867188 52.675781 17.867188 L 51.058594 17.867188 C 50.457031 17.867188 49.933594 18.273438 49.785156 18.855469 L 49.425781 20.257812 L 48.175781 19.519531 C 47.65625 19.210938 46.996094 19.296875 46.570312 19.722656 L 45.425781 20.871094 C 45.414062 20.882812 45.40625 20.890625 45.398438 20.90625 C 44.933594 20.601562 44.433594 20.363281 43.910156 20.195312 L 43.808594 20.167969 C 43.773438 20.148438 43.738281 20.128906 43.699219 20.117188 C 37.054688 17.761719 29.648438 19.425781 24.652344 24.398438 C 22.03125 27.007812 20.273438 30.351562 19.609375 33.988281 C 19.589844 34.078125 19.570312 34.164062 19.550781 34.25 C 19.539062 34.320312 19.53125 34.390625 19.53125 34.460938 C 18.390625 41.703125 21.695312 48.925781 27.925781 52.792969 C 34.15625 56.660156 42.09375 56.417969 48.078125 52.179688 C 48.265625 52.476562 48.488281 52.75 48.742188 53 C 48.914062 53.152344 49.105469 53.296875 49.292969 53.4375 C 49.296875 53.449219 49.304688 53.457031 49.3125 53.464844 L 51.410156 55.5625 C 51.316406 56.769531 51.753906 57.960938 52.609375 58.816406 L 61.019531 67.226562 C 62.644531 68.847656 65.277344 68.847656 66.90625 67.226562 L 67.472656 66.65625 C 69.097656 65.03125 69.097656 62.398438 67.472656 60.773438 Z M 44.769531 25.347656 C 44.765625 25.296875 44.800781 25.253906 44.851562 25.242188 L 47.03125 24.679688 C 47.210938 24.632812 47.363281 24.5 47.4375 24.328125 C 47.507812 24.152344 47.496094 23.953125 47.398438 23.789062 L 46.253906 21.851562 C 46.226562 21.808594 46.234375 21.753906 46.269531 21.71875 L 47.417969 20.574219 C 47.453125 20.539062 47.507812 20.53125 47.550781 20.554688 L 49.488281 21.703125 C 49.652344 21.796875 49.851562 21.8125 50.023438 21.738281 C 50.199219 21.667969 50.332031 21.515625 50.378906 21.332031 L 50.9375 19.15625 C 50.953125 19.105469 50.996094 19.074219 51.046875 19.070312 L 52.667969 19.070312 C 52.71875 19.070312 52.761719 19.105469 52.773438 19.15625 L 53.335938 21.332031 C 53.382812 21.515625 53.511719 21.667969 53.6875 21.738281 C 53.863281 21.8125 54.058594 21.796875 54.222656 21.703125 L 56.160156 20.554688 C 56.203125 20.53125 56.257812 20.539062 56.296875 20.574219 L 57.441406 21.71875 C 57.480469 21.753906 57.488281 21.808594 57.460938 21.851562 L 56.316406 23.789062 C 56.21875 23.953125 56.203125 24.152344 56.277344 24.328125 C 56.347656 24.503906 56.5 24.632812 56.683594 24.679688 L 58.863281 25.242188 C 58.910156 25.253906 58.945312 25.296875 58.945312 25.347656 L 58.945312 26.964844 C 58.945312 27.015625 58.910156 27.0625 58.863281 27.074219 L 56.683594 27.636719 C 56.5 27.679688 56.347656 27.8125 56.277344 27.988281 C 56.203125 28.164062 56.21875 28.363281 56.316406 28.523438 L 57.460938 30.460938 C 57.488281 30.503906 57.480469 30.5625 57.441406 30.597656 L 56.296875 31.746094 C 56.261719 31.777344 56.203125 31.785156 56.160156 31.761719 L 54.222656 30.617188 C 54.058594 30.519531 53.863281 30.507812 53.6875 30.578125 C 53.511719 30.648438 53.382812 30.800781 53.335938 30.984375 L 52.773438 33.160156 C 52.761719 33.210938 52.71875 33.246094 52.667969 33.246094 L 51.046875 33.246094 C 50.996094 33.246094 50.953125 33.210938 50.9375 33.164062 L 50.378906 30.984375 C 50.3125 30.714844 50.070312 30.527344 49.796875 30.523438 C 49.6875 30.523438 49.582031 30.554688 49.488281 30.609375 L 47.550781 31.753906 C 47.507812 31.78125 47.453125 31.777344 47.417969 31.738281 L 46.269531 30.59375 C 46.238281 30.558594 46.230469 30.503906 46.253906 30.457031 L 47.402344 28.523438 C 47.496094 28.359375 47.511719 28.160156 47.4375 27.984375 C 47.367188 27.8125 47.214844 27.679688 47.03125 27.632812 L 44.855469 27.070312 C 44.804688 27.058594 44.769531 27.015625 44.769531 26.964844 Z M 47.242188 46.980469 C 42.421875 51.792969 34.796875 52.339844 29.34375 48.257812 C 23.886719 44.179688 22.257812 36.710938 25.515625 30.726562 C 28.773438 24.746094 35.929688 22.0625 42.316406 24.429688 C 42.375 24.453125 42.4375 24.464844 42.5 24.464844 C 42.886719 24.632812 43.253906 24.847656 43.59375 25.097656 C 43.578125 25.175781 43.566406 25.257812 43.566406 25.339844 L 43.566406 26.960938 C 43.566406 27.5625 43.972656 28.082031 44.550781 28.234375 L 45.953125 28.59375 L 45.21875 29.84375 C 44.910156 30.363281 44.992188 31.023438 45.421875 31.449219 L 46.566406 32.59375 C 46.992188 33.023438 47.652344 33.105469 48.171875 32.796875 L 49.417969 32.0625 L 49.773438 33.457031 C 49.917969 34.011719 50.40625 34.410156 50.976562 34.4375 L 50.976562 34.457031 C 51.027344 35.140625 51.109375 35.816406 51.226562 36.488281 C 51.457031 40.394531 50.007812 44.210938 47.242188 46.980469 Z M 47.242188 46.980469 "/>
<path style=" stroke:none;fill-rule:nonzero;fill:rgb(100%,100%,100%);fill-opacity:1;" d="M 51.855469 29.316406 C 50.109375 29.316406 48.695312 27.902344 48.695312 26.15625 C 48.695312 24.410156 50.109375 22.996094 51.855469 22.996094 C 53.601562 22.996094 55.015625 24.410156 55.015625 26.15625 C 55.015625 27.902344 53.601562 29.316406 51.855469 29.316406 Z M 51.855469 24.203125 C 50.773438 24.203125 49.898438 25.078125 49.898438 26.160156 C 49.898438 27.242188 50.777344 28.117188 51.855469 28.117188 C 52.9375 28.117188 53.8125 27.238281 53.8125 26.15625 C 53.8125 25.078125 52.9375 24.203125 51.855469 24.203125 Z M 51.855469 24.203125 "/>
</g>
</svg>
