<?xml version="1.0" encoding="UTF-8"?>
<svg xmlns="http://www.w3.org/2000/svg" xmlns:xlink="http://www.w3.org/1999/xlink" width="88pt" height="88pt" viewBox="0 0 88 88" version="1.1">
<g id="surface1">
<path style=" stroke:none;fill-rule:nonzero;fill:rgb(38.431373%,32.156863%,25.098039%);fill-opacity:1;" d="M 88 44 C 88 68.292969 68.292969 88 44 88 C 19.707031 88 0 68.292969 0 44 C 0 19.707031 19.707031 0 44 0 C 68.292969 0 88 19.707031 88 44 Z M 88 44 "/>
<path style=" stroke:none;fill-rule:nonzero;fill:rgb(96.078431%,92.156863%,89.803922%);fill-opacity:1;" d="M 47.292969 23.5 L 47.207031 23.5 C 46.777344 23.5 46.378906 23.730469 46.164062 24.105469 L 38.414062 37.65625 C 38.378906 37.777344 38.183594 38.449219 38.589844 38.933594 C 38.65625 39.015625 38.734375 39.082031 38.820312 39.136719 C 39.4375 39.53125 40.410156 38.925781 40.464844 38.890625 L 46.105469 29.0625 L 46.105469 50.417969 L 33.890625 50.417969 C 36.078125 46.578125 38.273438 42.742188 40.464844 38.902344 C 40.09375 39.382812 39.414062 39.511719 38.894531 39.195312 C 38.371094 38.878906 38.167969 38.222656 38.417969 37.664062 C 35.871094 42.121094 33.320312 46.570312 30.769531 51.023438 C 30.558594 51.394531 30.558594 51.851562 30.773438 52.222656 C 30.988281 52.59375 31.382812 52.824219 31.8125 52.824219 L 47.308594 52.824219 C 47.972656 52.820312 48.511719 52.285156 48.511719 51.621094 L 48.511719 24.703125 C 48.511719 24.378906 48.382812 24.074219 48.152344 23.847656 C 47.925781 23.621094 47.613281 23.496094 47.292969 23.5 Z M 47.292969 23.5 "/>
<path style=" stroke:none;fill-rule:nonzero;fill:rgb(96.078431%,92.156863%,89.803922%);fill-opacity:1;" d="M 66.320312 52.210938 C 65.632812 50.71875 64.675781 50.40625 63.996094 50.40625 L 60 50.40625 L 60 16.351562 C 59.996094 15.652344 59.671875 14.996094 59.125 14.566406 C 59.109375 14.550781 59.089844 14.535156 59.074219 14.523438 C 58.511719 14.128906 57.875 13.855469 57.203125 13.714844 C 56.273438 13.496094 55.324219 13.363281 54.371094 13.3125 C 53.316406 13.238281 51.996094 13.199219 50.324219 13.199219 C 48.886719 13.199219 47.640625 13.230469 46.628906 13.296875 C 45.742188 13.339844 44.855469 13.445312 43.980469 13.613281 C 43.34375 13.730469 42.726562 13.9375 42.144531 14.226562 L 42.128906 14.226562 C 41.628906 14.492188 41.207031 14.882812 40.910156 15.359375 L 40.910156 15.378906 L 22.6875 47.488281 C 22.683594 47.496094 22.679688 47.503906 22.675781 47.511719 C 22.371094 48.082031 22.101562 48.667969 21.863281 49.269531 L 21.851562 49.308594 C 21.640625 49.902344 21.472656 50.507812 21.355469 51.125 C 21.230469 51.8125 21.148438 52.507812 21.105469 53.207031 C 21.058594 53.894531 21.039062 54.6875 21.039062 55.800781 C 21.023438 56.8125 21.078125 57.824219 21.207031 58.828125 C 21.296875 59.542969 21.511719 60.238281 21.84375 60.875 L 21.871094 60.925781 C 22.207031 61.503906 22.738281 61.941406 23.367188 62.15625 C 23.855469 62.308594 24.363281 62.382812 24.871094 62.371094 L 46.089844 62.371094 L 46.089844 71.792969 C 46.082031 72.332031 46.253906 72.855469 46.570312 73.292969 C 46.953125 73.765625 47.46875 74.109375 48.050781 74.285156 L 48.085938 74.296875 C 48.746094 74.496094 49.421875 74.628906 50.105469 74.691406 C 51.0625 74.777344 52.023438 74.816406 52.984375 74.804688 C 53.964844 74.816406 54.949219 74.777344 55.925781 74.691406 C 56.601562 74.625 57.269531 74.496094 57.921875 74.304688 L 57.96875 74.292969 C 58.558594 74.125 59.082031 73.785156 59.472656 73.316406 C 59.816406 72.882812 60 72.34375 60 71.792969 L 60 62.367188 L 63.996094 62.367188 C 64.609375 62.367188 65.734375 62.113281 66.394531 60.398438 C 66.777344 59.453125 66.960938 58.15625 66.960938 56.433594 C 66.960938 54.46875 66.757812 53.128906 66.320312 52.210938 Z M 64.167969 59.507812 L 64.167969 59.527344 C 64.113281 59.683594 64.039062 59.828125 63.9375 59.960938 L 58.796875 59.960938 C 58.132812 59.960938 57.59375 60.5 57.59375 61.164062 L 57.59375 71.804688 C 57.589844 71.8125 57.585938 71.820312 57.582031 71.824219 C 57.464844 71.898438 57.34375 71.953125 57.214844 71.996094 C 56.710938 72.136719 56.199219 72.234375 55.679688 72.285156 C 55.035156 72.351562 54.15625 72.382812 52.988281 72.382812 C 51.878906 72.382812 51.019531 72.351562 50.363281 72.285156 C 49.851562 72.238281 49.34375 72.140625 48.847656 72 C 48.726562 71.960938 48.613281 71.90625 48.511719 71.839844 C 48.507812 71.820312 48.507812 71.796875 48.511719 71.777344 L 48.511719 61.164062 C 48.511719 60.5 47.972656 59.960938 47.308594 59.960938 L 24.871094 59.960938 C 24.617188 59.96875 24.367188 59.9375 24.125 59.867188 L 24.105469 59.867188 C 24.082031 59.867188 24.015625 59.808594 23.925781 59.675781 C 23.746094 59.292969 23.632812 58.886719 23.589844 58.46875 C 23.476562 57.582031 23.429688 56.691406 23.445312 55.800781 C 23.445312 54.757812 23.464844 53.980469 23.503906 53.363281 C 23.539062 52.761719 23.613281 52.164062 23.71875 51.574219 C 23.8125 51.082031 23.945312 50.601562 24.113281 50.128906 C 24.3125 49.628906 24.542969 49.140625 24.800781 48.667969 L 42.988281 16.585938 C 43.074219 16.480469 43.179688 16.394531 43.304688 16.335938 C 43.679688 16.160156 44.078125 16.035156 44.488281 15.964844 C 45.246094 15.820312 46.011719 15.730469 46.78125 15.695312 C 47.738281 15.632812 48.933594 15.605469 50.324219 15.605469 C 51.925781 15.605469 53.203125 15.636719 54.195312 15.710938 C 55.007812 15.75 55.8125 15.863281 56.605469 16.042969 L 56.632812 16.042969 C 56.972656 16.109375 57.296875 16.234375 57.59375 16.414062 L 57.59375 51.609375 C 57.59375 52.273438 58.132812 52.808594 58.796875 52.8125 L 63.886719 52.8125 C 63.988281 52.9375 64.074219 53.074219 64.132812 53.222656 C 64.136719 53.230469 64.136719 53.234375 64.132812 53.238281 C 64.320312 53.628906 64.542969 54.5 64.542969 56.433594 C 64.542969 57.828125 64.410156 58.863281 64.152344 59.507812 Z M 64.167969 59.507812 "/>
<path style=" stroke:none;fill-rule:nonzero;fill:rgb(96.078431%,92.156863%,89.803922%);fill-opacity:1;" d="M 39.5 39.355469 C 40.164062 39.355469 40.703125 38.820312 40.703125 38.152344 C 40.703125 37.488281 40.164062 36.949219 39.5 36.949219 C 38.835938 36.949219 38.296875 37.488281 38.296875 38.152344 C 38.296875 38.820312 38.835938 39.355469 39.5 39.355469 Z M 39.5 39.355469 "/>
</g>
</svg>
