<svg xmlns="http://www.w3.org/2000/svg" xmlns:xlink="http://www.w3.org/1999/xlink" viewBox="0 0 64.18 64.18"><defs><style>.cls-1{fill:none;}.cls-2{fill:#625240;}.cls-3{fill:#f5ebe5;}.cls-4{clip-path:url(#clip-path);}</style><clipPath id="clip-path"><path class="cls-1" d="M16.28,53.23H49.89V12.72H16.28V53.23Z"/></clipPath></defs><g id="Calque_2" data-name="Calque 2"><g id="Calque_1-2" data-name="Calque 1"><circle class="cls-2" cx="32.09" cy="32.09" r="32.09"/><path class="cls-3" d="M22,16.69a1,1,0,1,1-1-1.1,1.06,1.06,0,0,1,1,1.1Z"/><path class="cls-3" d="M25.1,16.69a1,1,0,1,1-1-1.1,1.06,1.06,0,0,1,1,1.1Z"/><path class="cls-3" d="M28.23,16.69a1,1,0,1,1-1-1.1,1.06,1.06,0,0,1,1,1.1Z"/><path class="cls-3" d="M36.2,24.15a.59.59,0,0,0,0-1.18H27.55a.59.59,0,0,0,0,1.18Z"/><path class="cls-3" d="M20.1,26.57a.58.58,0,0,0,.55.59H43.1a.57.57,0,0,0,.54-.59A.56.56,0,0,0,43.1,26H20.65a.57.57,0,0,0-.55.59Z"/><g class="cls-4"><path class="cls-3" d="M20.65,30.06h5.1a.57.57,0,0,0,.55-.59.58.58,0,0,0-.55-.59h-5.1a.58.58,0,0,0-.55.59.57.57,0,0,0,.55.59Z"/><path class="cls-3" d="M49,47.41l-3.6-3.89a3,3,0,0,0,2.09-2.94V15.76a2.93,2.93,0,0,0-2.81-3H34.56a.59.59,0,0,1,0,1.18H44.64a1.8,1.8,0,0,1,1.72,1.86v3.72h-29V15.76a1.8,1.8,0,0,1,1.72-1.86H34.56a.59.59,0,0,0,0-1.18H19.11a2.93,2.93,0,0,0-2.81,3V35.62h0l.54,2.27h0l.55.59V20.66h29V40.58a1.8,1.8,0,0,1-1.72,1.86h-.28s-9-9.72-9.23-9.93L29.76,29.4l-.06,0a1.38,1.38,0,0,0-1.54.35,1.65,1.65,0,0,0-.34,1.66.19.19,0,0,0,0,.07l2.84,5.86c.07.13,4.72,5.13,4.72,5.13H19.11a1.8,1.8,0,0,1-1.72-1.86v-2.1a20,20,0,0,0-.16-2.84C17,34.08,17,34,16.88,34s-.27.2-.58,1.67v5a2.93,2.93,0,0,0,2.81,3H36.5l4.62,5a.52.52,0,0,0,.77,0,.64.64,0,0,0,0-.84l-9.16-9.88,2.94-3.17L48.19,48.24a2.37,2.37,0,0,1,0,3.17,2,2,0,0,1-2.93,0l-3.37-3.64a.64.64,0,0,1,0,.84.52.52,0,0,1-.77,0l3.36,3.64a3,3,0,0,0,4.48,0A3.66,3.66,0,0,0,49,47.41ZM34.8,33.78,31.87,37l-.26-.27-.76-1.58,2.25-2.43,1.45.84Zm-5.87-3.22c.1,0,0-.13.35-.09l2.81,1.62L30.32,34l-1.49-3.06a.4.4,0,0,1,.1-.38Z"/></g></g></g></svg>