<?xml version="1.0" encoding="UTF-8"?>
<svg xmlns="http://www.w3.org/2000/svg" xmlns:xlink="http://www.w3.org/1999/xlink" width="88pt" height="88pt" viewBox="0 0 88 88" version="1.1">
<g id="surface1">
<path style=" stroke:none;fill-rule:nonzero;fill:rgb(38.431373%,32.156863%,25.098039%);fill-opacity:1;" d="M 88 44 C 88 68.292969 68.292969 88 44 88 C 19.707031 88 0 68.292969 0 44 C 0 19.707031 19.707031 0 44 0 C 68.292969 0 88 19.707031 88 44 Z M 88 44 "/>
<path style=" stroke:none;fill-rule:nonzero;fill:rgb(96.078431%,92.156863%,89.803922%);fill-opacity:1;" d="M 62.863281 45.871094 C 61.96875 43.648438 60.554688 41.675781 58.738281 40.109375 C 56.972656 38.589844 54.746094 37.417969 52.136719 36.632812 C 49.597656 35.867188 46.652344 35.476562 43.394531 35.476562 C 42.25 35.476562 41.140625 35.492188 40.105469 35.527344 C 39.480469 35.542969 38.847656 35.578125 38.214844 35.628906 L 38.214844 25.734375 L 57.726562 25.734375 C 58.375 25.734375 59.558594 25.472656 60.214844 23.75 C 60.585938 22.800781 60.769531 21.378906 60.769531 19.398438 C 60.78125 18.578125 60.742188 17.757812 60.65625 16.941406 C 60.589844 16.292969 60.4375 15.660156 60.199219 15.054688 C 59.996094 14.523438 59.652344 14.054688 59.203125 13.703125 C 58.777344 13.375 58.253906 13.195312 57.71875 13.191406 L 30.160156 13.191406 C 28.804688 13.191406 27.757812 13.585938 27.046875 14.367188 L 27.03125 14.378906 C 26.367188 15.136719 26.042969 16.242188 26.042969 17.753906 L 26.042969 43.003906 C 26.042969 44.5 26.316406 45.523438 26.898438 46.191406 C 27.484375 46.863281 28.4375 47.257812 29.671875 47.257812 C 31.066406 47.25 32.460938 47.160156 33.84375 46.992188 L 33.859375 46.992188 C 35.378906 46.804688 36.910156 46.714844 38.441406 46.726562 C 41.003906 46.726562 42.28125 46.773438 43.714844 47.273438 C 45.714844 47.960938 47.273438 49.199219 47.925781 49.722656 C 49.492188 50.988281 50.089844 51.949219 50.445312 51.757812 C 50.886719 51.53125 50.695312 49.742188 49.863281 48.335938 C 48.570312 46.148438 46.050781 45.4375 44.289062 44.9375 C 42.074219 44.308594 40.210938 44.320312 38.425781 44.320312 C 36.792969 44.308594 35.160156 44.40625 33.539062 44.601562 C 32.246094 44.761719 30.945312 44.847656 29.644531 44.855469 C 29.089844 44.855469 28.792969 44.738281 28.695312 44.625 C 28.667969 44.59375 28.421875 44.269531 28.421875 43.003906 L 28.421875 17.761719 C 28.421875 16.574219 28.683594 16.128906 28.804688 15.988281 C 29.03125 15.734375 29.492188 15.605469 30.132812 15.605469 L 57.703125 15.605469 C 57.726562 15.617188 57.75 15.632812 57.769531 15.648438 C 57.859375 15.742188 57.925781 15.851562 57.964844 15.96875 L 57.964844 15.992188 C 58.117188 16.390625 58.210938 16.808594 58.246094 17.230469 C 58.320312 17.953125 58.355469 18.679688 58.347656 19.40625 C 58.347656 21.457031 58.132812 22.425781 57.953125 22.875 L 57.953125 22.890625 C 57.90625 23.050781 57.824219 23.203125 57.710938 23.328125 L 37.003906 23.328125 C 36.339844 23.328125 35.800781 23.867188 35.800781 24.53125 L 35.800781 36.957031 C 35.800781 37.300781 35.949219 37.628906 36.203125 37.855469 C 36.460938 38.082031 36.800781 38.191406 37.144531 38.152344 C 38.148438 38.035156 39.164062 37.960938 40.167969 37.921875 C 41.171875 37.886719 42.261719 37.875 43.375 37.875 C 46.398438 37.875 49.105469 38.230469 51.425781 38.929688 C 53.746094 39.628906 55.640625 40.625 57.152344 41.929688 C 58.6875 43.246094 59.882812 44.914062 60.628906 46.789062 C 61.433594 48.722656 61.839844 51.039062 61.839844 53.675781 C 61.839844 56.625 61.324219 59.296875 60.304688 61.613281 C 59.324219 63.855469 57.851562 65.847656 55.992188 67.4375 C 53.996094 69.085938 51.695312 70.328125 49.21875 71.09375 C 46.320312 71.988281 43.296875 72.421875 40.261719 72.386719 C 38.601562 72.394531 36.945312 72.285156 35.304688 72.0625 C 33.882812 71.863281 32.476562 71.589844 31.089844 71.230469 C 30.066406 70.96875 29.0625 70.640625 28.082031 70.246094 C 27.117188 69.828125 26.871094 69.660156 26.816406 69.613281 L 26.789062 69.589844 C 26.675781 69.496094 26.582031 69.382812 26.515625 69.25 C 26.425781 69.023438 26.355469 68.789062 26.3125 68.550781 C 26.238281 68.136719 26.195312 67.714844 26.179688 67.292969 C 26.148438 66.753906 26.136719 66.09375 26.136719 65.335938 C 26.128906 64.664062 26.160156 63.996094 26.222656 63.328125 C 26.246094 62.953125 26.320312 62.585938 26.4375 62.230469 L 26.4375 62.214844 C 26.464844 62.132812 26.492188 62.078125 26.515625 62.03125 C 26.746094 62.121094 26.96875 62.230469 27.179688 62.359375 L 27.203125 62.371094 C 29.210938 63.453125 31.359375 64.257812 33.585938 64.753906 C 35.382812 65.15625 37.21875 65.34375 39.058594 65.3125 C 40.757812 65.324219 42.449219 65.132812 44.101562 64.742188 C 45.585938 64.386719 46.976562 63.71875 48.179688 62.777344 C 49.316406 61.855469 50.214844 60.679688 50.804688 59.339844 C 51.449219 57.820312 51.761719 56.179688 51.71875 54.527344 C 51.703125 52.839844 51.675781 50.15625 49.863281 48.320312 C 49.058594 47.503906 47.824219 46.777344 47.421875 47.097656 C 47.15625 47.300781 47.339844 47.894531 47.917969 49.707031 C 49.164062 53.605469 49.273438 53.816406 49.3125 54.519531 C 49.351562 55.832031 49.109375 57.132812 48.605469 58.34375 C 48.171875 59.335938 47.507812 60.207031 46.667969 60.886719 C 45.730469 61.605469 44.652344 62.121094 43.503906 62.390625 C 42.039062 62.734375 40.542969 62.902344 39.039062 62.890625 C 37.394531 62.917969 35.753906 62.757812 34.148438 62.402344 C 32.960938 62.132812 31.796875 61.773438 30.664062 61.328125 C 29.882812 61.007812 29.117188 60.648438 28.375 60.253906 C 27.570312 59.792969 26.949219 59.578125 26.417969 59.578125 C 25.90625 59.570312 25.410156 59.75 25.019531 60.082031 C 24.632812 60.421875 24.347656 60.859375 24.191406 61.347656 C 23.992188 61.902344 23.871094 62.476562 23.828125 63.0625 C 23.753906 63.8125 23.722656 64.566406 23.726562 65.320312 C 23.726562 66.125 23.742188 66.828125 23.773438 67.410156 C 23.796875 67.949219 23.855469 68.484375 23.953125 69.015625 C 24.03125 69.433594 24.15625 69.839844 24.320312 70.226562 L 24.320312 70.25 C 24.527344 70.675781 24.816406 71.054688 25.167969 71.367188 C 25.511719 71.679688 26.042969 71.972656 27.117188 72.441406 C 28.210938 72.890625 29.335938 73.265625 30.480469 73.5625 L 30.492188 73.5625 C 31.972656 73.945312 33.472656 74.238281 34.984375 74.449219 C 36.738281 74.6875 38.507812 74.804688 40.277344 74.796875 C 43.566406 74.835938 46.839844 74.359375 49.980469 73.386719 C 52.753906 72.527344 55.332031 71.128906 57.570312 69.277344 C 59.703125 67.449219 61.398438 65.164062 62.519531 62.585938 C 63.667969 59.964844 64.265625 56.964844 64.265625 53.679688 C 64.261719 50.726562 63.789062 48.097656 62.863281 45.871094 Z M 62.863281 45.871094 "/>
<path style=" stroke:none;fill-rule:nonzero;fill:rgb(96.078431%,92.156863%,89.803922%);fill-opacity:1;" d="M 50.1875 49.140625 C 50.1875 48.476562 49.648438 47.9375 48.984375 47.9375 C 48.320312 47.9375 47.78125 48.476562 47.78125 49.140625 C 47.78125 49.804688 48.320312 50.34375 48.984375 50.34375 C 49.648438 50.34375 50.1875 49.804688 50.1875 49.140625 Z M 50.1875 49.140625 "/>
</g>
</svg>
