<svg xmlns="http://www.w3.org/2000/svg" xmlns:xlink="http://www.w3.org/1999/xlink" viewBox="0 0 88.47 88.47"><defs><style>.cls-1{fill:none;}.cls-2{fill:#625240;}.cls-3{fill:#f5ebe5;}.cls-4{clip-path:url(#clip-path);}</style><clipPath id="clip-path"><path class="cls-1" d="M22.45,73.38H68.77V17.53H22.45V73.38Z"/></clipPath></defs><g id="Calque_2" data-name="Calque 2"><g id="Calque_1-2" data-name="Calque 1"><circle class="cls-2" cx="44.23" cy="44.23" r="44.23"/><path class="cls-3" d="M30.29,23a1.41,1.41,0,1,1-1.41-1.52A1.46,1.46,0,0,1,30.29,23Z"/><path class="cls-3" d="M34.6,23a1.4,1.4,0,1,1-1.4-1.52A1.46,1.46,0,0,1,34.6,23Z"/><path class="cls-3" d="M38.92,23a1.41,1.41,0,1,1-1.4-1.52A1.46,1.46,0,0,1,38.92,23Z"/><path class="cls-3" d="M49.9,33.29a.81.81,0,0,0,0-1.62H38a.81.81,0,0,0,0,1.62Z"/><path class="cls-3" d="M27.71,36.63a.78.78,0,0,0,.76.81H59.41a.78.78,0,0,0,.75-.81.79.79,0,0,0-.75-.82H28.47a.79.79,0,0,0-.76.82Z"/><g class="cls-4"><path class="cls-3" d="M28.47,41.44h7a.78.78,0,0,0,.75-.81.79.79,0,0,0-.75-.82h-7a.79.79,0,0,0-.76.82.78.78,0,0,0,.76.81Z"/><path class="cls-3" d="M67.5,65.35l-5-5.36a4.16,4.16,0,0,0,2.89-4.05V21.73a4.06,4.06,0,0,0-3.89-4.2H47.64a.79.79,0,0,1,.75.82.78.78,0,0,1-.75.81H61.53a2.48,2.48,0,0,1,2.38,2.57v5.13H24V21.73a2.48,2.48,0,0,1,2.38-2.57H47.64a.78.78,0,0,0,.75-.81.79.79,0,0,0-.75-.82H26.35a4.06,4.06,0,0,0-3.89,4.2V49.1h0l.76,3.13h0l.75.82V28.48H63.91V55.94a2.48,2.48,0,0,1-2.38,2.56h-.38S48.81,45.1,48.43,44.81L41,40.53l-.09,0a1.87,1.87,0,0,0-2.12.49,2.25,2.25,0,0,0-.48,2.28.3.3,0,0,1,0,.1l3.92,8.07c.08.18,6.5,7.07,6.5,7.07H26.35A2.48,2.48,0,0,1,24,55.94V53.05a29.38,29.38,0,0,0-.22-3.92c-.27-2.16-.39-2.32-.48-2.33s-.38.27-.81,2.3v6.84a4.06,4.06,0,0,0,3.89,4.19h24L56.68,67a.72.72,0,0,0,1.07,0,.87.87,0,0,0,0-1.15L45.12,52.23l4.05-4.37L66.43,66.5a3.28,3.28,0,0,1,0,4.37,2.7,2.7,0,0,1-4,0l-4.64-5a.87.87,0,0,1,0,1.15.72.72,0,0,1-1.07,0l4.64,5a4.19,4.19,0,0,0,6.18,0A5.05,5.05,0,0,0,67.5,65.35ZM48,46.57l-4,4.37-.35-.38-1.06-2.18L45.62,45l2,1.15Zm-8.09-4.44c.14-.05,0-.18.49-.13l3.86,2.23-2.44,2.64-2-4.21a.55.55,0,0,1,.13-.53Z"/></g></g></g></svg>