<?xml version="1.0" encoding="UTF-8"?>
<svg xmlns="http://www.w3.org/2000/svg" xmlns:xlink="http://www.w3.org/1999/xlink" width="88pt" height="88pt" viewBox="0 0 88 88" version="1.1">
<g id="surface1">
<path style=" stroke:none;fill-rule:nonzero;fill:rgb(38.431373%,32.156863%,25.098039%);fill-opacity:1;" d="M 88 44 C 88 68.292969 68.292969 88 44 88 C 19.707031 88 0 68.292969 0 44 C 0 19.707031 19.707031 0 44 0 C 68.292969 0 88 19.707031 88 44 Z M 88 44 "/>
<path style=" stroke:none;fill-rule:nonzero;fill:rgb(96.078431%,92.156863%,89.803922%);fill-opacity:1;" d="M 64.566406 66.421875 C 64.492188 65.792969 64.324219 65.175781 64.058594 64.601562 C 63.832031 64.082031 63.46875 63.636719 63.007812 63.3125 C 62.566406 62.992188 62.035156 62.816406 61.488281 62.820312 L 41.429688 62.820312 L 46.21875 57.917969 C 49.65625 54.519531 52.453125 51.480469 54.542969 48.898438 C 56.632812 46.316406 58.308594 43.871094 59.484375 41.699219 C 60.6875 39.449219 61.464844 37.40625 61.859375 35.4375 C 62.230469 33.527344 62.417969 31.585938 62.417969 29.636719 C 62.433594 27.421875 62.027344 25.21875 61.230469 23.152344 C 60.433594 21.125 59.179688 19.3125 57.5625 17.855469 C 55.957031 16.394531 53.914062 15.238281 51.492188 14.417969 C 49.109375 13.609375 46.304688 13.203125 43.160156 13.203125 C 41.226562 13.199219 39.292969 13.386719 37.394531 13.765625 C 35.691406 14.109375 34.011719 14.566406 32.371094 15.140625 C 31.027344 15.597656 29.722656 16.167969 28.472656 16.847656 C 27.65625 17.269531 26.886719 17.785156 26.183594 18.378906 L 26.144531 18.414062 C 25.789062 18.761719 25.46875 19.144531 25.195312 19.558594 L 25.179688 19.585938 C 24.953125 19.96875 24.789062 20.382812 24.691406 20.816406 C 24.578125 21.265625 24.496094 21.726562 24.449219 22.191406 C 24.402344 22.667969 24.382812 23.246094 24.382812 24.054688 C 24.375 24.960938 24.410156 25.863281 24.496094 26.761719 C 24.558594 27.390625 24.667969 28.015625 24.816406 28.628906 L 24.832031 28.679688 C 24.960938 29.230469 25.25 29.734375 25.660156 30.128906 C 26.074219 30.503906 26.609375 30.707031 27.164062 30.707031 C 27.820312 30.707031 28.539062 30.414062 29.457031 29.789062 C 30.101562 29.359375 30.917969 28.871094 31.945312 28.316406 C 33.03125 27.746094 34.167969 27.269531 35.339844 26.898438 C 36.738281 26.46875 38.199219 26.261719 39.660156 26.28125 C 40.625 26.257812 41.585938 26.414062 42.488281 26.742188 C 43.203125 27.015625 43.851562 27.445312 44.378906 28 C 44.890625 28.542969 45.28125 29.1875 45.527344 29.890625 C 45.800781 30.660156 45.9375 31.472656 45.933594 32.289062 C 45.933594 33.355469 45.816406 34.417969 45.574219 35.453125 C 44.898438 38.035156 43.742188 39.484375 41.558594 43.566406 C 39.59375 47.230469 39.722656 47.578125 39.839844 47.667969 C 40.234375 47.988281 42.035156 46.519531 43.253906 45.261719 C 46.519531 41.867188 47.457031 37.921875 47.921875 35.980469 C 48.199219 34.777344 48.339844 33.546875 48.332031 32.3125 C 48.339844 31.21875 48.15625 30.132812 47.789062 29.105469 C 47.433594 28.089844 46.871094 27.164062 46.136719 26.382812 C 45.367188 25.570312 44.429688 24.9375 43.386719 24.53125 C 42.195312 24.085938 40.929688 23.871094 39.65625 23.894531 C 37.941406 23.875 36.230469 24.121094 34.589844 24.628906 C 33.28125 25.046875 32.011719 25.578125 30.796875 26.21875 C 29.699219 26.820312 28.820312 27.339844 28.113281 27.824219 L 28.097656 27.824219 C 27.832031 28.015625 27.546875 28.167969 27.242188 28.28125 C 27.203125 28.199219 27.171875 28.109375 27.148438 28.023438 C 27.027344 27.523438 26.941406 27.019531 26.890625 26.507812 C 26.816406 25.695312 26.78125 24.878906 26.792969 24.058594 C 26.792969 23.339844 26.808594 22.824219 26.847656 22.429688 C 26.878906 22.085938 26.941406 21.742188 27.027344 21.402344 C 27.027344 21.390625 27.027344 21.378906 27.027344 21.367188 C 27.070312 21.175781 27.140625 20.992188 27.238281 20.820312 C 27.410156 20.574219 27.605469 20.347656 27.824219 20.144531 C 28.390625 19.6875 29.003906 19.289062 29.65625 18.957031 C 30.785156 18.34375 31.96875 17.828125 33.1875 17.417969 C 34.722656 16.882812 36.289062 16.449219 37.882812 16.125 C 39.625 15.78125 41.398438 15.609375 43.171875 15.613281 C 46.054688 15.613281 48.597656 15.980469 50.734375 16.699219 C 52.871094 17.417969 54.597656 18.40625 55.960938 19.640625 C 57.300781 20.851562 58.339844 22.359375 58.992188 24.042969 C 59.683594 25.828125 60.027344 27.730469 60.015625 29.644531 C 60.011719 31.4375 59.839844 33.222656 59.5 34.980469 C 59.15625 36.703125 58.457031 38.53125 57.367188 40.566406 C 56.277344 42.597656 54.6875 44.902344 52.671875 47.394531 C 50.65625 49.886719 47.894531 52.875 44.519531 56.21875 C 44.519531 56.21875 44.519531 56.21875 44.519531 56.230469 L 37.710938 63.179688 C 37.371094 63.527344 37.273438 64.042969 37.460938 64.488281 C 37.648438 64.933594 38.085938 65.226562 38.570312 65.226562 L 61.484375 65.226562 C 61.523438 65.222656 61.5625 65.234375 61.59375 65.261719 L 61.660156 65.308594 C 61.761719 65.402344 61.839844 65.519531 61.890625 65.648438 L 61.890625 65.664062 C 62.039062 66.019531 62.136719 66.394531 62.175781 66.777344 C 62.265625 67.441406 62.308594 68.109375 62.300781 68.78125 C 62.308594 69.476562 62.277344 70.175781 62.203125 70.871094 C 62.15625 71.289062 62.066406 71.699219 61.933594 72.101562 C 61.894531 72.199219 61.84375 72.292969 61.773438 72.375 C 61.738281 72.390625 61.703125 72.394531 61.664062 72.394531 L 28.207031 72.394531 C 27.734375 72.402344 27.265625 72.355469 26.804688 72.25 C 26.589844 72.203125 26.394531 72.09375 26.246094 71.933594 C 26.039062 71.648438 25.90625 71.320312 25.855469 70.972656 C 25.722656 70.207031 25.664062 69.433594 25.683594 68.65625 C 25.675781 67.859375 25.71875 67.058594 25.808594 66.265625 C 25.867188 65.730469 26 65.207031 26.207031 64.710938 C 26.425781 64.21875 26.695312 63.75 27.007812 63.3125 C 27.417969 62.746094 27.871094 62.214844 28.363281 61.71875 L 28.378906 61.699219 L 38.464844 50.925781 C 42.128906 46.851562 43.355469 45.359375 43.253906 45.261719 C 43.105469 45.117188 40.292969 48.03125 39.835938 47.664062 C 39.378906 47.296875 41.746094 43.679688 41.554688 43.5625 C 41.363281 43.441406 39.78125 45.972656 36.71875 49.269531 L 26.648438 60.039062 C 26.070312 60.621094 25.542969 61.246094 25.0625 61.910156 C 24.65625 62.480469 24.308594 63.089844 24.023438 63.726562 C 23.722656 64.433594 23.527344 65.183594 23.4375 65.949219 C 23.332031 66.84375 23.285156 67.746094 23.292969 68.648438 C 23.273438 69.589844 23.351562 70.53125 23.523438 71.457031 C 23.648438 72.207031 23.960938 72.910156 24.4375 73.503906 C 24.90625 74.03125 25.527344 74.402344 26.214844 74.570312 C 26.871094 74.730469 27.542969 74.808594 28.21875 74.800781 L 61.675781 74.800781 C 62.207031 74.800781 62.730469 74.640625 63.167969 74.339844 L 63.199219 74.320312 C 63.652344 73.972656 63.992188 73.503906 64.191406 72.964844 C 64.195312 72.949219 64.203125 72.933594 64.207031 72.914062 C 64.402344 72.347656 64.535156 71.761719 64.605469 71.164062 C 64.691406 70.371094 64.730469 69.574219 64.71875 68.777344 C 64.726562 67.988281 64.675781 67.203125 64.566406 66.421875 Z M 64.566406 66.421875 "/>
<path style=" stroke:none;fill-rule:nonzero;fill:rgb(96.078431%,92.156863%,89.803922%);fill-opacity:1;" d="M 43.652344 44.367188 C 43.652344 43.703125 43.117188 43.164062 42.449219 43.164062 C 41.785156 43.167969 41.25 43.707031 41.25 44.371094 C 41.25 45.035156 41.789062 45.574219 42.453125 45.570312 C 43.117188 45.570312 43.65625 45.03125 43.65625 44.367188 Z M 43.652344 44.367188 "/>
</g>
</svg>
