<?xml version="1.0" encoding="UTF-8"?>
<svg xmlns="http://www.w3.org/2000/svg" xmlns:xlink="http://www.w3.org/1999/xlink" width="88pt" height="88pt" viewBox="0 0 88 88" version="1.1">
<g id="surface1">
<path style=" stroke:none;fill-rule:nonzero;fill:rgb(0%,0%,0%);fill-opacity:1;" d="M 87.988281 43.996094 C 87.988281 68.292969 68.292969 87.988281 43.996094 87.988281 C 19.695312 87.988281 0 68.292969 0 43.996094 C 0 19.695312 19.695312 0 43.996094 0 C 68.292969 0 87.988281 19.695312 87.988281 43.996094 Z M 87.988281 43.996094 "/>
<path style=" stroke:none;fill-rule:nonzero;fill:rgb(0%,0%,0%);fill-opacity:1;" d="M 64.027344 16.132812 L 56.519531 16.132812 C 56.96875 16.132812 57.332031 16.5 57.332031 16.949219 C 57.332031 17.398438 56.96875 17.765625 56.519531 17.765625 L 64.027344 17.765625 C 66.5 17.765625 68.507812 19.765625 68.515625 22.242188 L 68.515625 41.140625 C 68.507812 43.613281 66.5 45.617188 64.027344 45.617188 L 61.3125 45.617188 C 61.132812 45.617188 60.957031 45.675781 60.816406 45.785156 L 55.839844 49.59375 L 55.839844 46.421875 C 55.839844 45.972656 55.476562 45.605469 55.027344 45.605469 L 45.078125 45.605469 C 44.273438 45.609375 43.484375 45.390625 42.792969 44.980469 L 42.792969 35.808594 C 42.792969 34.152344 41.96875 32.605469 40.59375 31.679688 L 40.59375 22.230469 C 40.597656 19.757812 42.605469 17.753906 45.078125 17.753906 L 56.519531 17.753906 C 56.96875 17.753906 57.332031 17.390625 57.332031 16.941406 C 57.332031 16.488281 56.96875 16.125 56.519531 16.125 L 45.078125 16.125 C 41.703125 16.125 38.964844 18.855469 38.953125 22.230469 L 38.953125 30.953125 C 38.574219 30.875 38.1875 30.835938 37.796875 30.835938 L 22.878906 30.835938 C 20.132812 30.835938 17.90625 33.0625 17.90625 35.808594 L 17.90625 37.570312 C 17.90625 38.019531 18.269531 38.386719 18.71875 38.386719 C 19.171875 38.386719 19.535156 38.019531 19.535156 37.570312 L 19.535156 35.808594 C 19.546875 33.96875 21.035156 32.476562 22.878906 32.464844 L 37.796875 32.464844 C 39.648438 32.464844 41.148438 33.960938 41.160156 35.808594 L 41.160156 45.296875 C 41.148438 45.371094 41.148438 45.445312 41.160156 45.515625 L 41.160156 50.730469 C 41.160156 50.828125 41.160156 50.929688 41.160156 51.039062 L 39.460938 51.039062 C 37.636719 51.035156 36.070312 52.335938 35.738281 54.132812 C 35.664062 54.160156 35.59375 54.199219 35.53125 54.25 L 31.828125 57.066406 L 31.828125 54.886719 C 31.828125 54.4375 31.464844 54.070312 31.015625 54.070312 L 22.878906 54.070312 C 21.984375 54.082031 21.121094 53.734375 20.480469 53.109375 C 19.84375 52.480469 19.480469 51.625 19.476562 50.730469 L 19.476562 37.578125 C 19.464844 38.023438 19.09375 38.375 18.648438 38.363281 C 18.214844 38.359375 17.859375 38.015625 17.84375 37.578125 L 17.84375 50.730469 C 17.84375 53.476562 20.070312 55.703125 22.816406 55.703125 L 30.238281 55.703125 L 30.238281 58.6875 C 30.246094 58.992188 30.421875 59.273438 30.699219 59.40625 C 30.976562 59.542969 31.304688 59.515625 31.550781 59.332031 L 35.679688 56.148438 L 35.679688 65.332031 C 35.679688 67.417969 37.371094 69.109375 39.460938 69.109375 L 44.433594 69.109375 L 44.433594 71.011719 C 44.441406 71.316406 44.617188 71.597656 44.894531 71.730469 C 45.167969 71.867188 45.496094 71.839844 45.746094 71.65625 L 49.046875 69.109375 L 50.042969 69.109375 C 52.132812 69.109375 53.828125 67.421875 53.832031 65.332031 L 53.832031 58.765625 C 53.820312 58.988281 53.71875 59.195312 53.554688 59.34375 C 53.386719 59.492188 53.167969 59.566406 52.945312 59.550781 C 52.539062 59.511719 52.21875 59.175781 52.203125 58.765625 L 52.203125 65.332031 C 52.195312 66.519531 51.230469 67.480469 50.042969 67.480469 L 48.808594 67.480469 C 48.628906 67.480469 48.453125 67.539062 48.3125 67.648438 L 46.105469 69.351562 L 46.105469 68.335938 C 46.105469 67.882812 45.738281 67.519531 45.289062 67.519531 L 39.460938 67.519531 C 38.273438 67.519531 37.3125 66.558594 37.3125 65.371094 L 37.3125 54.796875 C 37.316406 53.613281 38.277344 52.660156 39.460938 52.660156 L 50.0625 52.660156 C 51.25 52.652344 52.214844 53.609375 52.222656 54.796875 L 52.222656 58.777344 C 52.222656 59.226562 52.585938 59.589844 53.035156 59.589844 C 53.488281 59.589844 53.851562 59.226562 53.851562 58.777344 L 53.851562 54.796875 C 53.847656 52.710938 52.148438 51.023438 50.0625 51.027344 L 42.773438 51.027344 C 42.773438 50.917969 42.773438 46.800781 42.773438 46.800781 C 43.5 47.089844 44.277344 47.238281 45.058594 47.238281 L 54.179688 47.238281 L 54.179688 51.214844 C 54.183594 51.527344 54.359375 51.808594 54.636719 51.945312 C 54.914062 52.082031 55.242188 52.054688 55.492188 51.871094 L 61.570312 47.21875 L 64.007812 47.21875 C 67.386719 47.222656 70.128906 44.488281 70.136719 41.109375 L 70.136719 22.210938 C 70.113281 18.851562 67.386719 16.140625 64.027344 16.132812 Z M 64.027344 16.132812 "/>
<path style=" stroke:none;fill-rule:nonzero;fill:rgb(0%,0%,0%);fill-opacity:1;" d="M 56.597656 22.171875 C 56.097656 22.050781 55.566406 22.164062 55.160156 22.480469 C 54.75 22.792969 54.507812 23.277344 54.5 23.792969 C 54.5 24.960938 54.074219 26.089844 53.304688 26.964844 L 51.046875 29.511719 C 50.898438 29.285156 50.644531 29.144531 50.371094 29.144531 L 45.972656 29.144531 C 45.523438 29.144531 45.160156 29.507812 45.160156 29.960938 L 45.160156 39.835938 C 45.160156 40.289062 45.523438 40.652344 45.972656 40.652344 L 50.371094 40.652344 C 50.691406 40.65625 50.980469 40.46875 51.105469 40.175781 C 52.003906 40.726562 53.039062 41.015625 54.089844 41.011719 L 61.851562 41.011719 C 62.425781 41 62.96875 40.761719 63.363281 40.34375 C 63.757812 39.925781 63.96875 39.367188 63.949219 38.792969 C 63.949219 38.265625 63.949219 31.234375 63.949219 31.082031 C 63.949219 29.917969 63.007812 28.972656 61.839844 28.964844 L 57.800781 28.964844 L 57.96875 28.566406 C 58.734375 26.746094 58.609375 24.671875 57.632812 22.957031 C 57.417969 22.574219 57.058594 22.289062 56.636719 22.171875 Z M 49.554688 39.023438 L 46.75 39.023438 L 46.75 30.777344 L 49.515625 30.777344 Z M 61.839844 30.605469 C 62.105469 30.613281 62.316406 30.828125 62.316406 31.09375 C 62.316406 31.242188 62.316406 31.671875 62.316406 32.238281 C 62.316406 35.390625 62.316406 38.386719 62.316406 38.882812 C 62.324219 39.011719 62.277344 39.136719 62.1875 39.230469 C 62.097656 39.324219 61.972656 39.378906 61.839844 39.378906 L 54.082031 39.378906 C 53.152344 39.378906 52.25 39.058594 51.523438 38.472656 L 51.1875 38.207031 L 51.1875 31.828125 L 54.527344 28.050781 C 55.5625 26.875 56.132812 25.359375 56.128906 23.792969 L 56.21875 23.792969 C 56.945312 25.066406 57.035156 26.601562 56.46875 27.949219 L 55.820312 29.484375 C 55.714844 29.734375 55.742188 30.019531 55.890625 30.25 C 56.042969 30.476562 56.296875 30.613281 56.566406 30.617188 Z M 61.839844 30.605469 "/>
<path style=" stroke:none;fill-rule:nonzero;fill:rgb(0%,0%,0%);fill-opacity:1;" d="M 24.867188 44.492188 C 24.417969 44.492188 24.050781 44.859375 24.050781 45.308594 C 24.050781 45.757812 24.417969 46.125 24.867188 46.125 L 27.273438 46.125 L 26.828125 48.847656 C 26.753906 49.289062 27.050781 49.707031 27.492188 49.785156 L 27.632812 49.785156 C 28.03125 49.785156 28.375 49.492188 28.4375 49.097656 L 28.925781 46.113281 L 30.914062 46.113281 L 30.46875 48.839844 C 30.394531 49.285156 30.699219 49.703125 31.144531 49.773438 L 31.273438 49.773438 C 31.675781 49.777344 32.019531 49.484375 32.078125 49.085938 L 32.574219 46.105469 L 35.808594 46.105469 C 36.257812 46.105469 36.625 45.738281 36.625 45.289062 C 36.625 44.835938 36.257812 44.472656 35.808594 44.472656 L 32.824219 44.472656 L 33.152344 42.484375 L 35.808594 42.484375 C 36.257812 42.484375 36.625 42.117188 36.625 41.667969 C 36.625 41.21875 36.257812 40.851562 35.808594 40.851562 L 33.390625 40.851562 L 33.820312 38.144531 C 33.855469 37.933594 33.808594 37.714844 33.683594 37.539062 C 33.558594 37.363281 33.367188 37.246094 33.152344 37.210938 C 32.929688 37.160156 32.699219 37.207031 32.507812 37.335938 C 32.320312 37.460938 32.195312 37.664062 32.160156 37.886719 L 31.671875 40.871094 L 29.679688 40.871094 L 30.128906 38.144531 C 30.199219 37.703125 29.898438 37.28125 29.453125 37.210938 C 29.007812 37.140625 28.589844 37.441406 28.519531 37.886719 L 28.019531 40.871094 L 24.867188 40.871094 C 24.417969 40.871094 24.050781 41.238281 24.050781 41.6875 C 24.050781 42.136719 24.417969 42.503906 24.867188 42.503906 L 27.851562 42.503906 L 27.523438 44.492188 Z M 29.53125 42.503906 L 31.523438 42.503906 L 31.195312 44.492188 L 29.203125 44.492188 Z M 29.53125 42.503906 "/>
<path style=" stroke:none;fill-rule:nonzero;fill:rgb(0%,0%,0%);fill-opacity:1;" d="M 44.761719 56.867188 C 44.085938 56.3125 43.1875 56.113281 42.34375 56.328125 C 40.953125 56.675781 40.003906 57.960938 40.085938 59.394531 C 40.082031 60.472656 40.515625 61.503906 41.289062 62.257812 C 42.203125 63.132812 43.25 63.859375 44.394531 64.40625 C 44.511719 64.464844 44.640625 64.496094 44.769531 64.496094 C 44.90625 64.496094 45.039062 64.464844 45.160156 64.40625 C 47.746094 63.035156 49.464844 61.652344 49.464844 59.433594 C 49.53125 57.976562 48.539062 56.6875 47.117188 56.378906 C 46.292969 56.1875 45.425781 56.382812 44.761719 56.90625 Z M 47.835938 59.394531 C 47.835938 60.617188 47.019531 61.511719 44.769531 62.753906 C 42.523438 61.511719 41.71875 60.617188 41.71875 59.394531 C 41.652344 58.722656 42.066406 58.101562 42.710938 57.910156 C 42.808594 57.902344 42.90625 57.902344 43 57.910156 C 43.429688 57.921875 43.816406 58.175781 43.996094 58.566406 C 44.136719 58.84375 44.421875 59.019531 44.730469 59.019531 C 45.042969 59.019531 45.328125 58.84375 45.46875 58.566406 C 45.550781 58.3125 45.734375 58.101562 45.976562 57.980469 C 46.21875 57.863281 46.496094 57.847656 46.75 57.941406 C 47.417969 58.089844 47.875 58.710938 47.824219 59.394531 Z M 47.835938 59.394531 "/>
</g>
</svg>
