<?xml version="1.0" encoding="UTF-8"?>
<svg xmlns="http://www.w3.org/2000/svg" xmlns:xlink="http://www.w3.org/1999/xlink" width="88pt" height="88pt" viewBox="0 0 88 88" version="1.1">
<defs>
<clipPath id="clip1">
  <path d="M 22.617188 17.472656 L 68.707031 17.472656 L 68.707031 73 L 22.617188 73 Z M 22.617188 17.472656 "/>
</clipPath>
</defs>
<g id="surface1">
<path style=" stroke:none;fill-rule:nonzero;fill:rgb(38.431373%,32.156863%,25.098039%);fill-opacity:1;" d="M 88 44 C 88 68.300781 68.300781 88 44 88 C 19.699219 88 0 68.300781 0 44 C 0 19.699219 19.699219 0 44 0 C 68.300781 0 88 19.699219 88 44 Z M 88 44 "/>
<path style=" stroke:none;fill-rule:nonzero;fill:rgb(100%,100%,100%);fill-opacity:1;" d="M 30.417969 22.890625 C 30.355469 23.640625 29.707031 24.214844 28.953125 24.175781 C 28.195312 24.136719 27.605469 23.5 27.628906 22.742188 C 27.644531 21.988281 28.265625 21.382812 29.019531 21.382812 C 29.40625 21.394531 29.769531 21.5625 30.03125 21.84375 C 30.292969 22.125 30.433594 22.503906 30.417969 22.890625 Z M 30.417969 22.890625 "/>
<path style=" stroke:none;fill-rule:nonzero;fill:rgb(100%,100%,100%);fill-opacity:1;" d="M 34.714844 22.890625 C 34.652344 23.640625 34 24.214844 33.25 24.175781 C 32.492188 24.136719 31.902344 23.5 31.921875 22.742188 C 31.9375 21.988281 32.558594 21.382812 33.3125 21.382812 C 33.699219 21.394531 34.066406 21.5625 34.328125 21.84375 C 34.589844 22.125 34.726562 22.503906 34.714844 22.890625 Z M 34.714844 22.890625 "/>
<path style=" stroke:none;fill-rule:nonzero;fill:rgb(100%,100%,100%);fill-opacity:1;" d="M 39.007812 22.890625 C 38.945312 23.640625 38.296875 24.214844 37.542969 24.175781 C 36.785156 24.136719 36.195312 23.5 36.21875 22.742188 C 36.234375 21.988281 36.855469 21.382812 37.609375 21.382812 C 37.992188 21.394531 38.359375 21.5625 38.621094 21.84375 C 38.882812 22.125 39.019531 22.503906 39.007812 22.890625 Z M 39.007812 22.890625 "/>
<path style=" stroke:none;fill-rule:nonzero;fill:rgb(100%,100%,100%);fill-opacity:1;" d="M 49.929688 33.101562 C 50.347656 33.058594 50.664062 32.707031 50.664062 32.292969 C 50.664062 31.871094 50.347656 31.523438 49.929688 31.472656 L 38.078125 31.472656 C 37.660156 31.523438 37.347656 31.871094 37.347656 32.292969 C 37.347656 32.707031 37.660156 33.058594 38.078125 33.101562 Z M 49.929688 33.101562 "/>
<path style=" stroke:none;fill-rule:nonzero;fill:rgb(100%,100%,100%);fill-opacity:1;" d="M 27.859375 36.433594 C 27.855469 36.640625 27.929688 36.839844 28.070312 36.992188 C 28.214844 37.144531 28.40625 37.230469 28.617188 37.242188 L 59.390625 37.242188 C 59.839844 37.242188 60.203125 36.878906 60.203125 36.433594 C 60.203125 35.988281 59.839844 35.621094 59.390625 35.621094 L 28.617188 35.621094 C 28.40625 35.628906 28.214844 35.71875 28.070312 35.871094 C 27.929688 36.023438 27.855469 36.226562 27.859375 36.433594 Z M 27.859375 36.433594 "/>
<path style=" stroke:none;fill-rule:nonzero;fill:rgb(100%,100%,100%);fill-opacity:1;" d="M 28.617188 41.222656 L 35.605469 41.222656 C 36.050781 41.222656 36.410156 40.859375 36.410156 40.410156 C 36.410156 39.964844 36.050781 39.605469 35.605469 39.605469 L 28.617188 39.605469 C 28.171875 39.605469 27.804688 39.964844 27.804688 40.410156 C 27.804688 40.859375 28.171875 41.222656 28.617188 41.222656 Z M 28.617188 41.222656 "/>
<g clip-path="url(#clip1)" clip-rule="nonzero">
<path style=" stroke:none;fill-rule:nonzero;fill:rgb(100%,100%,100%);fill-opacity:1;" d="M 67.429688 65.011719 L 62.527344 59.679688 C 64.273438 59.117188 65.441406 57.476562 65.398438 55.640625 L 65.398438 21.617188 C 65.464844 19.394531 63.71875 17.539062 61.496094 17.472656 L 47.703125 17.472656 C 48.152344 17.472656 48.515625 17.832031 48.515625 18.277344 C 48.515625 18.726562 48.152344 19.089844 47.703125 19.089844 L 61.496094 19.089844 C 62.855469 19.144531 63.90625 20.28125 63.859375 21.636719 L 63.859375 26.738281 L 24.140625 26.738281 L 24.140625 21.609375 C 24.09375 20.253906 25.144531 19.117188 26.503906 19.0625 L 47.652344 19.0625 C 48.097656 19.0625 48.460938 18.699219 48.460938 18.253906 C 48.460938 17.804688 48.097656 17.445312 47.652344 17.445312 L 26.503906 17.445312 C 24.285156 17.53125 22.5625 19.394531 22.640625 21.609375 L 22.640625 48.839844 L 23.390625 51.960938 L 24.140625 52.773438 L 24.140625 28.328125 L 63.859375 28.328125 L 63.859375 55.640625 C 63.917969 56.996094 62.855469 58.140625 61.496094 58.195312 L 61.121094 58.195312 C 61.121094 58.195312 48.847656 44.863281 48.46875 44.582031 L 41.113281 40.320312 L 41.023438 40.273438 C 40.289062 39.964844 39.4375 40.164062 38.917969 40.765625 C 38.347656 41.375 38.167969 42.25 38.445312 43.035156 L 38.445312 43.128906 L 42.347656 51.152344 C 42.425781 51.347656 48.78125 58.195312 48.78125 58.195312 L 26.503906 58.195312 C 25.144531 58.140625 24.082031 56.996094 24.140625 55.640625 L 24.140625 52.773438 C 24.148438 51.46875 24.070312 50.167969 23.90625 48.871094 C 23.640625 46.71875 23.519531 46.558594 23.429688 46.546875 C 23.335938 46.539062 23.050781 46.824219 22.632812 48.839844 L 22.632812 55.640625 C 22.546875 57.855469 24.273438 59.726562 26.488281 59.816406 L 50.332031 59.816406 L 56.671875 66.65625 C 56.808594 66.808594 57.003906 66.890625 57.203125 66.890625 C 57.40625 66.890625 57.597656 66.808594 57.738281 66.65625 C 58.007812 66.324219 58.007812 65.84375 57.738281 65.511719 L 45.175781 51.953125 L 49.203125 47.605469 L 66.375 66.152344 C 67.480469 67.386719 67.480469 69.265625 66.375 70.503906 C 65.859375 71.070312 65.128906 71.398438 64.363281 71.398438 C 63.597656 71.398438 62.867188 71.070312 62.351562 70.503906 L 57.753906 65.511719 C 58.023438 65.84375 58.023438 66.324219 57.753906 66.65625 C 57.617188 66.808594 57.421875 66.890625 57.222656 66.890625 C 57.019531 66.890625 56.824219 66.808594 56.6875 66.65625 L 61.285156 71.640625 C 62.074219 72.511719 63.191406 73 64.359375 73 C 65.527344 73 66.644531 72.511719 67.429688 71.640625 C 69.105469 69.75 69.105469 66.902344 67.429688 65.011719 Z M 48.019531 46.324219 L 43.992188 50.667969 L 43.644531 50.300781 L 42.59375 48.128906 L 45.671875 44.800781 L 47.660156 45.976562 Z M 39.964844 41.910156 C 40.101562 41.855469 39.964844 41.726562 40.449219 41.773438 L 44.292969 44 L 41.867188 46.628906 L 39.835938 42.4375 C 39.78125 42.25 39.828125 42.050781 39.964844 41.910156 Z M 39.964844 41.910156 "/>
</g>
</g>
</svg>
