<?xml version="1.0" encoding="UTF-8"?>
<svg xmlns="http://www.w3.org/2000/svg" xmlns:xlink="http://www.w3.org/1999/xlink" width="30pt" height="29pt" viewBox="0 0 30 29" version="1.1">
<g id="surface1">
<path style=" stroke:none;fill-rule:nonzero;fill:rgb(38.431373%,32.156863%,25.098039%);fill-opacity:1;" d="M 30 14.5 C 30 22.503906 23.28125 29 15 29 C 6.71875 29 0 22.503906 0 14.5 C 0 6.496094 6.71875 0 15 0 C 23.28125 0 30 6.496094 30 14.5 Z M 30 14.5 "/>
<path style=" stroke:none;fill-rule:nonzero;fill:rgb(96.078431%,92.156863%,89.803922%);fill-opacity:1;" d="M 21.542969 21.976562 C 21.519531 21.777344 21.464844 21.578125 21.378906 21.394531 C 21.378906 21.390625 21.378906 21.386719 21.378906 21.386719 C 21.308594 21.226562 21.195312 21.085938 21.050781 20.976562 C 20.90625 20.875 20.730469 20.816406 20.546875 20.820312 L 17.679688 20.820312 L 17.679688 5.210938 C 17.695312 4.851562 17.4375 4.535156 17.074219 4.464844 C 16.863281 4.410156 16.648438 4.378906 16.433594 4.371094 C 16.199219 4.355469 15.898438 4.351562 15.453125 4.351562 C 15.125 4.351562 14.867188 4.351562 14.660156 4.355469 C 14.453125 4.359375 14.269531 4.371094 14.136719 4.386719 C 14.003906 4.402344 13.875 4.425781 13.75 4.464844 L 13.742188 4.464844 C 13.636719 4.496094 13.539062 4.546875 13.453125 4.609375 L 9.160156 7.300781 C 9.15625 7.304688 9.152344 7.308594 9.148438 7.308594 C 9.023438 7.390625 8.90625 7.480469 8.796875 7.585938 C 8.679688 7.703125 8.589844 7.84375 8.539062 8 C 8.480469 8.160156 8.445312 8.328125 8.433594 8.496094 C 8.425781 8.660156 8.417969 8.867188 8.417969 9.117188 C 8.414062 9.433594 8.429688 9.746094 8.472656 10.058594 C 8.511719 10.351562 8.605469 10.5625 8.75 10.710938 L 8.761719 10.722656 C 8.945312 10.898438 9.207031 10.972656 9.464844 10.925781 L 9.480469 10.925781 C 9.71875 10.875 9.945312 10.796875 10.160156 10.691406 L 10.183594 10.679688 L 12.792969 9.285156 L 12.792969 16.703125 C 12.792969 16.484375 12.976562 16.304688 13.203125 16.304688 C 13.429688 16.304688 13.613281 16.484375 13.613281 16.703125 L 13.613281 8.609375 C 13.613281 8.46875 13.539062 8.339844 13.414062 8.269531 C 13.289062 8.195312 13.132812 8.195312 13.007812 8.261719 L 9.796875 9.972656 C 9.652344 10.046875 9.5 10.101562 9.34375 10.140625 L 9.332031 10.140625 C 9.304688 10.078125 9.289062 10.011719 9.277344 9.941406 C 9.246094 9.667969 9.234375 9.390625 9.238281 9.113281 C 9.238281 8.882812 9.242188 8.691406 9.25 8.546875 C 9.253906 8.453125 9.273438 8.359375 9.304688 8.269531 C 9.304688 8.261719 9.308594 8.253906 9.3125 8.25 C 9.324219 8.207031 9.347656 8.167969 9.378906 8.136719 L 9.390625 8.125 C 9.457031 8.066406 9.53125 8.011719 9.609375 7.960938 L 13.90625 5.269531 L 13.941406 5.25 C 13.960938 5.234375 13.984375 5.222656 14.007812 5.214844 C 14.082031 5.195312 14.15625 5.179688 14.234375 5.171875 C 14.339844 5.160156 14.488281 5.152344 14.679688 5.144531 C 14.867188 5.140625 15.128906 5.140625 15.449219 5.140625 C 15.875 5.140625 16.160156 5.148438 16.375 5.160156 C 16.527344 5.164062 16.683594 5.183594 16.832031 5.222656 L 16.851562 5.226562 L 16.851562 21.214844 C 16.851562 21.433594 17.035156 21.609375 17.261719 21.609375 L 20.546875 21.609375 L 20.554688 21.613281 C 20.585938 21.644531 20.609375 21.683594 20.628906 21.722656 C 20.675781 21.835938 20.707031 21.953125 20.71875 22.074219 C 20.746094 22.300781 20.753906 22.527344 20.753906 22.75 C 20.753906 22.96875 20.742188 23.183594 20.710938 23.398438 C 20.695312 23.519531 20.664062 23.636719 20.617188 23.75 C 20.613281 23.753906 20.609375 23.761719 20.609375 23.769531 C 20.59375 23.796875 20.578125 23.820312 20.558594 23.84375 L 20.554688 23.84375 C 20.550781 23.84375 20.546875 23.84375 20.542969 23.84375 L 9.46875 23.84375 C 9.445312 23.816406 9.425781 23.785156 9.410156 23.75 C 9.410156 23.75 9.410156 23.746094 9.410156 23.742188 C 9.363281 23.632812 9.328125 23.515625 9.316406 23.394531 C 9.285156 23.179688 9.269531 22.960938 9.273438 22.746094 C 9.269531 22.519531 9.28125 22.296875 9.308594 22.070312 C 9.320312 21.949219 9.351562 21.832031 9.398438 21.71875 C 9.417969 21.675781 9.441406 21.636719 9.472656 21.601562 L 13.210938 21.601562 C 13.4375 21.601562 13.621094 21.425781 13.621094 21.207031 L 13.621094 16.699219 C 13.621094 16.480469 13.4375 16.300781 13.210938 16.300781 C 12.984375 16.300781 12.800781 16.480469 12.800781 16.699219 L 12.800781 20.820312 L 9.460938 20.820312 C 9.28125 20.820312 9.101562 20.882812 8.960938 20.996094 C 8.828125 21.101562 8.722656 21.238281 8.65625 21.390625 L 8.65625 21.398438 C 8.570312 21.582031 8.515625 21.78125 8.492188 21.984375 C 8.460938 22.242188 8.449219 22.5 8.453125 22.757812 C 8.449219 23.019531 8.46875 23.277344 8.503906 23.53125 C 8.53125 23.730469 8.589844 23.925781 8.675781 24.109375 C 8.742188 24.265625 8.855469 24.402344 8.996094 24.503906 C 9.132812 24.601562 9.296875 24.652344 9.464844 24.65625 L 20.550781 24.65625 C 20.726562 24.65625 20.898438 24.601562 21.039062 24.503906 C 21.179688 24.402344 21.292969 24.261719 21.363281 24.101562 C 21.445312 23.921875 21.503906 23.730469 21.527344 23.53125 C 21.566406 23.277344 21.582031 23.019531 21.582031 22.757812 C 21.585938 22.496094 21.570312 22.238281 21.542969 21.976562 Z M 21.542969 21.976562 "/>
<path style=" stroke:none;fill-rule:nonzero;fill:rgb(96.078431%,92.156863%,89.803922%);fill-opacity:1;" d="M 13.207031 15.308594 C 13.433594 15.308594 13.617188 15.132812 13.617188 14.914062 C 13.617188 14.695312 13.433594 14.515625 13.207031 14.515625 C 12.980469 14.515625 12.796875 14.695312 12.796875 14.914062 C 12.796875 15.132812 12.980469 15.308594 13.207031 15.308594 Z M 13.207031 15.308594 "/>
</g>
</svg>
