<?xml version="1.0" encoding="UTF-8"?>
<svg xmlns="http://www.w3.org/2000/svg" xmlns:xlink="http://www.w3.org/1999/xlink" width="40pt" height="40pt" viewBox="0 0 40 40" version="1.1">
<g id="surface1">
<path style=" stroke:none;fill-rule:nonzero;fill:rgb(38.431373%,32.156863%,25.098039%);fill-opacity:1;" d="M 40 20 C 40 31.046875 31.046875 40 20 40 C 8.953125 40 0 31.046875 0 20 C 0 8.953125 8.953125 0 20 0 C 31.046875 0 40 8.953125 40 20 Z M 40 20 "/>
<path style=" stroke:none;fill-rule:nonzero;fill:rgb(100%,100%,100%);fill-opacity:1;" d="M 21.5 10.683594 C 21.273438 10.683594 21.089844 10.773438 21 10.953125 L 17.453125 17.136719 C 17.453125 17.183594 17.363281 17.5 17.546875 17.726562 C 17.589844 17.773438 17.589844 17.773438 17.636719 17.816406 C 17.910156 18 18.363281 17.726562 18.363281 17.726562 L 20.910156 13.273438 L 20.910156 23 L 15.410156 23 C 16.410156 21.273438 17.410156 19.5 18.410156 17.773438 C 18.226562 18 17.910156 18.046875 17.683594 17.910156 C 17.453125 17.773438 17.363281 17.453125 17.453125 17.226562 C 16.316406 19.273438 15.136719 21.273438 14 23.316406 C 13.910156 23.5 13.910156 23.683594 14 23.863281 C 14.089844 24.046875 14.273438 24.136719 14.453125 24.136719 L 21.5 24.136719 C 21.816406 24.136719 22.046875 23.910156 22.046875 23.589844 L 22.046875 11.226562 C 22.046875 11.089844 22 10.953125 21.863281 10.816406 C 21.773438 10.726562 21.636719 10.683594 21.5 10.683594 Z M 21.5 10.683594 "/>
<path style=" stroke:none;fill-rule:nonzero;fill:rgb(100%,100%,100%);fill-opacity:1;" d="M 30.136719 23.726562 C 29.816406 23.046875 29.410156 22.910156 29.089844 22.910156 L 27.273438 22.910156 L 27.273438 7.453125 C 27.273438 7.136719 27.136719 6.816406 26.863281 6.636719 C 26.863281 6.636719 26.863281 6.636719 26.816406 6.636719 C 26.546875 6.453125 26.273438 6.316406 25.953125 6.273438 C 25.546875 6.183594 25.089844 6.089844 24.683594 6.089844 C 24.183594 6.046875 23.589844 6.046875 22.863281 6.046875 C 22.226562 6.046875 21.636719 6.046875 21.183594 6.089844 C 20.773438 6.089844 20.363281 6.136719 20 6.226562 C 19.726562 6.273438 19.410156 6.363281 19.183594 6.5 C 18.953125 6.636719 18.773438 6.816406 18.636719 7 L 10.316406 21.589844 C 10.183594 21.863281 10.046875 22.136719 9.953125 22.410156 C 9.863281 22.683594 9.773438 22.953125 9.726562 23.226562 C 9.683594 23.546875 9.636719 23.863281 9.636719 24.183594 C 9.636719 24.5 9.589844 24.863281 9.589844 25.363281 C 9.589844 25.816406 9.589844 26.273438 9.683594 26.726562 C 9.726562 27.046875 9.816406 27.363281 9.953125 27.636719 L 9.953125 27.683594 C 10.089844 27.953125 10.363281 28.136719 10.636719 28.226562 C 10.863281 28.316406 11.089844 28.316406 11.316406 28.316406 L 20.953125 28.316406 L 20.953125 32.589844 C 20.953125 32.816406 21.046875 33.089844 21.183594 33.273438 C 21.363281 33.5 21.589844 33.636719 21.863281 33.726562 C 22.183594 33.816406 22.453125 33.863281 22.773438 33.910156 C 23.226562 33.953125 23.636719 33.953125 24.089844 33.953125 C 24.546875 33.953125 25 33.953125 25.410156 33.910156 C 25.726562 33.863281 26 33.816406 26.316406 33.726562 C 26.589844 33.636719 26.816406 33.5 27 33.273438 C 27.136719 33.089844 27.226562 32.816406 27.226562 32.589844 L 27.226562 28.316406 L 29.046875 28.316406 C 29.316406 28.316406 29.816406 28.183594 30.136719 27.410156 C 30.316406 27 30.410156 26.410156 30.410156 25.589844 C 30.453125 24.773438 30.363281 24.136719 30.136719 23.726562 Z M 29.183594 27.046875 C 29.136719 27.136719 29.136719 27.183594 29.089844 27.273438 L 26.773438 27.273438 C 26.453125 27.273438 26.226562 27.5 26.226562 27.816406 L 26.226562 32.636719 C 26.183594 32.683594 26.136719 32.683594 26.046875 32.726562 C 25.816406 32.773438 25.589844 32.816406 25.363281 32.863281 C 25.089844 32.910156 24.683594 32.910156 24.136719 32.910156 C 23.636719 32.910156 23.226562 32.910156 22.953125 32.863281 C 22.726562 32.863281 22.5 32.816406 22.273438 32.726562 C 22.226562 32.726562 22.183594 32.683594 22.136719 32.636719 C 22.136719 32.636719 22.136719 32.636719 22.136719 32.589844 L 22.136719 27.816406 C 22.136719 27.5 21.910156 27.273438 21.589844 27.273438 L 11.316406 27.273438 C 11.183594 27.273438 11.089844 27.273438 11 27.226562 C 11 27.226562 10.953125 27.183594 10.910156 27.136719 C 10.816406 26.953125 10.773438 26.773438 10.773438 26.589844 C 10.726562 26.183594 10.683594 25.773438 10.726562 25.363281 C 10.726562 24.910156 10.726562 24.546875 10.773438 24.273438 C 10.773438 24 10.816406 23.726562 10.863281 23.453125 C 10.910156 23.226562 10.953125 23 11.046875 22.816406 C 11.136719 22.589844 11.226562 22.363281 11.363281 22.136719 L 19.546875 7.546875 C 19.589844 7.5 19.636719 7.453125 19.683594 7.453125 C 19.863281 7.363281 20.046875 7.316406 20.226562 7.273438 C 20.589844 7.226562 20.910156 7.183594 21.273438 7.136719 C 21.726562 7.089844 22.273438 7.089844 22.863281 7.089844 C 23.589844 7.089844 24.183594 7.089844 24.636719 7.136719 C 25 7.136719 25.363281 7.226562 25.726562 7.273438 C 25.863281 7.316406 26.046875 7.363281 26.183594 7.453125 L 26.183594 23.453125 C 26.183594 23.773438 26.410156 24 26.726562 24 L 29.046875 24 C 29.089844 24.046875 29.136719 24.136719 29.136719 24.183594 C 29.226562 24.363281 29.316406 24.773438 29.316406 25.636719 C 29.316406 26.273438 29.273438 26.773438 29.183594 27.046875 Z M 29.183594 27.046875 "/>
<path style=" stroke:none;fill-rule:nonzero;fill:rgb(96.078431%,92.156863%,89.803922%);fill-opacity:1;" d="M 17.953125 17.910156 C 18.273438 17.910156 18.5 17.683594 18.5 17.363281 C 18.5 17.046875 18.273438 16.816406 17.953125 16.816406 C 17.636719 16.816406 17.410156 17.046875 17.410156 17.363281 C 17.410156 17.636719 17.636719 17.910156 17.953125 17.910156 Z M 17.953125 17.910156 "/>
</g>
</svg>
