<?xml version="1.0" encoding="UTF-8"?>
<svg xmlns="http://www.w3.org/2000/svg" xmlns:xlink="http://www.w3.org/1999/xlink" width="80pt" height="80pt" viewBox="0 0 80 80" version="1.1">
<g id="surface1">
<path style=" stroke:none;fill-rule:nonzero;fill:rgb(96.078431%,92.156863%,89.803922%);fill-opacity:1;" d="M 80 40 C 80 62.082031 62.082031 80 40 80 C 17.917969 80 0 62.082031 0 40 C 0 17.917969 17.917969 0 40 0 C 62.082031 0 80 17.917969 80 40 Z M 80 40 "/>
<path style=" stroke:none;fill-rule:nonzero;fill:rgb(38.431373%,32.156863%,25.098039%);fill-opacity:1;" d="M 54.324219 24.761719 C 51.023438 21.484375 45.695312 21.484375 42.398438 24.761719 L 35.957031 31.203125 C 38.179688 30.566406 40.554688 30.746094 42.652344 31.714844 L 46 28.367188 C 47.304688 27.0625 49.417969 27.0625 50.71875 28.367188 C 52.023438 29.667969 52.023438 31.78125 50.722656 33.085938 L 43.75 40.058594 C 43.125 40.6875 42.277344 41.039062 41.390625 41.039062 C 40.503906 41.039062 39.65625 40.6875 39.03125 40.058594 L 35.417969 43.664062 C 36.222656 44.472656 37.1875 45.109375 38.253906 45.523438 C 41.070312 46.636719 44.265625 46.164062 46.644531 44.292969 C 46.894531 44.101562 47.128906 43.894531 47.34375 43.667969 L 54.316406 36.691406 C 55.902344 35.113281 56.792969 32.964844 56.792969 30.726562 C 56.792969 28.488281 55.902344 26.34375 54.316406 24.765625 Z M 54.324219 24.761719 "/>
<path style=" stroke:none;fill-rule:nonzero;fill:rgb(38.431373%,32.156863%,25.098039%);fill-opacity:1;" d="M 37.191406 46.617188 L 33.980469 49.824219 C 32.675781 51.128906 30.566406 51.128906 29.261719 49.824219 C 27.957031 48.519531 27.957031 46.40625 29.261719 45.105469 L 36.238281 38.125 C 36.863281 37.5 37.710938 37.144531 38.597656 37.144531 C 39.480469 37.144531 40.332031 37.5 40.957031 38.125 L 44.558594 34.519531 C 43.753906 33.710938 42.789062 33.078125 41.722656 32.660156 C 38.742188 31.476562 35.347656 32.078125 32.957031 34.21875 C 32.84375 34.3125 32.726562 34.425781 32.632812 34.519531 L 25.660156 41.496094 C 22.363281 44.789062 22.363281 50.128906 25.660156 53.421875 C 28.953125 56.714844 34.292969 56.714844 37.585938 53.421875 L 43.886719 47.050781 C 40.675781 47.796875 39.925781 47.703125 37.191406 46.609375 Z M 37.191406 46.617188 "/>
</g>
</svg>
