<?xml version="1.0" encoding="UTF-8"?>
<svg xmlns="http://www.w3.org/2000/svg" xmlns:xlink="http://www.w3.org/1999/xlink" width="88pt" height="88pt" viewBox="0 0 88 88" version="1.1">
<g id="surface1">
<path style=" stroke:none;fill-rule:nonzero;fill:rgb(38.431373%,32.156863%,25.098039%);fill-opacity:1;" d="M 88 44 C 88 68.292969 68.292969 88 44 88 C 19.707031 88 0 68.292969 0 44 C 0 19.707031 19.707031 0 44 0 C 68.292969 0 88 19.707031 88 44 Z M 88 44 "/>
<path style=" stroke:none;fill-rule:nonzero;fill:rgb(96.078431%,92.156863%,89.803922%);fill-opacity:1;" d="M 63.328125 50.644531 C 63.054688 50.003906 62.777344 49.414062 62.59375 49.078125 C 62.035156 48.058594 61.347656 47.117188 60.550781 46.269531 C 59.296875 44.945312 57.808594 43.867188 56.160156 43.082031 C 55.535156 42.777344 54.890625 42.511719 54.230469 42.292969 C 54.609375 42.09375 54.96875 41.882812 55.320312 41.65625 C 56.691406 40.785156 57.886719 39.65625 58.839844 38.335938 C 59.796875 37.007812 60.511719 35.519531 60.957031 33.945312 C 61.441406 32.253906 61.683594 30.503906 61.671875 28.75 C 61.703125 26.515625 61.289062 24.300781 60.453125 22.230469 C 59.65625 20.300781 58.40625 18.597656 56.808594 17.257812 C 55.09375 15.871094 53.121094 14.839844 51 14.230469 C 48.503906 13.515625 45.910156 13.167969 43.3125 13.199219 C 41.25 13.1875 39.191406 13.378906 37.167969 13.769531 C 35.472656 14.101562 33.808594 14.570312 32.1875 15.167969 C 30.925781 15.632812 29.707031 16.210938 28.546875 16.894531 C 27.476562 17.554688 26.894531 17.960938 26.539062 18.296875 L 26.515625 18.320312 C 26.183594 18.625 25.898438 18.972656 25.667969 19.359375 C 25.480469 19.707031 25.335938 20.074219 25.234375 20.453125 C 25.234375 20.453125 25.234375 20.453125 25.234375 20.46875 C 25.105469 20.945312 25.03125 21.4375 25.003906 21.933594 C 24.972656 22.457031 24.957031 23.078125 24.957031 23.847656 C 24.949219 24.621094 24.980469 25.390625 25.054688 26.160156 C 25.101562 26.6875 25.207031 27.210938 25.371094 27.714844 L 25.390625 27.761719 C 25.5625 28.25 25.894531 28.667969 26.332031 28.945312 C 26.703125 29.167969 27.132812 29.28125 27.5625 29.273438 C 28.164062 29.273438 28.851562 29.007812 29.855469 28.382812 C 30.605469 27.925781 31.496094 27.417969 32.503906 26.894531 C 33.625 26.332031 34.785156 25.855469 35.980469 25.464844 C 37.242188 25.039062 38.570312 24.824219 39.902344 24.835938 C 40.957031 24.8125 42.007812 24.972656 43.003906 25.316406 L 43.019531 25.316406 C 43.503906 25.496094 43.972656 25.710938 44.425781 25.960938 C 45.382812 26.5 47.21875 29.539062 47.613281 29.398438 C 48.003906 29.257812 47.746094 25.40625 45.320312 23.765625 C 44.859375 23.476562 44.363281 23.246094 43.847656 23.078125 C 42.578125 22.628906 41.242188 22.414062 39.898438 22.445312 C 38.300781 22.433594 36.714844 22.691406 35.203125 23.199219 C 33.90625 23.625 32.640625 24.140625 31.417969 24.75 L 31.40625 24.75 C 30.34375 25.304688 29.398438 25.835938 28.597656 26.332031 C 28.292969 26.535156 27.96875 26.707031 27.628906 26.839844 C 27.542969 26.535156 27.484375 26.21875 27.457031 25.902344 C 27.402344 25.375 27.375 24.679688 27.375 23.839844 C 27.375 23.128906 27.375 22.550781 27.414062 22.074219 C 27.429688 21.746094 27.476562 21.421875 27.554688 21.101562 C 27.609375 20.902344 27.6875 20.707031 27.785156 20.523438 L 27.796875 20.5 C 27.914062 20.328125 28.050781 20.167969 28.207031 20.027344 C 28.714844 19.625 29.25 19.265625 29.8125 18.941406 C 30.839844 18.34375 31.921875 17.832031 33.039062 17.417969 C 34.539062 16.871094 36.078125 16.4375 37.644531 16.132812 C 39.511719 15.769531 41.410156 15.59375 43.3125 15.605469 C 45.675781 15.574219 48.035156 15.886719 50.308594 16.535156 C 52.117188 17.054688 53.804688 17.929688 55.269531 19.109375 C 56.574219 20.199219 57.597656 21.59375 58.246094 23.167969 C 58.96875 24.9375 59.320312 26.835938 59.285156 28.75 C 59.296875 30.277344 59.089844 31.800781 58.667969 33.269531 C 58.300781 34.582031 57.703125 35.820312 56.90625 36.921875 C 56.90625 36.929688 56.90625 36.933594 56.90625 36.9375 C 56.125 38.019531 55.144531 38.9375 54.011719 39.644531 C 52.761719 40.433594 51.386719 41.007812 49.945312 41.339844 C 49.40625 41.472656 49.027344 41.957031 49.03125 42.511719 L 49.03125 42.644531 C 49.027344 43.253906 49.484375 43.769531 50.089844 43.84375 C 51.832031 44.023438 53.527344 44.5 55.109375 45.253906 C 56.492188 45.90625 57.742188 46.8125 58.796875 47.917969 C 59.785156 48.96875 60.566406 50.195312 61.089844 51.539062 C 61.632812 52.921875 61.90625 54.394531 61.894531 55.878906 C 61.894531 58.535156 61.386719 60.90625 60.390625 62.925781 C 59.398438 64.9375 57.957031 66.695312 56.179688 68.0625 C 54.210938 69.53125 51.984375 70.617188 49.613281 71.269531 C 46.828125 72.035156 43.949219 72.410156 41.058594 72.386719 C 39.292969 72.394531 37.53125 72.261719 35.785156 71.980469 C 34.3125 71.75 32.855469 71.410156 31.433594 70.964844 C 30.382812 70.65625 29.363281 70.25 28.382812 69.75 C 27.878906 69.507812 27.398438 69.21875 26.941406 68.894531 C 26.820312 68.792969 26.726562 68.667969 26.65625 68.527344 C 26.542969 68.253906 26.449219 67.96875 26.371094 67.683594 C 26.269531 67.253906 26.207031 66.820312 26.179688 66.382812 C 26.140625 65.878906 26.121094 65.214844 26.121094 64.300781 C 26.121094 62.664062 26.292969 62.050781 26.371094 61.851562 L 26.398438 61.792969 C 26.707031 61.90625 27.003906 62.042969 27.289062 62.207031 C 28.226562 62.699219 29.1875 63.144531 30.167969 63.53125 C 31.496094 64.058594 32.855469 64.5 34.238281 64.855469 C 36.015625 65.292969 37.839844 65.503906 39.671875 65.480469 C 41.238281 65.5 42.800781 65.289062 44.304688 64.855469 C 45.589844 64.476562 46.792969 63.867188 47.859375 63.054688 L 47.878906 63.042969 C 48.867188 62.253906 49.652344 61.242188 50.167969 60.089844 L 50.167969 60.074219 C 50.667969 58.890625 50.914062 57.613281 50.898438 56.328125 C 50.917969 54.917969 50.617188 53.523438 50.015625 52.25 C 49.394531 51.003906 48.476562 49.929688 47.34375 49.117188 C 46.0625 48.199219 44.617188 47.539062 43.082031 47.167969 C 41.195312 46.707031 39.257812 46.488281 37.316406 46.519531 L 32.371094 46.519531 C 32.199219 46.527344 32.027344 46.507812 31.859375 46.464844 C 31.832031 46.429688 31.804688 46.394531 31.785156 46.355469 C 31.652344 46.058594 31.570312 45.746094 31.539062 45.421875 C 31.464844 44.738281 31.433594 44.050781 31.445312 43.359375 C 31.433594 42.714844 31.464844 42.070312 31.539062 41.429688 C 31.5625 41.148438 31.632812 40.871094 31.75 40.613281 C 31.75 40.59375 31.777344 40.570312 31.785156 40.550781 C 31.796875 40.527344 31.8125 40.503906 31.828125 40.480469 C 31.953125 40.433594 32.085938 40.410156 32.21875 40.414062 L 37.195312 40.414062 C 38.84375 40.441406 40.488281 40.21875 42.070312 39.761719 C 43.441406 39.367188 44.722656 38.707031 45.832031 37.8125 C 46.726562 37.128906 47.449219 36.242188 47.9375 35.230469 C 49.171875 32.519531 48.074219 29.382812 47.628906 29.382812 C 47.1875 29.386719 46.660156 32.5 45.808594 34.105469 C 45.648438 34.40625 45.464844 34.695312 45.261719 34.964844 C 44.980469 35.332031 44.660156 35.664062 44.300781 35.953125 C 43.441406 36.640625 42.449219 37.144531 41.390625 37.4375 L 41.375 37.4375 C 40.019531 37.824219 38.613281 38.011719 37.207031 37.988281 L 32.21875 37.988281 C 31.734375 37.980469 31.253906 38.078125 30.8125 38.277344 C 30.304688 38.511719 29.894531 38.917969 29.648438 39.421875 C 29.382812 39.9375 29.21875 40.5 29.15625 41.078125 C 29.066406 41.828125 29.027344 42.585938 29.039062 43.339844 C 29.027344 44.132812 29.066406 44.925781 29.15625 45.714844 C 29.222656 46.320312 29.390625 46.910156 29.660156 47.457031 L 29.660156 47.476562 C 29.929688 48.003906 30.375 48.425781 30.921875 48.660156 L 30.945312 48.660156 C 31.398438 48.828125 31.878906 48.902344 32.359375 48.890625 L 37.308594 48.890625 C 39.042969 48.863281 40.777344 49.058594 42.464844 49.46875 C 43.699219 49.757812 44.863281 50.277344 45.902344 51.003906 L 45.917969 51.015625 C 46.738281 51.597656 47.402344 52.371094 47.851562 53.273438 C 48.296875 54.21875 48.515625 55.253906 48.496094 56.300781 C 48.515625 57.269531 48.335938 58.230469 47.96875 59.125 C 47.609375 59.925781 47.0625 60.625 46.375 61.167969 C 45.542969 61.796875 44.605469 62.269531 43.605469 62.558594 C 42.324219 62.925781 41 63.101562 39.667969 63.082031 C 38.046875 63.101562 36.429688 62.914062 34.855469 62.53125 C 33.570312 62.207031 32.304688 61.800781 31.066406 61.3125 C 30.164062 60.957031 29.277344 60.546875 28.417969 60.09375 C 27.480469 59.589844 26.832031 59.359375 26.320312 59.359375 C 25.375 59.359375 24.582031 59.917969 24.148438 60.890625 C 24.148438 60.898438 24.148438 60.90625 24.148438 60.914062 C 23.855469 61.625 23.710938 62.734375 23.710938 64.304688 C 23.710938 65.28125 23.730469 66.003906 23.773438 66.566406 C 23.8125 67.148438 23.898438 67.730469 24.039062 68.296875 C 24.144531 68.699219 24.277344 69.09375 24.4375 69.480469 L 24.4375 69.503906 C 24.648438 69.964844 24.957031 70.375 25.339844 70.710938 L 25.367188 70.734375 C 25.957031 71.175781 26.589844 71.5625 27.253906 71.878906 C 28.355469 72.441406 29.503906 72.898438 30.691406 73.253906 C 32.222656 73.734375 33.792969 74.097656 35.378906 74.351562 C 37.253906 74.652344 39.152344 74.796875 41.054688 74.789062 C 44.167969 74.8125 47.269531 74.40625 50.273438 73.578125 C 52.933594 72.839844 55.433594 71.609375 57.640625 69.953125 C 59.710938 68.363281 61.386719 66.320312 62.542969 63.980469 C 64.042969 60.785156 64.601562 57.222656 64.144531 53.71875 C 64.074219 52.980469 63.917969 52.253906 63.6875 51.546875 C 63.582031 51.25 63.480469 51.007812 63.328125 50.644531 Z M 63.328125 50.644531 "/>
<path style=" stroke:none;fill-rule:nonzero;fill:rgb(96.078431%,92.156863%,89.803922%);fill-opacity:1;" d="M 48.8125 29.925781 C 48.761719 29.433594 48.671875 28.949219 48.53125 28.472656 C 47.933594 26.484375 45.726562 23.40625 44.90625 23.765625 C 44.523438 23.933594 44.402344 24.867188 44.675781 25.519531 C 45.101562 26.535156 46.367188 26.605469 46.464844 27.507812 C 46.496094 27.800781 46.367188 27.867188 46.363281 28.46875 C 46.363281 28.855469 46.414062 29.238281 46.515625 29.613281 C 46.917969 31.191406 46.082031 34.3125 46.695312 34.53125 C 47.191406 34.714844 48.375 33.265625 48.714844 31.816406 C 48.84375 31.195312 48.878906 30.558594 48.8125 29.925781 Z M 48.8125 29.925781 "/>
</g>
</svg>
