<?xml version="1.0" encoding="UTF-8"?>
<svg xmlns="http://www.w3.org/2000/svg" xmlns:xlink="http://www.w3.org/1999/xlink" width="30pt" height="29pt" viewBox="0 0 30 29" version="1.1">
<g id="surface1">
<path style=" stroke:none;fill-rule:nonzero;fill:rgb(38.431373%,32.156863%,25.098039%);fill-opacity:1;" d="M 30 14.5 C 30 22.503906 23.28125 29 15 29 C 6.71875 29 0 22.503906 0 14.5 C 0 6.496094 6.71875 0 15 0 C 23.28125 0 30 6.496094 30 14.5 Z M 30 14.5 "/>
<path style=" stroke:none;fill-rule:nonzero;fill:rgb(96.078431%,92.156863%,89.803922%);fill-opacity:1;" d="M 17.480469 15.828125 C 17.410156 15.84375 17.398438 16.003906 17.398438 17.339844 C 17.398438 18.328125 17.40625 18.703125 17.265625 19.195312 C 17.164062 19.523438 17.003906 19.835938 16.796875 20.117188 C 16.609375 20.363281 16.359375 20.5625 16.074219 20.691406 C 15.753906 20.835938 15.398438 20.910156 15.042969 20.902344 C 14.679688 20.910156 14.316406 20.839844 13.984375 20.691406 C 13.699219 20.558594 13.464844 20.328125 13.265625 19.988281 C 13.070312 19.648438 12.894531 19.128906 12.78125 18.472656 C 12.660156 17.707031 12.601562 16.9375 12.601562 16.160156 C 12.753906 16.070312 12.90625 15.988281 13.058594 15.914062 C 13.285156 15.804688 13.519531 15.703125 13.761719 15.625 C 14 15.546875 14.246094 15.484375 14.492188 15.441406 L 14.5 15.441406 C 14.75 15.394531 15.003906 15.371094 15.257812 15.371094 C 15.457031 15.371094 15.949219 15.375 16.308594 15.535156 C 16.875 15.785156 17.085938 16.398438 17.398438 17.34375 C 17.769531 18.457031 17.757812 19.085938 17.890625 19.089844 C 18.050781 19.089844 18.328125 18.195312 18.210938 17.265625 C 18.054688 15.996094 17.222656 15.054688 16.625 14.804688 L 16.621094 14.804688 C 16.183594 14.648438 15.722656 14.570312 15.257812 14.582031 C 14.953125 14.582031 14.648438 14.609375 14.351562 14.664062 C 14.0625 14.714844 13.777344 14.785156 13.496094 14.878906 L 13.492188 14.878906 C 13.214844 14.972656 12.945312 15.082031 12.683594 15.210938 C 12.4375 15.335938 12.199219 15.46875 11.964844 15.617188 C 11.851562 15.691406 11.78125 15.8125 11.78125 15.949219 C 11.769531 16.835938 11.832031 17.726562 11.96875 18.605469 C 12.105469 19.359375 12.292969 19.941406 12.550781 20.375 C 12.828125 20.855469 13.1875 21.199219 13.621094 21.402344 C 14.066406 21.605469 14.554688 21.707031 15.046875 21.699219 C 15.527344 21.707031 16.003906 21.609375 16.441406 21.410156 C 16.839844 21.222656 17.191406 20.941406 17.453125 20.59375 C 17.726562 20.242188 17.925781 19.84375 18.050781 19.421875 C 18.050781 19.421875 18.050781 19.417969 18.050781 19.417969 C 18.109375 19.207031 18.390625 18.226562 18.207031 17.265625 C 18.070312 16.515625 17.648438 15.789062 17.480469 15.828125 Z M 17.480469 15.828125 "/>
<path style=" stroke:none;fill-rule:nonzero;fill:rgb(96.078431%,92.156863%,89.803922%);fill-opacity:1;" d="M 21.800781 15.21875 C 21.597656 14.511719 21.226562 13.859375 20.726562 13.308594 C 20.210938 12.757812 19.5625 12.335938 18.839844 12.078125 C 18.097656 11.796875 17.195312 11.65625 16.160156 11.65625 C 15.71875 11.65625 15.277344 11.6875 14.839844 11.757812 C 14.453125 11.820312 14.074219 11.902344 13.699219 12.007812 L 13.691406 12.007812 C 13.351562 12.105469 13.019531 12.230469 12.699219 12.386719 L 12.558594 12.453125 C 12.597656 12.007812 12.667969 11.570312 12.773438 11.136719 C 12.902344 10.5625 13.144531 10.011719 13.484375 9.523438 C 13.792969 9.078125 14.214844 8.710938 14.707031 8.457031 C 15.210938 8.195312 15.824219 8.066406 16.574219 8.066406 C 16.976562 8.0625 17.382812 8.09375 17.78125 8.152344 L 17.785156 8.152344 C 18.089844 8.195312 18.390625 8.257812 18.6875 8.34375 L 18.695312 8.34375 C 18.957031 8.417969 19.179688 8.480469 19.363281 8.546875 C 19.554688 8.617188 19.757812 8.65625 19.964844 8.660156 C 20.339844 8.667969 20.671875 8.429688 20.773438 8.082031 C 20.835938 7.898438 20.871094 7.707031 20.878906 7.519531 C 20.894531 7.324219 20.902344 7.085938 20.902344 6.742188 C 20.902344 6.539062 20.898438 6.363281 20.886719 6.214844 C 20.878906 6.074219 20.855469 5.9375 20.820312 5.800781 C 20.792969 5.6875 20.75 5.574219 20.695312 5.46875 L 20.691406 5.460938 C 20.621094 5.335938 20.53125 5.226562 20.421875 5.136719 C 20.246094 5.007812 20.050781 4.910156 19.84375 4.84375 C 19.550781 4.734375 19.246094 4.648438 18.9375 4.589844 C 18.605469 4.523438 18.238281 4.46875 17.820312 4.417969 C 17.421875 4.371094 17.023438 4.351562 16.621094 4.351562 C 15.367188 4.351562 14.265625 4.515625 13.351562 4.839844 C 12.480469 5.136719 11.675781 5.589844 10.976562 6.175781 C 10.328125 6.734375 9.785156 7.394531 9.375 8.132812 C 8.96875 8.867188 8.652344 9.640625 8.429688 10.441406 C 8.210938 11.242188 8.058594 12.058594 7.980469 12.882812 C 7.902344 13.679688 7.867188 14.46875 7.867188 15.234375 C 7.867188 16.128906 7.902344 16.984375 7.976562 17.773438 C 8.035156 18.535156 8.167969 19.292969 8.367188 20.03125 C 8.546875 20.691406 8.808594 21.332031 9.152344 21.929688 C 9.484375 22.5 9.929688 23.003906 10.464844 23.410156 C 11.027344 23.828125 11.664062 24.140625 12.34375 24.335938 C 13.054688 24.542969 13.890625 24.648438 14.832031 24.648438 C 15.988281 24.648438 17.035156 24.472656 17.945312 24.121094 C 19.6875 23.472656 21.046875 22.113281 21.660156 20.410156 C 21.984375 19.519531 22.144531 18.578125 22.136719 17.632812 C 22.144531 16.816406 22.03125 16.003906 21.800781 15.21875 Z M 20.890625 20.136719 C 20.355469 21.632812 19.167969 22.820312 17.640625 23.386719 C 16.828125 23.699219 15.886719 23.855469 14.835938 23.855469 C 13.976562 23.855469 13.21875 23.761719 12.585938 23.578125 C 12 23.410156 11.453125 23.140625 10.96875 22.785156 C 10.519531 22.441406 10.144531 22.019531 9.863281 21.539062 C 9.558594 21 9.324219 20.425781 9.160156 19.828125 C 8.972656 19.132812 8.851562 18.421875 8.792969 17.707031 C 8.722656 16.9375 8.6875 16.105469 8.6875 15.238281 C 8.6875 14.496094 8.726562 13.726562 8.796875 12.957031 C 8.871094 12.175781 9.011719 11.40625 9.21875 10.648438 C 9.425781 9.90625 9.71875 9.1875 10.09375 8.511719 C 10.460938 7.855469 10.945312 7.269531 11.523438 6.773438 C 12.140625 6.253906 12.855469 5.855469 13.632812 5.59375 C 14.457031 5.296875 15.460938 5.148438 16.617188 5.148438 C 16.984375 5.148438 17.351562 5.167969 17.71875 5.210938 C 18.113281 5.257812 18.453125 5.308594 18.761719 5.375 L 18.765625 5.375 C 19.03125 5.421875 19.289062 5.496094 19.539062 5.585938 L 19.546875 5.585938 C 19.664062 5.621094 19.777344 5.671875 19.878906 5.738281 C 19.910156 5.765625 19.9375 5.796875 19.960938 5.828125 C 19.988281 5.886719 20.007812 5.945312 20.023438 6.007812 C 20.023438 6.007812 20.023438 6.007812 20.023438 6.011719 C 20.042969 6.097656 20.054688 6.183594 20.0625 6.273438 C 20.070312 6.402344 20.078125 6.554688 20.078125 6.742188 C 20.078125 7.058594 20.070312 7.285156 20.054688 7.457031 C 20.050781 7.578125 20.03125 7.703125 19.992188 7.820312 C 19.992188 7.824219 19.992188 7.832031 19.984375 7.839844 C 19.984375 7.847656 19.976562 7.859375 19.972656 7.871094 C 19.855469 7.867188 19.738281 7.839844 19.628906 7.792969 C 19.433594 7.726562 19.191406 7.65625 18.914062 7.578125 C 18.582031 7.484375 18.246094 7.414062 17.910156 7.363281 C 17.464844 7.296875 17.015625 7.265625 16.566406 7.269531 C 15.679688 7.269531 14.941406 7.429688 14.308594 7.753906 C 13.703125 8.070312 13.183594 8.523438 12.796875 9.074219 C 12.402344 9.644531 12.121094 10.28125 11.964844 10.953125 C 11.796875 11.671875 11.707031 12.40625 11.699219 13.140625 C 11.695312 13.289062 11.777344 13.425781 11.910156 13.496094 C 12.042969 13.566406 12.207031 13.558594 12.332031 13.480469 C 12.5625 13.335938 12.804688 13.210938 13.054688 13.097656 L 13.0625 13.09375 C 13.335938 12.960938 13.625 12.851562 13.921875 12.765625 C 14.265625 12.671875 14.613281 12.597656 14.96875 12.539062 C 15.359375 12.480469 15.757812 12.449219 16.15625 12.449219 C 17.085938 12.449219 17.886719 12.574219 18.535156 12.816406 C 19.136719 13.03125 19.675781 13.378906 20.105469 13.835938 C 20.53125 14.300781 20.839844 14.847656 21.015625 15.445312 C 21.222656 16.15625 21.324219 16.894531 21.316406 17.632812 C 21.324219 18.484375 21.179688 19.332031 20.890625 20.136719 Z M 20.890625 20.136719 "/>
<path style=" stroke:none;fill-rule:nonzero;fill:rgb(96.078431%,92.156863%,89.803922%);fill-opacity:1;" d="M 17.8125 16.945312 C 17.585938 16.945312 17.402344 17.125 17.402344 17.34375 C 17.402344 17.5625 17.585938 17.738281 17.8125 17.738281 C 18.039062 17.738281 18.222656 17.5625 18.222656 17.34375 C 18.222656 17.125 18.039062 16.945312 17.8125 16.945312 Z M 17.8125 16.945312 "/>
</g>
</svg>
