<?xml version="1.0" encoding="UTF-8"?>
<svg xmlns="http://www.w3.org/2000/svg" xmlns:xlink="http://www.w3.org/1999/xlink" width="80pt" height="80pt" viewBox="0 0 80 80" version="1.1">
<g id="surface1">
<path style=" stroke:none;fill-rule:nonzero;fill:rgb(96.078431%,92.156863%,89.803922%);fill-opacity:1;" d="M 80 40 C 80 62.082031 62.082031 80 40 80 C 17.917969 80 0 62.082031 0 40 C 0 17.917969 17.917969 0 40 0 C 62.082031 0 80 17.917969 80 40 Z M 80 40 "/>
<path style=" stroke:none;fill-rule:nonzero;fill:rgb(38.431373%,32.156863%,25.098039%);fill-opacity:1;" d="M 29.582031 33.910156 C 29.140625 33.679688 28.671875 33.503906 28.183594 33.386719 C 27.765625 33.292969 27.367188 33.121094 27.007812 32.882812 C 26.820312 32.746094 26.710938 32.527344 26.71875 32.296875 C 26.710938 32.039062 26.835938 31.796875 27.046875 31.652344 C 27.347656 31.453125 27.707031 31.355469 28.070312 31.375 C 28.445312 31.351562 28.816406 31.46875 29.109375 31.707031 C 29.355469 31.925781 29.484375 32.242188 29.472656 32.570312 C 29.472656 32.730469 29.597656 32.859375 29.757812 32.859375 L 30.316406 32.859375 C 30.472656 32.859375 30.601562 32.730469 30.601562 32.570312 C 30.605469 32.164062 30.492188 31.761719 30.273438 31.417969 C 30.050781 31.066406 29.734375 30.789062 29.363281 30.613281 C 28.960938 30.421875 28.519531 30.328125 28.074219 30.332031 C 27.445312 30.308594 26.832031 30.496094 26.324219 30.859375 C 25.859375 31.203125 25.585938 31.753906 25.597656 32.332031 C 25.609375 32.910156 25.898438 33.449219 26.375 33.777344 C 26.859375 34.085938 27.386719 34.308594 27.945312 34.441406 C 28.734375 34.664062 29.082031 34.859375 29.234375 34.988281 C 29.421875 35.144531 29.523438 35.378906 29.511719 35.625 C 29.519531 35.890625 29.390625 36.140625 29.167969 36.285156 C 28.855469 36.488281 28.484375 36.585938 28.113281 36.566406 C 27.6875 36.589844 27.265625 36.472656 26.917969 36.226562 C 26.648438 36.023438 26.496094 35.703125 26.511719 35.363281 C 26.511719 35.207031 26.382812 35.078125 26.226562 35.078125 L 25.671875 35.078125 C 25.597656 35.078125 25.523438 35.109375 25.46875 35.160156 C 25.417969 35.214844 25.386719 35.289062 25.386719 35.363281 C 25.378906 35.785156 25.5 36.195312 25.734375 36.542969 C 25.980469 36.902344 26.328125 37.175781 26.734375 37.339844 C 27.171875 37.519531 27.640625 37.613281 28.113281 37.609375 C 28.753906 37.636719 29.390625 37.453125 29.917969 37.082031 C 30.386719 36.746094 30.660156 36.203125 30.648438 35.625 C 30.65625 35.273438 30.558594 34.921875 30.371094 34.621094 C 30.175781 34.324219 29.90625 34.082031 29.589844 33.910156 Z M 29.582031 33.910156 "/>
<path style=" stroke:none;fill-rule:nonzero;fill:rgb(38.431373%,32.156863%,25.098039%);fill-opacity:1;" d="M 36.164062 36.484375 L 32.9375 36.484375 L 32.9375 34.402344 L 35.703125 34.402344 C 35.863281 34.402344 35.992188 34.273438 35.992188 34.113281 L 35.992188 33.648438 C 35.992188 33.574219 35.960938 33.5 35.90625 33.445312 C 35.855469 33.390625 35.78125 33.359375 35.703125 33.359375 L 32.9375 33.359375 L 32.9375 31.457031 L 36.140625 31.457031 C 36.296875 31.457031 36.425781 31.328125 36.425781 31.171875 L 36.425781 30.703125 C 36.425781 30.546875 36.296875 30.417969 36.140625 30.417969 L 32.101562 30.417969 C 32.023438 30.417969 31.949219 30.445312 31.894531 30.5 C 31.839844 30.554688 31.808594 30.628906 31.808594 30.703125 L 31.808594 37.234375 C 31.808594 37.308594 31.839844 37.382812 31.894531 37.4375 C 31.949219 37.492188 32.023438 37.519531 32.101562 37.519531 L 36.164062 37.519531 C 36.320312 37.519531 36.449219 37.390625 36.449219 37.234375 L 36.449219 36.765625 C 36.449219 36.609375 36.320312 36.480469 36.164062 36.480469 Z M 36.164062 36.484375 "/>
<path style=" stroke:none;fill-rule:nonzero;fill:rgb(38.431373%,32.156863%,25.098039%);fill-opacity:1;" d="M 42.632812 31.886719 C 42.417969 31.417969 42.070312 31.019531 41.636719 30.738281 C 40.964844 30.308594 40.140625 30.191406 39.375 30.417969 C 38.613281 30.648438 37.988281 31.199219 37.664062 31.929688 C 37.429688 32.464844 37.3125 33.042969 37.324219 33.628906 L 37.324219 34.300781 C 37.324219 35.296875 37.582031 36.101562 38.097656 36.699219 C 38.609375 37.304688 39.371094 37.640625 40.164062 37.617188 C 40.6875 37.625 41.207031 37.480469 41.652344 37.199219 C 42.09375 36.914062 42.4375 36.507812 42.648438 36.027344 C 42.882812 35.492188 43 34.910156 42.988281 34.324219 L 42.988281 33.542969 C 42.988281 32.96875 42.867188 32.40625 42.632812 31.886719 Z M 40.164062 36.5625 C 39.683594 36.585938 39.21875 36.371094 38.925781 35.992188 C 38.609375 35.589844 38.449219 35.035156 38.449219 34.324219 L 38.449219 33.644531 C 38.449219 32.914062 38.609375 32.34375 38.925781 31.953125 C 39.238281 31.59375 39.6875 31.390625 40.160156 31.390625 C 40.632812 31.390625 41.082031 31.59375 41.390625 31.953125 C 41.703125 32.34375 41.859375 32.902344 41.859375 33.617188 L 41.859375 34.308594 C 41.859375 35.039062 41.707031 35.605469 41.398438 36 C 41.101562 36.378906 40.640625 36.589844 40.164062 36.558594 Z M 40.164062 36.5625 "/>
<path style=" stroke:none;fill-rule:nonzero;fill:rgb(38.431373%,32.156863%,25.098039%);fill-opacity:1;" d="M 50.515625 31.304688 C 50.46875 31.007812 50.191406 30.804688 49.890625 30.851562 C 49.59375 30.898438 49.390625 31.179688 49.4375 31.476562 C 50.527344 38.367188 46.875 45.140625 40.519531 48.011719 C 34.160156 50.886719 26.664062 49.15625 22.214844 43.785156 C 17.761719 38.410156 17.449219 30.726562 21.453125 25.011719 C 25.457031 19.296875 32.785156 16.964844 39.355469 19.316406 C 39.640625 19.417969 39.953125 19.269531 40.054688 18.984375 C 40.15625 18.699219 40.007812 18.386719 39.726562 18.285156 C 32.691406 15.765625 24.839844 18.261719 20.550781 24.382812 C 16.261719 30.5 16.59375 38.734375 21.363281 44.488281 C 26.128906 50.242188 34.15625 52.09375 40.96875 49.015625 C 47.777344 45.9375 51.6875 38.6875 50.515625 31.304688 Z M 50.515625 31.304688 "/>
<path style=" stroke:none;fill-rule:nonzero;fill:rgb(38.431373%,32.156863%,25.098039%);fill-opacity:1;" d="M 61.34375 55.246094 L 53.703125 47.601562 C 52.996094 46.890625 52.03125 46.488281 51.023438 46.492188 C 50.929688 46.492188 50.832031 46.492188 50.738281 46.507812 L 47.585938 43.351562 L 47.339844 43.558594 C 47.238281 43.632812 47.144531 43.722656 47.066406 43.824219 C 46.984375 43.957031 46.953125 44.117188 46.972656 44.273438 L 49.5 46.808594 C 49.070312 46.996094 48.679688 47.265625 48.351562 47.597656 L 47.832031 48.125 C 47.503906 48.457031 47.238281 48.847656 47.050781 49.277344 L 44.582031 46.789062 C 44.441406 46.835938 44.292969 46.894531 44.136719 46.960938 C 43.921875 47.054688 43.714844 47.160156 43.511719 47.28125 L 46.746094 50.507812 C 46.660156 51.605469 47.058594 52.6875 47.839844 53.46875 L 55.484375 61.113281 C 56.960938 62.585938 59.355469 62.585938 60.835938 61.113281 L 61.351562 60.597656 C 62.828125 59.117188 62.828125 56.722656 61.351562 55.246094 Z M 60.570312 59.828125 L 60.054688 60.347656 C 59 61.386719 57.304688 61.386719 56.25 60.347656 L 48.609375 52.703125 C 47.558594 51.652344 47.558594 49.949219 48.609375 48.898438 L 49.121094 48.382812 C 50.171875 47.332031 51.875 47.332031 52.925781 48.382812 L 60.570312 56.023438 C 61.621094 57.074219 61.621094 58.777344 60.570312 59.828125 Z M 60.570312 59.828125 "/>
<path style=" stroke:none;fill-rule:nonzero;fill:rgb(38.431373%,32.156863%,25.098039%);fill-opacity:1;" d="M 34.136719 46.363281 C 29.097656 46.363281 24.554688 43.328125 22.625 38.671875 C 20.695312 34.015625 21.761719 28.65625 25.324219 25.089844 C 28.773438 21.65625 33.902344 20.535156 38.472656 22.214844 C 38.753906 22.320312 39.066406 22.175781 39.171875 21.894531 C 39.277344 21.609375 39.132812 21.296875 38.851562 21.191406 C 33.882812 19.359375 28.304688 20.582031 24.550781 24.316406 C 20.125 28.742188 19.304688 35.621094 22.5625 40.960938 C 25.820312 46.304688 32.3125 48.722656 38.273438 46.808594 C 44.230469 44.898438 48.109375 39.15625 47.652344 32.917969 C 47.628906 32.617188 47.367188 32.390625 47.066406 32.410156 C 46.765625 32.433594 46.539062 32.695312 46.5625 32.996094 C 46.816406 36.449219 45.621094 39.855469 43.265625 42.390625 C 40.90625 44.929688 37.597656 46.371094 34.136719 46.367188 Z M 34.136719 46.363281 "/>
<path style=" stroke:none;fill-rule:nonzero;fill:rgb(38.431373%,32.156863%,25.098039%);fill-opacity:1;" d="M 47.878906 31.316406 L 46.40625 31.316406 C 45.863281 31.316406 45.386719 30.949219 45.25 30.421875 L 44.921875 29.144531 L 43.785156 29.816406 C 43.3125 30.09375 42.714844 30.019531 42.328125 29.628906 L 41.285156 28.585938 C 40.898438 28.199219 40.820312 27.601562 41.101562 27.128906 L 41.769531 25.992188 L 40.496094 25.664062 C 39.96875 25.53125 39.597656 25.054688 39.597656 24.507812 L 39.597656 23.035156 C 39.597656 22.488281 39.96875 22.015625 40.496094 21.878906 L 41.769531 21.550781 L 41.109375 20.417969 C 40.828125 19.945312 40.90625 19.34375 41.292969 18.957031 L 42.335938 17.917969 C 42.722656 17.527344 43.324219 17.449219 43.792969 17.730469 L 44.929688 18.398438 L 45.257812 17.125 C 45.394531 16.597656 45.871094 16.226562 46.414062 16.230469 L 47.886719 16.230469 C 48.429688 16.226562 48.90625 16.597656 49.042969 17.125 L 49.375 18.414062 L 50.507812 17.746094 C 50.980469 17.46875 51.582031 17.542969 51.964844 17.929688 L 53.007812 18.972656 C 53.398438 19.359375 53.472656 19.960938 53.195312 20.429688 L 52.5 21.558594 L 53.777344 21.886719 C 54.304688 22.023438 54.671875 22.5 54.671875 23.042969 L 54.671875 24.515625 C 54.671875 25.0625 54.304688 25.535156 53.777344 25.671875 L 52.5 26.003906 L 53.171875 27.136719 C 53.449219 27.605469 53.375 28.207031 52.984375 28.59375 L 51.945312 29.636719 C 51.558594 30.023438 50.957031 30.101562 50.484375 29.820312 L 49.375 29.144531 L 49.035156 30.417969 C 48.898438 30.945312 48.421875 31.3125 47.878906 31.3125 Z M 45.269531 27.757812 C 45.519531 27.757812 45.738281 27.929688 45.796875 28.171875 L 46.308594 30.152344 C 46.320312 30.199219 46.359375 30.230469 46.40625 30.230469 L 47.878906 30.230469 C 47.925781 30.230469 47.964844 30.195312 47.976562 30.152344 L 48.488281 28.171875 C 48.53125 28.007812 48.648438 27.871094 48.804688 27.804688 C 48.964844 27.738281 49.144531 27.753906 49.292969 27.839844 L 51.054688 28.882812 C 51.09375 28.902344 51.144531 28.894531 51.179688 28.863281 L 52.222656 27.824219 C 52.253906 27.789062 52.261719 27.738281 52.238281 27.699219 L 51.195312 25.9375 C 51.109375 25.789062 51.09375 25.609375 51.160156 25.449219 C 51.226562 25.289062 51.363281 25.171875 51.53125 25.128906 L 53.511719 24.617188 C 53.554688 24.605469 53.585938 24.566406 53.585938 24.519531 L 53.585938 23.050781 C 53.585938 23.003906 53.554688 22.964844 53.511719 22.953125 L 51.53125 22.441406 C 51.363281 22.398438 51.226562 22.28125 51.160156 22.121094 C 51.09375 21.960938 51.109375 21.78125 51.195312 21.632812 L 52.238281 19.871094 C 52.261719 19.832031 52.253906 19.78125 52.222656 19.75 L 51.179688 18.707031 C 51.144531 18.675781 51.09375 18.671875 51.054688 18.695312 L 49.292969 19.734375 C 49.144531 19.824219 48.964844 19.835938 48.808594 19.769531 C 48.648438 19.703125 48.53125 19.566406 48.488281 19.398438 L 47.976562 17.421875 C 47.964844 17.375 47.925781 17.34375 47.878906 17.34375 L 46.40625 17.34375 C 46.359375 17.34375 46.320312 17.375 46.308594 17.421875 L 45.796875 19.398438 C 45.753906 19.5625 45.632812 19.695312 45.480469 19.757812 C 45.324219 19.820312 45.144531 19.808594 45 19.726562 L 43.238281 18.683594 C 43.199219 18.664062 43.148438 18.667969 43.117188 18.699219 L 42.074219 19.742188 C 42.042969 19.773438 42.035156 19.824219 42.058594 19.863281 L 43.101562 21.625 C 43.1875 21.773438 43.199219 21.953125 43.132812 22.113281 C 43.066406 22.273438 42.929688 22.390625 42.765625 22.433594 L 40.785156 22.945312 C 40.738281 22.953125 40.707031 22.996094 40.707031 23.042969 L 40.707031 24.511719 C 40.707031 24.558594 40.738281 24.601562 40.785156 24.609375 L 42.765625 25.121094 C 42.929688 25.164062 43.066406 25.28125 43.132812 25.441406 C 43.199219 25.601562 43.1875 25.78125 43.101562 25.929688 L 42.058594 27.691406 C 42.035156 27.730469 42.042969 27.777344 42.074219 27.8125 L 43.113281 28.855469 C 43.148438 28.886719 43.199219 28.894531 43.238281 28.867188 L 44.996094 27.828125 C 45.082031 27.777344 45.179688 27.75 45.277344 27.75 Z M 45.269531 27.757812 "/>
<path style=" stroke:none;fill-rule:nonzero;fill:rgb(38.431373%,32.156863%,25.098039%);fill-opacity:1;" d="M 47.140625 26.652344 C 45.554688 26.652344 44.269531 25.367188 44.269531 23.777344 C 44.269531 22.191406 45.554688 20.90625 47.140625 20.90625 C 48.726562 20.90625 50.015625 22.191406 50.015625 23.777344 C 50.011719 25.367188 48.726562 26.652344 47.140625 26.652344 Z M 47.140625 22.003906 C 46.160156 22.003906 45.363281 22.800781 45.363281 23.78125 C 45.363281 24.765625 46.160156 25.5625 47.144531 25.558594 C 48.125 25.558594 48.921875 24.761719 48.921875 23.777344 C 48.917969 22.796875 48.125 22.003906 47.140625 22.003906 Z M 47.140625 22.003906 "/>
</g>
</svg>
