<?xml version="1.0" encoding="UTF-8"?>
<svg xmlns="http://www.w3.org/2000/svg" xmlns:xlink="http://www.w3.org/1999/xlink" width="80pt" height="80pt" viewBox="0 0 80 80" version="1.1">
<g id="surface1">
<path style=" stroke:none;fill-rule:nonzero;fill:rgb(0%,0%,0%);fill-opacity:1;" d="M 80 40 C 80 62.082031 62.082031 80 40 80 C 17.917969 80 0 62.082031 0 40 C 0 17.917969 17.917969 0 40 0 C 62.082031 0 80 17.917969 80 40 Z M 80 40 "/>
<path style=" stroke:none;fill-rule:nonzero;fill:rgb(0%,0%,0%);fill-opacity:1;" d="M 29.582031 33.910156 C 29.140625 33.679688 28.671875 33.503906 28.183594 33.386719 C 27.765625 33.292969 27.367188 33.121094 27.007812 32.882812 C 26.820312 32.746094 26.710938 32.527344 26.71875 32.296875 C 26.710938 32.039062 26.835938 31.796875 27.046875 31.652344 C 27.347656 31.453125 27.707031 31.355469 28.070312 31.375 C 28.445312 31.351562 28.816406 31.46875 29.109375 31.707031 C 29.355469 31.925781 29.484375 32.242188 29.472656 32.570312 C 29.472656 32.730469 29.597656 32.859375 29.757812 32.859375 L 30.316406 32.859375 C 30.472656 32.859375 30.601562 32.730469 30.601562 32.570312 C 30.605469 32.164062 30.492188 31.761719 30.273438 31.417969 C 30.050781 31.066406 29.734375 30.789062 29.363281 30.613281 C 28.960938 30.421875 28.519531 30.328125 28.074219 30.332031 C 27.445312 30.308594 26.832031 30.496094 26.324219 30.859375 C 25.859375 31.203125 25.585938 31.753906 25.597656 32.332031 C 25.609375 32.910156 25.898438 33.449219 26.375 33.777344 C 26.859375 34.085938 27.386719 34.308594 27.945312 34.441406 C 28.734375 34.664062 29.082031 34.859375 29.234375 34.988281 C 29.421875 35.144531 29.523438 35.378906 29.511719 35.625 C 29.519531 35.890625 29.390625 36.140625 29.167969 36.285156 C 28.855469 36.488281 28.484375 36.585938 28.113281 36.566406 C 27.6875 36.589844 27.265625 36.472656 26.917969 36.226562 C 26.648438 36.023438 26.496094 35.703125 26.511719 35.363281 C 26.511719 35.207031 26.382812 35.078125 26.226562 35.078125 L 25.671875 35.078125 C 25.597656 35.078125 25.523438 35.109375 25.46875 35.160156 C 25.417969 35.214844 25.386719 35.289062 25.386719 35.363281 C 25.378906 35.785156 25.5 36.195312 25.734375 36.542969 C 25.980469 36.902344 26.328125 37.175781 26.734375 37.339844 C 27.171875 37.519531 27.640625 37.613281 28.113281 37.609375 C 28.753906 37.636719 29.390625 37.453125 29.917969 37.082031 C 30.386719 36.746094 30.660156 36.203125 30.648438 35.625 C 30.65625 35.273438 30.558594 34.921875 30.371094 34.621094 C 30.175781 34.324219 29.90625 34.082031 29.589844 33.910156 Z M 29.582031 33.910156 "/>
<path style=" stroke:none;fill-rule:nonzero;fill:rgb(0%,0%,0%);fill-opacity:1;" d="M 36.164062 36.484375 L 32.9375 36.484375 L 32.9375 34.402344 L 35.703125 34.402344 C 35.863281 34.402344 35.992188 34.273438 35.992188 34.113281 L 35.992188 33.648438 C 35.992188 33.574219 35.960938 33.5 35.90625 33.445312 C 35.855469 33.390625 35.78125 33.359375 35.703125 33.359375 L 32.9375 33.359375 L 32.9375 31.457031 L 36.140625 31.457031 C 36.296875 31.457031 36.425781 31.328125 36.425781 31.171875 L 36.425781 30.703125 C 36.425781 30.546875 36.296875 30.417969 36.140625 30.417969 L 32.101562 30.417969 C 32.023438 30.417969 31.949219 30.445312 31.894531 30.5 C 31.839844 30.554688 31.808594 30.628906 31.808594 30.703125 L 31.808594 37.234375 C 31.808594 37.308594 31.839844 37.382812 31.894531 37.4375 C 31.949219 37.492188 32.023438 37.519531 32.101562 37.519531 L 36.164062 37.519531 C 36.320312 37.519531 36.449219 37.390625 36.449219 37.234375 L 36.449219 36.765625 C 36.449219 36.609375 36.320312 36.480469 36.164062 36.480469 Z M 36.164062 36.484375 "/>
<path style=" stroke:none;fill-rule:nonzero;fill:rgb(0%,0%,0%);fill-opacity:1;" d="M 42.632812 31.886719 C 42.417969 31.417969 42.070312 31.019531 41.636719 30.738281 C 40.964844 30.308594 40.140625 30.191406 39.375 30.417969 C 38.613281 30.648438 37.988281 31.199219 37.664062 31.929688 C 37.429688 32.464844 37.3125 33.042969 37.324219 33.628906 L 37.324219 34.300781 C 37.324219 35.296875 37.582031 36.101562 38.097656 36.699219 C 38.609375 37.304688 39.371094 37.640625 40.164062 37.617188 C 40.6875 37.625 41.207031 37.480469 41.652344 37.199219 C 42.09375 36.914062 42.4375 36.507812 42.648438 36.027344 C 42.882812 35.492188 43 34.910156 42.988281 34.324219 L 42.988281 33.542969 C 42.988281 32.96875 42.867188 32.40625 42.632812 31.886719 Z M 40.164062 36.5625 C 39.683594 36.585938 39.21875 36.371094 38.925781 35.992188 C 38.609375 35.589844 38.449219 35.035156 38.449219 34.324219 L 38.449219 33.644531 C 38.449219 32.914062 38.609375 32.34375 38.925781 31.953125 C 39.238281 31.59375 39.6875 31.390625 40.160156 31.390625 C 40.632812 31.390625 41.082031 31.59375 41.390625 31.953125 C 41.703125 32.34375 41.859375 32.902344 41.859375 33.617188 L 41.859375 34.308594 C 41.859375 35.039062 41.707031 35.605469 41.398438 36 C 41.101562 36.378906 40.640625 36.589844 40.164062 36.558594 Z M 40.164062 36.5625 "/>
<path style=" stroke:none;fill-rule:nonzero;fill:rgb(0%,0%,0%);fill-opacity:1;" d="M 61.34375 55.246094 L 53.703125 47.601562 C 52.996094 46.890625 52.03125 46.488281 51.023438 46.492188 C 50.929688 46.492188 50.832031 46.492188 50.738281 46.507812 L 47.695312 43.449219 C 50.652344 38.332031 50.953125 34.246094 50.519531 31.304688 C 50.503906 31.203125 50.488281 31.097656 50.472656 30.996094 C 50.453125 30.894531 50.445312 30.839844 50.433594 30.757812 C 50.425781 30.675781 50.410156 30.550781 50.402344 30.460938 C 50.386719 30.371094 50.363281 30.28125 50.332031 30.195312 C 50.292969 30.0625 50.253906 29.984375 50.285156 29.886719 C 50.292969 29.855469 50.308594 29.824219 50.328125 29.796875 L 50.417969 29.796875 L 50.492188 29.808594 C 50.964844 30.089844 51.566406 30.011719 51.953125 29.625 L 52.992188 28.582031 C 53.382812 28.199219 53.460938 27.597656 53.179688 27.125 L 52.5 26.003906 L 53.777344 25.671875 C 54.304688 25.535156 54.671875 25.0625 54.671875 24.515625 L 54.671875 23.042969 C 54.671875 22.5 54.304688 22.023438 53.777344 21.886719 L 52.5 21.558594 L 53.175781 20.417969 C 53.457031 19.945312 53.382812 19.34375 52.992188 18.957031 L 51.949219 17.917969 C 51.5625 17.527344 50.960938 17.453125 50.492188 17.730469 L 49.375 18.414062 L 49.046875 17.140625 C 48.910156 16.613281 48.433594 16.242188 47.886719 16.242188 L 46.417969 16.242188 C 45.871094 16.242188 45.394531 16.613281 45.261719 17.140625 L 44.929688 18.414062 L 43.796875 17.746094 C 43.324219 17.464844 42.722656 17.542969 42.335938 17.929688 L 41.296875 18.972656 C 41.242188 19.027344 41.195312 19.085938 41.152344 19.144531 C 41.097656 19.085938 41.035156 19.019531 40.960938 18.953125 C 40.890625 18.886719 40.808594 18.820312 40.738281 18.765625 L 40.601562 18.683594 C 40.546875 18.65625 40.492188 18.628906 40.445312 18.605469 L 40.265625 18.511719 L 40.054688 18.410156 L 39.734375 18.289062 C 34.847656 16.523438 27.332031 17.261719 22.417969 22.179688 C 16.359375 28.273438 15.960938 37.984375 21.496094 44.554688 C 27.03125 51.125 36.667969 52.378906 43.703125 47.445312 L 46.742188 50.507812 C 46.65625 51.605469 47.054688 52.6875 47.832031 53.46875 L 55.476562 61.113281 C 56.957031 62.585938 59.351562 62.585938 60.828125 61.113281 L 61.34375 60.597656 C 62.820312 59.117188 62.820312 56.722656 61.34375 55.246094 Z M 42.945312 42.707031 C 38.078125 47.574219 30.191406 47.574219 25.324219 42.707031 C 20.457031 37.839844 20.457031 29.953125 25.324219 25.085938 C 28.835938 21.574219 34.433594 20.695312 38.472656 22.210938 C 38.617188 22.265625 38.738281 22.316406 38.820312 22.351562 C 38.867188 22.371094 38.917969 22.390625 38.972656 22.410156 L 39.078125 22.445312 L 39.210938 22.492188 C 39.242188 22.503906 39.273438 22.511719 39.304688 22.519531 C 39.355469 22.535156 39.40625 22.550781 39.457031 22.570312 C 39.511719 22.585938 39.605469 22.625 39.667969 22.652344 C 39.652344 22.699219 39.636719 22.746094 39.625 22.796875 C 39.609375 22.875 39.601562 22.957031 39.597656 23.039062 L 39.597656 24.511719 C 39.597656 25.054688 39.96875 25.53125 40.496094 25.667969 L 41.769531 25.996094 L 41.101562 27.132812 C 40.820312 27.601562 40.898438 28.203125 41.285156 28.589844 L 42.328125 29.632812 C 42.714844 30.019531 43.3125 30.097656 43.785156 29.816406 L 44.921875 29.148438 L 45.25 30.417969 C 45.378906 30.921875 45.824219 31.28125 46.347656 31.308594 C 46.371094 31.367188 46.390625 31.425781 46.414062 31.492188 C 46.46875 31.65625 46.511719 31.820312 46.542969 31.992188 L 46.570312 32.273438 C 46.570312 32.355469 46.582031 32.433594 46.589844 32.515625 C 46.585938 32.59375 46.59375 32.667969 46.605469 32.746094 C 46.605469 33.027344 46.621094 33.460938 46.597656 33.996094 C 46.539062 35.128906 46.386719 37.601562 44.902344 40.171875 C 44.363281 41.101562 43.707031 41.953125 42.945312 42.707031 Z M 46.40625 30.207031 C 46.359375 30.207031 46.320312 30.175781 46.308594 30.132812 L 45.796875 28.152344 C 45.738281 27.910156 45.519531 27.738281 45.269531 27.734375 C 45.171875 27.734375 45.074219 27.761719 44.988281 27.8125 L 43.230469 28.855469 C 43.191406 28.878906 43.140625 28.871094 43.105469 28.839844 L 42.066406 27.796875 C 42.035156 27.765625 42.027344 27.714844 42.050781 27.675781 L 43.089844 25.914062 C 43.179688 25.765625 43.191406 25.585938 43.125 25.425781 C 43.058594 25.269531 42.921875 25.148438 42.757812 25.105469 L 40.777344 24.597656 C 40.730469 24.585938 40.699219 24.542969 40.699219 24.496094 L 40.699219 23.027344 C 40.699219 22.980469 40.730469 22.941406 40.777344 22.929688 L 42.757812 22.417969 C 42.921875 22.375 43.058594 22.257812 43.125 22.097656 C 43.191406 21.9375 43.179688 21.757812 43.089844 21.609375 L 42.050781 19.851562 C 42.027344 19.808594 42.035156 19.757812 42.066406 19.726562 L 43.109375 18.683594 C 43.140625 18.652344 43.191406 18.648438 43.230469 18.671875 L 44.992188 19.710938 C 45.140625 19.800781 45.320312 19.8125 45.480469 19.746094 C 45.636719 19.679688 45.757812 19.542969 45.800781 19.378906 L 46.308594 17.398438 C 46.324219 17.351562 46.363281 17.320312 46.410156 17.320312 L 47.882812 17.320312 C 47.925781 17.320312 47.96875 17.351562 47.980469 17.398438 L 48.488281 19.378906 C 48.53125 19.542969 48.648438 19.679688 48.808594 19.746094 C 48.96875 19.8125 49.148438 19.800781 49.296875 19.710938 L 51.054688 18.671875 C 51.097656 18.648438 51.148438 18.652344 51.179688 18.683594 L 52.222656 19.726562 C 52.253906 19.757812 52.261719 19.808594 52.238281 19.851562 L 51.199219 21.609375 C 51.109375 21.757812 51.097656 21.941406 51.164062 22.097656 C 51.230469 22.257812 51.367188 22.375 51.535156 22.417969 L 53.511719 22.929688 C 53.558594 22.941406 53.589844 22.980469 53.585938 23.027344 L 53.585938 24.496094 C 53.589844 24.542969 53.558594 24.585938 53.511719 24.597656 L 51.535156 25.105469 C 51.367188 25.148438 51.230469 25.265625 51.164062 25.425781 C 51.097656 25.585938 51.109375 25.765625 51.199219 25.914062 L 52.238281 27.675781 C 52.261719 27.714844 52.257812 27.765625 52.222656 27.800781 L 51.179688 28.839844 C 51.148438 28.875 51.097656 28.878906 51.054688 28.859375 L 49.296875 27.816406 C 49.148438 27.730469 48.96875 27.714844 48.808594 27.78125 C 48.648438 27.847656 48.53125 27.984375 48.488281 28.148438 L 47.980469 30.128906 C 47.96875 30.175781 47.925781 30.207031 47.882812 30.207031 Z M 46.40625 30.207031 "/>
<path style=" stroke:none;fill-rule:nonzero;fill:rgb(0%,0%,0%);fill-opacity:1;" d="M 47.140625 26.652344 C 45.554688 26.652344 44.269531 25.367188 44.269531 23.777344 C 44.269531 22.191406 45.554688 20.90625 47.140625 20.90625 C 48.726562 20.90625 50.015625 22.191406 50.015625 23.777344 C 50.011719 25.367188 48.726562 26.652344 47.140625 26.652344 Z M 47.140625 22.003906 C 46.160156 22.003906 45.363281 22.800781 45.363281 23.78125 C 45.363281 24.765625 46.160156 25.5625 47.144531 25.558594 C 48.125 25.558594 48.921875 24.761719 48.921875 23.777344 C 48.917969 22.796875 48.125 22.003906 47.140625 22.003906 Z M 47.140625 22.003906 "/>
</g>
</svg>
