<?xml version="1.0" encoding="UTF-8"?>
<svg xmlns="http://www.w3.org/2000/svg" xmlns:xlink="http://www.w3.org/1999/xlink" width="30pt" height="29pt" viewBox="0 0 30 29" version="1.1">
<g id="surface1">
<path style=" stroke:none;fill-rule:nonzero;fill:rgb(38.431373%,32.156863%,25.098039%);fill-opacity:1;" d="M 30 14.5 C 30 22.503906 23.28125 29 15 29 C 6.71875 29 0 22.503906 0 14.5 C 0 6.496094 6.71875 0 15 0 C 23.28125 0 30 6.496094 30 14.5 Z M 30 14.5 "/>
<path style=" stroke:none;fill-rule:nonzero;fill:rgb(96.078431%,92.156863%,89.803922%);fill-opacity:1;" d="M 21.429688 15.117188 C 21.125 14.382812 20.644531 13.734375 20.023438 13.21875 C 19.421875 12.71875 18.664062 12.332031 17.773438 12.070312 C 16.910156 11.820312 15.902344 11.691406 14.792969 11.691406 C 14.402344 11.691406 14.023438 11.695312 13.671875 11.707031 C 13.460938 11.714844 13.242188 11.726562 13.027344 11.742188 L 13.027344 8.480469 L 19.679688 8.480469 C 19.902344 8.480469 20.304688 8.394531 20.527344 7.828125 C 20.65625 7.515625 20.71875 7.046875 20.71875 6.394531 C 20.722656 6.121094 20.707031 5.851562 20.679688 5.582031 C 20.65625 5.371094 20.605469 5.160156 20.523438 4.960938 C 20.453125 4.785156 20.335938 4.632812 20.183594 4.515625 C 20.039062 4.40625 19.859375 4.347656 19.675781 4.347656 L 10.28125 4.347656 C 9.820312 4.347656 9.460938 4.476562 9.21875 4.734375 L 9.214844 4.738281 C 8.988281 4.988281 8.878906 5.351562 8.878906 5.851562 L 8.878906 14.171875 C 8.878906 14.664062 8.972656 15.003906 9.171875 15.222656 C 9.371094 15.445312 9.695312 15.574219 10.117188 15.574219 C 10.589844 15.570312 11.066406 15.542969 11.539062 15.484375 L 11.542969 15.484375 C 12.0625 15.425781 12.582031 15.394531 13.105469 15.398438 C 13.980469 15.398438 14.414062 15.414062 14.902344 15.578125 C 15.585938 15.804688 16.117188 16.214844 16.339844 16.386719 C 16.871094 16.804688 17.074219 17.121094 17.195312 17.054688 C 17.347656 16.980469 17.28125 16.390625 17 15.929688 C 16.558594 15.207031 15.699219 14.972656 15.097656 14.808594 C 14.34375 14.601562 13.707031 14.605469 13.101562 14.605469 C 12.542969 14.601562 11.988281 14.632812 11.433594 14.699219 C 10.992188 14.75 10.550781 14.78125 10.105469 14.78125 C 9.917969 14.78125 9.816406 14.742188 9.78125 14.707031 C 9.773438 14.695312 9.6875 14.589844 9.6875 14.171875 L 9.6875 5.851562 C 9.6875 5.460938 9.777344 5.316406 9.820312 5.269531 C 9.898438 5.183594 10.054688 5.144531 10.273438 5.144531 L 19.671875 5.144531 C 19.679688 5.148438 19.6875 5.152344 19.695312 5.15625 C 19.726562 5.1875 19.746094 5.222656 19.761719 5.261719 L 19.761719 5.269531 C 19.8125 5.402344 19.84375 5.539062 19.855469 5.679688 C 19.882812 5.917969 19.894531 6.15625 19.890625 6.394531 C 19.890625 7.070312 19.816406 7.390625 19.757812 7.539062 L 19.757812 7.542969 C 19.742188 7.597656 19.710938 7.648438 19.675781 7.6875 L 12.613281 7.6875 C 12.386719 7.6875 12.203125 7.867188 12.203125 8.085938 L 12.203125 12.179688 C 12.203125 12.292969 12.253906 12.402344 12.34375 12.476562 C 12.429688 12.550781 12.546875 12.585938 12.664062 12.574219 C 13.003906 12.535156 13.351562 12.511719 13.695312 12.496094 C 14.035156 12.484375 14.40625 12.480469 14.785156 12.480469 C 15.816406 12.480469 16.742188 12.597656 17.53125 12.828125 C 18.324219 13.058594 18.96875 13.386719 19.484375 13.816406 C 20.007812 14.25 20.414062 14.800781 20.667969 15.417969 C 20.941406 16.054688 21.082031 16.820312 21.082031 17.6875 C 21.082031 18.660156 20.90625 19.542969 20.558594 20.304688 C 20.222656 21.042969 19.722656 21.699219 19.089844 22.222656 C 18.40625 22.765625 17.625 23.175781 16.777344 23.429688 C 15.789062 23.722656 14.761719 23.867188 13.726562 23.855469 C 13.160156 23.855469 12.59375 23.820312 12.035156 23.746094 C 11.550781 23.683594 11.070312 23.59375 10.597656 23.472656 C 10.25 23.386719 9.90625 23.28125 9.574219 23.148438 C 9.246094 23.011719 9.160156 22.957031 9.140625 22.941406 L 9.132812 22.933594 C 9.09375 22.902344 9.0625 22.863281 9.039062 22.820312 C 9.007812 22.746094 8.984375 22.667969 8.96875 22.589844 C 8.945312 22.453125 8.929688 22.316406 8.925781 22.175781 C 8.914062 22 8.910156 21.78125 8.910156 21.53125 C 8.90625 21.308594 8.917969 21.089844 8.941406 20.871094 C 8.949219 20.746094 8.972656 20.625 9.011719 20.507812 L 9.011719 20.503906 C 9.023438 20.476562 9.03125 20.457031 9.039062 20.441406 C 9.117188 20.472656 9.195312 20.507812 9.265625 20.550781 L 9.273438 20.554688 C 9.957031 20.910156 10.691406 21.175781 11.449219 21.339844 C 12.0625 21.472656 12.6875 21.535156 13.316406 21.523438 C 13.894531 21.527344 14.472656 21.464844 15.035156 21.335938 C 15.539062 21.21875 16.015625 21 16.425781 20.6875 C 16.8125 20.382812 17.117188 19.996094 17.320312 19.554688 C 17.539062 19.054688 17.644531 18.515625 17.632812 17.96875 C 17.625 17.414062 17.617188 16.527344 17 15.921875 C 16.722656 15.65625 16.304688 15.414062 16.167969 15.519531 C 16.074219 15.585938 16.136719 15.785156 16.335938 16.378906 C 16.761719 17.664062 16.796875 17.734375 16.8125 17.964844 C 16.824219 18.398438 16.742188 18.828125 16.570312 19.226562 C 16.421875 19.554688 16.195312 19.839844 15.910156 20.066406 C 15.589844 20.300781 15.222656 20.472656 14.832031 20.5625 C 14.332031 20.675781 13.820312 20.730469 13.308594 20.726562 C 12.75 20.734375 12.1875 20.679688 11.640625 20.5625 C 11.238281 20.476562 10.839844 20.355469 10.453125 20.210938 C 10.1875 20.105469 9.925781 19.988281 9.671875 19.855469 C 9.398438 19.703125 9.1875 19.632812 9.007812 19.632812 C 8.832031 19.632812 8.664062 19.691406 8.53125 19.800781 C 8.398438 19.910156 8.300781 20.054688 8.246094 20.21875 C 8.179688 20.398438 8.136719 20.589844 8.125 20.78125 C 8.097656 21.027344 8.085938 21.277344 8.089844 21.527344 C 8.089844 21.792969 8.09375 22.023438 8.105469 22.214844 C 8.113281 22.390625 8.132812 22.570312 8.164062 22.742188 C 8.191406 22.882812 8.234375 23.015625 8.289062 23.144531 L 8.289062 23.152344 C 8.363281 23.289062 8.460938 23.414062 8.578125 23.519531 C 8.695312 23.621094 8.878906 23.71875 9.246094 23.871094 C 9.617188 24.019531 10 24.144531 10.390625 24.242188 L 10.394531 24.242188 C 10.898438 24.367188 11.410156 24.464844 11.925781 24.535156 C 12.523438 24.613281 13.128906 24.652344 13.730469 24.648438 C 14.851562 24.660156 15.96875 24.503906 17.039062 24.183594 C 17.984375 23.902344 18.863281 23.441406 19.625 22.828125 C 20.351562 22.226562 20.929688 21.472656 21.3125 20.625 C 21.703125 19.761719 21.910156 18.773438 21.910156 17.691406 C 21.90625 16.714844 21.746094 15.851562 21.429688 15.117188 Z M 21.429688 15.117188 "/>
<path style=" stroke:none;fill-rule:nonzero;fill:rgb(96.078431%,92.156863%,89.803922%);fill-opacity:1;" d="M 17.109375 16.195312 C 17.109375 15.976562 16.925781 15.796875 16.699219 15.796875 C 16.472656 15.796875 16.289062 15.976562 16.289062 16.195312 C 16.289062 16.414062 16.472656 16.589844 16.699219 16.589844 C 16.925781 16.589844 17.109375 16.414062 17.109375 16.195312 Z M 17.109375 16.195312 "/>
</g>
</svg>
