<?xml version="1.0" encoding="UTF-8"?>
<svg xmlns="http://www.w3.org/2000/svg" xmlns:xlink="http://www.w3.org/1999/xlink" width="30pt" height="29pt" viewBox="0 0 30 29" version="1.1">
<g id="surface1">
<path style=" stroke:none;fill-rule:nonzero;fill:rgb(38.431373%,32.156863%,25.098039%);fill-opacity:1;" d="M 30 14.5 C 30 22.503906 23.28125 29 15 29 C 6.71875 29 0 22.503906 0 14.5 C 0 6.496094 6.71875 0 15 0 C 23.28125 0 30 6.496094 30 14.5 Z M 30 14.5 "/>
<path style=" stroke:none;fill-rule:nonzero;fill:rgb(96.078431%,92.156863%,89.803922%);fill-opacity:1;" d="M 22.011719 21.890625 C 21.984375 21.683594 21.929688 21.476562 21.839844 21.289062 C 21.761719 21.117188 21.636719 20.972656 21.480469 20.863281 C 21.328125 20.757812 21.148438 20.699219 20.960938 20.703125 L 14.125 20.703125 L 15.757812 19.085938 C 16.929688 17.964844 17.882812 16.964844 18.59375 16.113281 C 19.304688 15.261719 19.878906 14.457031 20.277344 13.742188 C 20.6875 13 20.953125 12.328125 21.089844 11.679688 C 21.214844 11.046875 21.277344 10.410156 21.277344 9.765625 C 21.285156 9.035156 21.144531 8.3125 20.875 7.628906 C 20.601562 6.960938 20.175781 6.363281 19.625 5.882812 C 19.078125 5.402344 18.378906 5.023438 17.554688 4.75 C 16.742188 4.484375 15.785156 4.351562 14.714844 4.351562 C 14.054688 4.351562 13.394531 4.410156 12.75 4.535156 C 12.167969 4.648438 11.59375 4.800781 11.035156 4.988281 C 10.578125 5.140625 10.132812 5.328125 9.707031 5.550781 C 9.429688 5.691406 9.164062 5.859375 8.925781 6.058594 L 8.914062 6.066406 C 8.792969 6.183594 8.683594 6.308594 8.589844 6.445312 L 8.585938 6.453125 C 8.507812 6.582031 8.449219 6.71875 8.417969 6.859375 C 8.378906 7.007812 8.351562 7.160156 8.335938 7.3125 C 8.320312 7.46875 8.3125 7.660156 8.3125 7.925781 C 8.308594 8.226562 8.320312 8.523438 8.351562 8.820312 C 8.371094 9.027344 8.410156 9.234375 8.460938 9.433594 L 8.464844 9.453125 C 8.507812 9.632812 8.609375 9.800781 8.746094 9.929688 C 8.890625 10.050781 9.070312 10.121094 9.261719 10.121094 C 9.484375 10.121094 9.730469 10.023438 10.042969 9.816406 C 10.261719 9.675781 10.539062 9.515625 10.890625 9.332031 C 11.261719 9.144531 11.648438 8.988281 12.046875 8.863281 C 12.523438 8.722656 13.023438 8.65625 13.519531 8.660156 C 13.847656 8.652344 14.175781 8.703125 14.484375 8.8125 C 14.726562 8.902344 14.949219 9.042969 15.128906 9.226562 C 15.304688 9.40625 15.4375 9.617188 15.519531 9.851562 C 15.613281 10.105469 15.660156 10.371094 15.660156 10.640625 C 15.660156 10.992188 15.621094 11.34375 15.535156 11.683594 C 15.304688 12.535156 14.914062 13.011719 14.167969 14.355469 C 13.496094 15.566406 13.542969 15.679688 13.582031 15.707031 C 13.714844 15.8125 14.332031 15.332031 14.746094 14.914062 C 15.859375 13.796875 16.179688 12.496094 16.335938 11.855469 C 16.429688 11.460938 16.480469 11.054688 16.476562 10.648438 C 16.480469 10.289062 16.417969 9.929688 16.292969 9.589844 C 16.171875 9.257812 15.980469 8.953125 15.726562 8.695312 C 15.464844 8.425781 15.148438 8.21875 14.789062 8.085938 C 14.382812 7.9375 13.953125 7.867188 13.519531 7.875 C 12.933594 7.867188 12.351562 7.949219 11.792969 8.117188 C 11.347656 8.253906 10.914062 8.429688 10.5 8.640625 C 10.125 8.839844 9.824219 9.007812 9.585938 9.167969 L 9.578125 9.167969 C 9.488281 9.234375 9.390625 9.28125 9.289062 9.320312 C 9.273438 9.292969 9.261719 9.261719 9.253906 9.234375 C 9.214844 9.070312 9.183594 8.902344 9.167969 8.734375 C 9.140625 8.46875 9.128906 8.199219 9.132812 7.929688 C 9.132812 7.691406 9.140625 7.523438 9.152344 7.390625 C 9.164062 7.277344 9.183594 7.164062 9.214844 7.054688 C 9.214844 7.050781 9.214844 7.046875 9.214844 7.042969 C 9.226562 6.976562 9.253906 6.917969 9.285156 6.859375 C 9.34375 6.78125 9.410156 6.707031 9.484375 6.636719 C 9.679688 6.488281 9.886719 6.355469 10.109375 6.246094 C 10.496094 6.046875 10.898438 5.875 11.3125 5.738281 C 11.835938 5.5625 12.371094 5.421875 12.914062 5.3125 C 13.507812 5.199219 14.113281 5.144531 14.71875 5.144531 C 15.699219 5.144531 16.566406 5.265625 17.296875 5.503906 C 18.023438 5.738281 18.613281 6.066406 19.078125 6.472656 C 19.535156 6.871094 19.886719 7.367188 20.109375 7.921875 C 20.347656 8.511719 20.464844 9.136719 20.460938 9.769531 C 20.457031 10.359375 20.398438 10.949219 20.285156 11.527344 C 20.167969 12.09375 19.929688 12.699219 19.558594 13.367188 C 19.183594 14.039062 18.644531 14.796875 17.957031 15.617188 C 17.269531 16.441406 16.328125 17.425781 15.175781 18.527344 C 15.175781 18.527344 15.175781 18.527344 15.175781 18.53125 L 12.855469 20.820312 C 12.738281 20.933594 12.707031 21.105469 12.769531 21.25 C 12.835938 21.398438 12.984375 21.496094 13.148438 21.496094 L 20.960938 21.496094 C 20.972656 21.492188 20.988281 21.496094 20.996094 21.507812 L 21.019531 21.523438 C 21.054688 21.554688 21.082031 21.589844 21.097656 21.632812 L 21.097656 21.640625 C 21.148438 21.757812 21.183594 21.878906 21.195312 22.007812 C 21.226562 22.226562 21.242188 22.445312 21.238281 22.667969 C 21.242188 22.894531 21.230469 23.125 21.207031 23.355469 C 21.191406 23.492188 21.160156 23.628906 21.113281 23.761719 C 21.101562 23.792969 21.082031 23.824219 21.058594 23.851562 C 21.046875 23.855469 21.035156 23.855469 21.023438 23.855469 L 9.617188 23.855469 C 9.453125 23.859375 9.296875 23.84375 9.136719 23.808594 C 9.066406 23.792969 9 23.757812 8.949219 23.707031 C 8.875 23.613281 8.832031 23.503906 8.8125 23.390625 C 8.769531 23.136719 8.75 22.882812 8.753906 22.625 C 8.753906 22.363281 8.769531 22.097656 8.796875 21.835938 C 8.820312 21.660156 8.863281 21.488281 8.933594 21.324219 C 9.007812 21.164062 9.101562 21.007812 9.207031 20.863281 C 9.347656 20.675781 9.5 20.503906 9.667969 20.339844 L 9.675781 20.332031 L 13.113281 16.78125 C 14.363281 15.441406 14.78125 14.949219 14.746094 14.914062 C 14.695312 14.867188 13.734375 15.828125 13.582031 15.707031 C 13.425781 15.585938 14.230469 14.394531 14.167969 14.355469 C 14.101562 14.316406 13.5625 15.148438 12.519531 16.238281 L 9.085938 19.785156 C 8.886719 19.976562 8.707031 20.183594 8.542969 20.402344 C 8.40625 20.589844 8.285156 20.789062 8.191406 21 C 8.085938 21.234375 8.019531 21.480469 7.988281 21.734375 C 7.953125 22.027344 7.9375 22.324219 7.941406 22.621094 C 7.933594 22.933594 7.960938 23.242188 8.019531 23.546875 C 8.0625 23.796875 8.167969 24.027344 8.332031 24.222656 C 8.492188 24.398438 8.703125 24.519531 8.9375 24.574219 C 9.160156 24.628906 9.390625 24.652344 9.621094 24.648438 L 21.027344 24.648438 C 21.207031 24.648438 21.386719 24.597656 21.535156 24.5 L 21.546875 24.492188 C 21.699219 24.378906 21.816406 24.222656 21.882812 24.046875 C 21.882812 24.039062 21.886719 24.035156 21.890625 24.027344 C 21.957031 23.84375 22 23.648438 22.023438 23.453125 C 22.054688 23.191406 22.066406 22.929688 22.0625 22.664062 C 22.066406 22.40625 22.046875 22.148438 22.011719 21.890625 Z M 22.011719 21.890625 "/>
<path style=" stroke:none;fill-rule:nonzero;fill:rgb(96.078431%,92.156863%,89.803922%);fill-opacity:1;" d="M 14.882812 14.621094 C 14.882812 14.402344 14.699219 14.222656 14.472656 14.222656 C 14.246094 14.226562 14.0625 14.402344 14.0625 14.621094 C 14.0625 14.839844 14.246094 15.019531 14.472656 15.015625 C 14.699219 15.015625 14.882812 14.839844 14.882812 14.621094 Z M 14.882812 14.621094 "/>
</g>
</svg>
