<?xml version="1.0" encoding="UTF-8"?>
<svg xmlns="http://www.w3.org/2000/svg" xmlns:xlink="http://www.w3.org/1999/xlink" width="88pt" height="88pt" viewBox="0 0 88 88" version="1.1">
<defs>
<clipPath id="clip1">
  <path d="M 22.332031 17.4375 L 68.40625 17.4375 L 68.40625 72.988281 L 22.332031 72.988281 Z M 22.332031 17.4375 "/>
</clipPath>
</defs>
<g id="surface1">
<path style=" stroke:none;fill-rule:nonzero;fill:rgb(38.431373%,32.156863%,25.098039%);fill-opacity:1;" d="M 87.988281 43.996094 C 87.988281 68.292969 68.292969 87.988281 43.996094 87.988281 C 19.695312 87.988281 0 68.292969 0 43.996094 C 0 19.695312 19.695312 0 43.996094 0 C 68.292969 0 87.988281 19.695312 87.988281 43.996094 Z M 87.988281 43.996094 "/>
<path style=" stroke:none;fill-rule:nonzero;fill:rgb(96.078431%,92.156863%,89.803922%);fill-opacity:1;" d="M 30.128906 22.878906 C 30.070312 23.636719 29.417969 24.207031 28.660156 24.167969 C 27.902344 24.128906 27.308594 23.496094 27.328125 22.734375 C 27.347656 21.976562 27.964844 21.367188 28.726562 21.367188 C 29.113281 21.378906 29.480469 21.546875 29.742188 21.828125 C 30.007812 22.113281 30.144531 22.492188 30.128906 22.878906 Z M 30.128906 22.878906 "/>
<path style=" stroke:none;fill-rule:nonzero;fill:rgb(96.078431%,92.156863%,89.803922%);fill-opacity:1;" d="M 34.417969 22.878906 C 34.351562 23.628906 33.703125 24.191406 32.949219 24.148438 C 32.199219 24.105469 31.617188 23.476562 31.636719 22.722656 C 31.65625 21.96875 32.269531 21.367188 33.023438 21.367188 C 33.410156 21.382812 33.773438 21.550781 34.035156 21.832031 C 34.292969 22.117188 34.433594 22.492188 34.417969 22.878906 Z M 34.417969 22.878906 "/>
<path style=" stroke:none;fill-rule:nonzero;fill:rgb(96.078431%,92.156863%,89.803922%);fill-opacity:1;" d="M 38.714844 22.878906 C 38.652344 23.636719 38 24.210938 37.238281 24.167969 C 36.480469 24.128906 35.890625 23.488281 35.914062 22.726562 C 35.933594 21.96875 36.558594 21.363281 37.320312 21.367188 C 37.707031 21.382812 38.070312 21.550781 38.332031 21.832031 C 38.589844 22.117188 38.730469 22.492188 38.714844 22.878906 Z M 38.714844 22.878906 "/>
<path style=" stroke:none;fill-rule:nonzero;fill:rgb(96.078431%,92.156863%,89.803922%);fill-opacity:1;" d="M 49.636719 33.113281 C 50.078125 33.113281 50.441406 32.753906 50.441406 32.308594 C 50.441406 31.863281 50.078125 31.5 49.636719 31.5 L 37.796875 31.5 C 37.351562 31.5 36.992188 31.863281 36.992188 32.308594 C 36.992188 32.753906 37.351562 33.113281 37.796875 33.113281 Z M 49.636719 33.113281 "/>
<path style=" stroke:none;fill-rule:nonzero;fill:rgb(96.078431%,92.156863%,89.803922%);fill-opacity:1;" d="M 27.5625 36.433594 C 27.554688 36.644531 27.628906 36.84375 27.773438 36.996094 C 27.914062 37.148438 28.109375 37.234375 28.320312 37.242188 L 59.09375 37.242188 C 59.300781 37.234375 59.496094 37.144531 59.632812 36.992188 C 59.773438 36.839844 59.847656 36.640625 59.839844 36.433594 C 59.855469 36.003906 59.523438 35.640625 59.09375 35.621094 L 28.320312 35.621094 C 28.109375 35.628906 27.914062 35.71875 27.773438 35.871094 C 27.628906 36.023438 27.554688 36.226562 27.5625 36.433594 Z M 27.5625 36.433594 "/>
<path style=" stroke:none;fill-rule:nonzero;fill:rgb(96.078431%,92.156863%,89.803922%);fill-opacity:1;" d="M 28.320312 41.21875 L 35.28125 41.21875 C 35.488281 41.210938 35.683594 41.121094 35.820312 40.972656 C 35.960938 40.820312 36.035156 40.621094 36.027344 40.414062 C 36.042969 39.984375 35.710938 39.621094 35.28125 39.597656 L 28.320312 39.597656 C 28.109375 39.605469 27.914062 39.695312 27.773438 39.847656 C 27.628906 40.003906 27.554688 40.207031 27.5625 40.414062 C 27.554688 40.621094 27.628906 40.824219 27.773438 40.976562 C 27.914062 41.125 28.109375 41.214844 28.320312 41.21875 Z M 28.320312 41.21875 "/>
<g clip-path="url(#clip1)" clip-rule="nonzero">
<path style=" stroke:none;fill-rule:nonzero;fill:rgb(96.078431%,92.156863%,89.803922%);fill-opacity:1;" d="M 67.140625 65.003906 L 62.167969 59.671875 C 63.910156 59.113281 65.082031 57.472656 65.042969 55.644531 L 65.042969 21.613281 C 65.121094 19.394531 63.390625 17.527344 61.171875 17.4375 L 47.386719 17.4375 C 47.816406 17.457031 48.148438 17.820312 48.132812 18.253906 C 48.140625 18.457031 48.066406 18.660156 47.925781 18.808594 C 47.785156 18.960938 47.59375 19.050781 47.386719 19.058594 L 61.203125 19.058594 C 62.5625 19.113281 63.621094 20.253906 63.570312 21.613281 L 63.570312 26.71875 L 23.871094 26.71875 L 23.871094 21.613281 C 23.820312 20.253906 24.882812 19.113281 26.238281 19.058594 L 47.386719 19.058594 C 47.59375 19.050781 47.785156 18.960938 47.925781 18.808594 C 48.066406 18.660156 48.140625 18.457031 48.132812 18.253906 C 48.148438 17.820312 47.816406 17.457031 47.386719 17.4375 L 26.210938 17.4375 C 23.992188 17.527344 22.261719 19.394531 22.339844 21.613281 L 22.339844 48.839844 L 23.097656 51.953125 L 23.84375 52.769531 L 23.84375 28.328125 L 63.570312 28.328125 L 63.570312 55.644531 C 63.617188 56.996094 62.558594 58.136719 61.203125 58.1875 L 60.824219 58.1875 C 60.824219 58.1875 48.550781 44.859375 48.171875 44.570312 L 40.78125 40.316406 L 40.691406 40.316406 C 39.957031 40.007812 39.109375 40.207031 38.582031 40.800781 C 38.015625 41.410156 37.832031 42.285156 38.105469 43.070312 C 38.113281 43.101562 38.113281 43.136719 38.105469 43.167969 L 42.003906 51.195312 C 42.085938 51.375 48.472656 58.230469 48.472656 58.230469 L 26.210938 58.230469 C 24.851562 58.160156 23.804688 57.003906 23.871094 55.644531 L 23.871094 52.769531 C 23.886719 51.464844 23.8125 50.164062 23.652344 48.867188 C 23.386719 46.71875 23.265625 46.5625 23.175781 46.550781 C 23.085938 46.542969 22.796875 46.820312 22.371094 48.839844 L 22.371094 55.644531 C 22.296875 57.859375 24.023438 59.71875 26.238281 59.8125 L 50.113281 59.8125 L 56.378906 66.644531 C 56.515625 66.792969 56.707031 66.882812 56.910156 66.882812 C 57.113281 66.882812 57.308594 66.792969 57.441406 66.644531 C 57.730469 66.316406 57.730469 65.828125 57.441406 65.5 L 44.878906 51.953125 L 48.910156 47.605469 L 66.078125 66.148438 C 67.183594 67.382812 67.183594 69.253906 66.078125 70.492188 C 65.566406 71.054688 64.84375 71.375 64.085938 71.375 C 63.328125 71.375 62.605469 71.054688 62.097656 70.492188 L 57.484375 65.519531 C 57.769531 65.847656 57.769531 66.335938 57.484375 66.664062 C 57.347656 66.816406 57.152344 66.902344 56.949219 66.902344 C 56.746094 66.902344 56.554688 66.816406 56.417969 66.664062 L 61.035156 71.636719 C 61.824219 72.5 62.9375 72.992188 64.109375 72.992188 C 65.277344 72.992188 66.390625 72.5 67.179688 71.636719 C 68.839844 69.730469 68.820312 66.890625 67.140625 65.003906 Z M 47.746094 46.324219 L 43.765625 50.667969 L 43.417969 50.292969 L 42.363281 48.121094 L 45.378906 44.761719 L 47.367188 45.90625 Z M 39.699219 41.90625 C 39.835938 41.855469 39.699219 41.726562 40.183594 41.777344 L 44.023438 43.996094 L 41.597656 46.621094 L 39.609375 42.433594 C 39.554688 42.246094 39.605469 42.046875 39.738281 41.90625 Z M 39.699219 41.90625 "/>
</g>
</g>
</svg>
