<svg xmlns="http://www.w3.org/2000/svg" viewBox="0 0 88 88"><defs><style>.cls-1{fill:#625240;}.cls-2{fill:#fff;}.cls-3{fill:#f5ebe5;}</style></defs><g id="Calque_2" data-name="Calque 2"><g id="Calque_1-2" data-name="Calque 1"><g id="surface1"><path class="cls-1" d="M88,44A44,44,0,1,1,44,0,44,44,0,0,1,88,44Z"/><path class="cls-2" d="M51.28,48c-.21,0-.25.53-.24,4.58,0,3,0,4.14-.4,5.63a9.52,9.52,0,0,1-1.37,2.81,5.74,5.74,0,0,1-2.11,1.74,6.78,6.78,0,0,1-3,.63,7.06,7.06,0,0,1-3.1-.63,4.92,4.92,0,0,1-2.11-2.13,15.38,15.38,0,0,1-1.42-4.6A45.89,45.89,0,0,1,37,49c.44-.27.89-.52,1.33-.75a17.14,17.14,0,0,1,2.07-.88,14.45,14.45,0,0,1,2.15-.56h0a12.64,12.64,0,0,1,2.22-.2,8.07,8.07,0,0,1,3.08.49c1.66.76,2.28,2.62,3.2,5.48,1.08,3.39,1.05,5.29,1.44,5.31s1.28-2.72.94-5.54c-.46-3.85-2.9-6.7-4.65-7.46h0a10.68,10.68,0,0,0-4-.68,13.86,13.86,0,0,0-2.66.25,18.1,18.1,0,0,0-2.51.64h0a19.76,19.76,0,0,0-2.36,1,21.1,21.1,0,0,0-2.11,1.23,1.19,1.19,0,0,0-.54,1,50.68,50.68,0,0,0,.55,8.07,16.47,16.47,0,0,0,1.7,5.37A7.31,7.31,0,0,0,40,65a9.46,9.46,0,0,0,4.19.89A9,9,0,0,0,48.22,65a7.91,7.91,0,0,0,3-2.46A11.41,11.41,0,0,0,53,58.93h0a15.72,15.72,0,0,0,.46-6.53C53,50.11,51.77,47.91,51.28,48Z"/><path class="cls-2" d="M64,46.18a14.87,14.87,0,0,0-3.15-5.8,14.09,14.09,0,0,0-5.53-3.73,21.81,21.81,0,0,0-7.86-1.27,22.9,22.9,0,0,0-3.88.3,29.51,29.51,0,0,0-3.35.76h0a18.1,18.1,0,0,0-2.91,1.14l-.41.21a28.43,28.43,0,0,1,.62-4,14.68,14.68,0,0,1,2.09-4.9,9.92,9.92,0,0,1,3.59-3.22,11.31,11.31,0,0,1,5.48-1.19,22.19,22.19,0,0,1,3.54.25h0a19.41,19.41,0,0,1,2.64.59h0c.77.23,1.43.42,2,.61a5.56,5.56,0,0,0,1.76.35,2.4,2.4,0,0,0,2.37-1.76,6.62,6.62,0,0,0,.32-1.71c0-.59.06-1.31.06-2.35,0-.62,0-1.15,0-1.6a7.39,7.39,0,0,0-.19-1.25,5.12,5.12,0,0,0-.38-1v0a3.59,3.59,0,0,0-.79-1,5.68,5.68,0,0,0-1.69-.88,16.8,16.8,0,0,0-2.66-.77c-1-.2-2-.38-3.28-.52a29.43,29.43,0,0,0-3.52-.21,27.82,27.82,0,0,0-9.58,1.49,21.49,21.49,0,0,0-7,4,21.84,21.84,0,0,0-4.7,5.94,32.71,32.71,0,0,0-2.77,7,44.43,44.43,0,0,0-1.32,7.41c-.23,2.42-.34,4.82-.34,7.14,0,2.71.11,5.31.32,7.7a39.79,39.79,0,0,0,1.15,6.86,25.15,25.15,0,0,0,2.31,5.76A15.08,15.08,0,0,0,30.7,71a16.7,16.7,0,0,0,5.51,2.8,25,25,0,0,0,7.3,1,24.69,24.69,0,0,0,9.13-1.6A18.59,18.59,0,0,0,63.53,61.93a24.6,24.6,0,0,0,1.4-8.42,25.91,25.91,0,0,0-1-7.33ZM61.27,61.11A16.19,16.19,0,0,1,51.74,71a22.09,22.09,0,0,1-8.22,1.43,22.82,22.82,0,0,1-6.61-.85,14.48,14.48,0,0,1-4.73-2.4,12.78,12.78,0,0,1-3.24-3.78,22.46,22.46,0,0,1-2.06-5.2,35,35,0,0,1-1.08-6.43c-.21-2.34-.32-4.86-.32-7.5,0-2.25.11-4.58.33-6.91a42.69,42.69,0,0,1,1.23-7,30.71,30.71,0,0,1,2.57-6.48,19.66,19.66,0,0,1,4.19-5.28A19.23,19.23,0,0,1,40,17a25.36,25.36,0,0,1,8.76-1.35,29.33,29.33,0,0,1,3.24.19c1.15.14,2.15.3,3.06.5h0a13.94,13.94,0,0,1,2.27.64h0a4.16,4.16,0,0,1,1,.46,1.56,1.56,0,0,1,.23.28,3.13,3.13,0,0,1,.19.54h0a5.36,5.36,0,0,1,.11.79c0,.4,0,.86,0,1.43,0,1,0,1.65-.06,2.17a4.16,4.16,0,0,1-.19,1.1.08.08,0,0,1,0,.06.32.32,0,0,1,0,.09,2.71,2.71,0,0,1-1-.23c-.58-.2-1.28-.42-2.1-.65a21.27,21.27,0,0,0-2.95-.65,23.56,23.56,0,0,0-3.93-.29A13.69,13.69,0,0,0,42,23.53a12.45,12.45,0,0,0-4.44,4,16.85,16.85,0,0,0-2.44,5.7,31,31,0,0,0-.78,6.65,1.2,1.2,0,0,0,1.86,1,20.53,20.53,0,0,1,2.11-1.16h0a16.08,16.08,0,0,1,2.52-1,29.18,29.18,0,0,1,3.08-.69,21.21,21.21,0,0,1,3.48-.27,19.61,19.61,0,0,1,7,1.11A11.84,11.84,0,0,1,59,42a12.6,12.6,0,0,1,2.66,4.88,23.34,23.34,0,0,1,.89,6.65,22.37,22.37,0,0,1-1.26,7.6Z"/><path class="cls-3" d="M52.25,51.42a1.21,1.21,0,1,0,1.2,1.2A1.2,1.2,0,0,0,52.25,51.42Z"/></g></g></g></svg>