<svg xmlns="http://www.w3.org/2000/svg" viewBox="0 0 349.53 198.9"><defs><style>.cls-1{fill:#f5f5f5;}.cls-2{fill:#263238;}.cls-3{fill:#625240;}.cls-4{opacity:0.5;}.cls-4,.cls-5,.cls-6,.cls-7,.cls-8{isolation:isolate;}.cls-5{opacity:0.4;}.cls-6,.cls-8{fill:#fff;}.cls-6{opacity:0.1;}.cls-7,.cls-8{opacity:0.2;}</style></defs><g id="Calque_2" data-name="Calque 2"><g id="Calque_1-2" data-name="Calque 1"><path class="cls-1" d="M347.11,73.33a36.65,36.65,0,0,0-5.26-9.9,16.92,16.92,0,0,1-2.44-4.32A17.24,17.24,0,0,0,335.86,53a4,4,0,0,1-.26-.32C327.43,40.92,312.69,35,298.5,35.78a40.45,40.45,0,0,1-33.42-15A40.26,40.26,0,0,0,225.49,7a37.27,37.27,0,0,1-27.3-4.24A18.16,18.16,0,0,0,189.8,0c-9.08-.47-17.49,4.41-25.28,9.1S148.27,18.65,139.19,18c-9.83-.66-18-7.52-27.18-11.07C94.68.27,73.8,7.9,62.86,22.55A40.5,40.5,0,0,1,41.35,37c-9.23,2.63-19.14,9.67-28.09,18.54a25.58,25.58,0,0,0-7.18,13A13.12,13.12,0,0,1,5.32,71,47.37,47.37,0,0,0,1.91,84.12a15.57,15.57,0,0,1-.37,2c-2.34,9.72-1.71,20.89-.12,29.12a4.77,4.77,0,0,0,.18.7c.74,8.53,2.22,16.78,6.44,21C16.46,149.26,32,155.24,46.7,154a35.31,35.31,0,0,1,31.1,14,40.21,40.21,0,0,0,41.37,14.73,33.3,33.3,0,0,1,26,4.17,18.21,18.21,0,0,0,8.83,3c9.08.47,17.49-4.41,25.28-9.1s16.25-9.52,25.33-8.91c9.83.66,18,7.52,27.18,11.07,17.8,6.88,39.34-1.35,50-16.78A32.32,32.32,0,0,1,301,153.18c13.41-3.18,28.45-16.09,40-30.68a20.24,20.24,0,0,0,3.84-7.69,18.05,18.05,0,0,1,1.31-3.65,34.54,34.54,0,0,0,3.19-13.69C349.76,89.62,349.72,80.81,347.11,73.33Z"/><g id="freepik--Plant--inject-428"><path class="cls-2" d="M276.8,155.83c-7.43,3.53-15.57,7.33-18.57,13.51-1.22.24-2.59.52-4.09.84-6.14,1.31-14.51,3.3-23.64,5.78A82.39,82.39,0,0,0,246,166.79c5.62-4.18,10.13-9.39,11.88-15.15-16.08,2.2-28.53,12.6-29.95,25-8.86,2.46-16.75,4.92-22.48,6.86l-.56.19c5.44-3.2,12.4-8.88,15.54-13.32A92.73,92.73,0,0,0,228.36,156c-15.52,4-25.64,15.73-24.06,28-5.34,1.83-8.5,3.1-8.41,3.3s4-.82,10.17-2.58l2.84-.81c4.51,4.65,8.44,6.66,16,8.16,7.78,1.53,15.92,1.71,24.06,1.88-6.78-9-20.25-13.69-34-11.77,4.59-1.31,9.76-2.76,15.27-4.27l3.92-1.07a51.08,51.08,0,0,0,17.46,8c7,1.59,14.93,1.35,21.41-1.54-4.8-4.6-11.67-7.66-19.38-8.62a86.63,86.63,0,0,0-8.72-.76c3.57-1,6.86-1.8,9.59-2.52l5-1.35c17.45,1.41,34.64-5.87,42.84-18.13A47.17,47.17,0,0,0,276.8,155.83Z"/><path class="cls-2" d="M158.43,190.06c.16-.25-3.65-1.75-9.74-4.12l-2.82-1.1c1.58-6.28.9-10.2-2.88-15.88-3.88-5.84-9.43-10.88-14.93-15.86-4.44,11,.23,22.68,11.78,29.43-4.53-1.75-9.65-3.73-15-5.87L121,175.18c0-5.73-1-11.52-4-16.64a25.84,25.84,0,0,0-16.55-11.65,21.33,21.33,0,0,0,4.73,18.22,52.87,52.87,0,0,0,5.33,5.82l-9.29-3.8-4.87-2c-10.78-11.54-30.24-16.24-48.47-11.71,5,6.07,12.8,10.43,21.93,12.27,8.8,1.75,18.37,3.69,26.77.72,1.1.55,2.34,1.15,3.72,1.81,5.63,2.67,13.51,6.15,22.43,9.71a101.49,101.49,0,0,0-20.18-2.21c-8.18-.14-16.66,1.16-23.77,4.55,13.5,7.94,32.81,7.38,46.48-1.35,8.71,3.41,16.74,6.25,22.72,8.19l.59.19c-7.08-.81-17.69-.58-24.4,1a174.68,174.68,0,0,0-20.29,6.38c14.9,6.26,34,3.25,45.38-7.14C154.78,189.34,158.3,190.27,158.43,190.06Z"/><path class="cls-3" d="M161,181.13c-5.67-.46-9.58-4.48-11.93-8.58-5.81-10.16-5.41-22.79,1-33.44,2.31-3.83,5.62-7.6,10.44-9.3a21.47,21.47,0,0,1,11.21-.51c8.7,1.73,15.51,7.3,18.56,14.07s2.49,14.55-.51,21.67a27.62,27.62,0,0,1-9.94,12.52c-4.82,3.22-11.49,4.83-17.06,3.27"/><path class="cls-4" d="M161,181.13c-5.67-.46-9.58-4.48-11.93-8.58-5.81-10.16-5.41-22.79,1-33.44,2.31-3.83,5.62-7.6,10.44-9.3a21.47,21.47,0,0,1,11.21-.51c8.7,1.73,15.51,7.3,18.56,14.07s2.49,14.55-.51,21.67a27.62,27.62,0,0,1-9.94,12.52c-4.82,3.22-11.49,4.83-17.06,3.27"/><path class="cls-3" d="M178.37,181.9a53.89,53.89,0,0,1,13.38-26.35,39.58,39.58,0,0,1,11.12-8.93,27,27,0,0,1,15.12-3c5.19.6,9.93,3.37,11.24,7.24,1.17,3.47-.41,7.29-3,10.43-4.6,5.6-12,9.51-19.39,13A95.06,95.06,0,0,1,192,180a43.55,43.55,0,0,1-16.22,1.58"/><path class="cls-5" d="M178.37,181.9a53.89,53.89,0,0,1,13.38-26.35,39.58,39.58,0,0,1,11.12-8.93,27,27,0,0,1,15.12-3c5.19.6,9.93,3.37,11.24,7.24,1.17,3.47-.41,7.29-3,10.43-4.6,5.6-12,9.51-19.39,13A95.06,95.06,0,0,1,192,180a43.55,43.55,0,0,1-16.22,1.58"/><path class="cls-3" d="M175.77,194.55c1.58,2.27,5.13,3.39,8.55,3.39a34,34,0,0,0,10-1.93,98.07,98.07,0,0,0,17.43-7A38.83,38.83,0,0,0,225,178c1.73-2.42,2.85-5.63.59-7.64-2-1.84-5.71-1.73-8.88-1.42-7.75.76-15.56,2-22.62,4.73s-13.43,7-16.55,12.6c-1.33,2.32-2.08,4.93-1.23,7.31a7.19,7.19,0,0,0,6.86,4.34"/><path class="cls-6" d="M175.77,194.55c1.58,2.27,5.13,3.39,8.55,3.39a34,34,0,0,0,10-1.93,98.07,98.07,0,0,0,17.43-7A38.83,38.83,0,0,0,225,178c1.73-2.42,2.85-5.63.59-7.64-2-1.84-5.71-1.73-8.88-1.42-7.75.76-15.56,2-22.62,4.73s-13.43,7-16.55,12.6c-1.33,2.32-2.08,4.93-1.23,7.31a7.19,7.19,0,0,0,6.86,4.34"/><path class="cls-3" d="M161.93,190.1a23.33,23.33,0,0,0,1.51-21c-2.92-6.76-8.7-12.49-16.45-16.32a23.69,23.69,0,0,0-9.82-2.79c-3.58-.11-7.46,1.08-9.35,3.46-2.14,2.67-1.37,6-.31,8.94a65.91,65.91,0,0,0,7.34,14.31c2.76,4.09,5,8.66,10,11.22s11.51,4.3,17.05,2.12"/><path class="cls-7" d="M161.93,190.1a23.33,23.33,0,0,0,1.51-21c-2.92-6.76-8.7-12.49-16.45-16.32a23.69,23.69,0,0,0-9.82-2.79c-3.58-.11-7.46,1.08-9.35,3.46-2.14,2.67-1.37,6-.31,8.94a65.91,65.91,0,0,0,7.34,14.31c2.76,4.09,5,8.66,10,11.22s11.51,4.3,17.05,2.12"/><path class="cls-1" d="M165,165.74c.61-.24,2.42,1.73,4,4.4s2.47,5,1.85,5.25-2.43-1.73-4.05-4.4S164.33,166,165,165.74Z"/><path class="cls-1" d="M171,175.16c-.68,0-1.08-2.46-.93-5.51s.84-5.51,1.51-5.51,1.08,2.47.92,5.51S171.68,175.16,171,175.16Z"/><path class="cls-1" d="M175.87,166.47c.66.07.73,1.94-.1,4.16s-2.22,3.82-2.84,3.65-.29-2,.53-4.06S175.22,166.39,175.87,166.47Z"/><path class="cls-1" d="M181.59,164.61c.63.17-.1,2.69-1.63,5.69s-3.26,5.24-3.88,5.07.11-2.69,1.63-5.69S181,164.44,181.59,164.61Z"/><path class="cls-1" d="M186.69,168.23c.44.37-1.43,2.23-4,4.24s-5.09,3.43-5.57,3.09,1.22-2.34,3.89-4.38S186.25,167.86,186.69,168.23Z"/><path class="cls-1" d="M189.45,172.57c.29.45-2,1.74-5,2.88s-5.78,1.69-6,1.22,2-1.77,5-2.89S189.16,172.11,189.45,172.57Z"/><path class="cls-2" d="M166.66,174c-.1.07-3.84-2.64-8.39-6s-8.09-6.25-8-6.32,3.83,2.63,8.35,6S166.75,173.9,166.66,174Z"/><path class="cls-2" d="M167.86,174.11a8.41,8.41,0,0,1-1.33-1.41c-.77-.9-1.77-2.16-2.8-3.6s-1.88-2.77-2.45-3.75a6.38,6.38,0,0,1-.83-1.62,8.43,8.43,0,0,1,1.13,1.5l2.58,3.66c1,1.37,1.9,2.6,2.66,3.65A7.25,7.25,0,0,1,167.86,174.11Z"/><path class="cls-2" d="M171,174.39a81.09,81.09,0,0,1-2.88-8.19c-1.46-4.55-2.55-8.25-2.45-8.28a83.91,83.91,0,0,1,2.9,8.18A79.37,79.37,0,0,1,171,174.39Z"/><path class="cls-2" d="M171.63,173.35a4.6,4.6,0,0,1,0-1c0-.64,0-1.56.11-2.69.13-2.27.43-5.39.94-8.86s1.2-6.58,1.72-8.85c.28-1.12.52-2.05.71-2.65a4.45,4.45,0,0,1,.33-1,3.76,3.76,0,0,1-.14,1c-.16.68-.33,1.6-.56,2.67-.46,2.25-1.06,5.37-1.57,8.83s-.87,6.58-1.09,8.84c-.1,1.08-.19,2-.25,2.7A3.64,3.64,0,0,1,171.63,173.35Z"/><path class="cls-2" d="M176.75,175.25c-.13,0,1.49-4.7,3.62-10.46s3.95-10.37,4.08-10.38-1.49,4.7-3.62,10.45S176.87,175.27,176.75,175.25Z"/><path class="cls-2" d="M197.46,157.51a4.46,4.46,0,0,1-.54.77c-.37.48-.93,1.17-1.65,2-1.42,1.68-3.49,4-5.94,6.38s-4.88,4.54-6.62,6c-.88.74-1.64,1.33-2.14,1.72a5.14,5.14,0,0,1-.83.59,4.72,4.72,0,0,1,.72-.69l2-1.8c1.71-1.51,4-3.64,6.51-6s4.54-4.67,6-6.31l1.77-2A3.57,3.57,0,0,1,197.46,157.51Z"/><path class="cls-2" d="M200,165.27a5.13,5.13,0,0,1-.64.53c-.43.33-1.06.76-1.86,1.34-1.61,1.11-3.88,2.59-6.48,4.15s-5,2.88-6.82,3.8c-.89.46-1.63.8-2.15,1.06a4,4,0,0,1-.85.34,29.35,29.35,0,0,1,2.79-1.61c1.73-1,4.12-2.36,6.69-3.88s4.88-3,6.54-4.05A30.6,30.6,0,0,1,200,165.27Z"/><path class="cls-2" d="M202.06,169.32a22.94,22.94,0,0,1-2.62,1.47c-1.69.86-4,2-6.65,3.17s-5.07,2.15-6.88,2.82a24.36,24.36,0,0,1-2.95,1,25.22,25.22,0,0,1,2.8-1.23c1.76-.73,4.17-1.75,6.77-2.91s5-2.27,6.69-3.07A24.93,24.93,0,0,1,202.06,169.32Z"/><path class="cls-2" d="M147.8,159.4a1.37,1.37,0,0,0-1,1.14,1.6,1.6,0,0,0,1.1,1.25A3.12,3.12,0,0,0,150,162c1-.36,1.49-1.26,1.08-2a3.18,3.18,0,0,0-3.31-.61"/><path class="cls-2" d="M174,146.3a1.37,1.37,0,0,0-1,1.12,1.61,1.61,0,0,0,1.09,1.21,3.07,3.07,0,0,0,2.08.23c1-.34,1.46-1.21,1.05-2h0a3,3,0,0,0-3.24-.6"/><path class="cls-2" d="M195.08,156.89a1.36,1.36,0,0,0-1,1.13,1.59,1.59,0,0,0,1.09,1.21,3,3,0,0,0,2.07.23c1-.34,1.46-1.22,1.06-2h0a3.07,3.07,0,0,0-3.24-.6"/><path class="cls-2" d="M164.72,156.21a1,1,0,0,0-.67.78,1.09,1.09,0,0,0,.75.83,2.16,2.16,0,0,0,1.43.16c.68-.22,1-.83.77-1.34v0a2.17,2.17,0,0,0-2.24-.41"/><path class="cls-2" d="M199,164.21a.94.94,0,0,0-.67.77,1.09,1.09,0,0,0,.75.84,2.14,2.14,0,0,0,1.42.16c.69-.23,1-.83.78-1.35h0a2.15,2.15,0,0,0-2.24-.41"/><path class="cls-2" d="M201,168.25a.93.93,0,0,0-.67.78,1.06,1.06,0,0,0,.74.83,2.08,2.08,0,0,0,1.44.16c.67-.23,1-.84.72-1.35h0a2.15,2.15,0,0,0-2.23-.41"/><path class="cls-2" d="M158.81,162.27a.94.94,0,0,0-.67.77,1.11,1.11,0,0,0,.74.84,2.2,2.2,0,0,0,1.44.16c.69-.23,1-.84.76-1.36h0a2.12,2.12,0,0,0-2.24-.41"/><path class="cls-2" d="M183.8,152.76a1,1,0,0,0-.67.78,1.09,1.09,0,0,0,.75.83,2.16,2.16,0,0,0,1.43.16c.68-.22,1-.83.77-1.34v0a2.16,2.16,0,0,0-2.24-.41"/><path class="cls-3" d="M152.33,193.93a23.1,23.1,0,0,0,11.18,4.85,27.27,27.27,0,0,0,11.75-1.7c5.66-2,11.16-5.29,12.54-9.89,1.11-3.69-.74-7.56-4-10.22s-7.85-4.24-12.55-5.11a35,35,0,0,0-14.12-.09c-4.64,1-9,3.42-11,6.84s-.23,11,6.18,15.32"/><path class="cls-8" d="M152.33,193.93a23.1,23.1,0,0,0,11.18,4.85,27.27,27.27,0,0,0,11.75-1.7c5.66-2,11.16-5.29,12.54-9.89,1.11-3.69-.74-7.56-4-10.22s-7.85-4.24-12.55-5.11a35,35,0,0,0-14.12-.09c-4.64,1-9,3.42-11,6.84s-.23,11,6.18,15.32"/></g></g></g></svg>