<?xml version="1.0" encoding="UTF-8"?>
<svg xmlns="http://www.w3.org/2000/svg" xmlns:xlink="http://www.w3.org/1999/xlink" width="50pt" height="50pt" viewBox="0 0 50 50" version="1.1">
<g id="surface1">
<path style=" stroke:none;fill-rule:nonzero;fill:rgb(38.431373%,32.156863%,25.098039%);fill-opacity:1;" d="M 50 25 C 50 38.808594 38.808594 50 25 50 C 11.191406 50 0 38.808594 0 25 C 0 11.191406 11.191406 0 25 0 C 38.808594 0 50 11.191406 50 25 Z M 50 25 "/>
<path style=" stroke:none;fill-rule:nonzero;fill:rgb(100%,100%,100%);fill-opacity:1;" d="M 29.136719 27.273438 C 29.015625 27.273438 28.996094 27.574219 29 29.875 C 29 31.578125 29 32.226562 28.773438 33.074219 C 28.601562 33.644531 28.339844 34.183594 27.996094 34.671875 C 27.679688 35.089844 27.269531 35.429688 26.796875 35.660156 C 26.261719 35.90625 25.679688 36.03125 25.089844 36.015625 C 24.484375 36.03125 23.882812 35.910156 23.328125 35.660156 C 22.8125 35.390625 22.394531 34.96875 22.128906 34.449219 C 21.726562 33.625 21.453125 32.742188 21.324219 31.835938 C 21.121094 30.511719 21.019531 29.179688 21.023438 27.839844 C 21.273438 27.6875 21.527344 27.546875 21.777344 27.414062 C 22.160156 27.222656 22.550781 27.054688 22.953125 26.914062 C 23.351562 26.777344 23.761719 26.671875 24.175781 26.597656 C 24.59375 26.523438 25.015625 26.484375 25.4375 26.484375 C 26.035156 26.460938 26.628906 26.554688 27.1875 26.761719 C 28.128906 27.191406 28.484375 28.25 29.003906 29.875 C 29.621094 31.800781 29.601562 32.878906 29.824219 32.890625 C 30.046875 32.902344 30.550781 31.347656 30.359375 29.746094 C 30.097656 27.558594 28.710938 25.9375 27.714844 25.503906 C 26.988281 25.234375 26.21875 25.101562 25.441406 25.121094 C 24.9375 25.117188 24.429688 25.164062 23.933594 25.261719 C 23.449219 25.347656 22.972656 25.46875 22.503906 25.625 C 22.046875 25.785156 21.597656 25.976562 21.164062 26.191406 C 20.753906 26.402344 20.351562 26.636719 19.964844 26.890625 C 19.773438 27.015625 19.660156 27.230469 19.660156 27.460938 C 19.640625 28.996094 19.746094 30.527344 19.972656 32.046875 C 20.117188 33.109375 20.441406 34.140625 20.9375 35.097656 C 21.324219 35.882812 21.953125 36.523438 22.726562 36.933594 C 23.472656 37.28125 24.285156 37.453125 25.109375 37.4375 C 25.898438 37.449219 26.683594 37.277344 27.398438 36.933594 C 28.074219 36.613281 28.660156 36.132812 29.101562 35.535156 C 29.558594 34.914062 29.902344 34.222656 30.113281 33.484375 C 30.460938 32.277344 30.550781 31.015625 30.375 29.773438 C 30.113281 28.472656 29.414062 27.222656 29.136719 27.273438 Z M 29.136719 27.273438 "/>
<path style=" stroke:none;fill-rule:nonzero;fill:rgb(100%,100%,100%);fill-opacity:1;" d="M 36.363281 26.238281 C 36.019531 25.019531 35.410156 23.894531 34.574219 22.941406 C 33.710938 21.996094 32.632812 21.269531 31.433594 20.824219 C 30 20.3125 28.484375 20.066406 26.964844 20.101562 C 26.226562 20.097656 25.488281 20.152344 24.761719 20.273438 C 24.117188 20.378906 23.484375 20.523438 22.859375 20.703125 C 22.289062 20.871094 21.734375 21.089844 21.203125 21.351562 L 20.972656 21.472656 C 21.035156 20.707031 21.152344 19.945312 21.324219 19.199219 C 21.546875 18.207031 21.949219 17.261719 22.511719 16.414062 C 23.03125 15.644531 23.730469 15.019531 24.550781 14.585938 C 25.515625 14.101562 26.585938 13.871094 27.664062 13.910156 C 28.339844 13.902344 29.011719 13.949219 29.675781 14.050781 C 30.183594 14.128906 30.683594 14.238281 31.175781 14.386719 C 31.613281 14.515625 31.988281 14.625 32.3125 14.734375 C 32.632812 14.851562 32.96875 14.921875 33.3125 14.933594 C 33.9375 14.945312 34.492188 14.535156 34.660156 13.933594 C 34.761719 13.617188 34.824219 13.289062 34.839844 12.960938 C 34.839844 12.625 34.875 12.214844 34.875 11.625 C 34.875 11.273438 34.875 10.972656 34.875 10.714844 C 34.859375 10.476562 34.824219 10.238281 34.765625 10.003906 C 34.714844 9.808594 34.644531 9.617188 34.550781 9.4375 C 34.4375 9.222656 34.285156 9.03125 34.101562 8.871094 C 33.8125 8.648438 33.488281 8.480469 33.140625 8.371094 C 32.652344 8.183594 32.144531 8.035156 31.628906 7.933594 C 31.0625 7.816406 30.496094 7.714844 29.765625 7.636719 C 29.101562 7.558594 28.433594 7.515625 27.765625 7.515625 C 25.917969 7.476562 24.074219 7.765625 22.324219 8.363281 C 20.867188 8.863281 19.515625 9.632812 18.347656 10.636719 C 17.265625 11.597656 16.363281 12.738281 15.675781 14.011719 C 15 15.273438 14.472656 16.605469 14.101562 17.988281 C 13.734375 19.367188 13.484375 20.777344 13.351562 22.199219 C 13.222656 23.574219 13.160156 24.9375 13.160156 26.253906 C 13.160156 27.796875 13.222656 29.273438 13.339844 30.628906 C 13.445312 31.945312 13.664062 33.25 13.996094 34.527344 C 14.296875 35.667969 14.734375 36.769531 15.308594 37.800781 C 15.847656 38.777344 16.574219 39.640625 17.441406 40.339844 C 18.378906 41.0625 19.441406 41.601562 20.574219 41.933594 C 21.921875 42.324219 23.320312 42.515625 24.722656 42.5 C 26.492188 42.527344 28.253906 42.21875 29.910156 41.589844 C 32.816406 40.472656 35.078125 38.128906 36.097656 35.1875 C 36.636719 33.652344 36.90625 32.03125 36.890625 30.402344 C 36.902344 28.996094 36.710938 27.59375 36.324219 26.238281 Z M 34.8125 34.722656 C 33.929688 37.304688 31.945312 39.363281 29.398438 40.339844 C 27.90625 40.90625 26.320312 41.183594 24.726562 41.152344 C 23.457031 41.175781 22.191406 41.015625 20.972656 40.671875 C 20 40.386719 19.089844 39.921875 18.285156 39.308594 C 17.535156 38.71875 16.910156 37.988281 16.441406 37.160156 C 15.929688 36.226562 15.539062 35.234375 15.273438 34.203125 C 14.953125 33.007812 14.75 31.785156 14.660156 30.550781 C 14.539062 29.222656 14.476562 27.789062 14.476562 26.289062 C 14.476562 25.011719 14.539062 23.6875 14.664062 22.363281 C 14.785156 21.019531 15.019531 19.691406 15.363281 18.386719 C 15.710938 17.109375 16.199219 15.871094 16.824219 14.703125 C 17.4375 13.574219 18.246094 12.558594 19.203125 11.703125 C 20.238281 10.808594 21.433594 10.113281 22.726562 9.660156 C 24.328125 9.113281 26.011719 8.855469 27.703125 8.890625 C 28.320312 8.894531 28.933594 8.929688 29.546875 9 C 30.199219 9.078125 30.765625 9.171875 31.285156 9.285156 C 31.722656 9.367188 32.15625 9.492188 32.574219 9.648438 C 32.773438 9.710938 32.964844 9.796875 33.140625 9.910156 C 33.191406 9.957031 33.234375 10.011719 33.273438 10.066406 C 33.316406 10.167969 33.355469 10.269531 33.378906 10.375 C 33.414062 10.523438 33.433594 10.671875 33.441406 10.824219 C 33.441406 11.050781 33.441406 11.3125 33.441406 11.636719 C 33.441406 12.203125 33.441406 12.574219 33.410156 12.871094 C 33.402344 13.082031 33.363281 13.292969 33.300781 13.496094 C 33.304688 13.503906 33.304688 13.515625 33.300781 13.527344 C 33.304688 13.546875 33.304688 13.5625 33.300781 13.578125 C 33.105469 13.574219 32.914062 13.527344 32.734375 13.449219 C 32.402344 13.335938 32.003906 13.210938 31.539062 13.078125 C 30.992188 12.917969 30.429688 12.792969 29.863281 12.710938 C 29.125 12.59375 28.378906 12.539062 27.628906 12.546875 C 26.324219 12.5 25.03125 12.78125 23.863281 13.371094 C 22.851562 13.910156 21.984375 14.691406 21.339844 15.640625 C 20.683594 16.625 20.210938 17.726562 19.953125 18.878906 C 19.671875 20.121094 19.523438 21.386719 19.511719 22.660156 C 19.511719 22.910156 19.648438 23.140625 19.871094 23.257812 C 20.089844 23.378906 20.359375 23.363281 20.566406 23.226562 C 20.953125 22.984375 21.355469 22.765625 21.765625 22.566406 C 22.226562 22.339844 22.707031 22.148438 23.199219 22 C 23.773438 21.835938 24.359375 21.707031 24.949219 21.609375 C 25.601562 21.503906 26.265625 21.453125 26.925781 21.453125 C 28.277344 21.421875 29.628906 21.636719 30.902344 22.085938 C 31.90625 22.460938 32.804688 23.070312 33.523438 23.863281 C 34.226562 24.664062 34.742188 25.609375 35.035156 26.636719 C 35.382812 27.863281 35.554688 29.136719 35.539062 30.414062 C 35.550781 31.882812 35.308594 33.347656 34.824219 34.734375 Z M 34.8125 34.722656 "/>
<path style=" stroke:none;fill-rule:nonzero;fill:rgb(96.078431%,92.156863%,89.803922%);fill-opacity:1;" d="M 29.6875 29.214844 C 29.410156 29.214844 29.15625 29.378906 29.046875 29.636719 C 28.941406 29.894531 29 30.191406 29.195312 30.390625 C 29.394531 30.585938 29.691406 30.644531 29.949219 30.539062 C 30.203125 30.429688 30.371094 30.175781 30.371094 29.898438 C 30.371094 29.519531 30.0625 29.214844 29.6875 29.214844 Z M 29.6875 29.214844 "/>
</g>
</svg>
