<?xml version="1.0" encoding="UTF-8"?>
<svg xmlns="http://www.w3.org/2000/svg" xmlns:xlink="http://www.w3.org/1999/xlink" width="45pt" height="45pt" viewBox="0 0 45 45" version="1.1">
<g id="surface1">
<path style=" stroke:none;fill-rule:nonzero;fill:rgb(38.431373%,32.156863%,25.098039%);fill-opacity:1;" d="M 44.644531 22.320312 C 44.644531 34.652344 34.652344 44.644531 22.320312 44.644531 C 9.992188 44.644531 0 34.652344 0 22.320312 C 0 9.992188 9.992188 0 22.320312 0 C 34.652344 0 44.644531 9.992188 44.644531 22.320312 Z M 44.644531 22.320312 "/>
<path style=" stroke:none;fill-rule:nonzero;fill:rgb(100%,100%,100%);fill-opacity:1;" d="M 26.015625 24.351562 C 25.90625 24.351562 25.890625 24.621094 25.894531 26.675781 C 25.894531 28.195312 25.894531 28.773438 25.691406 29.53125 C 25.535156 30.039062 25.304688 30.519531 24.996094 30.957031 C 24.714844 31.332031 24.347656 31.632812 23.925781 31.839844 C 23.449219 32.058594 22.929688 32.171875 22.402344 32.15625 C 21.859375 32.171875 21.324219 32.0625 20.828125 31.839844 C 20.367188 31.597656 19.996094 31.222656 19.757812 30.757812 C 19.398438 30.023438 19.15625 29.234375 19.039062 28.425781 C 18.859375 27.242188 18.765625 26.054688 18.769531 24.855469 C 18.996094 24.722656 19.222656 24.59375 19.445312 24.476562 C 19.785156 24.304688 20.132812 24.15625 20.492188 24.03125 C 20.847656 23.910156 21.214844 23.8125 21.585938 23.746094 C 21.957031 23.683594 22.335938 23.648438 22.710938 23.648438 C 23.246094 23.625 23.777344 23.710938 24.273438 23.894531 C 25.113281 24.277344 25.433594 25.222656 25.894531 26.675781 C 26.449219 28.394531 26.429688 29.355469 26.628906 29.367188 C 26.828125 29.378906 27.277344 27.988281 27.105469 26.558594 C 26.871094 24.605469 25.636719 23.160156 24.746094 22.769531 C 24.097656 22.53125 23.410156 22.410156 22.714844 22.429688 C 22.265625 22.425781 21.8125 22.46875 21.371094 22.554688 C 20.9375 22.632812 20.511719 22.738281 20.09375 22.878906 C 19.683594 23.023438 19.285156 23.191406 18.894531 23.386719 C 18.53125 23.574219 18.171875 23.78125 17.824219 24.007812 C 17.65625 24.121094 17.554688 24.3125 17.554688 24.519531 C 17.535156 25.890625 17.628906 27.257812 17.832031 28.613281 C 17.960938 29.5625 18.25 30.484375 18.695312 31.335938 C 19.039062 32.039062 19.601562 32.609375 20.292969 32.976562 C 20.957031 33.285156 21.683594 33.441406 22.417969 33.425781 C 23.125 33.4375 23.824219 33.285156 24.464844 32.976562 C 25.066406 32.691406 25.589844 32.261719 25.984375 31.726562 C 26.390625 31.171875 26.699219 30.554688 26.886719 29.898438 C 27.199219 28.820312 27.277344 27.691406 27.121094 26.582031 C 26.886719 25.421875 26.261719 24.304688 26.015625 24.351562 Z M 26.015625 24.351562 "/>
<path style=" stroke:none;fill-rule:nonzero;fill:rgb(100%,100%,100%);fill-opacity:1;" d="M 32.46875 23.425781 C 32.160156 22.339844 31.617188 21.335938 30.871094 20.484375 C 30.097656 19.640625 29.136719 18.992188 28.066406 18.59375 C 26.785156 18.136719 25.433594 17.917969 24.074219 17.949219 C 23.417969 17.945312 22.757812 17.992188 22.109375 18.101562 C 21.535156 18.195312 20.96875 18.324219 20.410156 18.484375 C 19.902344 18.636719 19.40625 18.832031 18.929688 19.0625 L 18.726562 19.171875 C 18.78125 18.488281 18.886719 17.808594 19.039062 17.140625 C 19.238281 16.257812 19.597656 15.414062 20.101562 14.65625 C 20.5625 13.96875 21.1875 13.410156 21.921875 13.023438 C 22.78125 12.589844 23.738281 12.386719 24.699219 12.417969 C 25.304688 12.414062 25.902344 12.453125 26.496094 12.546875 C 26.949219 12.613281 27.394531 12.710938 27.835938 12.84375 C 28.226562 12.960938 28.5625 13.058594 28.851562 13.15625 C 29.136719 13.261719 29.4375 13.324219 29.742188 13.332031 C 30.300781 13.34375 30.796875 12.976562 30.945312 12.441406 C 31.039062 12.160156 31.09375 11.863281 31.105469 11.574219 C 31.105469 11.273438 31.136719 10.90625 31.136719 10.378906 C 31.136719 10.066406 31.136719 9.796875 31.136719 9.566406 C 31.125 9.355469 31.09375 9.140625 31.039062 8.933594 C 30.996094 8.757812 30.933594 8.585938 30.847656 8.425781 C 30.746094 8.234375 30.613281 8.0625 30.449219 7.921875 C 30.191406 7.722656 29.898438 7.570312 29.589844 7.472656 C 29.152344 7.308594 28.699219 7.175781 28.238281 7.082031 C 27.734375 6.980469 27.230469 6.886719 26.578125 6.820312 C 25.984375 6.75 25.386719 6.710938 24.789062 6.710938 C 23.140625 6.675781 21.496094 6.933594 19.933594 7.46875 C 18.632812 7.914062 17.425781 8.601562 16.382812 9.496094 C 15.414062 10.355469 14.609375 11.375 13.996094 12.511719 C 13.394531 13.636719 12.921875 14.828125 12.589844 16.0625 C 12.261719 17.292969 12.039062 18.550781 11.921875 19.820312 C 11.804688 21.046875 11.75 22.265625 11.75 23.441406 C 11.75 24.820312 11.804688 26.136719 11.910156 27.347656 C 12.003906 28.523438 12.199219 29.6875 12.496094 30.828125 C 12.765625 31.847656 13.15625 32.828125 13.667969 33.75 C 14.148438 34.621094 14.796875 35.394531 15.574219 36.019531 C 16.410156 36.664062 17.359375 37.144531 18.371094 37.441406 C 19.574219 37.789062 20.820312 37.960938 22.074219 37.945312 C 23.652344 37.972656 25.226562 37.695312 26.707031 37.132812 C 29.300781 36.136719 31.320312 34.042969 32.230469 31.417969 C 32.710938 30.046875 32.953125 28.597656 32.9375 27.144531 C 32.949219 25.890625 32.777344 24.636719 32.433594 23.425781 Z M 31.082031 31.003906 C 30.292969 33.308594 28.523438 35.144531 26.25 36.019531 C 24.917969 36.523438 23.5 36.769531 22.078125 36.742188 C 20.945312 36.765625 19.8125 36.621094 18.726562 36.3125 C 17.855469 36.058594 17.042969 35.644531 16.324219 35.097656 C 15.65625 34.570312 15.097656 33.917969 14.679688 33.179688 C 14.222656 32.34375 13.875 31.460938 13.636719 30.539062 C 13.351562 29.472656 13.167969 28.378906 13.089844 27.277344 C 12.980469 26.089844 12.925781 24.8125 12.925781 23.472656 C 12.925781 22.332031 12.980469 21.148438 13.09375 19.96875 C 13.199219 18.765625 13.410156 17.582031 13.71875 16.417969 C 14.027344 15.277344 14.464844 14.171875 15.023438 13.128906 C 15.570312 12.121094 16.292969 11.214844 17.144531 10.449219 C 18.070312 9.652344 19.136719 9.03125 20.292969 8.625 C 21.722656 8.136719 23.226562 7.90625 24.734375 7.9375 C 25.285156 7.941406 25.832031 7.972656 26.382812 8.035156 C 26.964844 8.105469 27.46875 8.1875 27.933594 8.289062 C 28.324219 8.363281 28.710938 8.476562 29.085938 8.613281 C 29.261719 8.671875 29.433594 8.746094 29.589844 8.847656 C 29.636719 8.890625 29.671875 8.9375 29.707031 8.988281 C 29.746094 9.078125 29.78125 9.167969 29.800781 9.261719 C 29.832031 9.394531 29.851562 9.527344 29.859375 9.664062 C 29.859375 9.867188 29.859375 10.101562 29.859375 10.390625 C 29.859375 10.894531 29.859375 11.226562 29.832031 11.492188 C 29.824219 11.679688 29.789062 11.867188 29.734375 12.050781 C 29.738281 12.058594 29.738281 12.066406 29.734375 12.078125 C 29.738281 12.09375 29.738281 12.109375 29.734375 12.125 C 29.558594 12.121094 29.386719 12.078125 29.226562 12.007812 C 28.929688 11.90625 28.574219 11.796875 28.160156 11.675781 C 27.671875 11.535156 27.167969 11.421875 26.664062 11.347656 C 26.003906 11.246094 25.339844 11.195312 24.667969 11.203125 C 23.503906 11.160156 22.347656 11.410156 21.304688 11.9375 C 20.402344 12.417969 19.628906 13.117188 19.054688 13.964844 C 18.46875 14.84375 18.046875 15.828125 17.816406 16.855469 C 17.5625 17.964844 17.433594 19.09375 17.421875 20.230469 C 17.421875 20.457031 17.542969 20.660156 17.742188 20.765625 C 17.9375 20.875 18.179688 20.859375 18.363281 20.738281 C 18.707031 20.523438 19.066406 20.328125 19.433594 20.148438 C 19.84375 19.945312 20.273438 19.777344 20.714844 19.644531 C 21.226562 19.496094 21.75 19.382812 22.277344 19.292969 C 22.859375 19.199219 23.453125 19.15625 24.039062 19.15625 C 25.246094 19.125 26.453125 19.320312 27.589844 19.71875 C 28.488281 20.054688 29.289062 20.597656 29.933594 21.304688 C 30.558594 22.019531 31.019531 22.867188 31.28125 23.78125 C 31.589844 24.878906 31.746094 26.015625 31.730469 27.15625 C 31.742188 28.464844 31.527344 29.773438 31.09375 31.011719 Z M 31.082031 31.003906 "/>
<path style=" stroke:none;fill-rule:nonzero;fill:rgb(96.078431%,92.156863%,89.803922%);fill-opacity:1;" d="M 26.507812 26.085938 C 26.257812 26.085938 26.03125 26.230469 25.933594 26.460938 C 25.839844 26.691406 25.894531 26.957031 26.066406 27.132812 C 26.246094 27.308594 26.511719 27.359375 26.742188 27.265625 C 26.96875 27.167969 27.117188 26.941406 27.117188 26.695312 C 27.117188 26.355469 26.839844 26.085938 26.507812 26.085938 Z M 26.507812 26.085938 "/>
</g>
</svg>
