<?xml version="1.0" encoding="UTF-8"?>
<svg xmlns="http://www.w3.org/2000/svg" xmlns:xlink="http://www.w3.org/1999/xlink" width="88pt" height="88pt" viewBox="0 0 88 88" version="1.1">
<g id="surface1">
<path style=" stroke:none;fill-rule:nonzero;fill:rgb(38.431373%,32.156863%,25.098039%);fill-opacity:1;" d="M 88 44 C 88 68.292969 68.292969 88 44 88 C 19.707031 88 0 68.292969 0 44 C 0 19.707031 19.707031 0 44 0 C 68.292969 0 88 19.707031 88 44 Z M 88 44 "/>
<path style=" stroke:none;fill-rule:nonzero;fill:rgb(100%,100%,100%);fill-opacity:1;" d="M 60.628906 44.6875 L 55.085938 44.6875 C 54.308594 44.6875 53.675781 45.320312 53.675781 46.097656 C 53.675781 46.875 54.308594 47.507812 55.085938 47.507812 L 60.628906 47.507812 C 61.410156 47.507812 62.039062 46.875 62.039062 46.097656 C 62.039062 45.320312 61.410156 44.6875 60.628906 44.6875 Z M 60.628906 44.6875 "/>
<path style=" stroke:none;fill-rule:nonzero;fill:rgb(100%,100%,100%);fill-opacity:1;" d="M 60.628906 50.238281 L 49.542969 50.238281 C 48.765625 50.238281 48.132812 50.871094 48.132812 51.648438 C 48.132812 52.429688 48.765625 53.058594 49.542969 53.058594 L 60.628906 53.058594 C 61.410156 53.058594 62.039062 52.429688 62.039062 51.648438 C 62.039062 50.871094 61.410156 50.238281 60.628906 50.238281 Z M 60.628906 50.238281 "/>
<path style=" stroke:none;fill-rule:nonzero;fill:rgb(100%,100%,100%);fill-opacity:1;" d="M 61.628906 31.25 L 53.3125 22.933594 C 53.046875 22.671875 52.6875 22.523438 52.316406 22.523438 C 51.941406 22.523438 51.582031 22.671875 51.320312 22.933594 L 26.371094 47.882812 C 26.109375 48.144531 25.960938 48.503906 25.960938 48.875 L 25.960938 57.191406 C 25.960938 57.972656 26.589844 58.601562 27.371094 58.601562 L 35.683594 58.601562 C 36.058594 58.601562 36.417969 58.453125 36.679688 58.191406 L 61.628906 33.242188 C 61.890625 32.980469 62.039062 32.621094 62.039062 32.246094 C 62.039062 31.875 61.890625 31.515625 61.628906 31.25 Z M 32.179688 53.152344 C 32.238281 53.128906 32.296875 53.105469 32.355469 53.078125 L 32.410156 53.117188 C 32.355469 53.171875 32.304688 53.230469 32.25 53.285156 Z M 35.101562 55.785156 L 34.9375 55.785156 L 34.992188 55.742188 C 36.507812 54.539062 37.742188 53.011719 39.046875 51.5625 C 39.210938 51.53125 39.367188 51.464844 39.503906 51.363281 L 39.574219 51.308594 Z M 44.164062 46.722656 C 44.261719 46.585938 44.359375 46.445312 44.453125 46.304688 L 44.832031 45.972656 C 44.945312 45.886719 45.0625 45.800781 45.171875 45.714844 Z M 46.640625 44.242188 C 46.777344 43.765625 46.574219 43.257812 46.144531 43.011719 L 47.488281 41.570312 C 47.613281 41.441406 47.707031 41.285156 47.765625 41.113281 C 49.261719 39.996094 50.691406 38.789062 52.046875 37.507812 C 52.460938 37.175781 52.539062 36.582031 52.226562 36.15625 C 52.902344 35.324219 51.867188 33.84375 50.71875 34.464844 C 45.582031 37.230469 40.886719 40.742188 36.785156 44.886719 C 36.5625 45.082031 36.433594 45.363281 36.433594 45.660156 C 36.433594 45.957031 36.5625 46.238281 36.785156 46.433594 C 36.386719 46.636719 35.996094 46.859375 35.621094 47.089844 C 35.394531 47.066406 35.164062 47.105469 34.960938 47.207031 C 34.132812 47.613281 33.554688 48.292969 33.042969 49.039062 C 32.757812 49.300781 32.476562 49.570312 32.210938 49.855469 C 31.996094 50.070312 31.878906 50.363281 31.890625 50.667969 L 31.773438 50.769531 L 31.085938 51.089844 L 30 49.046875 C 29.910156 48.878906 29.773438 48.738281 29.609375 48.644531 L 52.324219 25.933594 L 58.644531 32.253906 Z M 46.640625 44.242188 "/>
<path style=" stroke:none;fill-rule:nonzero;fill:rgb(100%,100%,100%);fill-opacity:1;" d="M 60.628906 55.785156 L 44 55.785156 C 43.222656 55.785156 42.589844 56.414062 42.589844 57.191406 C 42.589844 57.972656 43.222656 58.601562 44 58.601562 L 60.628906 58.601562 C 61.410156 58.601562 62.039062 57.972656 62.039062 57.191406 C 62.039062 56.414062 61.410156 55.785156 60.628906 55.785156 Z M 60.628906 55.785156 "/>
<path style=" stroke:none;fill-rule:nonzero;fill:rgb(100%,100%,100%);fill-opacity:1;" d="M 59.238281 31.496094 C 58.128906 30.035156 56.921875 28.535156 55.089844 27.984375 C 55 27.957031 54.914062 27.9375 54.824219 27.917969 C 54.261719 27.363281 53.679688 26.832031 53.0625 26.3125 C 52.992188 26.253906 52.914062 26.203125 52.832031 26.160156 C 52.628906 25.3125 51.511719 25.0625 50.917969 25.65625 C 43.25 33.300781 35.902344 41.25 28.875 49.5 C 28.464844 49.9375 28.449219 50.613281 28.839844 51.070312 C 28.46875 52.398438 28.476562 54.03125 29.066406 55.148438 C 29.832031 56.597656 31.394531 56.882812 32.722656 56.269531 C 33.90625 56.988281 35.242188 57.171875 36.449219 55.960938 C 37.367188 55.019531 37.929688 53.6875 38.742188 52.640625 C 38.796875 52.566406 38.859375 52.496094 38.914062 52.425781 L 41.808594 49.433594 C 41.964844 49.28125 42.074219 49.085938 42.125 48.875 C 42.421875 48.558594 42.71875 48.246094 43.019531 47.9375 C 43.425781 48.132812 43.914062 48.011719 44.179688 47.648438 C 46.3125 45.144531 48.523438 42.71875 50.816406 40.367188 C 50.902344 40.277344 50.972656 40.175781 51.03125 40.070312 C 53.113281 37.996094 55.285156 36.015625 57.550781 34.136719 C 57.683594 34.136719 57.816406 34.113281 57.949219 34.089844 C 58.40625 34.023438 58.710938 33.585938 58.777344 33.132812 L 59.074219 32.902344 C 59.445312 32.53125 59.515625 31.949219 59.238281 31.496094 Z M 33.078125 52.9375 C 33.011719 53.027344 32.941406 53.117188 32.871094 53.210938 C 32.71875 53.101562 32.570312 52.984375 32.429688 52.851562 C 32.679688 52.707031 32.925781 52.558594 33.167969 52.40625 C 33.136719 52.582031 33.105469 52.757812 33.078125 52.9375 Z M 33.078125 52.9375 "/>
</g>
</svg>
