<?xml version="1.0" encoding="UTF-8"?>
<svg xmlns="http://www.w3.org/2000/svg" xmlns:xlink="http://www.w3.org/1999/xlink" width="80pt" height="80pt" viewBox="0 0 80 80" version="1.1">
<g id="surface1">
<path style=" stroke:none;fill-rule:nonzero;fill:rgb(96.078431%,92.156863%,89.803922%);fill-opacity:1;" d="M 80 40 C 80 62.082031 62.082031 80 40 80 C 17.917969 80 0 62.082031 0 40 C 0 17.917969 17.917969 0 40 0 C 62.082031 0 80 17.917969 80 40 Z M 80 40 "/>
<path style=" stroke:none;fill-rule:nonzero;fill:rgb(38.431373%,32.156863%,25.098039%);fill-opacity:1;" d="M 56.398438 51.992188 C 56.398438 52.703125 55.828125 53.273438 55.117188 53.273438 L 40 53.273438 C 39.292969 53.273438 38.71875 52.703125 38.71875 51.992188 C 38.71875 51.285156 39.292969 50.710938 40 50.710938 L 55.117188 50.710938 C 55.828125 50.710938 56.398438 51.285156 56.398438 51.992188 Z M 55.117188 45.671875 L 45.039062 45.671875 C 44.332031 45.671875 43.757812 46.246094 43.757812 46.953125 C 43.757812 47.660156 44.332031 48.234375 45.039062 48.234375 L 55.117188 48.234375 C 55.828125 48.234375 56.398438 47.660156 56.398438 46.953125 C 56.398438 46.246094 55.828125 45.671875 55.117188 45.671875 Z M 55.117188 40.632812 L 50.078125 40.632812 C 49.371094 40.632812 48.796875 41.207031 48.796875 41.914062 C 48.796875 42.621094 49.371094 43.195312 50.078125 43.195312 L 55.117188 43.195312 C 55.828125 43.195312 56.398438 42.621094 56.398438 41.914062 C 56.398438 41.207031 55.828125 40.632812 55.117188 40.632812 Z M 56.023438 30.214844 L 33.347656 52.898438 C 33.105469 53.140625 32.78125 53.273438 32.441406 53.273438 L 24.882812 53.273438 C 24.171875 53.273438 23.601562 52.703125 23.601562 51.992188 L 23.601562 44.433594 C 23.601562 44.09375 23.734375 43.769531 23.976562 43.527344 L 46.652344 20.851562 C 46.894531 20.609375 47.21875 20.476562 47.558594 20.476562 C 47.898438 20.476562 48.226562 20.609375 48.464844 20.851562 L 56.023438 28.410156 C 56.265625 28.648438 56.398438 28.976562 56.398438 29.316406 C 56.398438 29.65625 56.265625 29.980469 56.023438 30.222656 Z M 53.304688 29.308594 L 47.558594 23.566406 L 26.164062 44.964844 L 26.164062 50.710938 L 31.910156 50.710938 Z M 53.304688 29.308594 "/>
</g>
</svg>
