<?xml version="1.0" encoding="UTF-8"?>
<svg xmlns="http://www.w3.org/2000/svg" xmlns:xlink="http://www.w3.org/1999/xlink" width="88pt" height="88pt" viewBox="0 0 88 88" version="1.1">
<g id="surface1">
<path style=" stroke:none;fill-rule:nonzero;fill:rgb(38.431373%,32.156863%,25.098039%);fill-opacity:1;" d="M 88 44 C 88 68.292969 68.292969 88 44 88 C 19.707031 88 0 68.292969 0 44 C 0 19.707031 19.707031 0 44 0 C 68.292969 0 88 19.707031 88 44 Z M 88 44 "/>
<path style=" stroke:none;fill-rule:nonzero;fill:rgb(100%,100%,100%);fill-opacity:1;" d="M 59.753906 27.238281 C 56.125 23.632812 50.265625 23.632812 46.636719 27.238281 L 39.554688 34.324219 C 41.996094 33.621094 44.609375 33.820312 46.917969 34.886719 L 50.601562 31.203125 C 52.035156 29.769531 54.359375 29.769531 55.792969 31.203125 C 57.226562 32.636719 57.226562 34.960938 55.792969 36.394531 L 48.125 44.066406 C 47.4375 44.753906 46.503906 45.144531 45.53125 45.144531 C 44.554688 45.144531 43.621094 44.753906 42.933594 44.066406 L 38.957031 48.03125 C 39.84375 48.921875 40.90625 49.617188 42.078125 50.078125 C 45.175781 51.300781 48.691406 50.78125 51.308594 48.722656 C 51.585938 48.511719 51.839844 48.28125 52.078125 48.035156 L 59.75 40.359375 C 61.492188 38.625 62.472656 36.261719 62.472656 33.800781 C 62.472656 31.339844 61.492188 28.980469 59.75 27.242188 Z M 59.753906 27.238281 "/>
<path style=" stroke:none;fill-rule:nonzero;fill:rgb(100%,100%,100%);fill-opacity:1;" d="M 40.910156 51.277344 L 37.378906 54.808594 C 35.945312 56.242188 33.621094 56.242188 32.1875 54.804688 C 30.753906 53.371094 30.753906 51.046875 32.1875 49.613281 L 39.859375 41.9375 C 40.550781 41.25 41.484375 40.859375 42.457031 40.859375 C 43.429688 40.859375 44.363281 41.25 45.050781 41.9375 L 49.015625 37.972656 C 48.128906 37.082031 47.066406 36.382812 45.894531 35.925781 C 42.617188 34.621094 38.882812 35.285156 36.253906 37.640625 C 36.128906 37.742188 36 37.871094 35.898438 37.972656 L 28.222656 45.644531 C 24.601562 49.269531 24.601562 55.140625 28.222656 58.765625 C 31.847656 62.386719 37.722656 62.386719 41.34375 58.765625 L 48.273438 51.757812 C 44.746094 52.574219 43.917969 52.472656 40.910156 51.269531 Z M 40.910156 51.277344 "/>
</g>
</svg>
