<?xml version="1.0" encoding="UTF-8"?>
<svg xmlns="http://www.w3.org/2000/svg" xmlns:xlink="http://www.w3.org/1999/xlink" width="40pt" height="40pt" viewBox="0 0 40 40" version="1.1">
<g id="surface1">
<path style=" stroke:none;fill-rule:nonzero;fill:rgb(38.431373%,32.156863%,25.098039%);fill-opacity:1;" d="M 40 20 C 40 31.046875 31.046875 40 20 40 C 8.953125 40 0 31.046875 0 20 C 0 8.953125 8.953125 0 20 0 C 31.046875 0 40 8.953125 40 20 Z M 40 20 "/>
<path style=" stroke:none;fill-rule:nonzero;fill:rgb(100%,100%,100%);fill-opacity:1;" d="M 28.773438 23 C 28.636719 22.726562 28.5 22.453125 28.453125 22.273438 C 28.183594 21.816406 27.910156 21.363281 27.546875 21 C 26.953125 20.410156 26.316406 19.910156 25.546875 19.546875 C 25.273438 19.410156 24.953125 19.273438 24.683594 19.183594 C 24.863281 19.089844 25 19 25.183594 18.910156 C 25.816406 18.5 26.363281 18 26.773438 17.410156 C 27.226562 16.816406 27.546875 16.136719 27.726562 15.410156 C 27.953125 14.636719 28.046875 13.863281 28.046875 13.046875 C 28.046875 12.046875 27.863281 11.046875 27.5 10.089844 C 27.136719 9.226562 26.589844 8.453125 25.863281 7.816406 C 25.089844 7.183594 24.183594 6.726562 23.226562 6.453125 C 22.089844 6.136719 20.910156 5.953125 19.726562 6 C 18.773438 6 17.863281 6.089844 16.953125 6.273438 C 16.183594 6.410156 15.410156 6.636719 14.683594 6.910156 C 14.089844 7.136719 13.546875 7.363281 13.046875 7.683594 C 12.546875 8 12.273438 8.183594 12.136719 8.316406 C 12 8.453125 11.863281 8.636719 11.773438 8.773438 C 11.683594 8.910156 11.636719 9.089844 11.589844 9.273438 C 11.546875 9.5 11.5 9.726562 11.5 9.953125 C 11.5 10.183594 11.5 10.453125 11.5 10.816406 C 11.5 11.183594 11.5 11.5 11.546875 11.863281 C 11.546875 12.089844 11.636719 12.363281 11.683594 12.589844 C 11.773438 12.816406 11.910156 13 12.089844 13.136719 C 12.273438 13.226562 12.453125 13.273438 12.636719 13.273438 C 12.910156 13.273438 13.226562 13.136719 13.683594 12.863281 C 14.046875 12.636719 14.410156 12.410156 14.863281 12.183594 C 15.363281 11.910156 15.910156 11.726562 16.453125 11.546875 C 17.046875 11.363281 17.636719 11.273438 18.226562 11.273438 C 18.726562 11.273438 19.183594 11.316406 19.636719 11.5 C 19.863281 11.589844 20.089844 11.683594 20.273438 11.773438 C 20.726562 12 21.546875 13.410156 21.726562 13.316406 C 21.910156 13.273438 21.773438 11.5 20.683594 10.773438 C 20.453125 10.636719 20.226562 10.546875 20 10.453125 C 19.410156 10.273438 18.816406 10.136719 18.226562 10.183594 C 17.5 10.183594 16.773438 10.273438 16.089844 10.546875 C 15.5 10.726562 14.910156 10.953125 14.363281 11.273438 C 13.863281 11.546875 13.453125 11.773438 13.089844 12 C 12.953125 12.089844 12.816406 12.183594 12.636719 12.226562 C 12.589844 12.089844 12.589844 11.953125 12.546875 11.816406 C 12.5 11.589844 12.5 11.273438 12.5 10.863281 C 12.5 10.546875 12.5 10.273438 12.5 10.046875 C 12.5 9.910156 12.546875 9.726562 12.546875 9.589844 C 12.589844 9.5 12.589844 9.410156 12.636719 9.316406 C 12.683594 9.226562 12.773438 9.183594 12.816406 9.089844 C 13.046875 8.910156 13.273438 8.726562 13.546875 8.589844 C 14 8.316406 14.5 8.089844 15 7.910156 C 15.683594 7.683594 16.363281 7.453125 17.089844 7.316406 C 17.953125 7.136719 18.816406 7.089844 19.683594 7.089844 C 20.773438 7.089844 21.816406 7.226562 22.863281 7.5 C 23.683594 7.726562 24.453125 8.136719 25.136719 8.683594 C 25.726562 9.183594 26.183594 9.816406 26.5 10.546875 C 26.816406 11.363281 27 12.226562 26.953125 13.089844 C 26.953125 13.773438 26.863281 14.5 26.683594 15.136719 C 26.5 15.726562 26.226562 16.316406 25.863281 16.816406 C 25.5 17.316406 25.046875 17.726562 24.546875 18.046875 C 24 18.410156 23.363281 18.683594 22.683594 18.816406 C 22.453125 18.863281 22.273438 19.089844 22.273438 19.316406 L 22.273438 19.363281 C 22.273438 19.636719 22.5 19.863281 22.773438 19.910156 C 23.546875 20 24.316406 20.226562 25.046875 20.546875 C 25.683594 20.863281 26.226562 21.273438 26.726562 21.773438 C 27.183594 22.273438 27.546875 22.816406 27.773438 23.410156 C 28 24.046875 28.136719 24.726562 28.136719 25.363281 C 28.136719 26.589844 27.910156 27.636719 27.453125 28.546875 C 27 29.453125 26.363281 30.273438 25.546875 30.863281 C 24.636719 31.546875 23.636719 32.046875 22.546875 32.316406 C 21.273438 32.683594 19.953125 32.816406 18.636719 32.816406 C 17.816406 32.816406 17.046875 32.773438 16.226562 32.636719 C 15.546875 32.546875 14.910156 32.363281 14.226562 32.183594 C 13.726562 32.046875 13.273438 31.863281 12.816406 31.636719 C 12.589844 31.546875 12.363281 31.410156 12.183594 31.226562 C 12.136719 31.183594 12.089844 31.136719 12.046875 31.046875 C 12 30.910156 11.953125 30.773438 11.910156 30.683594 C 11.863281 30.5 11.816406 30.273438 11.816406 30.089844 C 11.816406 29.863281 11.773438 29.546875 11.773438 29.136719 C 11.773438 28.410156 11.863281 28.136719 11.863281 28.046875 L 11.863281 28 C 12 28.046875 12.136719 28.089844 12.273438 28.183594 C 12.683594 28.410156 13.136719 28.589844 13.589844 28.773438 C 14.183594 29 14.816406 29.226562 15.453125 29.363281 C 16.273438 29.546875 17.089844 29.636719 17.910156 29.636719 C 18.636719 29.636719 19.316406 29.546875 20 29.363281 C 20.589844 29.183594 21.136719 28.910156 21.636719 28.546875 C 22.089844 28.183594 22.453125 27.726562 22.683594 27.183594 C 22.910156 26.636719 23 26.046875 23 25.5 C 23 24.863281 22.863281 24.226562 22.589844 23.636719 C 22.316406 23.089844 21.910156 22.589844 21.363281 22.226562 C 20.773438 21.816406 20.136719 21.5 19.410156 21.363281 C 18.546875 21.136719 17.683594 21.046875 16.773438 21.089844 L 14.546875 21.089844 C 14.453125 21.089844 14.410156 21.089844 14.316406 21.046875 C 14.316406 21.046875 14.273438 21 14.273438 21 C 14.226562 20.863281 14.183594 20.726562 14.183594 20.589844 C 14.136719 20.273438 14.136719 19.953125 14.136719 19.636719 C 14.136719 19.363281 14.136719 19.046875 14.183594 18.773438 C 14.183594 18.636719 14.226562 18.5 14.273438 18.410156 C 14.273438 18.410156 14.273438 18.410156 14.273438 18.363281 C 14.273438 18.363281 14.273438 18.363281 14.273438 18.316406 C 14.316406 18.316406 14.410156 18.273438 14.453125 18.273438 L 16.726562 18.273438 C 17.453125 18.273438 18.226562 18.183594 18.953125 17.953125 C 19.589844 17.773438 20.183594 17.453125 20.683594 17.089844 C 21.089844 16.773438 21.410156 16.363281 21.636719 15.910156 C 22.183594 14.683594 21.683594 13.273438 21.5 13.273438 C 21.316406 13.273438 21.046875 14.683594 20.683594 15.410156 C 20.589844 15.546875 20.546875 15.683594 20.453125 15.816406 C 20.316406 16 20.183594 16.136719 20 16.273438 C 19.589844 16.589844 19.136719 16.816406 18.683594 16.953125 C 18.183594 17.183594 17.546875 17.273438 16.910156 17.273438 L 14.636719 17.273438 C 14.410156 17.273438 14.183594 17.316406 14 17.410156 C 13.773438 17.5 13.589844 17.683594 13.453125 17.910156 C 13.316406 18.136719 13.273438 18.410156 13.226562 18.683594 C 13.183594 19.046875 13.183594 19.363281 13.183594 19.726562 C 13.183594 20.089844 13.183594 20.453125 13.226562 20.816406 C 13.273438 21.089844 13.316406 21.363281 13.453125 21.589844 C 13.589844 21.816406 13.773438 22 14.046875 22.136719 C 14.273438 22.226562 14.453125 22.226562 14.683594 22.226562 L 16.910156 22.226562 C 17.683594 22.226562 18.5 22.316406 19.273438 22.5 C 19.816406 22.636719 20.363281 22.863281 20.816406 23.183594 C 21.183594 23.453125 21.5 23.816406 21.683594 24.226562 C 21.863281 24.636719 22 25.136719 21.953125 25.589844 C 21.953125 26.046875 21.863281 26.453125 21.726562 26.863281 C 21.546875 27.226562 21.316406 27.546875 21 27.773438 C 20.636719 28.046875 20.183594 28.273438 19.726562 28.410156 C 19.136719 28.589844 18.546875 28.636719 17.953125 28.636719 C 17.226562 28.636719 16.5 28.546875 15.773438 28.363281 C 15.183594 28.226562 14.589844 28.046875 14.046875 27.816406 C 13.636719 27.636719 13.226562 27.453125 12.863281 27.273438 C 12.453125 27.046875 12.136719 26.953125 11.910156 26.953125 C 11.5 26.953125 11.136719 27.226562 10.910156 27.636719 C 10.773438 27.953125 10.726562 28.453125 10.726562 29.183594 C 10.726562 29.636719 10.726562 29.953125 10.773438 30.226562 C 10.773438 30.5 10.816406 30.773438 10.910156 31 C 10.953125 31.183594 11 31.363281 11.089844 31.546875 C 11.183594 31.773438 11.316406 31.953125 11.5 32.089844 C 11.773438 32.273438 12.046875 32.453125 12.363281 32.589844 C 12.863281 32.863281 13.363281 33.046875 13.910156 33.226562 C 14.589844 33.453125 15.316406 33.589844 16.046875 33.726562 C 16.910156 33.863281 17.773438 33.910156 18.636719 33.910156 C 20.046875 33.910156 21.453125 33.726562 22.816406 33.363281 C 24.046875 33.046875 25.183594 32.453125 26.183594 31.726562 C 27.136719 31 27.863281 30.089844 28.410156 29 C 29.089844 27.546875 29.363281 25.910156 29.136719 24.316406 C 29.089844 24 29.046875 23.636719 28.910156 23.316406 C 28.910156 23.273438 28.863281 23.183594 28.773438 23 Z M 28.773438 23 "/>
<path style=" stroke:none;fill-rule:nonzero;fill:rgb(96.078431%,92.156863%,89.803922%);fill-opacity:1;" d="M 22.183594 13.589844 C 22.136719 13.363281 22.136719 13.136719 22.046875 12.910156 C 21.773438 12 20.773438 10.589844 20.410156 10.773438 C 20.226562 10.863281 20.183594 11.273438 20.316406 11.589844 C 20.5 12.046875 21.089844 12.089844 21.136719 12.5 C 21.136719 12.636719 21.089844 12.683594 21.089844 12.953125 C 21.089844 13.136719 21.136719 13.316406 21.183594 13.453125 C 21.363281 14.183594 21 15.589844 21.273438 15.683594 C 21.5 15.773438 22.046875 15.089844 22.183594 14.453125 C 22.183594 14.183594 22.226562 13.910156 22.183594 13.589844 Z M 22.183594 13.589844 "/>
</g>
</svg>
