<?xml version="1.0" encoding="UTF-8"?>
<svg xmlns="http://www.w3.org/2000/svg" xmlns:xlink="http://www.w3.org/1999/xlink" width="88pt" height="88pt" viewBox="0 0 88 88" version="1.1">
<defs>
<clipPath id="clip1">
  <path d="M 22.359375 21.027344 L 72.652344 21.027344 L 72.652344 72.113281 L 22.359375 72.113281 Z M 22.359375 21.027344 "/>
</clipPath>
</defs>
<g id="surface1">
<path style=" stroke:none;fill-rule:nonzero;fill:rgb(38.431373%,32.156863%,25.098039%);fill-opacity:1;" d="M 87.992188 43.996094 C 87.992188 68.292969 68.292969 87.992188 43.996094 87.992188 C 19.695312 87.992188 0 68.292969 0 43.996094 C 0 19.695312 19.695312 0 43.996094 0 C 68.292969 0 87.992188 19.695312 87.992188 43.996094 Z M 87.992188 43.996094 "/>
<g clip-path="url(#clip1)" clip-rule="nonzero">
<path style=" stroke:none;fill-rule:nonzero;fill:rgb(100%,100%,100%);fill-opacity:1;" d="M 72.394531 67.789062 L 68.953125 62.546875 L 70.804688 62.046875 C 71.277344 61.878906 71.617188 61.460938 71.683594 60.964844 C 71.75 60.460938 71.535156 59.96875 71.121094 59.679688 L 65.941406 56.597656 L 65.941406 24.765625 C 65.929688 22.726562 64.277344 21.074219 62.234375 21.074219 L 26.097656 21.074219 C 24.0625 21.074219 22.402344 22.726562 22.398438 24.765625 L 22.398438 58.589844 C 22.402344 60.628906 24.0625 62.277344 26.097656 62.277344 L 45 62.277344 C 45.53125 62.230469 45.945312 61.808594 45.992188 61.28125 C 45.945312 60.972656 45.765625 60.691406 45.503906 60.519531 C 45.242188 60.34375 44.917969 60.289062 44.609375 60.367188 L 26.097656 60.296875 C 25.164062 60.292969 24.40625 59.535156 24.398438 58.597656 L 24.398438 29.972656 L 63.9375 29.972656 L 63.9375 55.433594 L 60.417969 53.363281 C 59.96875 53.015625 59.351562 52.953125 58.847656 53.214844 C 58.382812 53.480469 58.125 53.988281 58.1875 54.519531 L 58.898438 60.246094 L 44.609375 60.320312 C 44.917969 60.242188 45.242188 60.296875 45.503906 60.46875 C 45.765625 60.644531 45.945312 60.921875 45.992188 61.234375 C 45.945312 61.761719 45.53125 62.179688 45 62.226562 L 59.132812 62.226562 L 59.730469 67.113281 C 59.808594 67.628906 60.1875 68.054688 60.6875 68.191406 C 61.191406 68.332031 61.734375 68.167969 62.066406 67.765625 L 63.269531 66.273438 L 66.714844 71.515625 C 67.117188 72.121094 67.933594 72.289062 68.542969 71.894531 L 72.023438 69.609375 C 72.628906 69.207031 72.792969 68.394531 72.394531 67.789062 Z M 24.398438 24.71875 C 24.40625 23.785156 25.167969 23.027344 26.097656 23.027344 L 62.234375 23.027344 C 63.171875 23.027344 63.933594 23.785156 63.9375 24.71875 L 63.9375 27.972656 L 24.398438 27.972656 Z M 68.007812 69.867188 L 64.425781 64.414062 C 64.191406 64.066406 63.804688 63.847656 63.382812 63.832031 C 62.960938 63.808594 62.554688 63.988281 62.289062 64.316406 L 61.523438 65.3125 L 60.335938 55.660156 L 68.722656 60.578125 L 67.53125 60.902344 C 67.125 61.019531 66.800781 61.316406 66.648438 61.707031 C 66.5 62.101562 66.546875 62.542969 66.773438 62.894531 L 70.351562 68.355469 Z M 68.007812 69.867188 "/>
</g>
<path style=" stroke:none;fill-rule:nonzero;fill:rgb(100%,100%,100%);fill-opacity:1;" d="M 35.132812 55.015625 L 56.699219 55.015625 C 57.246094 55.015625 57.691406 54.570312 57.691406 54.019531 C 57.691406 53.46875 57.246094 53.027344 56.699219 53.027344 L 35.132812 53.027344 C 34.582031 53.027344 34.136719 53.46875 34.136719 54.019531 C 34.136719 54.570312 34.582031 55.015625 35.132812 55.015625 Z M 35.132812 55.015625 "/>
<path style=" stroke:none;fill-rule:nonzero;fill:rgb(100%,100%,100%);fill-opacity:1;" d="M 28.238281 25.207031 C 28.082031 24.820312 27.691406 24.574219 27.277344 24.59375 C 26.859375 24.613281 26.5 24.886719 26.375 25.285156 C 26.246094 25.6875 26.382812 26.121094 26.714844 26.375 C 27.042969 26.632812 27.5 26.652344 27.851562 26.429688 C 28.261719 26.171875 28.425781 25.652344 28.238281 25.207031 Z M 28.238281 25.207031 "/>
<path style=" stroke:none;fill-rule:nonzero;fill:rgb(100%,100%,100%);fill-opacity:1;" d="M 31.898438 25.207031 C 31.691406 24.699219 31.105469 24.460938 30.597656 24.671875 C 30.089844 24.882812 29.855469 25.464844 30.066406 25.96875 C 30.277344 26.476562 30.855469 26.71875 31.363281 26.507812 C 31.609375 26.410156 31.800781 26.210938 31.898438 25.96875 C 32.003906 25.726562 32.003906 25.449219 31.898438 25.207031 Z M 31.898438 25.207031 "/>
<path style=" stroke:none;fill-rule:nonzero;fill:rgb(100%,100%,100%);fill-opacity:1;" d="M 35.5625 25.207031 C 35.351562 24.699219 34.769531 24.453125 34.261719 24.664062 C 33.753906 24.871094 33.511719 25.453125 33.722656 25.960938 C 33.929688 26.46875 34.507812 26.714844 35.019531 26.503906 C 35.527344 26.292969 35.765625 25.710938 35.5625 25.207031 Z M 35.5625 25.207031 "/>
<path style=" stroke:none;fill-rule:nonzero;fill:rgb(96.078431%,92.156863%,89.803922%);fill-opacity:1;" d="M 45.917969 60.855469 C 45.699219 60.355469 45.117188 60.117188 44.613281 60.332031 C 44.105469 60.542969 43.871094 61.121094 44.082031 61.628906 C 44.292969 62.132812 44.871094 62.375 45.378906 62.167969 C 45.625 62.066406 45.820312 61.871094 45.921875 61.625 C 46.023438 61.375 46.019531 61.101562 45.917969 60.855469 Z M 45.917969 60.855469 "/>
<path style=" stroke:none;fill-rule:nonzero;fill:rgb(100%,100%,100%);fill-opacity:1;" d="M 35.636719 48.480469 L 57.203125 48.480469 C 57.753906 48.480469 58.199219 48.035156 58.199219 47.484375 C 58.199219 46.9375 57.753906 46.492188 57.203125 46.492188 L 35.636719 46.492188 C 35.089844 46.492188 34.644531 46.9375 34.644531 47.484375 C 34.644531 48.035156 35.089844 48.480469 35.636719 48.480469 Z M 35.636719 48.480469 "/>
<path style=" stroke:none;fill-rule:nonzero;fill:rgb(100%,100%,100%);fill-opacity:1;" d="M 35.636719 42.332031 L 57.203125 42.332031 C 57.753906 42.332031 58.199219 41.890625 58.199219 41.339844 C 58.199219 40.789062 57.753906 40.34375 57.203125 40.34375 L 35.636719 40.34375 C 35.089844 40.34375 34.644531 40.789062 34.644531 41.339844 C 34.644531 41.890625 35.089844 42.332031 35.636719 42.332031 Z M 35.636719 42.332031 "/>
<path style=" stroke:none;fill-rule:nonzero;fill:rgb(100%,100%,100%);fill-opacity:1;" d="M 35.636719 36.097656 L 57.203125 36.097656 C 57.753906 36.097656 58.199219 35.652344 58.199219 35.101562 C 58.199219 34.550781 57.753906 34.109375 57.203125 34.109375 L 35.636719 34.109375 C 35.089844 34.109375 34.644531 34.550781 34.644531 35.101562 C 34.644531 35.652344 35.089844 36.097656 35.636719 36.097656 Z M 35.636719 36.097656 "/>
<path style=" stroke:none;fill-rule:nonzero;fill:rgb(100%,100%,100%);fill-opacity:1;" d="M 30.964844 35.96875 L 29.089844 35.96875 L 29.089844 35.4375 L 29.726562 35.4375 L 29.726562 33.273438 L 29.089844 33.273438 L 29.089844 32.789062 C 29.375 32.789062 29.558594 32.765625 29.640625 32.703125 C 29.730469 32.648438 29.792969 32.511719 29.828125 32.292969 L 30.34375 32.292969 L 30.34375 35.4375 L 30.964844 35.4375 Z M 30.964844 35.96875 "/>
<path style=" stroke:none;fill-rule:nonzero;fill:rgb(100%,100%,100%);fill-opacity:1;" d="M 31.136719 42.242188 L 28.816406 42.242188 L 28.816406 41.640625 C 28.972656 41.46875 29.125 41.316406 29.261719 41.179688 C 29.398438 41.039062 29.535156 40.910156 29.675781 40.78125 C 29.9375 40.488281 30.113281 40.257812 30.207031 40.09375 C 30.296875 39.921875 30.34375 39.75 30.34375 39.578125 C 30.34375 39.503906 30.328125 39.433594 30.292969 39.375 C 30.265625 39.304688 30.242188 39.253906 30.207031 39.21875 C 30.148438 39.175781 30.089844 39.140625 30.035156 39.117188 C 29.976562 39.09375 29.90625 39.082031 29.828125 39.082031 C 29.761719 39.082031 29.683594 39.09375 29.605469 39.117188 C 29.523438 39.140625 29.441406 39.167969 29.363281 39.203125 C 29.296875 39.226562 29.230469 39.253906 29.175781 39.289062 C 29.128906 39.320312 29.082031 39.355469 29.039062 39.390625 L 28.882812 39.390625 L 28.882812 38.753906 C 29.019531 38.6875 29.175781 38.628906 29.347656 38.582031 C 29.527344 38.539062 29.699219 38.515625 29.863281 38.515625 C 30.207031 38.515625 30.480469 38.613281 30.6875 38.804688 C 30.894531 38.992188 30.996094 39.246094 30.996094 39.5625 C 30.996094 39.714844 30.980469 39.851562 30.945312 39.976562 C 30.910156 40.089844 30.859375 40.199219 30.792969 40.300781 C 30.730469 40.40625 30.664062 40.507812 30.585938 40.609375 C 30.503906 40.714844 30.417969 40.8125 30.328125 40.902344 C 30.175781 41.074219 30.007812 41.246094 29.828125 41.417969 C 29.644531 41.589844 29.554688 41.675781 29.554688 41.675781 L 31.136719 41.675781 Z M 31.136719 42.242188 "/>
<path style=" stroke:none;fill-rule:nonzero;fill:rgb(100%,100%,100%);fill-opacity:1;" d="M 29.847656 45.449219 C 29.765625 45.449219 29.683594 45.460938 29.605469 45.484375 C 29.535156 45.507812 29.457031 45.535156 29.363281 45.570312 C 29.296875 45.59375 29.230469 45.621094 29.175781 45.65625 C 29.117188 45.691406 29.058594 45.722656 29.003906 45.757812 L 28.882812 45.757812 L 28.882812 45.121094 C 29.019531 45.054688 29.175781 45 29.347656 44.949219 C 29.527344 44.90625 29.707031 44.882812 29.878906 44.882812 C 30.050781 44.882812 30.195312 44.898438 30.308594 44.933594 C 30.433594 44.96875 30.550781 45.019531 30.652344 45.089844 C 30.765625 45.183594 30.851562 45.285156 30.910156 45.398438 C 30.980469 45.515625 31.015625 45.652344 31.015625 45.808594 C 31.015625 46.03125 30.9375 46.21875 30.792969 46.378906 C 30.652344 46.539062 30.492188 46.617188 30.308594 46.617188 L 30.308594 46.582031 C 30.367188 46.5625 30.4375 46.574219 30.535156 46.617188 C 30.636719 46.652344 30.722656 46.703125 30.792969 46.773438 C 30.882812 46.855469 30.949219 46.957031 30.996094 47.082031 C 31.054688 47.199219 31.082031 47.335938 31.082031 47.496094 C 31.082031 47.667969 31.050781 47.828125 30.980469 47.976562 C 30.921875 48.113281 30.847656 48.230469 30.757812 48.320312 C 30.640625 48.449219 30.503906 48.539062 30.34375 48.59375 C 30.195312 48.652344 30.023438 48.679688 29.828125 48.679688 C 29.632812 48.679688 29.441406 48.65625 29.261719 48.613281 C 29.089844 48.578125 28.925781 48.523438 28.78125 48.441406 L 28.78125 47.804688 L 28.933594 47.804688 C 29.039062 47.886719 29.167969 47.957031 29.332031 48.027344 C 29.488281 48.085938 29.644531 48.113281 29.792969 48.113281 C 29.871094 48.113281 29.953125 48.105469 30.035156 48.078125 C 30.125 48.042969 30.199219 48 30.257812 47.941406 C 30.316406 47.871094 30.351562 47.804688 30.378906 47.734375 C 30.414062 47.667969 30.429688 47.578125 30.429688 47.460938 C 30.429688 47.347656 30.414062 47.253906 30.378906 47.183594 C 30.34375 47.117188 30.300781 47.066406 30.257812 47.03125 C 30.199219 46.996094 30.125 46.96875 30.035156 46.945312 C 29.953125 46.921875 29.867188 46.910156 29.777344 46.910156 L 29.503906 46.910156 L 29.503906 46.359375 L 29.742188 46.359375 C 29.921875 46.359375 30.074219 46.320312 30.191406 46.238281 C 30.300781 46.148438 30.363281 46.023438 30.363281 45.863281 C 30.363281 45.785156 30.34375 45.71875 30.308594 45.671875 C 30.285156 45.628906 30.25 45.585938 30.207031 45.550781 C 30.160156 45.519531 30.105469 45.496094 30.035156 45.484375 C 29.976562 45.460938 29.914062 45.449219 29.847656 45.449219 Z M 29.847656 45.449219 "/>
<path style=" stroke:none;fill-rule:nonzero;fill:rgb(100%,100%,100%);fill-opacity:1;" d="M 31.222656 54.171875 L 30.808594 54.171875 L 30.808594 55.375 L 30.191406 55.375 L 30.191406 54.171875 L 28.644531 54.171875 L 28.644531 53.570312 L 30.257812 51.714844 L 30.808594 51.714844 L 30.808594 53.621094 L 31.222656 53.621094 Z M 30.191406 53.621094 L 30.191406 52.574219 L 29.296875 53.621094 Z M 30.191406 53.621094 "/>
</g>
</svg>
