<?xml version="1.0" encoding="UTF-8"?>
<svg xmlns="http://www.w3.org/2000/svg" xmlns:xlink="http://www.w3.org/1999/xlink" width="88pt" height="88pt" viewBox="0 0 88 88" version="1.1">
<g id="surface1">
<path style=" stroke:none;fill-rule:nonzero;fill:rgb(38.431373%,32.156863%,25.098039%);fill-opacity:1;" d="M 88 44 C 88 68.300781 68.300781 88 44 88 C 19.699219 88 0 68.300781 0 44 C 0 19.699219 19.699219 0 44 0 C 68.300781 0 88 19.699219 88 44 Z M 88 44 "/>
<path style=" stroke:none;fill-rule:nonzero;fill:rgb(100%,100%,100%);fill-opacity:1;" d="M 37.289062 55.578125 L 20.515625 55.578125 L 20.515625 58.09375 L 18.835938 58.09375 L 18.835938 62.289062 L 38.96875 62.289062 L 38.96875 58.09375 L 37.289062 58.09375 Z M 37.289062 55.578125 "/>
<path style=" stroke:none;fill-rule:nonzero;fill:rgb(100%,100%,100%);fill-opacity:1;" d="M 20.515625 28.738281 L 20.515625 36.285156 L 24.707031 39.640625 L 22.191406 53.898438 L 35.613281 53.898438 L 33.097656 39.640625 L 37.289062 36.285156 L 37.289062 28.738281 L 33.933594 28.738281 L 33.933594 32.09375 L 30.578125 32.09375 L 30.578125 28.738281 L 27.226562 28.738281 L 27.226562 32.09375 L 23.871094 32.09375 L 23.871094 28.738281 Z M 20.515625 28.738281 "/>
<path style=" stroke:none;fill-rule:nonzero;fill:rgb(100%,100%,100%);fill-opacity:1;" d="M 62.453125 11.960938 C 58.746094 11.960938 55.742188 14.964844 55.742188 18.671875 C 55.742188 22.378906 58.746094 25.382812 62.453125 25.382812 C 66.160156 25.382812 69.164062 22.378906 69.164062 18.671875 C 69.164062 14.964844 66.160156 11.960938 62.453125 11.960938 Z M 60.785156 22.246094 L 58.519531 19.984375 L 59.707031 18.796875 L 60.796875 19.886719 L 65.21875 15.558594 L 66.394531 16.753906 Z M 60.785156 22.246094 "/>
<path style=" stroke:none;fill-rule:nonzero;fill:rgb(100%,100%,100%);fill-opacity:1;" d="M 57.472656 48.386719 C 53.339844 47.15625 48.195312 45.628906 48.195312 43.835938 C 48.195312 42.109375 51.464844 41.476562 54.625 40.863281 C 58.6875 40.078125 63.292969 39.1875 63.292969 35.449219 L 63.292969 29.921875 L 64.375 31.007812 L 65.5625 29.820312 L 62.453125 26.710938 L 59.34375 29.820312 L 60.527344 31.007812 L 61.613281 29.921875 L 61.613281 35.449219 C 61.613281 37.636719 58.585938 38.390625 54.308594 39.21875 C 50.476562 39.957031 46.515625 40.722656 46.515625 43.835938 C 46.515625 46.878906 51.371094 48.324219 56.996094 49.996094 C 61.667969 51.382812 67.484375 53.113281 67.484375 55.535156 C 67.484375 56.238281 66.65625 57.980469 58.984375 59.023438 C 58.445312 59.09375 57.890625 59.160156 57.324219 59.222656 L 57.496094 60.890625 C 58.082031 60.828125 59.210938 60.683594 59.210938 60.683594 C 65.90625 59.777344 69.164062 58.089844 69.164062 55.535156 C 69.164062 51.859375 63.484375 50.175781 57.472656 48.386719 Z M 57.472656 48.386719 "/>
<path style=" stroke:none;fill-rule:nonzero;fill:rgb(100%,100%,100%);fill-opacity:1;" d="M 40.621094 61.40625 C 40.621094 61.40625 41.59375 61.433594 43.15625 61.441406 L 43.167969 59.765625 C 41.628906 59.753906 40.671875 59.730469 40.667969 59.730469 Z M 40.621094 61.40625 "/>
<path style=" stroke:none;fill-rule:nonzero;fill:rgb(100%,100%,100%);fill-opacity:1;" d="M 44.839844 59.769531 L 44.84375 61.449219 C 45.617188 61.445312 46.46875 61.441406 47.371094 61.425781 L 47.34375 59.75 C 46.449219 59.761719 45.605469 59.769531 44.839844 59.769531 Z M 44.839844 59.769531 "/>
<path style=" stroke:none;fill-rule:nonzero;fill:rgb(100%,100%,100%);fill-opacity:1;" d="M 53.179688 59.546875 L 53.273438 61.222656 C 54.125 61.171875 54.972656 61.117188 55.808594 61.046875 L 55.671875 59.375 C 54.851562 59.441406 54.015625 59.5 53.179688 59.546875 Z M 53.179688 59.546875 "/>
<path style=" stroke:none;fill-rule:nonzero;fill:rgb(100%,100%,100%);fill-opacity:1;" d="M 49.015625 59.714844 L 49.058594 61.390625 C 49.878906 61.371094 50.726562 61.339844 51.585938 61.304688 L 51.515625 59.628906 C 50.667969 59.664062 49.828125 59.691406 49.015625 59.714844 Z M 49.015625 59.714844 "/>
</g>
</svg>
