<?xml version="1.0" encoding="UTF-8"?>
<svg xmlns="http://www.w3.org/2000/svg" xmlns:xlink="http://www.w3.org/1999/xlink" width="80pt" height="80pt" viewBox="0 0 80 80" version="1.1">
<g id="surface1">
<path style=" stroke:none;fill-rule:nonzero;fill:rgb(38.431373%,32.156863%,25.098039%);fill-opacity:1;" d="M 80 40 C 80 62.089844 62.089844 80 40 80 C 17.910156 80 0 62.089844 0 40 C 0 17.910156 17.910156 0 40 0 C 62.089844 0 80 17.910156 80 40 Z M 80 40 "/>
<path style=" stroke:none;fill-rule:nonzero;fill:rgb(100%,100%,100%);fill-opacity:1;" d="M 33.898438 50.523438 L 18.648438 50.523438 L 18.648438 52.8125 L 17.125 52.8125 L 17.125 56.625 L 35.425781 56.625 L 35.425781 52.8125 L 33.898438 52.8125 Z M 33.898438 50.523438 "/>
<path style=" stroke:none;fill-rule:nonzero;fill:rgb(100%,100%,100%);fill-opacity:1;" d="M 18.648438 26.125 L 18.648438 32.988281 L 22.460938 36.039062 L 20.175781 49 L 32.375 49 L 30.085938 36.039062 L 33.898438 32.988281 L 33.898438 26.125 L 30.851562 26.125 L 30.851562 29.175781 L 27.800781 29.175781 L 27.800781 26.125 L 24.75 26.125 L 24.75 29.175781 L 21.699219 29.175781 L 21.699219 26.125 Z M 18.648438 26.125 "/>
<path style=" stroke:none;fill-rule:nonzero;fill:rgb(100%,100%,100%);fill-opacity:1;" d="M 56.773438 10.875 C 53.40625 10.875 50.675781 13.605469 50.675781 16.976562 C 50.675781 20.34375 53.40625 23.074219 56.773438 23.074219 C 60.144531 23.074219 62.875 20.34375 62.875 16.976562 C 62.875 13.605469 60.144531 10.875 56.773438 10.875 Z M 55.257812 20.222656 L 53.199219 18.167969 L 54.277344 17.089844 L 55.269531 18.078125 L 59.292969 14.140625 L 60.359375 15.234375 Z M 55.257812 20.222656 "/>
<path style=" stroke:none;fill-rule:nonzero;fill:rgb(100%,100%,100%);fill-opacity:1;" d="M 52.246094 43.988281 C 48.488281 42.871094 43.8125 41.480469 43.8125 39.851562 C 43.8125 38.28125 46.785156 37.703125 49.660156 37.148438 C 53.351562 36.433594 57.539062 35.625 57.539062 32.226562 L 57.539062 27.203125 L 58.523438 28.1875 L 59.601562 27.109375 L 56.773438 24.285156 L 53.949219 27.109375 L 55.027344 28.1875 L 56.011719 27.203125 L 56.011719 32.226562 C 56.011719 34.214844 53.261719 34.898438 49.371094 35.652344 C 45.890625 36.324219 42.289062 37.019531 42.289062 39.851562 C 42.289062 42.617188 46.703125 43.929688 51.8125 45.449219 C 56.0625 46.710938 61.351562 48.285156 61.351562 50.488281 C 61.351562 51.125 60.597656 52.710938 53.621094 53.65625 C 53.132812 53.722656 52.628906 53.785156 52.113281 53.835938 L 52.269531 55.355469 C 52.804688 55.296875 53.828125 55.167969 53.828125 55.167969 C 59.914062 54.34375 62.875 52.808594 62.875 50.488281 C 62.875 47.148438 57.714844 45.613281 52.246094 43.988281 Z M 52.246094 43.988281 "/>
<path style=" stroke:none;fill-rule:nonzero;fill:rgb(100%,100%,100%);fill-opacity:1;" d="M 36.929688 55.824219 C 36.929688 55.824219 37.8125 55.847656 39.234375 55.855469 L 39.242188 54.332031 C 37.84375 54.324219 36.976562 54.300781 36.972656 54.300781 Z M 36.929688 55.824219 "/>
<path style=" stroke:none;fill-rule:nonzero;fill:rgb(100%,100%,100%);fill-opacity:1;" d="M 40.761719 54.335938 L 40.765625 55.863281 C 41.46875 55.859375 42.242188 55.855469 43.066406 55.839844 L 43.039062 54.316406 C 42.226562 54.328125 41.460938 54.335938 40.761719 54.335938 Z M 40.761719 54.335938 "/>
<path style=" stroke:none;fill-rule:nonzero;fill:rgb(100%,100%,100%);fill-opacity:1;" d="M 48.347656 54.132812 L 48.429688 55.65625 C 49.203125 55.613281 49.976562 55.558594 50.734375 55.496094 L 50.609375 53.976562 C 49.863281 54.039062 49.105469 54.089844 48.347656 54.132812 Z M 48.347656 54.132812 "/>
<path style=" stroke:none;fill-rule:nonzero;fill:rgb(100%,100%,100%);fill-opacity:1;" d="M 44.558594 54.285156 L 44.597656 55.808594 C 45.34375 55.789062 46.117188 55.765625 46.898438 55.730469 L 46.832031 54.207031 C 46.058594 54.242188 45.296875 54.265625 44.558594 54.285156 Z M 44.558594 54.285156 "/>
</g>
</svg>
