<?xml version="1.0" encoding="UTF-8"?>
<svg xmlns="http://www.w3.org/2000/svg" xmlns:xlink="http://www.w3.org/1999/xlink" width="40pt" height="40pt" viewBox="0 0 40 40" version="1.1">
<g id="surface1">
<path style=" stroke:none;fill-rule:nonzero;fill:rgb(38.431373%,32.156863%,25.098039%);fill-opacity:1;" d="M 39.859375 19.929688 C 39.859375 30.941406 30.941406 39.859375 19.929688 39.859375 C 8.921875 39.859375 0 30.941406 0 19.929688 C 0 8.921875 8.921875 0 19.929688 0 C 30.941406 0 39.859375 8.921875 39.859375 19.929688 Z M 39.859375 19.929688 "/>
<path style=" stroke:none;fill-rule:nonzero;fill:rgb(100%,100%,100%);fill-opacity:1;" d="M 23.226562 21.742188 C 23.128906 21.742188 23.117188 21.984375 23.121094 23.816406 C 23.121094 25.175781 23.121094 25.691406 22.9375 26.367188 C 22.800781 26.820312 22.59375 27.25 22.316406 27.640625 C 22.066406 27.976562 21.738281 28.242188 21.363281 28.429688 C 20.9375 28.625 20.472656 28.726562 20.003906 28.710938 C 19.515625 28.726562 19.039062 28.628906 18.597656 28.429688 C 18.183594 28.210938 17.855469 27.878906 17.640625 27.460938 C 17.320312 26.808594 17.105469 26.101562 17 25.378906 C 16.839844 24.324219 16.753906 23.261719 16.757812 22.191406 C 16.960938 22.074219 17.164062 21.957031 17.363281 21.855469 C 17.664062 21.699219 17.976562 21.566406 18.296875 21.457031 C 18.613281 21.347656 18.941406 21.261719 19.273438 21.203125 C 19.605469 21.144531 19.941406 21.113281 20.277344 21.113281 C 20.753906 21.09375 21.230469 21.171875 21.671875 21.335938 C 22.421875 21.675781 22.707031 22.519531 23.121094 23.816406 C 23.617188 25.351562 23.597656 26.210938 23.777344 26.222656 C 23.953125 26.230469 24.355469 24.988281 24.203125 23.714844 C 23.992188 21.96875 22.890625 20.679688 22.09375 20.328125 C 21.515625 20.117188 20.902344 20.007812 20.28125 20.027344 C 19.878906 20.023438 19.476562 20.0625 19.082031 20.136719 C 18.695312 20.207031 18.3125 20.300781 17.941406 20.425781 C 17.574219 20.558594 17.21875 20.707031 16.871094 20.882812 C 16.546875 21.046875 16.226562 21.234375 15.914062 21.433594 C 15.765625 21.535156 15.675781 21.707031 15.675781 21.890625 C 15.65625 23.117188 15.738281 24.335938 15.921875 25.546875 C 16.035156 26.394531 16.292969 27.21875 16.691406 27.980469 C 17 28.605469 17.5 29.117188 18.117188 29.441406 C 18.710938 29.71875 19.359375 29.859375 20.015625 29.84375 C 20.648438 29.855469 21.273438 29.71875 21.84375 29.441406 C 22.378906 29.1875 22.847656 28.804688 23.199219 28.328125 C 23.5625 27.832031 23.839844 27.28125 24.007812 26.695312 C 24.285156 25.730469 24.355469 24.722656 24.214844 23.734375 C 24.007812 22.699219 23.449219 21.699219 23.226562 21.742188 Z M 23.226562 21.742188 "/>
<path style=" stroke:none;fill-rule:nonzero;fill:rgb(100%,100%,100%);fill-opacity:1;" d="M 28.988281 20.914062 C 28.714844 19.945312 28.230469 19.050781 27.5625 18.289062 C 26.871094 17.535156 26.015625 16.957031 25.058594 16.601562 C 23.914062 16.195312 22.707031 16 21.496094 16.027344 C 20.910156 16.023438 20.320312 16.066406 19.742188 16.160156 C 19.226562 16.246094 18.722656 16.359375 18.222656 16.503906 C 17.769531 16.640625 17.328125 16.8125 16.902344 17.019531 L 16.71875 17.117188 C 16.769531 16.507812 16.863281 15.902344 17 15.304688 C 17.175781 14.515625 17.496094 13.761719 17.949219 13.085938 C 18.359375 12.472656 18.917969 11.972656 19.574219 11.628906 C 20.339844 11.242188 21.195312 11.058594 22.054688 11.085938 C 22.59375 11.082031 23.128906 11.117188 23.65625 11.203125 C 24.0625 11.261719 24.460938 11.347656 24.855469 11.46875 C 25.203125 11.574219 25.503906 11.660156 25.761719 11.746094 C 26.015625 11.839844 26.285156 11.898438 26.554688 11.902344 C 27.054688 11.914062 27.496094 11.585938 27.628906 11.109375 C 27.714844 10.855469 27.761719 10.59375 27.773438 10.335938 C 27.773438 10.066406 27.800781 9.738281 27.800781 9.265625 C 27.800781 8.988281 27.800781 8.746094 27.800781 8.542969 C 27.789062 8.351562 27.761719 8.160156 27.714844 7.976562 C 27.675781 7.820312 27.621094 7.667969 27.542969 7.523438 C 27.453125 7.351562 27.332031 7.199219 27.1875 7.074219 C 26.957031 6.894531 26.695312 6.757812 26.417969 6.671875 C 26.027344 6.527344 25.625 6.40625 25.210938 6.324219 C 24.761719 6.234375 24.3125 6.148438 23.730469 6.089844 C 23.199219 6.027344 22.667969 5.992188 22.132812 5.992188 C 20.660156 5.960938 19.191406 6.191406 17.796875 6.667969 C 16.636719 7.066406 15.558594 7.679688 14.628906 8.480469 C 13.761719 9.246094 13.042969 10.15625 12.496094 11.171875 C 11.960938 12.175781 11.539062 13.238281 11.242188 14.339844 C 10.949219 15.441406 10.75 16.5625 10.644531 17.695312 C 10.539062 18.792969 10.492188 19.878906 10.492188 20.929688 C 10.492188 22.160156 10.539062 23.335938 10.632812 24.417969 C 10.71875 25.46875 10.890625 26.507812 11.15625 27.523438 C 11.398438 28.433594 11.746094 29.3125 12.203125 30.132812 C 12.632812 30.910156 13.210938 31.601562 13.90625 32.160156 C 14.652344 32.734375 15.5 33.164062 16.402344 33.429688 C 17.476562 33.738281 18.589844 33.894531 19.710938 33.878906 C 21.117188 33.902344 22.523438 33.65625 23.84375 33.152344 C 26.160156 32.265625 27.964844 30.394531 28.777344 28.050781 C 29.207031 26.828125 29.421875 25.535156 29.410156 24.234375 C 29.417969 23.117188 29.265625 21.996094 28.957031 20.914062 Z M 27.75 27.683594 C 27.046875 29.738281 25.46875 31.378906 23.4375 32.160156 C 22.25 32.609375 20.980469 32.828125 19.710938 32.804688 C 18.699219 32.828125 17.691406 32.699219 16.71875 32.421875 C 15.941406 32.195312 15.21875 31.824219 14.574219 31.335938 C 13.980469 30.867188 13.480469 30.285156 13.105469 29.625 C 12.699219 28.878906 12.386719 28.089844 12.175781 27.265625 C 11.921875 26.316406 11.757812 25.339844 11.6875 24.355469 C 11.589844 23.292969 11.539062 22.152344 11.539062 20.957031 C 11.539062 19.9375 11.589844 18.882812 11.691406 17.828125 C 11.785156 16.753906 11.972656 15.699219 12.25 14.660156 C 12.523438 13.640625 12.914062 12.652344 13.414062 11.722656 C 13.902344 10.824219 14.546875 10.011719 15.308594 9.328125 C 16.132812 8.617188 17.085938 8.0625 18.117188 7.699219 C 19.394531 7.265625 20.738281 7.058594 22.085938 7.085938 C 22.574219 7.089844 23.0625 7.117188 23.554688 7.175781 C 24.074219 7.238281 24.527344 7.308594 24.941406 7.402344 C 25.289062 7.46875 25.636719 7.566406 25.96875 7.691406 C 26.125 7.742188 26.28125 7.808594 26.417969 7.898438 C 26.460938 7.9375 26.492188 7.980469 26.523438 8.023438 C 26.558594 8.105469 26.589844 8.1875 26.609375 8.269531 C 26.636719 8.386719 26.652344 8.507812 26.660156 8.628906 C 26.660156 8.808594 26.660156 9.019531 26.660156 9.277344 C 26.660156 9.726562 26.660156 10.023438 26.636719 10.261719 C 26.628906 10.429688 26.597656 10.597656 26.546875 10.757812 C 26.550781 10.765625 26.550781 10.773438 26.546875 10.785156 C 26.550781 10.796875 26.550781 10.8125 26.546875 10.824219 C 26.390625 10.824219 26.238281 10.785156 26.09375 10.722656 C 25.832031 10.628906 25.511719 10.53125 25.144531 10.425781 C 24.707031 10.300781 24.257812 10.199219 23.808594 10.132812 C 23.21875 10.042969 22.625 9.996094 22.023438 10.003906 C 20.984375 9.964844 19.953125 10.1875 19.023438 10.660156 C 18.214844 11.085938 17.527344 11.710938 17.011719 12.46875 C 16.488281 13.253906 16.113281 14.132812 15.90625 15.050781 C 15.679688 16.039062 15.566406 17.046875 15.554688 18.0625 C 15.554688 18.265625 15.664062 18.445312 15.839844 18.539062 C 16.015625 18.636719 16.230469 18.625 16.394531 18.515625 C 16.703125 18.324219 17.023438 18.148438 17.351562 17.988281 C 17.71875 17.808594 18.101562 17.660156 18.496094 17.539062 C 18.953125 17.40625 19.417969 17.304688 19.890625 17.226562 C 20.410156 17.140625 20.941406 17.105469 21.464844 17.105469 C 22.542969 17.074219 23.617188 17.25 24.632812 17.605469 C 25.4375 17.90625 26.152344 18.390625 26.726562 19.023438 C 27.285156 19.660156 27.695312 20.417969 27.929688 21.234375 C 28.207031 22.214844 28.34375 23.226562 28.332031 24.246094 C 28.339844 25.414062 28.148438 26.582031 27.761719 27.6875 Z M 27.75 27.683594 "/>
<path style=" stroke:none;fill-rule:nonzero;fill:rgb(96.078431%,92.156863%,89.803922%);fill-opacity:1;" d="M 23.667969 23.292969 C 23.445312 23.292969 23.242188 23.421875 23.15625 23.625 C 23.070312 23.832031 23.121094 24.070312 23.273438 24.226562 C 23.433594 24.382812 23.671875 24.429688 23.878906 24.34375 C 24.078125 24.257812 24.210938 24.054688 24.210938 23.835938 C 24.210938 23.53125 23.964844 23.292969 23.667969 23.292969 Z M 23.667969 23.292969 "/>
</g>
</svg>
