<?xml version="1.0" encoding="UTF-8"?>
<svg xmlns="http://www.w3.org/2000/svg" xmlns:xlink="http://www.w3.org/1999/xlink" width="40pt" height="40pt" viewBox="0 0 40 40" version="1.1">
<g id="surface1">
<path style=" stroke:none;fill-rule:nonzero;fill:rgb(38.431373%,32.156863%,25.098039%);fill-opacity:1;" d="M 40 20 C 40 31.046875 31.046875 40 20 40 C 8.953125 40 0 31.046875 0 20 C 0 8.953125 8.953125 0 20 0 C 31.046875 0 40 8.953125 40 20 Z M 40 20 "/>
<path style=" stroke:none;fill-rule:nonzero;fill:rgb(100%,100%,100%);fill-opacity:1;" d="M 28.589844 20.863281 C 28.183594 19.863281 27.546875 18.953125 26.726562 18.226562 C 25.910156 17.546875 24.910156 17 23.726562 16.636719 C 22.589844 16.273438 21.226562 16.089844 19.773438 16.089844 C 19.273438 16.089844 18.726562 16.089844 18.273438 16.136719 C 18 16.136719 17.683594 16.183594 17.410156 16.183594 L 17.410156 11.683594 L 26.273438 11.683594 C 26.546875 11.683594 27.089844 11.546875 27.410156 10.773438 C 27.589844 10.363281 27.683594 9.683594 27.683594 8.773438 C 27.683594 8.410156 27.683594 8.046875 27.636719 7.636719 C 27.589844 7.363281 27.546875 7.046875 27.410156 6.773438 C 27.316406 6.546875 27.183594 6.316406 26.953125 6.136719 C 26.773438 6 26.546875 5.910156 26.273438 5.910156 L 13.726562 5.910156 C 13.089844 5.910156 12.636719 6.089844 12.316406 6.453125 C 12 6.816406 11.863281 7.316406 11.863281 8 L 11.863281 19.546875 C 11.863281 20.226562 12 20.683594 12.273438 21 C 12.546875 21.316406 12.953125 21.5 13.546875 21.5 C 14.183594 21.5 14.816406 21.453125 15.453125 21.363281 C 16.136719 21.273438 16.863281 21.226562 17.546875 21.226562 C 18.726562 21.226562 19.273438 21.226562 19.953125 21.453125 C 20.863281 21.773438 21.589844 22.316406 21.863281 22.546875 C 22.589844 23.136719 22.863281 23.546875 23 23.453125 C 23.183594 23.363281 23.089844 22.546875 22.726562 21.910156 C 22.136719 20.910156 21 20.589844 20.183594 20.363281 C 19.183594 20.089844 18.316406 20.089844 17.5 20.089844 C 16.773438 20.089844 16 20.136719 15.273438 20.226562 C 14.683594 20.316406 14.089844 20.316406 13.5 20.363281 C 13.226562 20.363281 13.089844 20.316406 13.089844 20.273438 C 13.089844 20.273438 12.953125 20.089844 12.953125 19.546875 L 12.953125 8.089844 C 12.953125 7.546875 13.089844 7.363281 13.136719 7.273438 C 13.226562 7.136719 13.453125 7.089844 13.726562 7.089844 L 26.273438 7.089844 C 26.273438 7.089844 26.273438 7.089844 26.316406 7.089844 C 26.363281 7.136719 26.410156 7.183594 26.410156 7.226562 C 26.5 7.410156 26.5 7.589844 26.546875 7.773438 C 26.589844 8.089844 26.589844 8.410156 26.589844 8.773438 C 26.589844 9.726562 26.5 10.136719 26.410156 10.363281 C 26.410156 10.453125 26.363281 10.5 26.316406 10.546875 L 16.816406 10.546875 C 16.5 10.546875 16.273438 10.773438 16.273438 11.089844 L 16.273438 16.816406 C 16.273438 16.953125 16.316406 17.136719 16.453125 17.226562 C 16.589844 17.316406 16.726562 17.363281 16.863281 17.363281 C 17.316406 17.316406 17.773438 17.273438 18.226562 17.273438 C 18.683594 17.273438 19.183594 17.273438 19.683594 17.273438 C 21.046875 17.273438 22.273438 17.453125 23.363281 17.773438 C 24.453125 18.089844 25.273438 18.546875 25.953125 19.136719 C 26.636719 19.726562 27.183594 20.5 27.546875 21.363281 C 27.910156 22.226562 28.089844 23.273438 28.089844 24.5 C 28.089844 25.816406 27.863281 27.046875 27.410156 28.089844 C 26.953125 29.089844 26.273438 30 25.453125 30.726562 C 24.546875 31.453125 23.5 32.046875 22.363281 32.410156 C 21.046875 32.816406 19.683594 33 18.273438 33 C 17.5 33 16.773438 32.953125 16 32.863281 C 15.363281 32.773438 14.726562 32.636719 14.089844 32.5 C 13.636719 32.363281 13.183594 32.226562 12.726562 32.046875 C 12.273438 31.863281 12.183594 31.773438 12.136719 31.773438 C 12.089844 31.726562 12.046875 31.683594 12 31.636719 C 11.953125 31.546875 11.910156 31.410156 11.910156 31.316406 C 11.863281 31.136719 11.863281 30.953125 11.863281 30.726562 C 11.863281 30.5 11.863281 30.183594 11.863281 29.816406 C 11.863281 29.5 11.863281 29.226562 11.910156 28.910156 C 11.910156 28.726562 11.953125 28.589844 12 28.410156 C 12 28.363281 12.046875 28.363281 12.046875 28.316406 C 12.136719 28.363281 12.273438 28.410156 12.363281 28.453125 C 13.273438 28.953125 14.273438 29.316406 15.273438 29.546875 C 16.089844 29.726562 16.910156 29.816406 17.773438 29.816406 C 18.546875 29.816406 19.316406 29.726562 20.046875 29.546875 C 20.726562 29.363281 21.363281 29.089844 21.910156 28.636719 C 22.410156 28.226562 22.816406 27.683594 23.089844 27.089844 C 23.363281 26.410156 23.546875 25.636719 23.5 24.910156 C 23.5 24.136719 23.5 22.910156 22.636719 22.089844 C 22.273438 21.726562 21.726562 21.410156 21.546875 21.546875 C 21.410156 21.636719 21.5 21.910156 21.773438 22.726562 C 22.316406 24.5 22.410156 24.589844 22.410156 24.910156 C 22.410156 25.5 22.316406 26.089844 22.089844 26.636719 C 21.910156 27.089844 21.589844 27.5 21.226562 27.773438 C 20.816406 28.089844 20.316406 28.316406 19.773438 28.453125 C 19.089844 28.589844 18.410156 28.683594 17.726562 28.683594 C 17 28.683594 16.226562 28.636719 15.5 28.453125 C 14.953125 28.316406 14.410156 28.183594 13.910156 27.953125 C 13.546875 27.816406 13.226562 27.636719 12.863281 27.453125 C 12.5 27.226562 12.226562 27.136719 11.953125 27.136719 C 11.726562 27.136719 11.5 27.226562 11.316406 27.363281 C 11.136719 27.5 11 27.726562 10.953125 27.953125 C 10.863281 28.226562 10.816406 28.453125 10.773438 28.726562 C 10.726562 29.089844 10.726562 29.410156 10.726562 29.773438 C 10.726562 30.136719 10.726562 30.453125 10.726562 30.726562 C 10.726562 30.953125 10.773438 31.226562 10.816406 31.453125 C 10.863281 31.636719 10.910156 31.816406 11 32 C 11.089844 32.183594 11.226562 32.363281 11.363281 32.5 C 11.5 32.636719 11.773438 32.773438 12.226562 33 C 12.726562 33.183594 13.226562 33.363281 13.773438 33.5 C 14.453125 33.683594 15.136719 33.816406 15.816406 33.910156 C 16.636719 34 17.410156 34.089844 18.226562 34.046875 C 19.726562 34.046875 21.226562 33.863281 22.636719 33.410156 C 23.910156 33 25.089844 32.363281 26.089844 31.546875 C 27.046875 30.726562 27.816406 29.683594 28.316406 28.5 C 28.816406 27.316406 29.089844 25.953125 29.089844 24.453125 C 29.226562 23.046875 29 21.863281 28.589844 20.863281 Z M 28.589844 20.863281 "/>
<path style=" stroke:none;fill-rule:nonzero;fill:rgb(96.078431%,92.156863%,89.803922%);fill-opacity:1;" d="M 22.816406 22.316406 C 22.816406 22 22.589844 21.773438 22.273438 21.773438 C 21.953125 21.773438 21.726562 22 21.726562 22.316406 C 21.726562 22.636719 21.953125 22.863281 22.273438 22.863281 C 22.589844 22.863281 22.816406 22.636719 22.816406 22.316406 Z M 22.816406 22.316406 "/>
</g>
</svg>
