<?xml version="1.0" encoding="UTF-8"?>
<svg xmlns="http://www.w3.org/2000/svg" xmlns:xlink="http://www.w3.org/1999/xlink" width="88pt" height="88pt" viewBox="0 0 88 88" version="1.1">
<defs>
<clipPath id="clip1">
  <path d="M 17.734375 16.136719 L 70.277344 16.136719 L 70.277344 71.863281 L 17.734375 71.863281 Z M 17.734375 16.136719 "/>
</clipPath>
</defs>
<g id="surface1">
<path style=" stroke:none;fill-rule:nonzero;fill:rgb(38.431373%,32.156863%,25.098039%);fill-opacity:1;" d="M 87.992188 43.996094 C 87.992188 68.292969 68.292969 87.992188 43.996094 87.992188 C 19.695312 87.992188 0 68.292969 0 43.996094 C 0 19.695312 19.695312 0 43.996094 0 C 68.292969 0 87.992188 19.695312 87.992188 43.996094 Z M 87.992188 43.996094 "/>
<g clip-path="url(#clip1)" clip-rule="nonzero">
<path style=" stroke:none;fill-rule:nonzero;fill:rgb(100%,100%,100%);fill-opacity:1;" d="M 64.027344 16.136719 L 56.515625 16.136719 C 56.96875 16.136719 57.332031 16.5 57.332031 16.949219 C 57.332031 17.398438 56.96875 17.761719 56.515625 17.761719 L 64.027344 17.761719 C 66.503906 17.761719 68.507812 19.765625 68.511719 22.242188 L 68.511719 41.136719 C 68.507812 43.613281 66.503906 45.617188 64.027344 45.617188 L 61.3125 45.617188 C 61.132812 45.621094 60.960938 45.675781 60.8125 45.789062 L 55.84375 49.59375 L 55.84375 46.421875 C 55.84375 45.972656 55.476562 45.605469 55.027344 45.605469 L 45.078125 45.605469 C 44.273438 45.605469 43.484375 45.390625 42.792969 44.980469 L 42.792969 35.808594 C 42.792969 34.152344 41.96875 32.605469 40.59375 31.679688 L 40.59375 22.230469 C 40.597656 19.757812 42.605469 17.753906 45.078125 17.753906 L 56.515625 17.753906 C 56.96875 17.753906 57.332031 17.390625 57.332031 16.9375 C 57.332031 16.488281 56.96875 16.121094 56.515625 16.121094 L 45.078125 16.121094 C 41.699219 16.121094 38.964844 18.855469 38.949219 22.230469 L 38.949219 30.953125 C 38.574219 30.871094 38.1875 30.835938 37.800781 30.835938 L 22.875 30.835938 C 20.128906 30.835938 17.90625 33.058594 17.90625 35.808594 L 17.90625 37.566406 C 17.90625 38.019531 18.269531 38.382812 18.722656 38.382812 C 19.167969 38.382812 19.535156 38.019531 19.535156 37.566406 L 19.535156 35.808594 C 19.546875 33.964844 21.039062 32.476562 22.875 32.46875 L 37.800781 32.46875 C 39.648438 32.46875 41.152344 33.957031 41.160156 35.808594 L 41.160156 45.296875 C 41.152344 45.371094 41.152344 45.445312 41.160156 45.515625 L 41.160156 50.730469 C 41.160156 50.828125 41.160156 50.925781 41.160156 51.039062 L 39.457031 51.039062 C 37.636719 51.035156 36.074219 52.335938 35.738281 54.132812 C 35.664062 54.15625 35.589844 54.199219 35.53125 54.253906 L 31.832031 57.066406 L 31.832031 54.886719 C 31.832031 54.4375 31.464844 54.070312 31.015625 54.070312 L 22.875 54.070312 C 21.984375 54.082031 21.121094 53.738281 20.484375 53.109375 C 19.84375 52.480469 19.480469 51.621094 19.476562 50.730469 L 19.476562 37.582031 C 19.464844 38.023438 19.09375 38.375 18.648438 38.367188 C 18.214844 38.359375 17.863281 38.015625 17.84375 37.582031 L 17.84375 50.730469 C 17.84375 53.472656 20.070312 55.699219 22.816406 55.699219 L 30.238281 55.699219 L 30.238281 58.6875 C 30.246094 58.992188 30.421875 59.269531 30.699219 59.410156 C 30.976562 59.542969 31.300781 59.515625 31.550781 59.332031 L 35.679688 56.152344 L 35.679688 65.328125 C 35.679688 67.417969 37.371094 69.109375 39.457031 69.109375 L 44.433594 69.109375 L 44.433594 71.011719 C 44.4375 71.320312 44.617188 71.59375 44.894531 71.730469 C 45.167969 71.871094 45.5 71.839844 45.746094 71.660156 L 49.050781 69.109375 L 50.042969 69.109375 C 52.132812 69.109375 53.828125 67.421875 53.832031 65.328125 L 53.832031 58.765625 C 53.816406 58.988281 53.71875 59.195312 53.550781 59.34375 C 53.386719 59.488281 53.167969 59.566406 52.945312 59.550781 C 52.539062 59.511719 52.21875 59.175781 52.203125 58.765625 L 52.203125 65.328125 C 52.195312 66.519531 51.230469 67.476562 50.042969 67.476562 L 48.808594 67.476562 C 48.628906 67.476562 48.457031 67.539062 48.3125 67.648438 L 46.105469 69.351562 L 46.105469 68.332031 C 46.105469 67.886719 45.738281 67.519531 45.289062 67.519531 L 39.457031 67.519531 C 38.273438 67.519531 37.308594 66.558594 37.308594 65.371094 L 37.308594 54.796875 C 37.3125 53.617188 38.277344 52.660156 39.457031 52.660156 L 50.0625 52.660156 C 51.25 52.652344 52.214844 53.613281 52.21875 54.796875 L 52.21875 58.777344 C 52.21875 59.226562 52.585938 59.59375 53.035156 59.59375 C 53.488281 59.59375 53.851562 59.226562 53.851562 58.777344 L 53.851562 54.796875 C 53.847656 52.710938 52.152344 51.019531 50.0625 51.027344 L 42.769531 51.027344 C 42.769531 50.917969 42.769531 46.800781 42.769531 46.800781 C 43.496094 47.089844 44.273438 47.238281 45.0625 47.238281 L 54.179688 47.238281 L 54.179688 51.214844 C 54.183594 51.523438 54.359375 51.808594 54.640625 51.945312 C 54.914062 52.082031 55.246094 52.058594 55.496094 51.871094 L 61.570312 47.21875 L 64.007812 47.21875 C 67.386719 47.222656 70.128906 44.488281 70.132812 41.113281 L 70.132812 22.210938 C 70.113281 18.851562 67.386719 16.140625 64.027344 16.136719 Z M 64.027344 16.136719 "/>
</g>
<path style=" stroke:none;fill-rule:nonzero;fill:rgb(100%,100%,100%);fill-opacity:1;" d="M 56.597656 22.171875 C 56.097656 22.050781 55.566406 22.164062 55.160156 22.480469 C 54.75 22.792969 54.511719 23.277344 54.496094 23.792969 C 54.496094 24.960938 54.074219 26.085938 53.308594 26.96875 L 51.046875 29.511719 C 50.894531 29.285156 50.644531 29.144531 50.371094 29.144531 L 45.976562 29.144531 C 45.527344 29.144531 45.160156 29.511719 45.160156 29.960938 L 45.160156 39.835938 C 45.160156 40.289062 45.527344 40.652344 45.976562 40.652344 L 50.371094 40.652344 C 50.691406 40.65625 50.976562 40.46875 51.105469 40.175781 C 52.003906 40.726562 53.035156 41.011719 54.089844 41.007812 L 61.847656 41.007812 C 62.425781 41 62.972656 40.761719 63.367188 40.34375 C 63.761719 39.925781 63.972656 39.367188 63.949219 38.792969 C 63.949219 38.261719 63.949219 31.234375 63.949219 31.082031 C 63.949219 29.917969 63.003906 28.96875 61.839844 28.964844 L 57.800781 28.964844 L 57.96875 28.566406 C 58.734375 26.746094 58.609375 24.671875 57.632812 22.957031 C 57.417969 22.570312 57.0625 22.292969 56.636719 22.171875 Z M 49.554688 39.019531 L 46.75 39.019531 L 46.75 30.773438 L 49.515625 30.773438 Z M 61.839844 30.605469 C 62.105469 30.609375 62.316406 30.832031 62.316406 31.09375 C 62.316406 31.242188 62.316406 31.671875 62.316406 32.238281 C 62.316406 35.390625 62.316406 38.382812 62.316406 38.882812 C 62.324219 39.011719 62.277344 39.136719 62.1875 39.230469 C 62.097656 39.324219 61.96875 39.378906 61.839844 39.378906 L 54.082031 39.378906 C 53.152344 39.378906 52.25 39.058594 51.523438 38.472656 L 51.1875 38.207031 L 51.1875 31.832031 L 54.527344 28.050781 C 55.5625 26.871094 56.132812 25.359375 56.128906 23.792969 L 56.21875 23.792969 C 56.945312 25.0625 57.035156 26.601562 56.46875 27.949219 L 55.820312 29.480469 C 55.714844 29.734375 55.742188 30.023438 55.890625 30.25 C 56.039062 30.476562 56.292969 30.613281 56.566406 30.613281 Z M 61.839844 30.605469 "/>
<path style=" stroke:none;fill-rule:nonzero;fill:rgb(100%,100%,100%);fill-opacity:1;" d="M 24.867188 44.496094 C 24.414062 44.496094 24.050781 44.859375 24.050781 45.304688 C 24.050781 45.757812 24.414062 46.121094 24.867188 46.121094 L 27.273438 46.121094 L 26.824219 48.851562 C 26.757812 49.289062 27.054688 49.707031 27.492188 49.785156 L 27.632812 49.785156 C 28.03125 49.785156 28.375 49.492188 28.4375 49.097656 L 28.925781 46.113281 L 30.917969 46.113281 L 30.46875 48.839844 C 30.394531 49.285156 30.695312 49.703125 31.144531 49.773438 L 31.273438 49.773438 C 31.675781 49.777344 32.019531 49.488281 32.082031 49.085938 L 32.574219 46.105469 L 35.808594 46.105469 C 36.261719 46.105469 36.621094 45.738281 36.621094 45.289062 C 36.621094 44.839844 36.261719 44.472656 35.808594 44.472656 L 32.824219 44.472656 L 33.15625 42.484375 L 35.808594 42.484375 C 36.261719 42.484375 36.621094 42.117188 36.621094 41.667969 C 36.621094 41.214844 36.261719 40.851562 35.808594 40.851562 L 33.390625 40.851562 L 33.820312 38.148438 C 33.855469 37.933594 33.808594 37.714844 33.683594 37.539062 C 33.558594 37.363281 33.363281 37.246094 33.15625 37.210938 C 32.929688 37.164062 32.699219 37.207031 32.511719 37.335938 C 32.320312 37.464844 32.191406 37.660156 32.15625 37.886719 L 31.671875 40.871094 L 29.683594 40.871094 L 30.128906 38.148438 C 30.199219 37.699219 29.898438 37.285156 29.449219 37.210938 C 29.007812 37.136719 28.585938 37.441406 28.519531 37.886719 L 28.019531 40.871094 L 24.867188 40.871094 C 24.414062 40.871094 24.050781 41.238281 24.050781 41.6875 C 24.050781 42.140625 24.414062 42.503906 24.867188 42.503906 L 27.851562 42.503906 L 27.519531 44.496094 Z M 29.53125 42.503906 L 31.523438 42.503906 L 31.195312 44.496094 L 29.207031 44.496094 Z M 29.53125 42.503906 "/>
<path style=" stroke:none;fill-rule:nonzero;fill:rgb(100%,100%,100%);fill-opacity:1;" d="M 44.761719 56.863281 C 44.085938 56.316406 43.1875 56.113281 42.347656 56.328125 C 40.953125 56.675781 40.003906 57.960938 40.085938 59.390625 C 40.082031 60.46875 40.515625 61.503906 41.289062 62.257812 C 42.203125 63.132812 43.253906 63.859375 44.390625 64.40625 C 44.511719 64.464844 44.640625 64.496094 44.769531 64.496094 C 44.90625 64.496094 45.039062 64.464844 45.160156 64.40625 C 47.746094 63.035156 49.464844 61.652344 49.464844 59.433594 C 49.535156 57.976562 48.542969 56.6875 47.121094 56.378906 C 46.292969 56.1875 45.425781 56.378906 44.761719 56.90625 Z M 47.832031 59.390625 C 47.832031 60.617188 47.019531 61.511719 44.769531 62.753906 C 42.523438 61.511719 41.71875 60.617188 41.71875 59.390625 C 41.648438 58.726562 42.066406 58.101562 42.710938 57.910156 C 42.808594 57.902344 42.902344 57.902344 43 57.910156 C 43.429688 57.921875 43.816406 58.175781 43.996094 58.566406 C 44.136719 58.847656 44.421875 59.019531 44.730469 59.019531 C 45.039062 59.019531 45.328125 58.847656 45.464844 58.566406 C 45.550781 58.3125 45.734375 58.101562 45.976562 57.980469 C 46.21875 57.867188 46.496094 57.847656 46.75 57.9375 C 47.421875 58.089844 47.875 58.707031 47.824219 59.390625 Z M 47.832031 59.390625 "/>
</g>
</svg>
