<svg xmlns="http://www.w3.org/2000/svg" viewBox="0 0 349.53 194.69"><defs><style>.cls-1{fill:#f5f5f5;}.cls-2{fill:#263238;}.cls-3{fill:#625240;}.cls-4{opacity:0.5;}.cls-4,.cls-5,.cls-6,.cls-7,.cls-8{isolation:isolate;}.cls-5{opacity:0.4;}.cls-6,.cls-8{fill:#fff;}.cls-6{opacity:0.1;}.cls-7,.cls-8{opacity:0.2;}</style></defs><g id="Calque_2" data-name="Calque 2"><g id="Calque_1-2" data-name="Calque 1"><path class="cls-1" d="M347.11,69.7a34.29,34.29,0,0,0-5.26-9.42,15.83,15.83,0,0,1-2.44-4.1,16.17,16.17,0,0,0-3.55-5.83,3.88,3.88,0,0,1-.26-.31c-8.17-11.15-22.91-16.77-37.1-16a41.41,41.41,0,0,1-33.42-14.26,41.08,41.08,0,0,0-32-14,42.06,42.06,0,0,0-7.55.85,39,39,0,0,1-27.3-4A18.72,18.72,0,0,0,189.8,0c-9.08-.45-17.49,4.19-25.28,8.65s-16.25,9.05-25.33,8.47c-9.83-.63-18-7.15-27.18-10.52C94.68.26,73.8,7.51,62.86,21.43A40.64,40.64,0,0,1,41.35,35.2c-9.23,2.5-19.14,9.19-28.09,17.63A24,24,0,0,0,6.08,65.18a12,12,0,0,1-.76,2.33A43.23,43.23,0,0,0,1.91,80a14.42,14.42,0,0,1-.37,1.94c-2.34,9.24-1.71,19.86-.12,27.67a4.84,4.84,0,0,0,.18.68c.74,8.1,2.22,15.94,6.44,20,8.42,11.64,24,17.31,38.66,16.1a36.09,36.09,0,0,1,31.1,13.28,41,41,0,0,0,32.93,15,42.45,42.45,0,0,0,8.44-1,34.81,34.81,0,0,1,26,4A18.88,18.88,0,0,0,154,180.4c9.08.45,17.49-4.19,25.28-8.65s16.25-9.05,25.33-8.47c9.83.63,18,7.15,27.18,10.53,17.8,6.53,39.34-1.29,50-15.95A32.42,32.42,0,0,1,301,145.59c13.41-3,28.45-15.3,40-29.16a18.86,18.86,0,0,0,3.84-7.31,16.51,16.51,0,0,1,1.31-3.47,31.47,31.47,0,0,0,3.19-13C349.76,85.18,349.72,76.8,347.11,69.7Z"/><g id="freepik--Plant--inject-428"><path class="cls-2" d="M275.86,157.78c-7.47,3-15.66,6.25-18.75,11.36l-4.1.75c-6.15,1.17-14.53,2.93-23.69,5.1A90.35,90.35,0,0,0,245,167.23c5.68-3.51,10.27-7.86,12.1-12.61-16.1,2-28.68,10.77-30.29,21-8.88,2.15-16.8,4.29-22.55,6l-.57.17c5.49-2.71,12.52-7.48,15.72-11.17a76,76,0,0,0,8.12-12c-15.56,3.48-25.84,13.3-24.44,23.33-5.37,1.59-8.54,2.68-8.46,2.84s4-.74,10.2-2.27l2.85-.71c4.44,3.75,8.33,5.34,15.86,6.46,7.75,1.14,15.88,1.17,24,1.18-6.63-7.3-20-10.93-33.74-9.15,4.6-1.14,9.79-2.41,15.31-3.73l3.93-.94a54.94,54.94,0,0,0,17.32,6.32c6.92,1.2,14.9.89,21.4-1.58-4.72-3.71-11.54-6.12-19.22-6.79-2.86-.28-5.77-.45-8.7-.49,3.58-.85,6.88-1.58,9.62-2.22,1.91-.44,3.6-.85,5-1.17,17.41.89,34.69-3.34,43.06-13.53C292.78,155.38,283.67,154.67,275.86,157.78Z"/><path class="cls-2" d="M157.13,187.64c.16-.2-3.62-1.38-9.67-3.23l-2.8-.86c1.67-5.18,1.05-8.38-2.64-13s-9.25-8.79-14.67-12.79c-4.6,9.1-.11,18.61,11.32,24-4.49-1.37-9.58-2.91-14.93-4.59l-3.8-1.15c.08-4.71-.79-9.45-3.76-13.6-3.16-4.38-8.92-8.07-16.36-9.32-1.44,5.29.14,10.57,4.45,14.89a45.1,45.1,0,0,0,5.24,4.69l-9.23-3-4.83-1.53c-10.6-9.31-30-12.88-48.23-8.88,4.9,4.9,12.62,8.36,21.72,9.73,8.76,1.31,18.28,2.76,26.72.2,1.09.43,2.32.91,3.69,1.42,5.58,2.12,13.4,4.85,22.26,7.64a121.1,121.1,0,0,0-20.12-1.51c-8.18,0-16.66,1.2-23.82,4.09,13.37,6.31,32.66,5.56,46.45-1.8,8.64,2.66,16.62,4.87,22.56,6.37l.59.15c-7.05-.56-17.66-.21-24.39,1.16a209.64,209.64,0,0,0-20.35,5.54c14.78,4.92,33.89,2.17,45.42-6.54C153.49,187.11,157,187.82,157.13,187.64Z"/><path class="cls-3" d="M159.8,180.28A15.11,15.11,0,0,1,148,173.42c-5.65-8.26-5.06-18.63,1.46-27.47A20.75,20.75,0,0,1,160,138.16a26.1,26.1,0,0,1,11.21-.58c8.66,1.29,15.38,5.76,18.32,11.26s2.26,11.91-.84,17.8a25.26,25.26,0,0,1-10.12,10.43c-4.85,2.71-11.54,4.13-17.08,2.94"/><path class="cls-4" d="M159.8,180.28A15.11,15.11,0,0,1,148,173.42c-5.65-8.26-5.06-18.63,1.46-27.47A20.75,20.75,0,0,1,160,138.16a26.1,26.1,0,0,1,11.21-.58c8.66,1.29,15.38,5.76,18.32,11.26s2.26,11.91-.84,17.8a25.26,25.26,0,0,1-10.12,10.43c-4.85,2.71-11.54,4.13-17.08,2.94"/><path class="cls-3" d="M177.17,180.65c1.81-7.73,6.53-15.22,13.76-21.83a40.76,40.76,0,0,1,11.24-7.49,32.53,32.53,0,0,1,15.14-2.72c5.17.42,9.86,2.62,11.12,5.78,1.11,2.83-.52,6-3.14,8.6-4.67,4.67-12.13,8-19.56,10.92a111.3,111.3,0,0,1-15,5,53.25,53.25,0,0,1-16.21,1.54"/><path class="cls-5" d="M177.17,180.65c1.81-7.73,6.53-15.22,13.76-21.83a40.76,40.76,0,0,1,11.24-7.49,32.53,32.53,0,0,1,15.14-2.72c5.17.42,9.86,2.62,11.12,5.78,1.11,2.83-.52,6-3.14,8.6-4.67,4.67-12.13,8-19.56,10.92a111.3,111.3,0,0,1-15,5,53.25,53.25,0,0,1-16.21,1.54"/><path class="cls-3" d="M174.38,191.07c1.55,1.84,5.13-.58,8.54-.63s6.72,2.42,10,1.55a113.76,113.76,0,0,0,17.51-6,40.13,40.13,0,0,0,13.46-9.23c1.76-2,2.92-4.67.7-6.29-2-1.48-5.68-1.33-8.85-1-7.75.73-15.57,1.88-22.66,4.22s-13.52,6-16.72,10.59c-1.36,1.92-2.15,4.08-1.33,6s3.59.26,6.84.17"/><path class="cls-6" d="M174.38,191.07c1.55,1.84,5.13-.58,8.54-.63s6.72,2.42,10,1.55a113.76,113.76,0,0,0,17.51-6,40.13,40.13,0,0,0,13.46-9.23c1.76-2,2.92-4.67.7-6.29-2-1.48-5.68-1.33-8.85-1-7.75.73-15.57,1.88-22.66,4.22s-13.52,6-16.72,10.59c-1.36,1.92-2.15,4.08-1.33,6s3.59.26,6.84.17"/><path class="cls-3" d="M160.62,187.63c3.93-5.59,4.58-11.73,1.83-17.26s-8.5-10.12-16.19-13.14a27,27,0,0,0-9.77-2.15c-3.57,0-7.47,1-9.39,3-2.17,2.23-1.46,5-.43,7.35a49,49,0,0,0,7.1,11.63c2.7,3.32,4.91,7,9.82,9.06s11.44,3.36,17,1.49"/><path class="cls-7" d="M160.62,187.63c3.93-5.59,4.58-11.73,1.83-17.26s-8.5-10.12-16.19-13.14a27,27,0,0,0-9.77-2.15c-3.57,0-7.47,1-9.39,3-2.17,2.23-1.46,5-.43,7.35a49,49,0,0,0,7.1,11.63c2.7,3.32,4.91,7,9.82,9.06s11.44,3.36,17,1.49"/><path class="cls-1" d="M164,167.59c.61-.21,2.4,1.38,4,3.54s2.38,4.08,1.77,4.29-2.41-1.39-4-3.55S163.39,167.79,164,167.59Z"/><path class="cls-1" d="M169.92,175.23c-.67,0-1-2-.84-4.51s.92-4.53,1.59-4.55,1,2,.84,4.51S170.59,175.22,169.92,175.23Z"/><path class="cls-1" d="M174.9,168c.66,0,.7,1.59-.17,3.42s-2.27,3.17-2.89,3-.26-1.62.6-3.34S174.25,168,174.9,168Z"/><path class="cls-1" d="M180.64,166.41c.63.13-.14,2.21-1.71,4.69s-3.33,4.35-4,4.22.15-2.21,1.71-4.69S180,166.28,180.64,166.41Z"/><path class="cls-1" d="M185.68,169.3c.43.3-1.46,1.86-4.09,3.55s-5.13,2.88-5.61,2.61,1.25-1.93,4-3.65S185.25,169,185.68,169.3Z"/><path class="cls-1" d="M188.37,172.82c.29.37-2,1.47-5.05,2.45s-5.8,1.47-6,1.09,2-1.48,5.05-2.45S188.09,172.45,188.37,172.82Z"/><path class="cls-2" d="M165.59,174.32c-.1.07-3.8-2.1-8.29-4.83s-8-5-7.89-5.08,3.78,2.11,8.24,4.84S165.68,174.26,165.59,174.32Z"/><path class="cls-2" d="M166.79,174.41a7.26,7.26,0,0,1-1.31-1.13c-.76-.73-1.74-1.75-2.75-2.91s-1.83-2.25-2.39-3.05a4.67,4.67,0,0,1-.8-1.32,7.43,7.43,0,0,1,1.11,1.22l2.52,3c1,1.1,1.85,2.1,2.6,2.95A6.32,6.32,0,0,1,166.79,174.41Z"/><path class="cls-2" d="M169.88,174.6a56.83,56.83,0,0,1-2.76-6.68,66.56,66.56,0,0,1-2.32-6.76,59.57,59.57,0,0,1,2.77,6.67A53.13,53.13,0,0,1,169.88,174.6Z"/><path class="cls-2" d="M170.56,173.73a3.05,3.05,0,0,1,0-.8c0-.53.06-1.28.15-2.21a68.74,68.74,0,0,1,1.07-7.29c.57-2.85,1.3-5.42,1.85-7.28.29-.93.55-1.69.75-2.19a3.26,3.26,0,0,1,.34-.8,2.59,2.59,0,0,1-.16.81c-.16.57-.35,1.32-.59,2.2-.49,1.86-1.14,4.42-1.71,7.27s-1,5.42-1.21,7.27c-.12.89-.23,1.63-.3,2.22A2.25,2.25,0,0,1,170.56,173.73Z"/><path class="cls-2" d="M175.65,175.22c-.13,0,1.56-3.89,3.77-8.64s4.1-8.57,4.23-8.58-1.56,3.88-3.77,8.63S175.77,175.23,175.65,175.22Z"/><path class="cls-2" d="M196.59,160.34a3.28,3.28,0,0,1-.55.65c-.38.39-.94,1-1.67,1.67-1.44,1.4-3.55,3.3-6,5.33s-4.94,3.79-6.7,5c-.89.63-1.66,1.12-2.17,1.45a4.43,4.43,0,0,1-.83.49,5.32,5.32,0,0,1,.72-.57l2-1.51c1.73-1.27,4.08-3,6.59-5.06s4.61-3.89,6.13-5.27l1.79-1.62A4.23,4.23,0,0,1,196.59,160.34Z"/><path class="cls-2" d="M199.06,166.67a4.61,4.61,0,0,1-.65.45c-.44.28-1.07.64-1.88,1.13-1.62.93-3.91,2.18-6.53,3.5s-5.05,2.44-6.87,3.22c-.9.39-1.64.68-2.16.9a3.89,3.89,0,0,1-.85.3c.89-.49,1.83-.95,2.8-1.37,1.75-.83,4.16-2,6.74-3.28s4.92-2.53,6.59-3.43C197.15,167.59,198.08,167.11,199.06,166.67Z"/><path class="cls-2" d="M201,170a22.89,22.89,0,0,1-2.64,1.24c-1.69.73-4,1.7-6.68,2.7s-5.1,1.84-6.91,2.42a28.31,28.31,0,0,1-3,.87,29.35,29.35,0,0,1,2.82-1c1.76-.63,4.19-1.5,6.8-2.49s5-1.94,6.73-2.62A29.34,29.34,0,0,1,201,170Z"/><path class="cls-2" d="M147,162.64c-.58.18-1,.55-1,1a1.38,1.38,0,0,0,1.09,1,3.72,3.72,0,0,0,2.11.16c1-.3,1.51-1,1.11-1.66a3.66,3.66,0,0,0-3.3-.45"/><path class="cls-2" d="M173.3,151.49a1.28,1.28,0,0,0-1,.94,1.38,1.38,0,0,0,1.07,1,3.76,3.76,0,0,0,2.07.16c1-.3,1.47-1,1.09-1.63h0a3.51,3.51,0,0,0-3.23-.45"/><path class="cls-2" d="M194.23,159.88c-.57.18-.95.54-1,.93a1.38,1.38,0,0,0,1.07,1,3.59,3.59,0,0,0,2.07.16c1-.29,1.47-1,1.08-1.62h0a3.48,3.48,0,0,0-3.23-.44"/><path class="cls-2" d="M163.92,159.77c-.4.13-.66.38-.69.65a1,1,0,0,0,.74.67,2.5,2.5,0,0,0,1.42.11c.7-.19,1.05-.69.79-1.12h0a2.48,2.48,0,0,0-2.23-.3"/><path class="cls-2" d="M198,165.82c-.39.13-.66.38-.68.65a.93.93,0,0,0,.74.67,2.5,2.5,0,0,0,1.42.11c.69-.19,1-.69.79-1.12h0a2.46,2.46,0,0,0-2.22-.3"/><path class="cls-2" d="M200,169.11c-.4.12-.66.37-.68.64a.93.93,0,0,0,.73.68,2.53,2.53,0,0,0,1.43.11c.68-.21,1-.71.74-1.12h0a2.46,2.46,0,0,0-2.22-.3"/><path class="cls-2" d="M157.92,164.83c-.39.13-.66.38-.68.65a1,1,0,0,0,.73.67,2.54,2.54,0,0,0,1.43.11c.7-.2,1-.7.79-1.13h0a2.43,2.43,0,0,0-2.22-.3"/><path class="cls-2" d="M183,156.65c-.4.13-.66.38-.69.65a.93.93,0,0,0,.74.67,2.5,2.5,0,0,0,1.42.11c.69-.19,1.05-.69.79-1.11v0a2.48,2.48,0,0,0-2.23-.3"/><path class="cls-3" d="M151,190.91c3.06,1.86,6.8.2,11.15.54,3.93.3,8,2.81,11.7,1.7,5.68-1.68,11.23-4.51,12.67-8.3,1.17-3-.62-6.19-3.86-8.33s-7.77-3.36-12.45-4a42.56,42.56,0,0,0-14.11.14c-4.65.91-9,2.95-11,5.78s-.39,9,5.94,12.48"/><path class="cls-8" d="M151,190.91c3.06,1.86,6.8.2,11.15.54,3.93.3,8,2.81,11.7,1.7,5.68-1.68,11.23-4.51,12.67-8.3,1.17-3-.62-6.19-3.86-8.33s-7.77-3.36-12.45-4a42.56,42.56,0,0,0-14.11.14c-4.65.91-9,2.95-11,5.78s-.39,9,5.94,12.48"/></g></g></g></svg>