<svg xmlns="http://www.w3.org/2000/svg" viewBox="0 0 349.53 209.14"><defs><style>.cls-1{fill:#f5f5f5;}.cls-2{fill:#263238;}.cls-3{fill:#625240;}.cls-4{opacity:0.5;}.cls-4,.cls-5,.cls-6,.cls-7,.cls-8{isolation:isolate;}.cls-5{opacity:0.4;}.cls-6,.cls-8{fill:#fff;}.cls-6{opacity:0.1;}.cls-7,.cls-8{opacity:0.2;}</style></defs><g id="Calque_2" data-name="Calque 2"><g id="Calque_1-2" data-name="Calque 1"><path class="cls-1" d="M347.11,73.33a36.65,36.65,0,0,0-5.26-9.9,16.92,16.92,0,0,1-2.44-4.32A17.24,17.24,0,0,0,335.86,53a4,4,0,0,1-.26-.32C327.43,40.92,312.69,35,298.5,35.78a40.45,40.45,0,0,1-33.42-15A40.26,40.26,0,0,0,225.49,7a37.27,37.27,0,0,1-27.3-4.24A18.16,18.16,0,0,0,189.8,0c-9.08-.47-17.49,4.41-25.28,9.1S148.27,18.65,139.19,18c-9.83-.66-18-7.52-27.18-11.07C94.68.27,73.8,7.9,62.86,22.55A40.5,40.5,0,0,1,41.35,37c-9.23,2.63-19.14,9.67-28.09,18.54a25.58,25.58,0,0,0-7.18,13A13.12,13.12,0,0,1,5.32,71,47.37,47.37,0,0,0,1.91,84.12a15.57,15.57,0,0,1-.37,2c-2.34,9.72-1.71,20.89-.12,29.12a4.77,4.77,0,0,0,.18.7c.74,8.53,2.22,16.78,6.44,21C16.46,149.26,32,155.24,46.7,154a35.31,35.31,0,0,1,31.1,14,40.21,40.21,0,0,0,41.37,14.73,33.3,33.3,0,0,1,26,4.17,18.21,18.21,0,0,0,8.83,3c9.08.47,17.49-4.41,25.28-9.1s16.25-9.52,25.33-8.91c9.83.66,18,7.52,27.18,11.07,17.8,6.88,39.34-1.35,50-16.78A32.32,32.32,0,0,1,301,153.18c13.41-3.18,28.45-16.09,40-30.68a20.24,20.24,0,0,0,3.84-7.69,18.05,18.05,0,0,1,1.31-3.65,34.54,34.54,0,0,0,3.19-13.69C349.76,89.62,349.72,80.81,347.11,73.33Z"/><g id="freepik--Plant--inject-428"><path class="cls-2" d="M277.34,172.24c-7.48,3-15.67,6.24-18.76,11.36-1.21.22-2.59.46-4.1.75-6.15,1.17-14.53,2.93-23.69,5.1a91.54,91.54,0,0,0,15.64-7.76c5.67-3.52,10.26-7.86,12.09-12.62-16.1,2.05-28.68,10.77-30.29,21-8.88,2.15-16.8,4.29-22.55,6l-.56.17c5.48-2.71,12.52-7.47,15.71-11.16a77.19,77.19,0,0,0,8.13-12c-15.57,3.48-25.85,13.29-24.45,23.33-5.36,1.58-8.54,2.67-8.46,2.84s4-.74,10.2-2.27l2.85-.71c4.44,3.75,8.33,5.34,15.87,6.46,7.74,1.14,15.87,1.16,24,1.18-6.63-7.3-20-10.93-33.75-9.15,4.6-1.14,9.79-2.41,15.32-3.74l3.92-.93a54.94,54.94,0,0,0,17.32,6.32c6.92,1.2,14.9.89,21.41-1.58-4.73-3.71-11.55-6.12-19.22-6.79q-4.31-.44-8.7-.49c3.57-.85,6.88-1.59,9.61-2.22l5-1.18c17.41.89,34.69-3.34,43.06-13.52C294.25,169.84,285.14,169.13,277.34,172.24Z"/><path class="cls-2" d="M158.6,202.1c.16-.21-3.62-1.38-9.67-3.23l-2.8-.86c1.67-5.18,1.05-8.38-2.63-13s-9.26-8.79-14.68-12.8c-4.6,9.1-.11,18.61,11.32,24-4.49-1.37-9.57-2.91-14.93-4.59l-3.79-1.16c.08-4.71-.79-9.44-3.77-13.59-3.16-4.38-8.91-8.07-16.36-9.32-1.44,5.28.14,10.56,4.45,14.89a46.8,46.8,0,0,0,5.24,4.69l-9.22-3-4.84-1.54c-10.6-9.31-29.95-12.87-48.23-8.88,4.9,4.91,12.62,8.37,21.72,9.74,8.76,1.3,18.29,2.76,26.72.2,1.09.43,2.32.9,3.69,1.42,5.58,2.11,13.4,4.84,22.26,7.64A121.1,121.1,0,0,0,103,191.21c-8.18,0-16.66,1.2-23.81,4.08,13.36,6.32,32.66,5.57,46.44-1.8,8.64,2.67,16.62,4.88,22.57,6.38l.59.15c-7.06-.56-17.66-.21-24.39,1.16A209.06,209.06,0,0,0,104,206.72c14.79,4.91,33.9,2.16,45.43-6.54C155,201.56,158.47,202.28,158.6,202.1Z"/><path class="cls-3" d="M161.28,194.74a15.11,15.11,0,0,1-11.8-6.87c-5.65-8.25-5.06-18.62,1.47-27.46a20.67,20.67,0,0,1,10.56-7.79,26.1,26.1,0,0,1,11.21-.59c8.66,1.29,15.38,5.77,18.32,11.27s2.27,11.91-.83,17.8a25.32,25.32,0,0,1-10.12,10.43c-4.86,2.71-11.55,4.13-17.08,2.93"/><path class="cls-4" d="M161.28,194.74a15.11,15.11,0,0,1-11.8-6.87c-5.65-8.25-5.06-18.62,1.47-27.46a20.67,20.67,0,0,1,10.56-7.79,26.1,26.1,0,0,1,11.21-.59c8.66,1.29,15.38,5.77,18.32,11.27s2.27,11.91-.83,17.8a25.32,25.32,0,0,1-10.12,10.43c-4.86,2.71-11.55,4.13-17.08,2.93"/><path class="cls-3" d="M178.64,195.1c1.82-7.72,6.54-15.21,13.76-21.82a40.54,40.54,0,0,1,11.24-7.49,32.44,32.44,0,0,1,15.15-2.72c5.17.41,9.86,2.62,11.11,5.78,1.11,2.83-.51,6-3.14,8.6-4.67,4.67-12.12,8-19.56,10.91a111.18,111.18,0,0,1-15,5A53.28,53.28,0,0,1,176,194.87"/><path class="cls-5" d="M178.64,195.1c1.82-7.72,6.54-15.21,13.76-21.82a40.54,40.54,0,0,1,11.24-7.49,32.44,32.44,0,0,1,15.15-2.72c5.17.41,9.86,2.62,11.11,5.78,1.11,2.83-.51,6-3.14,8.6-4.67,4.67-12.12,8-19.56,10.91a111.18,111.18,0,0,1-15,5A53.28,53.28,0,0,1,176,194.87"/><path class="cls-3" d="M175.85,205.53c1.55,1.84,5.13-.58,8.55-.63s6.71,2.41,9.94,1.55a113.78,113.78,0,0,0,17.51-6,39.87,39.87,0,0,0,13.46-9.22c1.76-2,2.93-4.67.7-6.29-2-1.48-5.67-1.33-8.85-1-7.74.74-15.56,1.89-22.66,4.23s-13.52,6-16.72,10.58c-1.36,1.93-2.15,4.08-1.33,6s3.59.26,6.84.18"/><path class="cls-6" d="M175.85,205.53c1.55,1.84,5.13-.58,8.55-.63s6.71,2.41,9.94,1.55a113.78,113.78,0,0,0,17.51-6,39.87,39.87,0,0,0,13.46-9.22c1.76-2,2.93-4.67.7-6.29-2-1.48-5.67-1.33-8.85-1-7.74.74-15.56,1.89-22.66,4.23s-13.52,6-16.72,10.58c-1.36,1.93-2.15,4.08-1.33,6s3.59.26,6.84.18"/><path class="cls-3" d="M162.09,202.08c3.94-5.58,4.59-11.72,1.83-17.25s-8.5-10.12-16.18-13.15a27,27,0,0,0-9.77-2.14c-3.57,0-7.47,1-9.39,3-2.18,2.23-1.46,5-.44,7.35a48.94,48.94,0,0,0,7.11,11.63c2.69,3.31,4.91,7,9.82,9.05s11.43,3.37,17,1.5"/><path class="cls-7" d="M162.09,202.08c3.94-5.58,4.59-11.72,1.83-17.25s-8.5-10.12-16.18-13.15a27,27,0,0,0-9.77-2.14c-3.57,0-7.47,1-9.39,3-2.18,2.23-1.46,5-.44,7.35a48.94,48.94,0,0,0,7.11,11.63c2.69,3.31,4.91,7,9.82,9.05s11.43,3.37,17,1.5"/><path class="cls-1" d="M165.47,182c.62-.2,2.4,1.39,4,3.55s2.38,4.08,1.77,4.29-2.4-1.39-4-3.56S164.86,182.24,165.47,182Z"/><path class="cls-1" d="M171.4,189.69c-.68,0-1.05-2-.84-4.51s.91-4.54,1.58-4.55,1,2,.84,4.51S172.06,189.67,171.4,189.69Z"/><path class="cls-1" d="M176.38,182.48c.65.05.69,1.58-.17,3.42s-2.28,3.17-2.89,3-.26-1.63.59-3.34S175.72,182.42,176.38,182.48Z"/><path class="cls-1" d="M182.11,180.87c.63.13-.14,2.2-1.71,4.69s-3.33,4.35-4,4.22.15-2.21,1.71-4.69S181.49,180.74,182.11,180.87Z"/><path class="cls-1" d="M187.15,183.76c.44.3-1.46,1.85-4.09,3.54s-5.13,2.89-5.6,2.62,1.24-1.94,3.95-3.65S186.72,183.46,187.15,183.76Z"/><path class="cls-1" d="M189.85,187.28c.28.37-2,1.46-5.06,2.44s-5.8,1.48-6,1.09,2-1.48,5.05-2.44S189.56,186.91,189.85,187.28Z"/><path class="cls-2" d="M167.06,188.78c-.1.06-3.79-2.11-8.29-4.84s-8-5-7.89-5.07,3.78,2.1,8.25,4.84S167.15,188.72,167.06,188.78Z"/><path class="cls-2" d="M168.26,188.87a8.14,8.14,0,0,1-1.31-1.13c-.75-.73-1.73-1.75-2.74-2.92a38,38,0,0,1-2.4-3,4.67,4.67,0,0,1-.8-1.32,7.37,7.37,0,0,1,1.11,1.21l2.52,3,2.6,3A5.75,5.75,0,0,1,168.26,188.87Z"/><path class="cls-2" d="M171.35,189.05a56.21,56.21,0,0,1-2.76-6.67,64.55,64.55,0,0,1-2.31-6.77,62.54,62.54,0,0,1,2.76,6.68A53.92,53.92,0,0,1,171.35,189.05Z"/><path class="cls-2" d="M172,188.19a3.66,3.66,0,0,1,0-.81c0-.52.06-1.27.15-2.2a71.46,71.46,0,0,1,1.07-7.29c.57-2.86,1.3-5.42,1.86-7.29.29-.92.54-1.69.74-2.19a3.24,3.24,0,0,1,.35-.79,2.91,2.91,0,0,1-.16.81c-.17.56-.36,1.31-.6,2.2-.49,1.85-1.14,4.42-1.7,7.27s-1,5.41-1.22,7.27l-.3,2.22A2.25,2.25,0,0,1,172,188.19Z"/><path class="cls-2" d="M177.12,189.67c-.12,0,1.56-3.88,3.77-8.63s4.11-8.58,4.24-8.59-1.56,3.88-3.78,8.63S177.24,189.69,177.12,189.67Z"/><path class="cls-2" d="M198.07,174.8a3.6,3.6,0,0,1-.55.64c-.38.4-1,1-1.68,1.68-1.44,1.4-3.54,3.3-6,5.33s-4.94,3.79-6.7,5c-.89.62-1.66,1.12-2.16,1.44a4.34,4.34,0,0,1-.84.5,4.73,4.73,0,0,1,.73-.57l2-1.51c1.74-1.27,4.09-3,6.59-5.06s4.61-3.9,6.13-5.27l1.8-1.62A3.83,3.83,0,0,1,198.07,174.8Z"/><path class="cls-2" d="M200.53,181.13a4.8,4.8,0,0,1-.64.45L198,182.7c-1.62.94-3.91,2.19-6.53,3.51s-5.05,2.43-6.87,3.22c-.9.39-1.63.68-2.16.9a5.31,5.31,0,0,1-.85.3c.89-.49,1.83-.95,2.8-1.37,1.75-.83,4.16-2,6.74-3.28s4.93-2.54,6.59-3.43C198.62,182,199.56,181.57,200.53,181.13Z"/><path class="cls-2" d="M202.48,184.42a22.93,22.93,0,0,1-2.64,1.25c-1.69.73-4,1.7-6.68,2.7s-5.1,1.84-6.91,2.42a28.31,28.31,0,0,1-3,.87c.9-.39,1.85-.74,2.82-1,1.76-.63,4.19-1.5,6.81-2.49s5-1.94,6.73-2.62C200.55,185.1,201.5,184.74,202.48,184.42Z"/><path class="cls-2" d="M148.44,177.09c-.58.19-1,.56-1,1a1.36,1.36,0,0,0,1.08,1,3.75,3.75,0,0,0,2.12.16c1-.31,1.5-1.05,1.1-1.67a3.66,3.66,0,0,0-3.3-.44"/><path class="cls-2" d="M174.78,166c-.58.18-1,.55-1,.94a1.34,1.34,0,0,0,1.07,1,3.64,3.64,0,0,0,2.06.17c1-.3,1.48-1,1.09-1.63h0a3.49,3.49,0,0,0-3.22-.44"/><path class="cls-2" d="M195.71,174.33a1.28,1.28,0,0,0-1,.94,1.4,1.4,0,0,0,1.08,1,3.73,3.73,0,0,0,2.06.16c1-.3,1.48-1,1.09-1.63h0a3.46,3.46,0,0,0-3.22-.45"/><path class="cls-2" d="M165.39,174.23c-.4.12-.66.37-.68.64s.32.55.74.68a2.68,2.68,0,0,0,1.42.11c.69-.2,1-.7.79-1.12h0a2.45,2.45,0,0,0-2.23-.3"/><path class="cls-2" d="M199.52,180.28a.87.87,0,0,0-.69.64,1,1,0,0,0,.74.68,2.69,2.69,0,0,0,1.42.11c.69-.2,1-.7.79-1.12h0a2.45,2.45,0,0,0-2.23-.3"/><path class="cls-2" d="M201.46,183.57c-.39.12-.66.37-.68.64a.92.92,0,0,0,.73.67,2.45,2.45,0,0,0,1.43.12c.68-.21,1-.71.75-1.12h0a2.43,2.43,0,0,0-2.22-.3"/><path class="cls-2" d="M159.4,179.29a.87.87,0,0,0-.69.64,1,1,0,0,0,.74.68,2.5,2.5,0,0,0,1.42.11c.7-.2,1-.71.79-1.13h0a2.45,2.45,0,0,0-2.23-.3"/><path class="cls-2" d="M184.5,171.11c-.4.13-.66.38-.68.65a.93.93,0,0,0,.74.67,2.49,2.49,0,0,0,1.42.11c.69-.19,1-.69.79-1.12h0a2.45,2.45,0,0,0-2.23-.3"/><path class="cls-3" d="M152.45,205.37c3.06,1.85,6.81.19,11.15.53,3.93.31,8,2.82,11.71,1.71,5.68-1.68,11.22-4.51,12.67-8.31,1.16-3-.63-6.19-3.86-8.33s-7.78-3.35-12.46-4a42.56,42.56,0,0,0-14.11.14c-4.64.91-9,2.94-11,5.78s-.39,9,5.94,12.48"/><path class="cls-8" d="M152.45,205.37c3.06,1.85,6.81.19,11.15.53,3.93.31,8,2.82,11.71,1.71,5.68-1.68,11.22-4.51,12.67-8.31,1.16-3-.63-6.19-3.86-8.33s-7.78-3.35-12.46-4a42.56,42.56,0,0,0-14.11.14c-4.64.91-9,2.94-11,5.78s-.39,9,5.94,12.48"/></g></g></g></svg>