<?xml version="1.0" encoding="UTF-8"?>
<svg xmlns="http://www.w3.org/2000/svg" xmlns:xlink="http://www.w3.org/1999/xlink" width="40pt" height="40pt" viewBox="0 0 40 40" version="1.1">
<g id="surface1">
<path style=" stroke:none;fill-rule:nonzero;fill:rgb(38.431373%,32.156863%,25.098039%);fill-opacity:1;" d="M 40 20 C 40 31.046875 31.046875 40 20 40 C 8.953125 40 0 31.046875 0 20 C 0 8.953125 8.953125 0 20 0 C 31.046875 0 40 8.953125 40 20 Z M 40 20 "/>
<path style=" stroke:none;fill-rule:nonzero;fill:rgb(100%,100%,100%);fill-opacity:1;" d="M 28.726562 30.316406 C 28.683594 30.046875 28.636719 29.773438 28.5 29.5 C 28.410156 29.273438 28.273438 29.089844 28.046875 28.953125 C 27.863281 28.816406 27.636719 28.726562 27.363281 28.726562 L 23.546875 28.726562 L 23.546875 7.183594 C 23.546875 6.683594 23.226562 6.273438 22.726562 6.136719 C 22.453125 6.046875 22.183594 6 21.863281 6 C 21.546875 6 21.136719 5.953125 20.546875 5.953125 C 20.089844 5.953125 19.773438 5.953125 19.5 5.953125 C 19.226562 5.953125 19 6 18.816406 6 C 18.636719 6 18.453125 6.046875 18.316406 6.089844 C 18.183594 6.136719 18.046875 6.226562 17.910156 6.273438 L 12.183594 10 C 12 10.089844 11.863281 10.226562 11.726562 10.363281 C 11.589844 10.546875 11.453125 10.726562 11.363281 10.953125 C 11.273438 11.183594 11.226562 11.410156 11.226562 11.636719 C 11.226562 11.863281 11.226562 12.136719 11.226562 12.5 C 11.226562 12.953125 11.226562 13.363281 11.316406 13.816406 C 11.363281 14.226562 11.5 14.5 11.683594 14.726562 C 11.910156 14.953125 12.273438 15.089844 12.636719 15 C 12.953125 14.910156 13.273438 14.816406 13.546875 14.683594 L 13.589844 14.683594 L 17.089844 12.773438 L 17.089844 23 C 17.089844 22.683594 17.316406 22.453125 17.636719 22.453125 C 17.953125 22.453125 18.183594 22.683594 18.183594 23 L 18.183594 11.863281 C 18.183594 11.683594 18.089844 11.5 17.910156 11.410156 C 17.726562 11.316406 17.546875 11.316406 17.363281 11.410156 L 13.089844 13.773438 C 12.910156 13.863281 12.683594 13.953125 12.5 14 C 12.453125 13.910156 12.453125 13.816406 12.410156 13.726562 C 12.363281 13.363281 12.363281 12.953125 12.363281 12.589844 C 12.363281 12.273438 12.363281 12 12.363281 11.816406 C 12.363281 11.683594 12.410156 11.546875 12.453125 11.453125 C 12.453125 11.453125 12.453125 11.453125 12.453125 11.410156 C 12.453125 11.363281 12.5 11.316406 12.546875 11.273438 C 12.636719 11.183594 12.726562 11.089844 12.816406 11.046875 L 18.546875 7.273438 L 18.589844 7.226562 C 18.636719 7.226562 18.636719 7.183594 18.683594 7.183594 C 18.773438 7.136719 18.863281 7.136719 19 7.136719 C 19.136719 7.136719 19.363281 7.089844 19.589844 7.089844 C 19.816406 7.089844 20.183594 7.089844 20.636719 7.089844 C 21.183594 7.089844 21.589844 7.089844 21.863281 7.136719 C 22.046875 7.136719 22.273438 7.183594 22.453125 7.226562 L 22.5 7.226562 L 22.5 29.273438 C 22.5 29.589844 22.726562 29.816406 23.046875 29.816406 L 27.410156 29.816406 C 27.453125 29.863281 27.5 29.910156 27.5 29.953125 C 27.546875 30.089844 27.589844 30.273438 27.636719 30.453125 C 27.683594 30.773438 27.683594 31.089844 27.683594 31.410156 C 27.683594 31.726562 27.683594 32 27.636719 32.316406 C 27.636719 32.5 27.589844 32.636719 27.5 32.816406 C 27.5 32.816406 27.5 32.816406 27.5 32.863281 C 27.5 32.910156 27.453125 32.953125 27.453125 32.953125 L 12.636719 32.953125 C 12.589844 32.910156 12.589844 32.863281 12.546875 32.816406 C 12.5 32.683594 12.453125 32.5 12.410156 32.316406 C 12.363281 32 12.363281 31.726562 12.363281 31.410156 C 12.363281 31.089844 12.363281 30.773438 12.410156 30.5 C 12.410156 30.316406 12.453125 30.183594 12.546875 30 C 12.589844 29.953125 12.589844 29.910156 12.636719 29.863281 L 17.636719 29.863281 C 17.953125 29.863281 18.183594 29.636719 18.183594 29.316406 L 18.183594 23.046875 C 18.183594 22.726562 17.953125 22.5 17.636719 22.5 C 17.316406 22.5 17.089844 22.726562 17.089844 23.046875 L 17.089844 28.726562 L 12.636719 28.726562 C 12.410156 28.726562 12.136719 28.816406 11.953125 28.953125 C 11.773438 29.089844 11.636719 29.273438 11.546875 29.5 C 11.453125 29.773438 11.363281 30.046875 11.316406 30.316406 C 11.273438 30.683594 11.273438 31.046875 11.273438 31.410156 C 11.273438 31.773438 11.273438 32.136719 11.363281 32.453125 C 11.410156 32.726562 11.453125 33 11.589844 33.273438 C 11.683594 33.5 11.816406 33.683594 12 33.816406 C 12.183594 33.953125 12.410156 34 12.636719 34.046875 L 27.410156 34.046875 C 27.636719 34.046875 27.863281 33.953125 28.046875 33.816406 C 28.226562 33.683594 28.410156 33.5 28.5 33.273438 C 28.589844 33.046875 28.683594 32.773438 28.726562 32.5 C 28.773438 32.136719 28.816406 31.773438 28.816406 31.453125 C 28.773438 31.046875 28.773438 30.683594 28.726562 30.316406 Z M 28.726562 30.316406 "/>
<path style=" stroke:none;fill-rule:nonzero;fill:rgb(96.078431%,92.156863%,89.803922%);fill-opacity:1;" d="M 17.589844 21.136719 C 17.910156 21.136719 18.136719 20.910156 18.136719 20.589844 C 18.136719 20.273438 17.910156 20.046875 17.589844 20.046875 C 17.273438 20.046875 17.046875 20.273438 17.046875 20.589844 C 17.046875 20.863281 17.316406 21.136719 17.589844 21.136719 Z M 17.589844 21.136719 "/>
</g>
</svg>
